<svg xmlns="http://www.w3.org/2000/svg" width="96" height="96" viewBox="0 0 96 96">
  <defs>
    <linearGradient id="sky1" x1="0" y1="0" x2="0" y2="1">
      <stop offset="0" stop-color="#1a2f5e"/><stop offset="1" stop-color="#0d1b3d"/>
    </linearGradient>
    <linearGradient id="pitch1" x1="0" y1="0" x2="0" y2="1">
      <stop offset="0" stop-color="#5e9153"/><stop offset="1" stop-color="#487341"/>
    </linearGradient>
    <radialGradient id="glow1" cx=".5" cy=".4" r=".6">
      <stop offset="0" stop-color="#fff8dc" stop-opacity=".5"/><stop offset="1" stop-color="#fff8dc" stop-opacity="0"/>
    </radialGradient>
  </defs>
  <rect width="96" height="96" rx="18" fill="url(#sky1)"/>
  <path d="M10 20h10l3 6h-10zM76 20h10l-3 6h-10z" fill="#3a4666"/>
  <circle cx="15" cy="19" r="3" fill="#ffe9a8"/><circle cx="81" cy="19" r="3" fill="#ffe9a8"/>
  <ellipse cx="48" cy="66" rx="34" ry="10" fill="url(#glow1)"/>
  <path d="M6 64h84v14a16 16 0 0 1-16 16h-52a16 16 0 0 1-16-16z" fill="url(#pitch1)"/>
  <path d="M12 70h72M22 78h52" stroke="#548549" stroke-width="1.6"/>
  <g>
    <path d="M56 30h24v26" fill="none" stroke="#e8edf5" stroke-width="2.6"/>
    <path d="M58 34h20M58 40h20M58 46h20M62 30v24M68 30v25M74 30v26" stroke="#9aa9c4" stroke-width=".9" opacity=".85"/>
  </g>
  <circle cx="42" cy="60" r="7.5" fill="#fff" stroke="#c3cddf"/>
  <path d="M42 56.6l3.2 2.3-1.2 3.8h-4l-1.2-3.8z" fill="#2b3a55"/>
  <path d="M42 56.6v-4.4M45.2 58.9l4-1.4M38.8 58.9l-4-1.4" stroke="#2b3a55" stroke-width="1.2"/>
  <path d="M26 52l-5-3M28 44l-4-4M34 39l-2.6-4.6" stroke="#9db8e8" stroke-width="2.2" stroke-linecap="round"/>
  <path d="M14 34l1.8 3.7 4 .6-2.9 2.8.7 4-3.6-1.9-3.6 1.9.7-4-2.9-2.8 4-.6z" fill="#ffd75e"/>
  <g fill="#101c38">
    <path d="M8 86c2-6 6-6 7 0l1 4h-10z"/>
    <path d="M80 86c2-6 6-6 7 0l1 4h-10z"/>
  </g>
</svg>
