<svg xmlns="http://www.w3.org/2000/svg" width="96" height="96" viewBox="0 0 96 96" role="img" aria-label="マイクと喝采">
  <rect width="96" height="96" rx="18" fill="#e9f1fc"/>
  <path d="M28 14l3 6 6 1-4.5 4 1 6-5.5-3-5.5 3 1-6-4.5-4 6-1z" fill="#f6c445"/>
  <path d="M74 24l2 4 4 1-3 3 .7 4-3.7-2-3.7 2 .7-4-3-3 4-1z" fill="#f6c445"/>
  <path d="M20 46l2 4 4 1-3 3 .7 4-3.7-2-3.7 2 .7-4-3-3 4-1z" fill="#f6c445"/>
  <circle cx="52" cy="40" r="15" fill="#2b3a55"/>
  <path d="M40 40h24M52 28v24M43.5 31.5l17 17M60.5 31.5l-17 17" stroke="#4a5b7a" stroke-width="1.6"/>
  <path d="M49 54l-8 26h8l6-26z" fill="#0047ab"/>
  <rect x="38" y="78" width="24" height="5" rx="2.5" fill="#2b3a55"/>
</svg>
