<svg xmlns="http://www.w3.org/2000/svg" width="96" height="96" viewBox="0 0 96 96">
  <defs>
    <linearGradient id="bg2" x1="0" y1="0" x2="0" y2="1">
      <stop offset="0" stop-color="#fff2d8"/><stop offset="1" stop-color="#ffdda6"/>
    </linearGradient>
    <linearGradient id="ct2" x1="0" y1="0" x2="0" y2="1">
      <stop offset="0" stop-color="#b98a5a"/><stop offset="1" stop-color="#96693f"/>
    </linearGradient>
    <linearGradient id="pan2" x1="0" y1="0" x2="0" y2="1">
      <stop offset="0" stop-color="#f0b25e"/><stop offset="1" stop-color="#d78f35"/>
    </linearGradient>
  </defs>
  <rect width="96" height="96" rx="18" fill="url(#bg2)"/>
  <circle cx="76" cy="24" r="11" fill="#fff" stroke="#0047ab" stroke-width="3"/>
  <path d="M76 17.5v6.5l4.6 3" stroke="#e34d4d" stroke-width="2.6" fill="none" stroke-linecap="round"/>
  <circle cx="76" cy="24" r="1.6" fill="#0047ab"/>
  <path d="M30 28c-2.5 3-2.5 5 0 8M38 26c-2.5 3-2.5 5 0 8" stroke="#c9c2b4" stroke-width="2.4" fill="none" stroke-linecap="round" opacity=".9"/>
  <path d="M8 62h80v16a16 16 0 0 1-16 16h-48a16 16 0 0 1-16-16z" fill="url(#ct2)"/>
  <path d="M8 62h80" stroke="#8a5f36" stroke-width="1.6"/>
  <rect x="16" y="52" width="52" height="12" rx="6" fill="#e8edf5"/>
  <rect x="16" y="52" width="52" height="6" rx="3" fill="#f7fafd"/>
  <ellipse cx="30" cy="48" rx="11" ry="8" fill="url(#pan2)"/>
  <ellipse cx="30" cy="46.4" rx="11" ry="7.4" fill="#f3bd6e"/>
  <ellipse cx="52" cy="46" rx="11" ry="8" fill="url(#pan2)"/>
  <ellipse cx="52" cy="44.4" rx="11" ry="7.4" fill="#f3bd6e"/>
  <g fill="#fff">
    <circle cx="26" cy="45" r="1.3"/><circle cx="33" cy="47" r="1.3"/><circle cx="30" cy="43.4" r="1.3"/>
    <circle cx="48" cy="43" r="1.3"/><circle cx="55" cy="45" r="1.3"/><circle cx="52" cy="41.6" r="1.3"/>
  </g>
  <path d="M14 16l1.8 3.7 4 .6-2.9 2.8.7 4-3.6-1.9-3.6 1.9.7-4-2.9-2.8 4-.6z" fill="#ffd75e"/>
  <circle cx="52" cy="18" r="1.8" fill="#ffb15e"/>
</svg>
