<svg xmlns="http://www.w3.org/2000/svg" width="96" height="96" viewBox="0 0 96 96" role="img" aria-label="ビートボックスと数学">
  <rect width="96" height="96" rx="18" fill="#e9f1fc"/>
  <circle cx="32" cy="34" r="11" fill="#2b3a55"/>
  <path d="M23 34h18M32 25v18" stroke="#4a5b7a" stroke-width="1.4"/>
  <path d="M30 44l-5 18h7l4-18z" fill="#0047ab"/>
  <path d="M52 22c3 2 3 6 0 8s-3 6 0 8" stroke="#3b82f6" stroke-width="2.4" fill="none" stroke-linecap="round"/>
  <path d="M60 18c4 3 4 8 0 11s-4 8 0 11" stroke="#a8c8f0" stroke-width="2.4" fill="none" stroke-linecap="round"/>
  <rect x="50" y="56" width="32" height="24" rx="4" fill="#fff" stroke="#0047ab" stroke-width="2.5"/>
  <path d="M56 64h8M60 60v8M70 62h8M70 68h8M56 74h8M70 74h8" stroke="#ef6f6f" stroke-width="2.2" stroke-linecap="round"/>
</svg>
