<svg xmlns="http://www.w3.org/2000/svg" width="96" height="96" viewBox="0 0 96 96">
  <defs>
    <linearGradient id="bg3" x1="0" y1="0" x2="1" y2="1">
      <stop offset="0" stop-color="#22355f"/><stop offset=".5" stop-color="#2c4470"/><stop offset=".52" stop-color="#dfeafc"/><stop offset="1" stop-color="#c3d8f6"/>
    </linearGradient>
  </defs>
  <rect width="96" height="96" rx="18" fill="url(#bg3)"/>
  <g stroke-linecap="round">
    <path d="M14 24c3 2 3 6 0 8s-3 6 0 8" stroke="#9db8ff" stroke-width="2.2" fill="none"/>
    <path d="M24 14c4 2.5 4 7 0 9.5s-4 7 0 9.5" stroke="#6f8fe0" stroke-width="2.2" fill="none"/>
    <circle cx="12" cy="48" r="1.7" fill="#ffd75e"/>
  </g>
  <g>
    <rect x="64" y="56" width="24" height="17" rx="2.5" fill="#fff" stroke="#0047ab" stroke-width="2.2"/>
    <path d="M76 56v17" stroke="#0047ab" stroke-width="1.6"/>
    <path d="M68 61h5M68 66h5M79 61h5M79 66h5" stroke="#e34d4d" stroke-width="1.7" stroke-linecap="round"/>
    <rect x="70" y="30" width="4" height="16" rx="2" fill="#f2a83d" transform="rotate(30 72 38)"/>
    <path d="M79 46l3 5-5-1z" fill="#3d2b1f" transform="rotate(8 79 48)"/>
  </g>
  <g>
    <path d="M34 66c0-8 7-12 14-12s14 4 14 12v14c-9 3-19 3-28 0z" fill="#0047ab"/>
    <path d="M43 60h10v8h-10z" fill="#f2c9a4"/>
    <circle cx="48" cy="50" r="10" fill="#f2c9a4"/>
    <path d="M37.5 48c1.5-8 19.5-8 21 0l-2.5-1c.5 1.5.5 2.5.5 2.5-6-3.5-13-3.5-17.5-1z" fill="#2b2118"/>
    <path d="M36 44h24l-3-5h-18z" fill="#0a3f8f"/>
    <path d="M36 44h24" stroke="#062f6e" stroke-width="1.4"/>
    <circle cx="44.5" cy="51.5" r="1" fill="#2b1d12"/><circle cx="51.5" cy="51.5" r="1" fill="#2b1d12"/>
    <path d="M45.5 56a3.4 3.4 0 0 0 5 0" stroke="#b06e4a" stroke-width="1.1" fill="none" stroke-linecap="round"/>
    <circle cx="41.8" cy="54.4" r="1.3" fill="#f0a08a" opacity=".7"/><circle cx="54.2" cy="54.4" r="1.3" fill="#f0a08a" opacity=".7"/>
  </g>
  <g>
    <rect x="27" y="62" width="5.6" height="9" rx="2.6" fill="#39445c" transform="rotate(18 30 66)"/>
    <circle cx="28.6" cy="60.5" r="4.4" fill="#39445c"/>
    <path d="M25.5 59h6.2M25.7 61.6h5.8" stroke="#5a6880" stroke-width=".9"/>
    <path d="M35 62c2.5-1.5 5-2.5 7.5-3" stroke="#f2c9a4" stroke-width="3.4" fill="none" stroke-linecap="round"/>
  </g>
</svg>
