<svg xmlns="http://www.w3.org/2000/svg" width="96" height="96" viewBox="0 0 96 96">
  <defs>
    <linearGradient id="bg5" x1="0" y1="0" x2="0" y2="1">
      <stop offset="0" stop-color="#ffb36b"/><stop offset=".55" stop-color="#e77e6a"/><stop offset="1" stop-color="#5a4f9e"/>
    </linearGradient>
    <linearGradient id="fl5" x1="0" y1="0" x2="1" y2="0">
      <stop offset="0" stop-color="#0a58c8"/><stop offset="1" stop-color="#003a8c"/>
    </linearGradient>
    <radialGradient id="sun5" cx=".5" cy=".5" r=".5">
      <stop offset="0" stop-color="#fff0b3"/><stop offset="1" stop-color="#fff0b3" stop-opacity="0"/>
    </radialGradient>
  </defs>
  <rect width="96" height="96" rx="18" fill="url(#bg5)"/>
  <circle cx="78" cy="28" r="17" fill="url(#sun5)"/>
  <circle cx="78" cy="28" r="7" fill="#ffdd88"/>
  <rect x="20" y="10" width="3.4" height="68" rx="1.7" fill="#3a3f55"/>
  <path d="M23.4 14 C 34 10, 46 18, 56 14 S 70 12, 70 12 L 70 34 C 60 38, 48 30, 38 34 S 23.4 36, 23.4 36 Z" fill="url(#fl5)"/>
  <path d="M32 20l2 4.1 4.5.7-3.3 3.2.8 4.5-4-2.1-4 2.1.8-4.5-3.3-3.2 4.5-.7z" fill="#fff"/>
  <path d="M52 20c4 1.2 8 .6 12-1" stroke="#7db4ff" stroke-width="2" fill="none" stroke-linecap="round" opacity=".85"/>
  <g fill="#20264a">
    <path d="M8 84c1-8 5-14 9-14s8 6 9 14z"/>
    <path d="M26 86c1-7 4-12 8-12s7 5 8 12z"/>
    <path d="M42 85c1-8 5-13 9-13s8 5 9 13z"/>
    <path d="M60 86c1-7 4-12 8-12s7 5 8 12z"/>
    <path d="M76 84c1-8 5-13 9-13s8 5 9 13h-18z"/>
  </g>
  <path d="M14 66l1-4M32 68l1-4M50 66l1-4M68 68l1-4M84 66l1-4" stroke="#20264a" stroke-width="3" stroke-linecap="round"/>
  <g stroke-linecap="round">
    <path d="M60 44c3 2 3 6 0 8s-3 6 0 8" stroke="#fff" stroke-width="2.2" fill="none" opacity=".95"/>
    <path d="M76 48c2.4 1.6 2.4 4.8 0 6.4s-2.4 4.8 0 6.4" stroke="#ffe9a8" stroke-width="2" fill="none"/>
    <circle cx="52" cy="58" r="1.7" fill="#fff"/>
  </g>
</svg>
