<svg xmlns="http://www.w3.org/2000/svg" width="96" height="96" viewBox="0 0 96 96" role="img" aria-label="応援旗と歌声">
  <rect width="96" height="96" rx="18" fill="#e9f1fc"/>
  <rect x="24" y="14" width="4" height="68" rx="2" fill="#2b3a55"/>
  <path d="M28 18h44c-6 6-6 12 0 18h-44z" fill="#0047ab"/>
  <path d="M36 24l1.5 3 3.5.5-2.5 2.5.6 3.4-3.1-1.6-3.1 1.6.6-3.4-2.5-2.5 3.5-.5z" fill="#fff"/>
  <path d="M60 52c3 2 3 6 0 8s-3 6 0 8" stroke="#3b82f6" stroke-width="2.4" fill="none" stroke-linecap="round"/>
  <path d="M70 48c4 3 4 8 0 11s-4 8 0 11" stroke="#a8c8f0" stroke-width="2.4" fill="none" stroke-linecap="round"/>
  <circle cx="80" cy="70" r="2.5" fill="#f6c445"/>
</svg>
