<svg xmlns="http://www.w3.org/2000/svg" width="96" height="96" viewBox="0 0 96 96">
  <defs>
    <linearGradient id="bg6" x1="0" y1="0" x2="0" y2="1">
      <stop offset="0" stop-color="#1f3060"/><stop offset="1" stop-color="#141f42"/>
    </linearGradient>
    <radialGradient id="lamp6" cx=".5" cy=".5" r=".5">
      <stop offset="0" stop-color="#ffe9a8" stop-opacity=".9"/><stop offset="1" stop-color="#ffe9a8" stop-opacity="0"/>
    </radialGradient>
    <linearGradient id="dsk6" x1="0" y1="0" x2="0" y2="1">
      <stop offset="0" stop-color="#b98a5a"/><stop offset="1" stop-color="#96693f"/>
    </linearGradient>
  </defs>
  <rect width="96" height="96" rx="18" fill="url(#bg6)"/>
  <circle cx="20" cy="20" r="16" fill="url(#lamp6)"/>
  <path d="M20 10a7 7 0 0 1 7 7l-14 0a7 7 0 0 1 7-7z" fill="#f2a83d"/>
  <rect x="18.8" y="17" width="2.4" height="10" fill="#5a4632"/>
  <g>
    <circle cx="56" cy="38" r="9.5" fill="#f2c9a4"/>
    <path d="M46 36c1.5-8 18-8 20 0 0 0-1-.8-2.6-1.4l.6 2.4c-5.5-3-11.5-3-15.5-.6z" fill="#3d2b1f"/>
    <circle cx="52.8" cy="39" r="1" fill="#2b1d12"/><circle cx="59.2" cy="39" r="1" fill="#2b1d12"/>
    <path d="M53.6 43a3.6 3.6 0 0 0 4.8 0" stroke="#b06e4a" stroke-width="1.1" fill="none" stroke-linecap="round"/>
    <circle cx="50.4" cy="41.6" r="1.3" fill="#f0a08a" opacity=".75"/><circle cx="61.6" cy="41.6" r="1.3" fill="#f0a08a" opacity=".75"/>
    <path d="M46 56c0-6 4.5-9 10-9s10 3 10 9v6h-20z" fill="#2b6bd8"/>
    <path d="M50 56c3-2 4-5 4-5" stroke="#f2c9a4" stroke-width="3.2" fill="none" stroke-linecap="round"/>
  </g>
  <path d="M8 62h80v16a16 16 0 0 1-16 16h-48a16 16 0 0 1-16-16z" fill="url(#dsk6)"/>
  <path d="M8 62h80" stroke="#8a5f36" stroke-width="1.4"/>
  <g transform="rotate(-6 40 70)">
    <rect x="26" y="64" width="26" height="17" rx="2" fill="#fdfaf2"/>
    <path d="M30 69h18M30 73h18M30 77h12" stroke="#b9c3d6" stroke-width="1.5" stroke-linecap="round"/>
    <path d="M46 76c1.6-2.3 4.6-2.3 4.9.3.3-2.6 3.3-2.6 4.9-.3 1.1 1.7-1.5 4-4.9 6-3.4-2-6-4.3-4.9-6z" fill="#ef6f6f" transform="translate(-8,-9) scale(.72)"/>
  </g>
  <rect x="58" y="66" width="3" height="13" rx="1.5" fill="#f2a83d" transform="rotate(24 59 72)"/>
  <path d="M64 80l2.6 4-4.4-.9z" fill="#3d2b1f" transform="rotate(24 64 82)"/>
  <circle cx="76" cy="70" r="4" fill="#e8edf5"/><circle cx="82" cy="74" r="3" fill="#dde4ef"/>
  <path d="M84 14l1.6 3.3 3.6.5-2.6 2.5.6 3.6-3.2-1.7-3.2 1.7.6-3.6-2.6-2.5 3.6-.5z" fill="#ffd75e"/>
</svg>
