<svg xmlns="http://www.w3.org/2000/svg" width="96" height="96" viewBox="0 0 96 96" role="img" aria-label="お化け屋敷づくり">
  <rect width="96" height="96" rx="18" fill="#e9f1fc"/>
  <path d="M20 46l24-20 24 20v32h-48z" fill="#2b3a55"/>
  <rect x="38" y="60" width="12" height="18" rx="2" fill="#0047ab"/>
  <rect x="26" y="50" width="9" height="9" rx="1.5" fill="#f6c445"/>
  <rect x="53" y="50" width="9" height="9" rx="1.5" fill="#f6c445"/>
  <path d="M62 30c0-7 5-12 11-12s11 5 11 12v22c-2-2-4-2-5.5 0-1.5 2-4 2-5.5 0s-4-2-5.5 0c-1.5 2-4 2-5.5 0z" fill="#fff"/>
  <circle cx="70" cy="30" r="2" fill="#2b3a55"/><circle cx="78" cy="30" r="2" fill="#2b3a55"/>
  <path d="M71 37c2 1.5 4 1.5 6 0" stroke="#2b3a55" stroke-width="1.8" fill="none" stroke-linecap="round"/>
</svg>
