<svg xmlns="http://www.w3.org/2000/svg" width="96" height="96" viewBox="0 0 96 96">
  <defs>
    <linearGradient id="bg7" x1="0" y1="0" x2="0" y2="1">
      <stop offset="0" stop-color="#3a2f68"/><stop offset="1" stop-color="#1c1740"/>
    </linearGradient>
    <linearGradient id="hs7" x1="0" y1="0" x2="0" y2="1">
      <stop offset="0" stop-color="#3b4666"/><stop offset="1" stop-color="#2b3450"/>
    </linearGradient>
  </defs>
  <rect width="96" height="96" rx="18" fill="url(#bg7)"/>
  <path d="M74 12a11 11 0 1 0 8 18 12 12 0 0 1-8-18z" fill="#ffe9a8"/>
  <circle cx="16" cy="18" r="1.5" fill="#fff"/><circle cx="34" cy="12" r="1.2" fill="#fff"/><circle cx="56" cy="16" r="1.2" fill="#fff"/>
  <path d="M14 84v-30l14-14 4 4 6-8 22 20v28z" fill="url(#hs7)"/>
  <path d="M10 56l18-18 4 4 8-10 26 24" stroke="#151b30" stroke-width="4" fill="none" stroke-linecap="round" stroke-linejoin="round"/>
  <g fill="#ffb84d">
    <rect x="22" y="60" width="9" height="9" rx="1.5"/>
    <rect x="48" y="58" width="9" height="9" rx="1.5"/>
  </g>
  <path d="M26.5 60v9M22 64.5h9M52.5 58v9M48 62.5h9" stroke="#8a5f2a" stroke-width="1.2"/>
  <rect x="35" y="70" width="10" height="14" rx="2" fill="#151b30"/>
  <g>
    <path d="M62 62c0-6.5 4.5-10.5 10-10.5s10 4 10 10.5v16c-1.8-1.8-3.6-1.8-5 0-1.4 1.8-3.6 1.8-5 0s-3.6-1.8-5 0-3.6 1.8-5 0z" fill="#f4f7fc"/>
    <circle cx="69" cy="61" r="1.7" fill="#2b3450"/><circle cx="76" cy="61" r="1.7" fill="#2b3450"/>
    <path d="M70 66c1.6 1.3 3.4 1.3 5 0" stroke="#2b3450" stroke-width="1.5" fill="none" stroke-linecap="round"/>
    <circle cx="66.6" cy="64" r="1.2" fill="#f0a08a" opacity=".6"/><circle cx="78.4" cy="64" r="1.2" fill="#f0a08a" opacity=".6"/>
  </g>
  <g>
    <rect x="8" y="74" width="10" height="9" rx="1.6" fill="#c9d3e4"/>
    <path d="M9 74a4 4 0 0 1 8 0" stroke="#8fa0bd" stroke-width="1.6" fill="none"/>
    <rect x="17" y="60" width="3" height="16" rx="1.5" fill="#f2a83d" transform="rotate(20 18 68)"/>
    <path d="M23.5 74.5c1.8.6 2.6 2.8 1.2 4.6l-5-1.2z" fill="#ef6f6f"/>
  </g>
</svg>
