<svg xmlns="http://www.w3.org/2000/svg" width="96" height="96" viewBox="0 0 96 96">
  <defs>
    <linearGradient id="bg8" x1="0" y1="0" x2="0" y2="1">
      <stop offset="0" stop-color="#5a6b8f"/><stop offset="1" stop-color="#39466a"/>
    </linearGradient>
    <linearGradient id="gym8" x1="0" y1="0" x2="0" y2="1">
      <stop offset="0" stop-color="#e8ddc8"/><stop offset="1" stop-color="#cbbc9e"/>
    </linearGradient>
  </defs>
  <rect width="96" height="96" rx="18" fill="url(#bg8)"/>
  <g fill="#c3cddf">
    <path d="M30 26a9 9 0 0 1 1.6-17.8A12 12 0 0 1 53 5.4 8 8 0 0 1 57.5 21z"/>
    <path d="M66 30a7 7 0 0 1 1.4-13.8 9 9 0 0 1 16.6-2.2A6 6 0 0 1 87 25.5z" opacity=".85"/>
  </g>
  <g stroke="#9db8e8" stroke-width="2.6" stroke-linecap="round">
    <path d="M26 32l-3 7M36 34l-3 7M46 30l-3 7M56 33l-3 7M68 36l-3 7M78 34l-3 7"/>
    <path d="M20 44l-2.4 5.6M32 46l-2.4 5.6M62 48l-2.4 5.6" opacity=".7"/>
  </g>
  <path d="M12 60l24-15 24 15v26h-48z" fill="url(#gym8)"/>
  <path d="M8 60l28-18 28 18" stroke="#8a5f36" stroke-width="4.5" fill="none" stroke-linecap="round" stroke-linejoin="round"/>
  <rect x="20" y="62" width="9" height="8" rx="1.4" fill="#ffca5e"/>
  <rect x="43" y="62" width="9" height="8" rx="1.4" fill="#ffca5e"/>
  <rect x="30" y="70" width="12" height="16" rx="2" fill="#7a532f"/>
  <path d="M36 70v16" stroke="#5f3f22" stroke-width="1.4"/>
  <ellipse cx="72" cy="84" rx="14" ry="3.6" fill="#2c3757"/>
  <ellipse cx="72" cy="83" rx="14" ry="3.2" fill="#7d95bd" opacity=".8"/>
  <path d="M66 82c2 1.4 4 1.4 6 0" stroke="#c3d4ef" stroke-width="1.2" fill="none" opacity=".8"/>
</svg>
