<svg xmlns="http://www.w3.org/2000/svg" width="96" height="96" viewBox="0 0 96 96" role="img" aria-label="雨のため体育館へ">
  <rect width="96" height="96" rx="18" fill="#e9f1fc"/>
  <path d="M22 34a10 10 0 0 1 2-19 13 13 0 0 1 24-3 9 9 0 0 1 5 17z" fill="#7d95bd"/>
  <path d="M22 40l-3 8M32 40l-3 8M42 40l-3 8" stroke="#3b82f6" stroke-width="3" stroke-linecap="round"/>
  <path d="M26 62h20M42 54l8 8-8 8" stroke="#0047ab" stroke-width="3.5" fill="none" stroke-linecap="round" stroke-linejoin="round"/>
  <path d="M56 58l16-12 16 12v22h-32z" fill="#0047ab"/>
  <rect x="66" y="66" width="12" height="14" rx="2" fill="#fff"/>
</svg>
