<svg xmlns="http://www.w3.org/2000/svg" width="96" height="96" viewBox="0 0 96 96">
  <defs>
    <linearGradient id="bg9" x1="0" y1="0" x2="0" y2="1">
      <stop offset="0" stop-color="#1a2f5e"/><stop offset="1" stop-color="#0d1b3d"/>
    </linearGradient>
    <linearGradient id="spot9" x1="0" y1="0" x2="0" y2="1">
      <stop offset="0" stop-color="#fff8dc" stop-opacity=".7"/><stop offset="1" stop-color="#fff8dc" stop-opacity=".05"/>
    </linearGradient>
  </defs>
  <rect width="96" height="96" rx="18" fill="url(#bg9)"/>
  <path d="M36 0h24l12 62h-48z" fill="url(#spot9)"/>
  <g>
    <circle cx="48" cy="40" r="13" fill="#f2c9a4"/>
    <path d="M34.5 37c2-10 25-10 27 0l-3.5-1.5c-7-4-13-4-20 0z" fill="#8f8f96"/>
    <circle cx="42.5" cy="40" r="4.6" fill="#fff" stroke="#2b3a55" stroke-width="1.8"/>
    <circle cx="53.5" cy="40" r="4.6" fill="#fff" stroke="#2b3a55" stroke-width="1.8"/>
    <path d="M47.1 40h1.8" stroke="#2b3a55" stroke-width="1.8"/>
    <circle cx="42.5" cy="40.6" r="1.1" fill="#2b1d12"/><circle cx="53.5" cy="40.6" r="1.1" fill="#2b1d12"/>
    <path d="M42 47.5c2 1.6 4 2.2 6 2.2s4-.6 6-2.2c-1-3-11-3-12 0z" fill="#6e6e76"/>
    <path d="M44 52.5a6 6 0 0 0 8 0" stroke="#b06e4a" stroke-width="1.4" fill="none" stroke-linecap="round"/>
    <path d="M40 56c-3 2-5.5 5.5-5.5 10v8c9 3.5 18 3.5 27 0v-8c0-4.5-2.5-8-5.5-10z" fill="#42506e"/>
    <path d="M43 58l5 4 5-4" stroke="#e8edf5" stroke-width="2" fill="none" stroke-linecap="round" stroke-linejoin="round"/>
  </g>
  <g stroke="#ffd75e" stroke-width="2.4" stroke-linecap="round">
    <path d="M16 40l5 2M14 50h6M18 60l5-2"/>
    <path d="M80 40l-5 2M82 50h-6M78 60l-5-2"/>
  </g>
  <g fill="#ff8f6b">
    <rect x="24" y="14" width="3" height="6" rx="1.5" transform="rotate(28 25 17)"/>
    <rect x="70" y="18" width="3" height="6" rx="1.5" transform="rotate(-24 71 21)"/>
  </g>
  <path d="M56 12l1.8 3.7 4 .6-2.9 2.8.7 4-3.6-1.9-3.6 1.9.7-4-2.9-2.8 4-.6z" fill="#ffd75e"/>
  <circle cx="36" cy="22" r="1.7" fill="#6bd0ff"/>
</svg>
