<svg xmlns="http://www.w3.org/2000/svg" width="96" height="96" viewBox="0 0 96 96" role="img" aria-label="モノマネで大爆笑">
  <rect width="96" height="96" rx="18" fill="#e9f1fc"/>
  <circle cx="48" cy="46" r="22" fill="#f6c445"/>
  <path d="M38 40c2-3 6-3 8 0M58 40c-2-3-6-3-8 0" stroke="#2b3a55" stroke-width="2.6" fill="none" stroke-linecap="round" transform="translate(1,0)"/>
  <path d="M36 52c4 8 20 8 24 0z" fill="#2b3a55"/>
  <path d="M14 26l6 4M12 40h7M78 26l-6 4M84 40h-7" stroke="#ef6f6f" stroke-width="3" stroke-linecap="round"/>
  <path d="M22 74l4-6 5 5 5-7 5 7 5-5 5 7 5-7 5 5 4-6" stroke="#0047ab" stroke-width="3" fill="none" stroke-linecap="round" stroke-linejoin="round"/>
</svg>
