<svg xmlns="http://www.w3.org/2000/svg" width="96" height="96" viewBox="0 0 96 96">
  <defs>
    <linearGradient id="bg10" x1="0" y1="0" x2="0" y2="1">
      <stop offset="0" stop-color="#25204e"/><stop offset="1" stop-color="#141031"/>
    </linearGradient>
    <linearGradient id="spot10" x1="0" y1="0" x2="0" y2="1">
      <stop offset="0" stop-color="#ff9d9d" stop-opacity=".5"/><stop offset="1" stop-color="#ff9d9d" stop-opacity="0"/>
    </linearGradient>
    <linearGradient id="spot10b" x1="0" y1="0" x2="0" y2="1">
      <stop offset="0" stop-color="#8fb8ff" stop-opacity=".5"/><stop offset="1" stop-color="#8fb8ff" stop-opacity="0"/>
    </linearGradient>
    <linearGradient id="body10" x1="0" y1="0" x2="0" y2="1">
      <stop offset="0" stop-color="#e05555"/><stop offset="1" stop-color="#b23a3a"/>
    </linearGradient>
  </defs>
  <rect width="96" height="96" rx="18" fill="url(#bg10)"/>
  <path d="M10 0h14l16 70h-24z" fill="url(#spot10b)"/>
  <path d="M72 0h14l-8 70h-24z" fill="url(#spot10)"/>
  <path d="M6 78h84v2a16 16 0 0 1-16 14h-52a16 16 0 0 1-16-14z" fill="#2b2350"/>
  <g>
    <rect x="58" y="46" width="26" height="24" rx="3" fill="#3a3f55"/>
    <rect x="60.5" y="49" width="21" height="10" rx="1.6" fill="#23273a"/>
    <path d="M62 54h18" stroke="#4a5069" stroke-width="1.2"/>
    <circle cx="64" cy="64" r="2.2" fill="#ffd75e"/><circle cx="71" cy="64" r="2.2" fill="#c9d3e4"/><circle cx="78" cy="64" r="2.2" fill="#c9d3e4"/>
    <path d="M58 72c-4 3-6 6-6 6" stroke="#1c1839" stroke-width="2.4" fill="none" stroke-linecap="round"/>
  </g>
  <g transform="rotate(10 38 52)">
    <rect x="36" y="8" width="4.6" height="46" rx="2.3" fill="#8a5a36"/>
    <rect x="33.5" y="4" width="10" height="9" rx="2.5" fill="#2b2118"/>
    <circle cx="32.8" cy="6.5" r="1.5" fill="#c9d3e4"/><circle cx="32.8" cy="10.5" r="1.5" fill="#c9d3e4"/>
    <circle cx="44.6" cy="6.5" r="1.5" fill="#c9d3e4"/><circle cx="44.6" cy="10.5" r="1.5" fill="#c9d3e4"/>
    <path d="M38.5 46c-10-1-17 5-17 14 0 10 8 17 17 17 8 0 13-5 13-12 0-4-2-6.5-4-9-1.8-2.2-3.5-4-4-7-.3-2-2-2.8-5-3z" fill="url(#body10)"/>
    <circle cx="38" cy="64" r="5.5" fill="#1c1030"/>
    <circle cx="38" cy="64" r="2.4" fill="#c9d3e4"/>
    <path d="M37 14v46M39.4 14v46" stroke="#e8d9b5" stroke-width=".8"/>
    <path d="M27 60c1.5-1 3-1 4.5 0M45 70c1.5-1 3-1 4.5 0" stroke="#8a3030" stroke-width="1.4" fill="none"/>
  </g>
  <g stroke-linecap="round">
    <path d="M14 34c2.5 1.5 2.5 5 0 6.5s-2.5 5 0 6.5" stroke="#9db8ff" stroke-width="2" fill="none"/>
    <path d="M78 26c2.5 1.5 2.5 5 0 6.5s-2.5 5 0 6.5" stroke="#ff9d9d" stroke-width="2" fill="none"/>
    <circle cx="22" cy="22" r="1.6" fill="#ffd75e"/><circle cx="66" cy="34" r="1.4" fill="#ffd75e"/>
  </g>
</svg>
