<svg xmlns="http://www.w3.org/2000/svg" width="96" height="96" viewBox="0 0 96 96" role="img" aria-label="ベースギター">
  <rect width="96" height="96" rx="18" fill="#e9f1fc"/>
  <path d="M40 52c-9 0-15 6-15 14s6 16 16 16c9 0 14-6 14-13 0-3-1-5-2-7l-6-6c-3-3-4-4-7-4z" fill="#0047ab"/>
  <circle cx="41" cy="68" r="5" fill="#e9f1fc"/>
  <rect x="47" y="18" width="7" height="42" rx="3" transform="rotate(35 50 39)" fill="#8a5a44"/>
  <rect x="63" y="10" width="12" height="10" rx="3" transform="rotate(35 69 15)" fill="#2b3a55"/>
  <path d="M74 22c3 2 3 6 0 8" stroke="#3b82f6" stroke-width="2.2" fill="none" stroke-linecap="round"/>
  <circle cx="20" cy="26" r="2.5" fill="#f6c445"/>
</svg>
