<svg xmlns="http://www.w3.org/2000/svg" width="96" height="96" viewBox="0 0 96 96">
  <defs>
    <linearGradient id="bg11" x1="0" y1="0" x2="0" y2="1">
      <stop offset="0" stop-color="#6b7ca3"/><stop offset="1" stop-color="#485a85"/>
    </linearGradient>
    <linearGradient id="fl11" x1="0" y1="0" x2="1" y2="0">
      <stop offset="0" stop-color="#0a58c8"/><stop offset="1" stop-color="#0047ab"/>
    </linearGradient>
  </defs>
  <rect width="96" height="96" rx="18" fill="url(#bg11)"/>
  <g>
    <path d="M66 18a8 8 0 0 1 1.6-15.8 10.5 10.5 0 0 1 19.4-2.6A7 7 0 0 1 84.5 14z" fill="#c3cddf" transform="translate(0,8)"/>
    <path d="M68 28l-2.6 6M78 30l-2.6 6M86 26l-2.6 6" stroke="#9db8e8" stroke-width="2.6" stroke-linecap="round"/>
  </g>
  <path d="M6 80h84v2a15 15 0 0 1-15 12h-54a15 15 0 0 1-15-12z" fill="#3e4f78"/>
  <rect x="30" y="10" width="4" height="72" rx="2" fill="#3a3f55"/>
  <path d="M34 14h34c-2.6 3.8-1.4 7.6 1.6 10.4-3.4 5-8.4 3.4-11.8 6.8-5.8-2.6-10 1.6-15 -.8-3-1.4-6-1-8.8-.6z" fill="url(#fl11)"/>
  <path d="M41 19l1.7 3.5 3.8.6-2.8 2.7.7 3.8-3.4-1.8-3.4 1.8.7-3.8-2.8-2.7 3.8-.6z" fill="#fff"/>
  <g>
    <rect x="18" y="6" width="42" height="52" rx="9" fill="#dfe9f8" opacity=".38"/>
    <rect x="18" y="6" width="42" height="52" rx="9" fill="none" stroke="#eaf2ff" stroke-width="2.4" stroke-dasharray="7 6"/>
    <path d="M24 12c4-3 8-4 12-3.6" stroke="#fff" stroke-width="2.4" fill="none" stroke-linecap="round" opacity=".85"/>
  </g>
  <path d="M52 66c1.8 2.6.2 5.4-2 5.4s-3.8-2.8-2-5.4l2-2.8zM64 70c1.8 2.6.2 5.4-2 5.4s-3.8-2.8-2-5.4l2-2.8z" fill="#9dc1f5"/>
  <path d="M14 66c1.8 2.6.2 5.4-2 5.4s-3.8-2.8-2-5.4l2-2.8z" fill="#9dc1f5"/>
</svg>
