<svg xmlns="http://www.w3.org/2000/svg" width="96" height="96" viewBox="0 0 96 96" role="img" aria-label="挨拶されて固まる">
  <rect width="96" height="96" rx="18" fill="#e9f1fc"/>
  <path d="M12 22h32a6 6 0 0 1 6 6v8a6 6 0 0 1-6 6H26l-8 8v-8h-6a6 6 0 0 1-6-6v-8a6 6 0 0 1 6-6z" fill="#fff" stroke="#3b82f6" stroke-width="2.5" transform="translate(4,0)"/>
  <circle cx="27" cy="32" r="2.2" fill="#ef6f6f"/><circle cx="36" cy="32" r="2.2" fill="#ef6f6f"/><circle cx="45" cy="32" r="2.2" fill="#ef6f6f"/>
  <circle cx="66" cy="46" r="10" fill="#2b3a55"/>
  <rect x="56" y="58" width="20" height="24" rx="7" fill="#0047ab"/>
  <path d="M84 20v12M78 26h12M80 22l8 8M88 22l-8 8" stroke="#7db4e8" stroke-width="2.2" stroke-linecap="round"/>
</svg>
