<svg xmlns="http://www.w3.org/2000/svg" width="96" height="96" viewBox="0 0 96 96">
  <defs>
    <linearGradient id="bg13" x1="0" y1="0" x2="0" y2="1">
      <stop offset="0" stop-color="#dfeafc"/><stop offset="1" stop-color="#b8d1f2"/>
    </linearGradient>
    <linearGradient id="ice13" x1="0" y1="0" x2="0" y2="1">
      <stop offset="0" stop-color="#eaf6ff" stop-opacity=".85"/><stop offset="1" stop-color="#9cc8f0" stop-opacity=".8"/>
    </linearGradient>
  </defs>
  <rect width="96" height="96" rx="18" fill="url(#bg13)"/>
  <path d="M6 82h84v0a15 15 0 0 1-15 12h-54a15 15 0 0 1-15-12z" fill="#8fb0d8"/>
  <g>
    <circle cx="20" cy="38" r="7" fill="#f2c9a4"/>
    <path d="M12.6 36c1.2-6 13.6-6 14.8 0l-2-1c.4 1.2.4 2 .4 2-4.4-2.6-8.8-2.6-11.6-.4z" fill="#2b2118"/>
    <circle cx="17.6" cy="38.6" r=".9" fill="#2b1d12"/><circle cx="22.4" cy="38.6" r=".9" fill="#2b1d12"/>
    <path d="M18.4 41.6a3 3 0 0 0 3.2 0" stroke="#b06e4a" stroke-width="1" fill="none" stroke-linecap="round"/>
    <path d="M13 52c0-4.5 3.2-7 7-7s7 2.5 7 7v11c0 8-4 14-4 14h-6s-4-6-4-14z" fill="#2b6bd8"/>
    <path d="M26 50c3-1.6 5.4-4 6.6-6.4" stroke="#f2c9a4" stroke-width="3" fill="none" stroke-linecap="round"/>
  </g>
  <g>
    <circle cx="42" cy="40" r="6.4" fill="#f2c9a4"/>
    <path d="M35.4 39c0-6 12-6.6 13.2-.6 0 2.4-.8 3.4-.8 3.4l-.8-3c-2.6 1.4-7 1.4-8.8-.8l-1.6 3.4s-1.4-.4-1.2-2.4z" fill="#5a4632"/>
    <circle cx="48.4" cy="35" r="2.2" fill="#5a4632"/>
    <circle cx="40" cy="40.6" r=".9" fill="#2b1d12"/><circle cx="44.4" cy="40.6" r=".9" fill="#2b1d12"/>
    <path d="M40.8 43.4a3 3 0 0 0 3 0" stroke="#b06e4a" stroke-width="1" fill="none" stroke-linecap="round"/>
    <path d="M36 52c0-4 2.8-6.5 6-6.5s6 2.5 6 6.5v10c0 8-3 15-3 15h-6s-3-7-3-15z" fill="#ef6f6f"/>
  </g>
  <g>
    <path d="M20 22h20a5 5 0 0 1 5 5v5a5 5 0 0 1-5 5h-2v6l-7-6h-11a5 5 0 0 1-5-5v-5a5 5 0 0 1 5-5z" fill="#fff" stroke="#3b82f6" stroke-width="2"/>
    <circle cx="24" cy="29.5" r="1.5" fill="#3b82f6"/><circle cx="30" cy="29.5" r="1.5" fill="#3b82f6"/><circle cx="36" cy="29.5" r="1.5" fill="#3b82f6"/>
  </g>
  <g>
    <rect x="58" y="30" width="30" height="52" rx="7" fill="url(#ice13)" stroke="#cfe8ff" stroke-width="2"/>
    <path d="M62 36l6 8M84 74l-6-8" stroke="#fff" stroke-width="2" stroke-linecap="round" opacity=".9"/>
    <circle cx="73" cy="46" r="6" fill="#f2c9a4"/>
    <path d="M66.4 44.4c1-5.6 12.2-5.6 13.2 0l-1.8-.8c.4 1 .4 1.8.4 1.8-4-2.4-8-2.4-10.4-.4z" fill="#3d2b1f"/>
    <circle cx="70.8" cy="46.6" r=".9" fill="#2b1d12"/><circle cx="75.2" cy="46.6" r=".9" fill="#2b1d12"/>
    <path d="M71.4 50h3.2" stroke="#b06e4a" stroke-width="1.1" stroke-linecap="round"/>
    <path d="M67 60c0-3.8 2.6-6 6-6s6 2.2 6 6v9c0 5-2.5 9-2.5 9h-7s-2.5-4-2.5-9z" fill="#42506e"/>
    <path d="M88 22l0 8M84 26h8M85 23l6 6M91 23l-6 6" stroke="#7db4e8" stroke-width="1.8" stroke-linecap="round"/>
  </g>
</svg>
