<svg xmlns="http://www.w3.org/2000/svg" width="96" height="96" viewBox="0 0 96 96">
  <defs>
    <linearGradient id="bg15" x1="0" y1="0" x2="0" y2="1">
      <stop offset="0" stop-color="#1c2a55"/><stop offset="1" stop-color="#101a3a"/>
    </linearGradient>
    <linearGradient id="bus15" x1="0" y1="0" x2="0" y2="1">
      <stop offset="0" stop-color="#ffcf5e"/><stop offset="1" stop-color="#f2a83d"/>
    </linearGradient>
  </defs>
  <rect width="96" height="96" rx="18" fill="url(#bg15)"/>
  <path d="M80 10a9 9 0 1 0 7 15 10 10 0 0 1-7-15z" fill="#ffe9a8"/>
  <circle cx="14" cy="16" r="1.4" fill="#fff"/><circle cx="30" cy="10" r="1.1" fill="#fff"/><circle cx="58" cy="14" r="1.1" fill="#fff"/>
  <path d="M4 74h88v8a14 14 0 0 1-14 12h-60a14 14 0 0 1-14-12z" fill="#232c4e"/>
  <path d="M10 78h10M28 78h10M46 78h10M64 78h10M82 78h8" stroke="#4a5680" stroke-width="2.4" stroke-linecap="round"/>
  <g>
    <rect x="38" y="38" width="50" height="32" rx="7" fill="url(#bus15)"/>
    <rect x="43" y="43" width="11" height="10" rx="2" fill="#fff3c9"/>
    <rect x="58" y="43" width="11" height="10" rx="2" fill="#fff3c9"/>
    <rect x="73" y="43" width="10" height="15" rx="2" fill="#fff3c9"/>
    <path d="M38 58h50" stroke="#0047ab" stroke-width="3.4"/>
    <circle cx="50" cy="70" r="5.6" fill="#1c2038"/><circle cx="50" cy="70" r="2.2" fill="#8a93ad"/>
    <circle cx="76" cy="70" r="5.6" fill="#1c2038"/><circle cx="76" cy="70" r="2.2" fill="#8a93ad"/>
    <circle cx="86" cy="63" r="2" fill="#ffe9a8"/>
    <path d="M30 46h5M26 52h7M30 58h5" stroke="#7d95bd" stroke-width="2.4" stroke-linecap="round"/>
  </g>
  <g>
    <circle cx="15" cy="44" r="6" fill="#f2c9a4"/>
    <path d="M8.8 42.4c1-5.4 11.4-5.4 12.4 0l-1.8-.8c.4 1 .4 1.8.4 1.8-3.8-2.2-7.6-2.2-9.8-.4z" fill="#2b2118"/>
    <circle cx="13" cy="44.6" r=".8" fill="#2b1d12"/><circle cx="17" cy="44.6" r=".8" fill="#2b1d12"/>
    <path d="M14 47.4c.8.5 1.6.5 2.4 0" stroke="#b06e4a" stroke-width=".9" fill="none" stroke-linecap="round"/>
    <path d="M11 56c.6-3.6 2.6-5.5 5-5.5 2.2 0 4 1.6 4.6 4.5l.4 6-3 1-2-5-2 5.5-3.4 3z" fill="#e05555"/>
    <rect x="17.5" y="49.5" width="7" height="9" rx="2.4" fill="#39445c" transform="rotate(-18 21 54)"/>
    <path d="M11 61.5l-4.5 7.5 3.6 1 4.4-6M15 63l1 8 3.6-.5.4-8" fill="none" stroke="#f2c9a4" stroke-width="3.4" stroke-linecap="round"/>
  </g>
</svg>
