<svg xmlns="http://www.w3.org/2000/svg" width="96" height="96" viewBox="0 0 96 96">
  <defs>
    <linearGradient id="bg16" x1="0" y1="0" x2="0" y2="1">
      <stop offset="0" stop-color="#1f3060"/><stop offset="1" stop-color="#141f42"/>
    </linearGradient>
    <linearGradient id="dsk16" x1="0" y1="0" x2="0" y2="1">
      <stop offset="0" stop-color="#b98a5a"/><stop offset="1" stop-color="#96693f"/>
    </linearGradient>
  </defs>
  <rect width="96" height="96" rx="18" fill="url(#bg16)"/>
  <path d="M28 30c-3-8 4-14 10-11 1-6 10-8 14-3 6-4 14 1 12 8 6 1 8 9 3 13 2 6-5 11-10 8-3 5-11 5-14 0-6 3-13-2-11-8-3-1-5-4-4-7z" fill="#2c3d6e"/>
  <path d="M36 22c4-3 8-2 10 1 3-3 8-2 9 2 4-1 7 3 5 7-3 5-9 3-11 0-2 3-8 4-10 0-3 1-6-2-5-5" stroke="#5a75b8" stroke-width="1.8" fill="none" stroke-linecap="round"/>
  <path d="M66 40c2.8 0 4.6 2.2 3.6 4.8M70 48.5c0 .9-.7 1.6-1.6 1.6" stroke="#8fb0e8" stroke-width="2.2" fill="none" stroke-linecap="round"/>
  <path d="M8 66h80v14a16 16 0 0 1-16 16h-48a16 16 0 0 1-16-16z" fill="url(#dsk16)"/>
  <path d="M8 66h80" stroke="#8a5f36" stroke-width="1.4"/>
  <g>
    <circle cx="47" cy="55" r="9.5" fill="#f2c9a4"/>
    <path d="M37 54c1-8.5 19-8.5 20 0 0 0-1.5-1-3-1.4l.6 2.4c-5.5-3-11-3-14.6-.6z" fill="#3d2b1f"/>
    <path d="M43 57.5c1-1.2 2.4-1.2 3.4 0M50 57.5c1-1.2 2.4-1.2 3.4 0" stroke="#2b1d12" stroke-width="1.3" fill="none" stroke-linecap="round"/>
    <path d="M45.5 62h5" stroke="#b06e4a" stroke-width="1.2" stroke-linecap="round"/>
    <path d="M35 72c1-6 6-9 12-9s11 3 12 9z" fill="#2b6bd8"/>
  </g>
  <g transform="rotate(-5 66 72)">
    <rect x="56" y="68" width="24" height="13" rx="1.6" fill="#fdfaf2"/>
    <path d="M68 68v13" stroke="#d8d2c2" stroke-width="1.2"/>
    <path d="M59 72h6M59 75h6M71 72h6M71 75h6" stroke="#b9c3d6" stroke-width="1.3" stroke-linecap="round"/>
  </g>
  <rect x="20" y="70" width="3" height="12" rx="1.5" fill="#f2a83d" transform="rotate(-30 21 76)"/>
  <path d="M15 80l-2.6 3.6 4.3.5z" fill="#3d2b1f"/>
  <circle cx="86" cy="18" r="1.4" fill="#fff"/><circle cx="14" cy="26" r="1.2" fill="#fff"/>
</svg>
