<svg xmlns="http://www.w3.org/2000/svg" width="96" height="96" viewBox="0 0 96 96">
<defs><linearGradient id="bg193" x1="0" y1="0" x2="0" y2="1"><stop offset="0" stop-color="#1a2f5e"/><stop offset="1" stop-color="#0d1b3d"/></linearGradient><linearGradient id="bg193s" x1="0" y1="0" x2="0" y2="1"><stop offset="0" stop-color="#fff8dc" stop-opacity=".75"/><stop offset="1" stop-color="#fff8dc" stop-opacity=".05"/></linearGradient></defs>
<rect width="96" height="96" rx="18" fill="url(#bg193)"/><path d="M38 0h20l12 64h-44z" fill="url(#bg193s)"/><path d="M8 68h80v10a16 16 0 0 1-16 16h-48a16 16 0 0 1-16-16z" fill="#c99a63"/><path d="M8 68h80v3h-80z" fill="#a87e4e"/><path d="M20 78h20M56 82h22" stroke="#b3854f" stroke-width="1.6"/><g fill="#20264a"><path d="M8 86c1-5.95 3.4-9.35 6.8-9.35s5.95 3.4 6.8 9.35z"/><path d="M22.45 86c1-5.95 3.4-9.35 6.8-9.35s5.95 3.4 6.8 9.35z"/><path d="M36.9 86c1-5.95 3.4-9.35 6.8-9.35s5.95 3.4 6.8 9.35z"/><path d="M51.35 86c1-5.95 3.4-9.35 6.8-9.35s5.95 3.4 6.8 9.35z"/><path d="M65.8 86c1-5.95 3.4-9.35 6.8-9.35s5.95 3.4 6.8 9.35z"/></g><path d="M13.1 74.95l0.85-3.4M27.549999999999997 74.95l0.85-3.4M42 74.95l0.85-3.4M56.45 74.95l0.85-3.4M70.89999999999999 74.95l0.85-3.4" stroke="#20264a" stroke-width="2.55" stroke-linecap="round"/><path d="M48 20l1.62 3.33 3.6 .6-2.61 2.52 .7 3.6-3.24-1.71-3.24 1.71 .7-3.6-2.61-2.52 3.6-.6z" fill="#ffd75e"/><g><rect x="64" y="10" width="3" height="6" rx="1.5" fill="#ff8f6b" transform="rotate(25 64 10)"/><rect x="84.8" y="16.4" width="3" height="6" rx="1.5" fill="#6bd0ff" transform="rotate(-30 84.8 16.4)"/><rect x="72" y="30.8" width="3" height="6" rx="1.5" fill="#8affc1" transform="rotate(40 72 30.8)"/><circle cx="88" cy="29.200000000000003" r="1.6" fill="#ffd75e"/></g>
</svg>
