<svg xmlns="http://www.w3.org/2000/svg" width="96" height="96" viewBox="0 0 96 96">
<defs><linearGradient id="bg194" x1="0" y1="0" x2="0" y2="1"><stop offset="0" stop-color="#3a2f68"/><stop offset="1" stop-color="#1c1740"/></linearGradient></defs>
<rect width="96" height="96" rx="18" fill="url(#bg194)"/><circle cx="18" cy="16" r="1.4" fill="#fff"/><circle cx="60" cy="12" r="1.1" fill="#fff"/><circle cx="84" cy="24" r="1.2" fill="#fff"/><path d="M8 66h80v12a17 17 0 0 1-17 16h-46a17 17 0 0 1-17-16z" fill="#7a5533"/><path d="M8 66h80v3h-80z" fill="#956a41"/><g><rect x="38.67" y="55.3" width="2.6599999999999997" height="24.7" rx="1.3299999999999998" fill="#cfd6e4"/><path d="M32.4 80c0-2.5 3.5-4 8-4s8 1.5 8 4z" fill="#9aa4b8"/><circle cx="40" cy="49.6" r="8.075" fill="#39445c"/><path d="M33.35 47.225h13.299999999999999M32.4 50.075h15.2M33.35 52.925h13.299999999999999" stroke="#5a6880" stroke-width="1.045"/></g><g><circle cx="72" cy="26" r="9.35" fill="#fff" stroke="#0047ab" stroke-width="2.55"/><path d="M72 20.475v5.5249999999999995l3.9099999999999997 2.55" stroke="#e34d4d" stroke-width="2.21" fill="none" stroke-linecap="round"/><circle cx="72" cy="26" r="1.36" fill="#0047ab"/></g><g stroke-linecap="round"><path d="M16 32c3 2 3 6 0 8s-3 6 0 8" stroke="#9db8ff" stroke-width="1.7600000000000002" fill="none"/><path d="M24.8 28c2.4 1.6 2.4 4.8 0 6.4s-2.4 4.8 0 6.4" stroke="#9db8ff" stroke-width="1.52" fill="none" opacity=".85"/></g>
</svg>
