<svg xmlns="http://www.w3.org/2000/svg" width="96" height="96" viewBox="0 0 96 96">
<defs><linearGradient id="bg195" x1="0" y1="0" x2="0" y2="1"><stop offset="0" stop-color="#bfe0ff"/><stop offset="1" stop-color="#8ec3f5"/></linearGradient></defs>
<rect width="96" height="96" rx="18" fill="url(#bg195)"/><g fill="#fff" opacity=".9"><ellipse cx="24" cy="20" rx="11" ry="5"/><ellipse cx="33" cy="17" rx="8" ry="4.4"/><ellipse cx="72" cy="30" rx="9" ry="4"/></g><g><rect x="33.7" y="34.45" width="12.600000000000001" height="23.1" rx="2.7300000000000004" fill="#2b3a55"/><rect x="35.17" y="36.55" width="9.66" height="15.75" rx="1.47" fill="#9dc1f5"/><circle cx="40" cy="54.82" r="1.26" fill="#8a93ad"/></g><g fill="#e8edf5"><path d="M60.8 22h17.6l4.800000000000001-4 1.6 1.1199999999999999-3.2 4.4799999999999995 3.2 4.4799999999999995-1.6 1.1199999999999999-4.800000000000001-4h-17.6c-1.6 0-1.6-3.2 0-3.2z"/><path d="M70.4 22l-4.800000000000001-6.4 2.72-.6 6.4 6.88z"/></g><path d="M54.4 23.6h4M52.8 26.8h4.800000000000001" stroke="#c3cddf" stroke-width="1.4400000000000002" stroke-linecap="round"/><g><path d="M11.7 23.1h12.6a2.8 2.8 0 0 1 2.8 2.8v3.5a2.8 2.8 0 0 1-2.8 2.8h-7l-3.5 3.5v-3.5h-2.0999999999999996a2.8 2.8 0 0 1-2.8-2.8v-3.5a2.8 2.8 0 0 1 2.8-2.8z" fill="#fff" stroke="#3b82f6" stroke-width="1.26"/><circle cx="14.85" cy="28" r="1.0499999999999998" fill="#3b82f6"/><circle cx="18" cy="28" r="1.0499999999999998" fill="#3b82f6"/><circle cx="21.15" cy="28" r="1.0499999999999998" fill="#3b82f6"/></g>
</svg>
