<svg xmlns="http://www.w3.org/2000/svg" width="96" height="96" viewBox="0 0 96 96">
<defs><linearGradient id="bg196" x1="0" y1="0" x2="0" y2="1"><stop offset="0" stop-color="#fff2d8"/><stop offset="1" stop-color="#ffdda6"/></linearGradient></defs>
<rect width="96" height="96" rx="18" fill="url(#bg196)"/><path d="M8 64h80v14a16 16 0 0 1-16 16h-48a16 16 0 0 1-16-16z" fill="#a57847"/><path d="M8 64h80v3h-80z" fill="#8a5f36"/><g><circle cx="34" cy="59.3" r="6.175" fill="#f2c9a4"/><path d="M28.281 56.906c1.3-7 16-7 17.2 0l-2.2-1.2.5 2.1c-4.8-2.6-9.6-2.6-13-.5z" fill="#3d2b1f"/><circle cx="31.872" cy="59.699" r="0.6317499999999999" fill="#2b1d12"/><circle cx="36.128" cy="59.699" r="0.6317499999999999" fill="#2b1d12"/><ellipse cx="34" cy="62.226" rx="1.1304999999999998" ry="1.4629999999999999" fill="#b06e4a"/><circle cx="30.276" cy="61.294999999999995" r="0.8312499999999999" fill="#f0a08a" opacity=".7"/><circle cx="37.724" cy="61.294999999999995" r="0.8312499999999999" fill="#f0a08a" opacity=".7"/><path d="M29.25 65.95c0.95-3 2.8499999999999996-4.5 5.225-4.5 2.28 0 4.18 1.71 4.75 4.75l0.38 5.699999999999999-3.04 0.95-2.09-4.75-2.09 5.699999999999999-3.42 3.04z" fill="#e05555"/><path d="M29.630000000000003 78.3l-5 7.6 3.61 0.95 4.56-6.08M34 80.2l0.95 8.17 3.61-.5.5-8.17" fill="none" stroke="#f2c9a4" stroke-width="3.42" stroke-linecap="round"/><path d="M20.700000000000003 65h4.75M18.8 70.7h5.699999999999999M21.65 76.4h4.369999999999999" stroke="#9db8e8" stroke-width="1.9" stroke-linecap="round"/></g><g><ellipse cx="70" cy="54" rx="9.9" ry="7.2" fill="#d78f35"/><ellipse cx="70" cy="52.56" rx="9.9" ry="6.66" fill="#f3bd6e"/><g fill="#fff"><circle cx="66.4" cy="51.66" r="1.1700000000000002"/><circle cx="72.7" cy="53.46" r="1.1700000000000002"/><circle cx="70" cy="50.22" r="1.1700000000000002"/></g><path d="M66.4 41.4c-2.5 3-2.5 5 0 8M73.6 39.6c-2.5 3-2.5 5 0 8" stroke="#e8ddc8" stroke-width="1.9800000000000002" fill="none" stroke-linecap="round" opacity=".9"/></g><g><rect x="84.72" y="20" width="2.5600000000000005" height="9.600000000000001" rx="1.2800000000000002" fill="#ffd75e"/><circle cx="86" cy="32.8" r="1.52" fill="#ffd75e"/></g>
</svg>
