<svg xmlns="http://www.w3.org/2000/svg" width="96" height="96" viewBox="0 0 96 96">
<defs><linearGradient id="bg196" x1="0" y1="0" x2="0" y2="1"><stop offset="0" stop-color="#bfe0ff"/><stop offset="1" stop-color="#8ec3f5"/></linearGradient></defs>
<rect width="96" height="96" rx="18" fill="url(#bg196)"/><g fill="#fff" opacity=".9"><ellipse cx="24" cy="20" rx="11" ry="5"/><ellipse cx="33" cy="17" rx="8" ry="4.4"/><ellipse cx="72" cy="30" rx="9" ry="4"/></g><path d="M8 68h80v10a16 16 0 0 1-16 16h-48a16 16 0 0 1-16-16z" fill="#c99a63"/><path d="M8 68h80v3h-80z" fill="#a87e4e"/><path d="M20 78h20M56 82h22" stroke="#b3854f" stroke-width="1.6"/><g><path d="M19.5 58q14.25 4.75 28.5 0t28.5 0" stroke="#c98d4e" stroke-width="3.8" fill="none" stroke-linecap="round"/><path d="M19.5 58q14.25 4.75 28.5 0t28.5 0" stroke="#a5713a" stroke-width="1.2349999999999999" fill="none" stroke-dasharray="3 4"/><rect x="46.1" y="55.15" width="3.8" height="8.549999999999999" rx="1.9" fill="#e05555"/></g><g fill="#20264a"><path d="M8 88c1-3.8500000000000005 2.2-6.050000000000001 4.4-6.050000000000001s3.8500000000000005 2.2 4.4 6.050000000000001z"/><path d="M17.35 88c1-3.8500000000000005 2.2-6.050000000000001 4.4-6.050000000000001s3.8500000000000005 2.2 4.4 6.050000000000001z"/><path d="M26.700000000000003 88c1-3.8500000000000005 2.2-6.050000000000001 4.4-6.050000000000001s3.8500000000000005 2.2 4.4 6.050000000000001z"/><path d="M36.05 88c1-3.8500000000000005 2.2-6.050000000000001 4.4-6.050000000000001s3.8500000000000005 2.2 4.4 6.050000000000001z"/><path d="M45.400000000000006 88c1-3.8500000000000005 2.2-6.050000000000001 4.4-6.050000000000001s3.8500000000000005 2.2 4.4 6.050000000000001z"/></g><path d="M11.3 80.85l0.55-2.2M20.650000000000002 80.85l0.55-2.2M30.000000000000004 80.85l0.55-2.2M39.35 80.85l0.55-2.2M48.7 80.85l0.55-2.2" stroke="#20264a" stroke-width="1.6500000000000001" stroke-linecap="round"/><g><rect x="76.4" y="16" width="3.2" height="12" rx="1.6" fill="#ef6f6f"/><circle cx="78" cy="32" r="1.9" fill="#ef6f6f"/></g>
</svg>
