<svg xmlns="http://www.w3.org/2000/svg" width="96" height="96" viewBox="0 0 96 96">
<defs><linearGradient id="bg197" x1="0" y1="0" x2="0" y2="1"><stop offset="0" stop-color="#2a3f76"/><stop offset=".7" stop-color="#1b2a55"/><stop offset="1" stop-color="#15224a"/></linearGradient><radialGradient id="bg197l" cx=".5" cy=".5" r=".5"><stop offset="0" stop-color="#ffe9a8" stop-opacity=".95"/><stop offset="1" stop-color="#ffe9a8" stop-opacity="0"/></radialGradient></defs>
<rect width="96" height="96" rx="18" fill="url(#bg197)"/><path d="M4 20q22 12 44 0t44 0" stroke="#0e1a3c" stroke-width="1.6" fill="none"/><circle cx="16" cy="24" r="4.6" fill="url(#bg197l)"/><circle cx="16" cy="24" r="1.6" fill="#ffd75e"/><circle cx="34" cy="28" r="4.6" fill="url(#bg197l)"/><circle cx="34" cy="28" r="1.6" fill="#ffd75e"/><circle cx="52" cy="29" r="4.6" fill="url(#bg197l)"/><circle cx="52" cy="29" r="1.6" fill="#ffd75e"/><circle cx="70" cy="27" r="4.6" fill="url(#bg197l)"/><circle cx="70" cy="27" r="1.6" fill="#ffd75e"/><circle cx="86" cy="22" r="4.6" fill="url(#bg197l)"/><circle cx="86" cy="22" r="1.6" fill="#ffd75e"/><path d="M8 68h80v10a16 16 0 0 1-16 16h-48a16 16 0 0 1-16-16z" fill="#c99a63"/><path d="M8 68h80v3h-80z" fill="#a87e4e"/><path d="M20 78h20M56 82h22" stroke="#b3854f" stroke-width="1.6"/><g><circle cx="34" cy="54" r="9.5" fill="#f2c9a4"/><path d="M25.4 50.4c1.3-7 16-7 17.2 0l-2.2-1.2.5 2.1c-4.8-2.6-9.6-2.6-13-.5z" fill="#3d2b1f"/><path d="M29.4 54.8c1-1.4 2.6-1.4 3.6 0M35 54.8c1-1.4 2.6-1.4 3.6 0" stroke="#2b1d12" stroke-width="1.3" fill="none" stroke-linecap="round"/><path d="M31.8 58.2a3 3 0 0 0 4.4 0" stroke="#b06e4a" stroke-width="1.1" fill="none" stroke-linecap="round"/><circle cx="28.4" cy="57" r="1.25" fill="#f0a08a" opacity=".7"/><circle cx="39.6" cy="57" r="1.25" fill="#f0a08a" opacity=".7"/><path d="M22 71c1-6.5 5.5-9.5 12-9.5s11 3 12 9.5z" fill="#2b6bd8"/></g><path d="M62 32.3c-6.3-4.14-8.64-8.46-6.12-11.520000000000001c1.8-2.16 4.86-1.4400000000000002 6.12 .8 1.26-2.16 4.32-2.8800000000000003 6.12-.8 2.52 3.06 .2 7.38-6.12 11.520000000000001z" fill="#ef6f6f"/><path d="M82 42l1.26 2.59 2.8 .6-2.03 1.9599999999999997 .7 2.8-2.52-1.3299999999999998-2.52 1.3299999999999998 .7-2.8-2.03-1.9599999999999997 2.8-.6z" fill="#ffd75e"/>
</svg>
