<svg xmlns="http://www.w3.org/2000/svg" width="96" height="96" viewBox="0 0 96 96">
<defs><linearGradient id="bg198" x1="0" y1="0" x2="0" y2="1"><stop offset="0" stop-color="#fff2d8"/><stop offset="1" stop-color="#ffdda6"/></linearGradient></defs>
<rect width="96" height="96" rx="18" fill="url(#bg198)"/><path d="M8 68h80v10a16 16 0 0 1-16 16h-48a16 16 0 0 1-16-16z" fill="#c99a63"/><path d="M8 68h80v3h-80z" fill="#a87e4e"/><path d="M20 78h20M56 82h22" stroke="#b3854f" stroke-width="1.6"/><g><circle cx="34" cy="54" r="9.5" fill="#f2c9a4"/><path d="M25.4 50.4c1.3-7 16-7 17.2 0l-2.2-1.2.5 2.1c-4.8-2.6-9.6-2.6-13-.5z" fill="#3d2b1f"/><path d="M29.6 54.6c1 1.1 2.4 1.1 3.4 0M35 54.6c1 1.1 2.4 1.1 3.4 0" stroke="#2b1d12" stroke-width="1.1" fill="none" stroke-linecap="round"/><path d="M32 58.6h4" stroke="#b06e4a" stroke-width="1.1" stroke-linecap="round"/><circle cx="28.4" cy="57" r="1.25" fill="#f0a08a" opacity=".7"/><circle cx="39.6" cy="57" r="1.25" fill="#f0a08a" opacity=".7"/><path d="M22 71c1-6.5 5.5-9.5 12-9.5s11 3 12 9.5z" fill="#2b6bd8"/></g><g stroke="#9db8e8" stroke-width="2" stroke-linecap="round" stroke-linejoin="round" fill="none"><path d="M56 24h6l-6 6h6"/><path d="M67 16h4.4l-4.4 4.4h4.4" opacity=".8"/></g><g><path d="M75.66 69.12l-3.4 8M84.34 69.12l3.4 8" stroke="#f2c9a4" stroke-width="1.984" stroke-linecap="round"/><path d="M75.97 67.26h8.06v9.3h-8.06z" fill="#2b6bd8"/><path d="M77.768 76.56v6.2M82.232 76.56v6.2" stroke="#2b3a55" stroke-width="2.604" stroke-linecap="round"/><circle cx="80" cy="62.92" r="4.96" fill="#f2c9a4"/><path d="M75.4678 61.084799999999994c1.3-7 16-7 17.2 0l-2.2-1.2.5 2.1c-4.8-2.6-9.6-2.6-13-.5z" fill="#3d2b1f"/><path d="M77.5758 63.3416c1-1.4 2.6-1.4 3.6 0M80.527 63.3416c1-1.4 2.6-1.4 3.6 0" stroke="#2b1d12" stroke-width="0.6851" fill="none" stroke-linecap="round"/><path d="M78.8406 65.1334a1.581 1.581 0 0 0 2.3188000000000004 0" stroke="#b06e4a" stroke-width="0.5797000000000001" fill="none" stroke-linecap="round"/><circle cx="77.0488" cy="64.501" r="0.6587500000000001" fill="#f0a08a" opacity=".7"/><circle cx="82.9512" cy="64.501" r="0.6587500000000001" fill="#f0a08a" opacity=".7"/></g>
</svg>
