<svg xmlns="http://www.w3.org/2000/svg" width="96" height="96" viewBox="0 0 96 96">
<defs><linearGradient id="bg198" x1="0" y1="0" x2="0" y2="1"><stop offset="0" stop-color="#fff2d8"/><stop offset="1" stop-color="#ffdda6"/></linearGradient></defs>
<rect width="96" height="96" rx="18" fill="url(#bg198)"/><path d="M8 68h80v10a16 16 0 0 1-16 16h-48a16 16 0 0 1-16-16z" fill="#c99a63"/><path d="M8 68h80v3h-80z" fill="#a87e4e"/><path d="M20 78h20M56 82h22" stroke="#b3854f" stroke-width="1.6"/><g><circle cx="38" cy="54" r="9.5" fill="#f2c9a4"/><path d="M29.4 50.4c1.3-7 16-7 17.2 0l-2.2-1.2.5 2.1c-4.8-2.6-9.6-2.6-13-.5z" fill="#3d2b1f"/><path d="M33.6 54.6c1 1.1 2.4 1.1 3.4 0M39 54.6c1 1.1 2.4 1.1 3.4 0" stroke="#2b1d12" stroke-width="1.1" fill="none" stroke-linecap="round"/><path d="M36 58.6h4" stroke="#b06e4a" stroke-width="1.1" stroke-linecap="round"/><circle cx="32.4" cy="57" r="1.25" fill="#f0a08a" opacity=".7"/><circle cx="43.6" cy="57" r="1.25" fill="#f0a08a" opacity=".7"/><path d="M26 71c1-6.5 5.5-9.5 12-9.5s11 3 12 9.5z" fill="#2b6bd8"/></g><g stroke="#9db8e8" stroke-width="2.2" stroke-linecap="round" stroke-linejoin="round" fill="none"><path d="M66 24h6.6000000000000005l-6.6000000000000005 6.6000000000000005h6.6000000000000005"/><path d="M78.1 15.2h4.840000000000001l-4.840000000000001 4.840000000000001h4.840000000000001" opacity=".8"/></g><g stroke="#9db8e8" stroke-width="1.6" stroke-linecap="round" stroke-linejoin="round" fill="none"><path d="M18 32h4.800000000000001l-4.800000000000001 4.800000000000001h4.800000000000001"/><path d="M26.8 25.6h3.5200000000000005l-3.5200000000000005 3.5200000000000005h3.5200000000000005" opacity=".8"/></g>
</svg>
