<svg xmlns="http://www.w3.org/2000/svg" width="96" height="96" viewBox="0 0 96 96">
<defs><linearGradient id="bg199" x1="0" y1="0" x2="0" y2="1"><stop offset="0" stop-color="#bfe0ff"/><stop offset="1" stop-color="#8ec3f5"/></linearGradient></defs>
<rect width="96" height="96" rx="18" fill="url(#bg199)"/><g fill="#fff" opacity=".9"><ellipse cx="24" cy="20" rx="11" ry="5"/><ellipse cx="33" cy="17" rx="8" ry="4.4"/><ellipse cx="72" cy="30" rx="9" ry="4"/></g><path d="M8 68h80v10a16 16 0 0 1-16 16h-48a16 16 0 0 1-16-16z" fill="#c99a63"/><path d="M8 68h80v3h-80z" fill="#a87e4e"/><path d="M20 78h20M56 82h22" stroke="#b3854f" stroke-width="1.6"/><path d="M38 28l2.16 4.44 4.8 .6-3.48 3.36 .7 4.8-4.32-2.28-4.32 2.28 .7-4.8-3.48-3.36 4.8-.6z" fill="#ffd75e"/><path d="M66 47.6c-5.6000000000000005-3.6799999999999997-7.68-7.5200000000000005-5.44-10.240000000000002c1.6-1.92 4.32-1.2800000000000002 5.44 .8 1.1199999999999999-1.92 3.84-2.5600000000000005 5.44-.8 2.2399999999999998 2.72 .2 6.56-5.44 10.240000000000002z" fill="#ef6f6f"/><g><circle cx="78" cy="58" r="7.6000000000000005" fill="#f2c9a4"/><path d="M71.12 55.12c1.3-7 16-7 17.2 0l-2.8-1.2c-4.4-2.4-8.8-2.4-11.8-.4z" fill="#8f8f96"/><path d="M74.32 58.64c1-1.4 2.6-1.4 3.6 0M78.8 58.64c1-1.4 2.6-1.4 3.6 0" stroke="#2b1d12" stroke-width="1.04" fill="none" stroke-linecap="round"/><path d="M76.24 61.36a2.4000000000000004 2.4000000000000004 0 0 0 3.5200000000000005 0" stroke="#b06e4a" stroke-width="0.8800000000000001" fill="none" stroke-linecap="round"/><circle cx="73.52" cy="60.4" r="1" fill="#f0a08a" opacity=".7"/><circle cx="82.48" cy="60.4" r="1" fill="#f0a08a" opacity=".7"/><path d="M68.4 71.6c1-6.5 5.5-9.5 12-9.5s11 3 12 9.5z" fill="#2b6bd8"/></g>
</svg>
