<svg xmlns="http://www.w3.org/2000/svg" width="96" height="96" viewBox="0 0 96 96">
<defs><linearGradient id="bg201" x1="0" y1="0" x2="0" y2="1"><stop offset="0" stop-color="#bfe0ff"/><stop offset="1" stop-color="#8ec3f5"/></linearGradient></defs>
<rect width="96" height="96" rx="18" fill="url(#bg201)"/><g fill="#fff" opacity=".9"><ellipse cx="24" cy="20" rx="11" ry="5"/><ellipse cx="33" cy="17" rx="8" ry="4.4"/><ellipse cx="72" cy="30" rx="9" ry="4"/></g><path d="M8 64h80v14a16 16 0 0 1-16 16h-48a16 16 0 0 1-16-16z" fill="#a57847"/><path d="M8 64h80v3h-80z" fill="#8a5f36"/><g><path d="M27.35 61.2l-4 -7M40.65 61.2l4 -7" stroke="#f2c9a4" stroke-width="3.04" stroke-linecap="round"/><path d="M27.825 58.35h12.35v14.25h-12.35z" fill="#2b6bd8"/><path d="M30.58 72.6v9.5M37.42 72.6v9.5" stroke="#2b3a55" stroke-width="3.9899999999999998" stroke-linecap="round"/><circle cx="34" cy="51.7" r="7.6" fill="#f2c9a4"/><path d="M27.055500000000002 48.888c1.3-7 16-7 17.2 0l-2.2-1.2.5 2.1c-4.8-2.6-9.6-2.6-13-.5z" fill="#3d2b1f"/><circle cx="31.416" cy="52.1845" r="0.767125" fill="#2b1d12"/><circle cx="36.584" cy="52.1845" r="0.767125" fill="#2b1d12"/><path d="M32.2235 55.0915a2.4225 2.4225 0 0 0 3.5530000000000004 0" stroke="#b06e4a" stroke-width="0.8882500000000001" fill="none" stroke-linecap="round"/><circle cx="29.478" cy="54.1225" r="1.009375" fill="#f0a08a" opacity=".7"/><circle cx="38.522" cy="54.1225" r="1.009375" fill="#f0a08a" opacity=".7"/></g><g transform="rotate(-5 66 34)"><rect x="57" y="29.125" width="18" height="9.75" rx="1.2000000000000002" fill="#fdfaf2"/><path d="M66 29.125v9.75" stroke="#d8d2c2" stroke-width="0.8999999999999999"/><path d="M59.25 32.125h4.5M59.25 34.375h4.5M68.25 32.125h4.5M68.25 34.375h4.5" stroke="#b9c3d6" stroke-width="0.9750000000000001" stroke-linecap="round"/></g><g transform="rotate(-5 80 28)"><rect x="72.8" y="24.1" width="14.399999999999999" height="7.8" rx="0.96" fill="#fdfaf2"/><path d="M80 24.1v7.8" stroke="#d8d2c2" stroke-width="0.72"/><path d="M74.6 26.5h3.5999999999999996M74.6 28.3h3.5999999999999996M81.8 26.5h3.5999999999999996M81.8 28.3h3.5999999999999996" stroke="#b9c3d6" stroke-width="0.78" stroke-linecap="round"/></g>
</svg>
