<svg xmlns="http://www.w3.org/2000/svg" width="96" height="96" viewBox="0 0 96 96">
<defs><linearGradient id="bg202" x1="0" y1="0" x2="0" y2="1"><stop offset="0" stop-color="#fff2d8"/><stop offset="1" stop-color="#ffdda6"/></linearGradient></defs>
<rect width="96" height="96" rx="18" fill="url(#bg202)"/><path d="M8 64h80v14a16 16 0 0 1-16 16h-48a16 16 0 0 1-16-16z" fill="#a57847"/><path d="M8 64h80v3h-80z" fill="#8a5f36"/><g fill="#8a6134"><path d="M10 88c1-4.8999999999999995 2.8-7.699999999999999 5.6-7.699999999999999s4.8999999999999995 2.8 5.6 7.699999999999999z"/><path d="M21.9 88c1-4.8999999999999995 2.8-7.699999999999999 5.6-7.699999999999999s4.8999999999999995 2.8 5.6 7.699999999999999z"/><path d="M33.8 88c1-4.8999999999999995 2.8-7.699999999999999 5.6-7.699999999999999s4.8999999999999995 2.8 5.6 7.699999999999999z"/><path d="M45.699999999999996 88c1-4.8999999999999995 2.8-7.699999999999999 5.6-7.699999999999999s4.8999999999999995 2.8 5.6 7.699999999999999z"/><path d="M57.599999999999994 88c1-4.8999999999999995 2.8-7.699999999999999 5.6-7.699999999999999s4.8999999999999995 2.8 5.6 7.699999999999999z"/></g><path d="M14.2 78.9l0.7-2.8M26.099999999999998 78.9l0.7-2.8M38 78.9l0.7-2.8M49.89999999999999 78.9l0.7-2.8M61.8 78.9l0.7-2.8" stroke="#8a6134" stroke-width="2.0999999999999996" stroke-linecap="round"/><g><ellipse cx="54" cy="48" rx="9.9" ry="7.2" fill="#d78f35"/><ellipse cx="54" cy="46.56" rx="9.9" ry="6.66" fill="#f3bd6e"/><g fill="#fff"><circle cx="50.4" cy="45.66" r="1.1700000000000002"/><circle cx="56.7" cy="47.46" r="1.1700000000000002"/><circle cx="54" cy="44.22" r="1.1700000000000002"/></g><path d="M50.4 35.4c-2.5 3-2.5 5 0 8M57.6 33.6c-2.5 3-2.5 5 0 8" stroke="#e8ddc8" stroke-width="1.9800000000000002" fill="none" stroke-linecap="round" opacity=".9"/></g><g><path d="M78 41.4l7.699999999999999 12.6h-15.399999999999999z" fill="#fff" stroke="#39445c" stroke-width="1.54" stroke-linejoin="round"/><rect x="74.85" y="48.4" width="6.3" height="5.6" rx="0.84" fill="#39445c"/></g>
</svg>
