<svg xmlns="http://www.w3.org/2000/svg" width="96" height="96" viewBox="0 0 96 96">
<defs><linearGradient id="bg203" x1="0" y1="0" x2="0" y2="1"><stop offset="0" stop-color="#bfe0ff"/><stop offset="1" stop-color="#8ec3f5"/></linearGradient></defs>
<rect width="96" height="96" rx="18" fill="url(#bg203)"/><g fill="#fff" opacity=".9"><ellipse cx="24" cy="20" rx="11" ry="5"/><ellipse cx="33" cy="17" rx="8" ry="4.4"/><ellipse cx="72" cy="30" rx="9" ry="4"/></g><path d="M4 74h88v8a14 14 0 0 1-14 12h-60a14 14 0 0 1-14-12z" fill="#5a6478"/><path d="M12 80h10M32 80h10M52 80h10M72 80h10" stroke="#aab4c8" stroke-width="2.4" stroke-linecap="round"/><g><path d="M12.54 65.28l-3.4 8M23.46 65.28l3.4 8" stroke="#f2c9a4" stroke-width="2.4960000000000004" stroke-linecap="round"/><path d="M12.93 62.94h10.14v11.700000000000001h-10.14z" fill="#2b6bd8"/><path d="M15.192 74.64v7.800000000000001M20.808 74.64v7.800000000000001" stroke="#2b3a55" stroke-width="3.2760000000000002" stroke-linecap="round"/><circle cx="18" cy="57.480000000000004" r="6.24" fill="#f2c9a4"/><path d="M12.2982 55.1712c1.3-7 16-7 17.2 0l-2.2-1.2.5 2.1c-4.8-2.6-9.6-2.6-13-.5z" fill="#3d2b1f"/><path d="M14.9502 58.010400000000004c1-1.4 2.6-1.4 3.6 0M18.663 58.010400000000004c1-1.4 2.6-1.4 3.6 0" stroke="#2b1d12" stroke-width="0.8619000000000001" fill="none" stroke-linecap="round"/><path d="M16.5414 60.2646a1.989 1.989 0 0 0 2.9172000000000002 0" stroke="#b06e4a" stroke-width="0.7293000000000001" fill="none" stroke-linecap="round"/><circle cx="14.2872" cy="59.469" r="0.8287500000000001" fill="#f0a08a" opacity=".7"/><circle cx="21.7128" cy="59.469" r="0.8287500000000001" fill="#f0a08a" opacity=".7"/></g><g><ellipse cx="48" cy="52.5" rx="11.399999999999999" ry="4.369999999999999" fill="#e8edf5"/><path d="M36.6 52.5v11.399999999999999c0 2.4699999999999998 5.13 4.369999999999999 11.399999999999999 4.369999999999999s11.399999999999999-1.9 11.399999999999999-4.369999999999999v-11.399999999999999" fill="#e05555"/><path d="M36.6 54.4l7.6 7.6 7.6-7.6 7.6 7.6" stroke="#ffd75e" stroke-width="1.71" fill="none"/><path d="M42.3 41.1l4.75 8.549999999999999M56.55 42.05l-3.8 8.17" stroke="#8a5f36" stroke-width="1.9" stroke-linecap="round"/><circle cx="41.730000000000004" cy="40.150000000000006" r="1.9" fill="#8a5f36"/><circle cx="57.12" cy="41.1" r="1.9" fill="#8a5f36"/></g><path d="M76 31.95c-5.95-3.9099999999999997-8.16-7.99-5.779999999999999-10.88c1.7-2.04 4.59-1.36 5.779999999999999 .8 1.19-2.04 4.08-2.72 5.779999999999999-.8 2.38 2.8899999999999997 .2 6.969999999999999-5.779999999999999 10.88z" fill="#ef6f6f"/>
</svg>
