<svg xmlns="http://www.w3.org/2000/svg" width="96" height="96" viewBox="0 0 96 96">
<defs><linearGradient id="bg204" x1="0" y1="0" x2="0" y2="1"><stop offset="0" stop-color="#fff2d8"/><stop offset="1" stop-color="#ffdda6"/></linearGradient></defs>
<rect width="96" height="96" rx="18" fill="url(#bg204)"/><path d="M8 68h80v10a16 16 0 0 1-16 16h-48a16 16 0 0 1-16-16z" fill="#c99a63"/><path d="M8 68h80v3h-80z" fill="#a87e4e"/><path d="M20 78h20M56 82h22" stroke="#b3854f" stroke-width="1.6"/><g transform="rotate(-14 40 48)"><path d="M29 43.6l15.400000000000002-6.6000000000000005v22l-15.400000000000002-6.6000000000000005z" fill="#e05555"/><rect x="24.599999999999998" y="43.6" width="5.5" height="8.8" rx="1.7600000000000002" fill="#b23a3a"/><path d="M48.8 39.2l5.5-3.3000000000000003M49.9 48h6.6000000000000005M48.8 56.8l5.5 3.3000000000000003" stroke="#ffd75e" stroke-width="2.4200000000000004" stroke-linecap="round"/></g><g><rect x="68.4" y="16" width="3.2" height="12" rx="1.6" fill="#ef6f6f"/><circle cx="70" cy="32" r="1.9" fill="#ef6f6f"/></g><g><rect x="80.88" y="31" width="2.2399999999999998" height="8.399999999999999" rx="1.1199999999999999" fill="#ffd75e"/><circle cx="82" cy="42.2" r="1.3299999999999998" fill="#ffd75e"/></g>
</svg>
