<svg xmlns="http://www.w3.org/2000/svg" width="96" height="96" viewBox="0 0 96 96">
<defs><linearGradient id="bg204" x1="0" y1="0" x2="0" y2="1"><stop offset="0" stop-color="#fff2d8"/><stop offset="1" stop-color="#ffdda6"/></linearGradient></defs>
<rect width="96" height="96" rx="18" fill="url(#bg204)"/><path d="M8 64h80v14a16 16 0 0 1-16 16h-48a16 16 0 0 1-16-16z" fill="#a57847"/><path d="M8 64h80v3h-80z" fill="#8a5f36"/><g><ellipse cx="36" cy="52" rx="11" ry="8" fill="#d78f35"/><ellipse cx="36" cy="50.4" rx="11" ry="7.4" fill="#f3bd6e"/><g fill="#fff"><circle cx="32" cy="49.4" r="1.3"/><circle cx="39" cy="51.4" r="1.3"/><circle cx="36" cy="47.8" r="1.3"/></g><path d="M32 38c-2.5 3-2.5 5 0 8M40 36c-2.5 3-2.5 5 0 8" stroke="#e8ddc8" stroke-width="2.2" fill="none" stroke-linecap="round" opacity=".9"/></g><g><circle cx="66" cy="28" r="9.9" fill="#fff" stroke="#0047ab" stroke-width="2.7"/><path d="M66 22.15v5.8500000000000005l4.14 2.7" stroke="#e34d4d" stroke-width="2.3400000000000003" fill="none" stroke-linecap="round"/><circle cx="66" cy="28" r="1.4400000000000002" fill="#0047ab"/></g><g><rect x="82.72" y="42" width="2.5600000000000005" height="9.600000000000001" rx="1.2800000000000002" fill="#ffd75e"/><circle cx="84" cy="54.8" r="1.52" fill="#ffd75e"/></g>
</svg>
