<svg xmlns="http://www.w3.org/2000/svg" width="96" height="96" viewBox="0 0 96 96">
<defs><linearGradient id="bg205" x1="0" y1="0" x2="0" y2="1"><stop offset="0" stop-color="#1f3060"/><stop offset="1" stop-color="#141f42"/></linearGradient></defs>
<rect width="96" height="96" rx="18" fill="url(#bg205)"/><circle cx="16" cy="16" r="1.4" fill="#fff"/><circle cx="38" cy="10" r="1.1" fill="#fff"/><circle cx="80" cy="14" r="1.2" fill="#fff"/><circle cx="64" cy="22" r=".9" fill="#fff" opacity=".8"/><path d="M8 64h80v14a16 16 0 0 1-16 16h-48a16 16 0 0 1-16-16z" fill="#a57847"/><path d="M8 64h80v3h-80z" fill="#8a5f36"/><g><rect x="26" y="36" width="32" height="22" rx="3" fill="#2b3a55"/><rect x="28.6" y="38.6" width="26.8" height="16.8" rx="1.8" fill="#9dc1f5"/><circle cx="38" cy="45" r="3" fill="#f2c9a4"/><path d="M34 52c1-3 3-4.4 5.5-4.4 2 0 3.6 1 4.5 3" fill="#e05555"/><path d="M46 42l5-2" stroke="#c98d4e" stroke-width="2" stroke-linecap="round"/><path d="M38 60l-3 4M46 60l3 4" stroke="#2b3a55" stroke-width="2" stroke-linecap="round"/></g><g stroke="#9db8e8" stroke-width="2" stroke-linecap="round" stroke-linejoin="round" fill="none"><path d="M76 26h6l-6 6h6"/><path d="M87 18h4.4l-4.4 4.4h4.4" opacity=".8"/></g>
</svg>
