<svg xmlns="http://www.w3.org/2000/svg" width="96" height="96" viewBox="0 0 96 96">
<defs><linearGradient id="bg205" x1="0" y1="0" x2="0" y2="1"><stop offset="0" stop-color="#1a2f5e"/><stop offset="1" stop-color="#0d1b3d"/></linearGradient><linearGradient id="bg205s" x1="0" y1="0" x2="0" y2="1"><stop offset="0" stop-color="#fff8dc" stop-opacity=".75"/><stop offset="1" stop-color="#fff8dc" stop-opacity=".05"/></linearGradient></defs>
<rect width="96" height="96" rx="18" fill="url(#bg205)"/><path d="M38 0h20l12 64h-44z" fill="url(#bg205s)"/><path d="M8 66h80v12a17 17 0 0 1-17 16h-46a17 17 0 0 1-17-16z" fill="#7a5533"/><path d="M8 66h80v3h-80z" fill="#956a41"/><g><circle cx="40" cy="54" r="9.5" fill="#f2c9a4"/><path d="M31.4 51l1.6-3.4 2 2 1.8-3.4 2 2.4 1.8-3 1.8 3 2-2.4 1.8 3.4 2-2 1.6 3.4c-5.6-2.6-13-2.6-18.4 0z" fill="#2b2118"/><circle cx="36.8" cy="54.6" r="0.95" fill="#2b1d12"/><circle cx="43.2" cy="54.6" r="0.95" fill="#2b1d12"/><path d="M37.8 59a3 3 0 0 1 4.4 0" stroke="#b06e4a" stroke-width="1.1" fill="none" stroke-linecap="round"/><circle cx="34.4" cy="57" r="1.25" fill="#f0a08a" opacity=".7"/><circle cx="45.6" cy="57" r="1.25" fill="#f0a08a" opacity=".7"/><path d="M28 71c1-6.5 5.5-9.5 12-9.5s11 3 12 9.5z" fill="#2b6bd8"/></g><g><path d="M61.9 19.7h16.2a3.6 3.6 0 0 1 3.6 3.6v4.5a3.6 3.6 0 0 1-3.6 3.6h-9l-4.5 4.5v-4.5h-2.7a3.6 3.6 0 0 1-3.6-3.6v-4.5a3.6 3.6 0 0 1 3.6-3.6z" fill="#fff" stroke="#3b82f6" stroke-width="1.62"/><circle cx="65.95" cy="26" r="1.35" fill="#3b82f6"/><circle cx="70" cy="26" r="1.35" fill="#3b82f6"/><circle cx="74.05" cy="26" r="1.35" fill="#3b82f6"/></g>
</svg>
