<svg xmlns="http://www.w3.org/2000/svg" width="96" height="96" viewBox="0 0 96 96">
<defs><linearGradient id="bg206" x1="0" y1="0" x2="0" y2="1"><stop offset="0" stop-color="#1a2f5e"/><stop offset="1" stop-color="#0d1b3d"/></linearGradient><linearGradient id="bg206s" x1="0" y1="0" x2="0" y2="1"><stop offset="0" stop-color="#fff8dc" stop-opacity=".75"/><stop offset="1" stop-color="#fff8dc" stop-opacity=".05"/></linearGradient></defs>
<rect width="96" height="96" rx="18" fill="url(#bg206)"/><path d="M38 0h20l12 64h-44z" fill="url(#bg206s)"/><path d="M8 66h80v12a17 17 0 0 1-17 16h-46a17 17 0 0 1-17-16z" fill="#7a5533"/><path d="M8 66h80v3h-80z" fill="#956a41"/><g><rect x="40.6" y="54" width="2.8" height="26" rx="1.4" fill="#cfd6e4"/><path d="M34 80c0-2.5 3.5-4 8-4s8 1.5 8 4z" fill="#9aa4b8"/><circle cx="42" cy="48" r="8.5" fill="#39445c"/><path d="M35 45.5h14M34 48.5h16M35 51.5h14" stroke="#5a6880" stroke-width="1.1"/></g><path d="M68 24l1.8 3.7 4 .6-2.9 2.8 .7 4-3.6-1.9-3.6 1.9 .7-4-2.9-2.8 4-.6z" fill="#ffd75e"/><g><rect x="14" y="10" width="3" height="6" rx="1.5" fill="#ff8f6b" transform="rotate(25 14 10)"/><rect x="34.8" y="16.4" width="3" height="6" rx="1.5" fill="#6bd0ff" transform="rotate(-30 34.8 16.4)"/><rect x="22" y="30.8" width="3" height="6" rx="1.5" fill="#8affc1" transform="rotate(40 22 30.8)"/><circle cx="38" cy="29.200000000000003" r="1.6" fill="#ffd75e"/></g>
</svg>
