<svg xmlns="http://www.w3.org/2000/svg" width="96" height="96" viewBox="0 0 96 96">
<defs><linearGradient id="bg207" x1="0" y1="0" x2="0" y2="1"><stop offset="0" stop-color="#bfe0ff"/><stop offset="1" stop-color="#8ec3f5"/></linearGradient></defs>
<rect width="96" height="96" rx="18" fill="url(#bg207)"/><g fill="#fff" opacity=".9"><ellipse cx="24" cy="20" rx="11" ry="5"/><ellipse cx="33" cy="17" rx="8" ry="4.4"/><ellipse cx="72" cy="30" rx="9" ry="4"/></g><path d="M4 74h88v8a14 14 0 0 1-14 12h-60a14 14 0 0 1-14-12z" fill="#5a6478"/><path d="M12 80h10M32 80h10M52 80h10M72 80h10" stroke="#aab4c8" stroke-width="2.4" stroke-linecap="round"/><g><rect x="21.5" y="47.6" width="45" height="18" rx="4.05" fill="#ffcf5e"/><rect x="26" y="51.2" width="8.1" height="6.3" rx="1.6" fill="#fff3c9"/><rect x="37.7" y="51.2" width="8.1" height="6.3" rx="1.6" fill="#fff3c9"/><rect x="49.4" y="51.2" width="8.1" height="6.3" rx="1.6" fill="#fff3c9"/><path d="M21.5 60.2h45" stroke="#0047ab" stroke-width="2.3400000000000003"/><circle cx="32.3" cy="65.6" r="3.24" fill="#1c2038"/><circle cx="55.7" cy="65.6" r="3.24" fill="#1c2038"/></g><g fill="#ffd75e"><circle cx="80" cy="28" r="1.36"/><circle cx="91.2" cy="36" r="1.04"/><circle cx="73.6" cy="39.2" r="0.96"/></g>
</svg>
