<svg xmlns="http://www.w3.org/2000/svg" width="96" height="96" viewBox="0 0 96 96">
<defs><linearGradient id="bg177" x1="0" y1="0" x2="0" y2="1"><stop offset="0" stop-color="#5a6b8f"/><stop offset="1" stop-color="#39466a"/></linearGradient></defs>
<rect width="96" height="96" rx="18" fill="url(#bg177)"/><g fill="#c3cddf"><path d="M28 24a9 9 0 0 1 1.6-17.8A12 12 0 0 1 51 3.4 8 8 0 0 1 55.5 19z"/><path d="M68 28a6.5 6.5 0 0 1 1.3-12.8 8.5 8.5 0 0 1 15.7-2A5.6 5.6 0 0 1 88 23.7z" opacity=".85"/></g><g stroke="#9db8e8" stroke-width="2.4" stroke-linecap="round"><path d="M26 30l-2.6 6M36 32l-2.6 6M46 28l-2.6 6M58 31l-2.6 6M70 34l-2.6 6M80 32l-2.6 6"/></g><path d="M4 74h88v8a14 14 0 0 1-14 12h-60a14 14 0 0 1-14-12z" fill="#232c4e"/><path d="M12 80h10M32 80h10M52 80h10M72 80h10" stroke="#4a5680" stroke-width="2.4" stroke-linecap="round"/><g><path d="M27.299999999999997 52a14.700000000000001 14.700000000000001 0 0 1 29.400000000000002 0c-2.4-2-4.8-2-7 0-2.2-2-4.8-2-7 0-2.2-2-4.6-2-7 0-2.2-2-4.6-2-7 0z" fill="#ffd75e"/><path d="M42 38.35v25.200000000000003a3.1500000000000004 3.1500000000000004 0 0 1-6.300000000000001 0" stroke="#2b3a55" stroke-width="1.8900000000000001" fill="none" stroke-linecap="round"/></g><g><circle cx="74" cy="50" r="5.6000000000000005" fill="#ffd75e" stroke="#e8b23d" stroke-width="1.2800000000000002"/><circle cx="74" cy="50" r="1.7600000000000002" fill="none" stroke="#e8b23d" stroke-width="1.1199999999999999"/></g>
</svg>
