<svg xmlns="http://www.w3.org/2000/svg" width="96" height="96" viewBox="0 0 96 96">
<defs><linearGradient id="bg178" x1="0" y1="0" x2="0" y2="1"><stop offset="0" stop-color="#fff2d8"/><stop offset="1" stop-color="#ffdda6"/></linearGradient></defs>
<rect width="96" height="96" rx="18" fill="url(#bg178)"/><path d="M8 64h80v14a16 16 0 0 1-16 16h-48a16 16 0 0 1-16-16z" fill="#a57847"/><path d="M8 64h80v3h-80z" fill="#8a5f36"/><g><ellipse cx="34" cy="56" rx="14.3" ry="4.4" fill="#2b3450"/><path d="M25.2 56v-15.400000000000002a2.2 2.2 0 0 1 2.2-2.2h13.200000000000001a2.2 2.2 0 0 1 2.2 2.2v15.400000000000002" fill="#3a4666"/><path d="M25.2 50.5h17.6" stroke="#e05555" stroke-width="2.8600000000000003"/></g><g transform="rotate(-5 66 58)"><rect x="55.2" y="52.15" width="21.6" height="11.700000000000001" rx="1.4400000000000002" fill="#fdfaf2"/><path d="M66 52.15v11.700000000000001" stroke="#d8d2c2" stroke-width="1.08"/><path d="M57.9 55.75h5.4M57.9 58.45h5.4M68.7 55.75h5.4M68.7 58.45h5.4" stroke="#b9c3d6" stroke-width="1.1700000000000002" stroke-linecap="round"/></g><path d="M86 28l1.26 2.59 2.8 .6-2.03 1.9599999999999997 .7 2.8-2.52-1.3299999999999998-2.52 1.3299999999999998 .7-2.8-2.03-1.9599999999999997 2.8-.6z" fill="#ffd75e"/>
</svg>
