<svg xmlns="http://www.w3.org/2000/svg" width="96" height="96" viewBox="0 0 96 96">
<defs><linearGradient id="bg178" x1="0" y1="0" x2="0" y2="1"><stop offset="0" stop-color="#1a2f5e"/><stop offset="1" stop-color="#0d1b3d"/></linearGradient><linearGradient id="bg178s" x1="0" y1="0" x2="0" y2="1"><stop offset="0" stop-color="#fff8dc" stop-opacity=".75"/><stop offset="1" stop-color="#fff8dc" stop-opacity=".05"/></linearGradient></defs>
<rect width="96" height="96" rx="18" fill="url(#bg178)"/><path d="M38 0h20l12 64h-44z" fill="url(#bg178s)"/><path d="M8 66h80v12a17 17 0 0 1-17 16h-46a17 17 0 0 1-17-16z" fill="#7a5533"/><path d="M8 66h80v3h-80z" fill="#956a41"/><g><rect x="28.81" y="57.900000000000006" width="2.38" height="22.099999999999998" rx="1.19" fill="#cfd6e4"/><path d="M23.2 80c0-2.5 3.5-4 8-4s8 1.5 8 4z" fill="#9aa4b8"/><circle cx="30" cy="52.8" r="7.225" fill="#39445c"/><path d="M24.05 50.675h11.9M23.2 53.225h13.6M24.05 55.775000000000006h11.9" stroke="#5a6880" stroke-width="0.935"/></g><g transform="rotate(-14 64 48)"><path d="M55 44.4l12.6-5.4v18l-12.6-5.4z" fill="#e05555"/><rect x="51.4" y="44.4" width="4.5" height="7.2" rx="1.4400000000000002" fill="#b23a3a"/><path d="M71.2 40.8l4.5-2.7M72.1 48h5.4M71.2 55.2l4.5 2.7" stroke="#ffd75e" stroke-width="1.9800000000000002" stroke-linecap="round"/></g><g stroke="#ffd75e" stroke-width="1.92" stroke-linecap="round"><path d="M82 26l4 1.6M80.4 34h4.800000000000001M83.6 42l4-1.6"/></g>
</svg>
