<svg xmlns="http://www.w3.org/2000/svg" width="96" height="96" viewBox="0 0 96 96">
<defs><linearGradient id="bg179" x1="0" y1="0" x2="0" y2="1"><stop offset="0" stop-color="#bfe0ff"/><stop offset="1" stop-color="#8ec3f5"/></linearGradient></defs>
<rect width="96" height="96" rx="18" fill="url(#bg179)"/><g fill="#fff" opacity=".9"><ellipse cx="24" cy="20" rx="11" ry="5"/><ellipse cx="33" cy="17" rx="8" ry="4.4"/><ellipse cx="72" cy="30" rx="9" ry="4"/></g><path d="M8 68h80v10a16 16 0 0 1-16 16h-48a16 16 0 0 1-16-16z" fill="#c99a63"/><path d="M8 68h80v3h-80z" fill="#a87e4e"/><path d="M20 78h20M56 82h22" stroke="#b3854f" stroke-width="1.6"/><g><circle cx="30" cy="58" r="7.2" fill="#fff" stroke="#c3cddf"/><path d="M30 54.94l2.8800000000000003 2.07-1.08 3.42h-3.6l-1.08-3.42z" fill="#2b3a55"/><path d="M30 54.94v-3.9600000000000004M32.88 57.01l3.6-1.26M27.12 57.01l-3.6-1.26M31.8 60.43l2.3400000000000003 3.06M28.2 60.43l-2.3400000000000003 3.06" stroke="#2b3a55" stroke-width="1.1700000000000002"/></g><g transform="rotate(-5 64 56)"><rect x="53.2" y="50.15" width="21.6" height="11.700000000000001" rx="1.4400000000000002" fill="#fdfaf2"/><path d="M64 50.15v11.700000000000001" stroke="#d8d2c2" stroke-width="1.08"/><path d="M55.9 53.75h5.4M55.9 56.45h5.4M66.7 53.75h5.4M66.7 56.45h5.4" stroke="#b9c3d6" stroke-width="1.1700000000000002" stroke-linecap="round"/></g><g><path d="M80 24.8a4.4 4.4 0 1 1 6 4c-2 .9-3 2-3 4" stroke="#0047ab" stroke-width="2.08" fill="none" stroke-linecap="round"/><circle cx="83.6" cy="35.2" r="1.2800000000000002" fill="#0047ab"/></g>
</svg>
