<svg xmlns="http://www.w3.org/2000/svg" width="96" height="96" viewBox="0 0 96 96">
<defs><linearGradient id="bg180" x1="0" y1="0" x2="0" y2="1"><stop offset="0" stop-color="#1f3060"/><stop offset="1" stop-color="#141f42"/></linearGradient></defs>
<rect width="96" height="96" rx="18" fill="url(#bg180)"/><circle cx="16" cy="16" r="1.4" fill="#fff"/><circle cx="38" cy="10" r="1.1" fill="#fff"/><circle cx="80" cy="14" r="1.2" fill="#fff"/><circle cx="64" cy="22" r=".9" fill="#fff" opacity=".8"/><path d="M4 74h88v8a14 14 0 0 1-14 12h-60a14 14 0 0 1-14-12z" fill="#232c4e"/><path d="M12 80h10M32 80h10M52 80h10M72 80h10" stroke="#4a5680" stroke-width="2.4" stroke-linecap="round"/><path d="M70 12a9.5 9.5 0 1 0 6.935 15.579999999999998 10.45 10.45 0 0 1-6.935-15.579999999999998z" fill="#ffe9a8"/><g><rect x="14.600000000000001" y="55.2" width="30.799999999999997" height="16.799999999999997" rx="1.68" fill="#e8ddc8"/><rect x="25.8" y="51" width="8.399999999999999" height="5.6" rx="1.6" fill="#d8c9ac"/><circle cx="30" cy="53.8" r="1.8199999999999998" fill="#fff" stroke="#0047ab" stroke-width="1.2"/><g fill="#9dc1f5"><rect x="17.4" y="58.7" width="4.199999999999999" height="4.199999999999999" rx="1"/><rect x="27.9" y="58.7" width="4.199999999999999" height="4.199999999999999" rx="1"/><rect x="38.4" y="58.7" width="4.199999999999999" height="4.199999999999999" rx="1"/></g><rect x="27.2" y="65.7" width="5.6" height="6.3" rx="1.4" fill="#7a532f"/></g>
</svg>
