<svg xmlns="http://www.w3.org/2000/svg" width="96" height="96" viewBox="0 0 96 96">
<defs><linearGradient id="bg181" x1="0" y1="0" x2="0" y2="1"><stop offset="0" stop-color="#bfe0ff"/><stop offset="1" stop-color="#8ec3f5"/></linearGradient></defs>
<rect width="96" height="96" rx="18" fill="url(#bg181)"/><g fill="#fff" opacity=".9"><ellipse cx="24" cy="20" rx="11" ry="5"/><ellipse cx="33" cy="17" rx="8" ry="4.4"/><ellipse cx="72" cy="30" rx="9" ry="4"/></g><g><path d="M24.549999999999997 35.6l4.2-3.1500000000000004h10.5l4.2 3.1500000000000004-2.7300000000000004 4.2-1.8900000000000001-1.47v11.55h-9.66v-11.55l-1.8900000000000001 1.47z" fill="#fff" stroke="#c3cddf" stroke-width="1"/></g><g transform="rotate(-6 62 54)"><rect x="50.3" y="46.35" width="23.400000000000002" height="15.3" rx="2" fill="#fdfaf2"/><path d="M53.9 50.85h16.2M53.9 54.45h16.2M53.9 58.05h10.8" stroke="#b9c3d6" stroke-width="1.5" stroke-linecap="round"/></g><path d="M84 26l1.4400000000000002 2.9600000000000004 3.2 .6-2.32 2.2399999999999998 .7 3.2-2.8800000000000003-1.52-2.8800000000000003 1.52 .7-3.2-2.32-2.2399999999999998 3.2-.6z" fill="#ffd75e"/>
</svg>
