<svg xmlns="http://www.w3.org/2000/svg" width="96" height="96" viewBox="0 0 96 96">
<defs><linearGradient id="bg183" x1="0" y1="0" x2="0" y2="1"><stop offset="0" stop-color="#bfe0ff"/><stop offset="1" stop-color="#8ec3f5"/></linearGradient></defs>
<rect width="96" height="96" rx="18" fill="url(#bg183)"/><g fill="#fff" opacity=".9"><ellipse cx="24" cy="20" rx="11" ry="5"/><ellipse cx="33" cy="17" rx="8" ry="4.4"/><ellipse cx="72" cy="30" rx="9" ry="4"/></g><path d="M8 68h80v10a16 16 0 0 1-16 16h-48a16 16 0 0 1-16-16z" fill="#c99a63"/><path d="M8 68h80v3h-80z" fill="#a87e4e"/><path d="M20 78h20M56 82h22" stroke="#b3854f" stroke-width="1.6"/><g><path d="M20.1 50.5L39.9 40.6L29.1 47.8L26.85 54.1z" fill="#fff" stroke="#c3cddf" stroke-width="0.9" stroke-linejoin="round"/><path d="M39.9 40.6L29.1 47.8" stroke="#9db8e8" stroke-width="0.81"/><path d="M13.8 54.1q2.7 -1.26 4.95 -0.54" stroke="#9db8e8" stroke-width="1.08" fill="none" stroke-linecap="round" stroke-dasharray="2 3"/></g><g><path d="M48.25 34.25L75.75 20.5L60.75 30.5L57.625 39.25z" fill="#ff9d9d" stroke="#c3cddf" stroke-width="1.25" stroke-linejoin="round"/><path d="M75.75 20.5L60.75 30.5" stroke="#9db8e8" stroke-width="1.125"/><path d="M39.5 39.25q3.75 -1.75 6.875 -0.75" stroke="#9db8e8" stroke-width="1.5" fill="none" stroke-linecap="round" stroke-dasharray="2 3"/></g><path d="M86 54l1.26 2.59 2.8 .6-2.03 1.9599999999999997 .7 2.8-2.52-1.3299999999999998-2.52 1.3299999999999998 .7-2.8-2.03-1.9599999999999997 2.8-.6z" fill="#ffd75e"/>
</svg>
