<svg xmlns="http://www.w3.org/2000/svg" width="96" height="96" viewBox="0 0 96 96">
<defs><linearGradient id="bg184" x1="0" y1="0" x2="0" y2="1"><stop offset="0" stop-color="#bfe0ff"/><stop offset="1" stop-color="#8ec3f5"/></linearGradient></defs>
<rect width="96" height="96" rx="18" fill="url(#bg184)"/><g fill="#fff" opacity=".9"><ellipse cx="24" cy="20" rx="11" ry="5"/><ellipse cx="33" cy="17" rx="8" ry="4.4"/><ellipse cx="72" cy="30" rx="9" ry="4"/></g><path d="M4 74h88v8a14 14 0 0 1-14 12h-60a14 14 0 0 1-14-12z" fill="#5a6478"/><path d="M12 80h10M32 80h10M52 80h10M72 80h10" stroke="#aab4c8" stroke-width="2.4" stroke-linecap="round"/><g stroke="#2b3a55" stroke-width="2.16" fill="none"><circle cx="23.2" cy="66" r="7.2"/><circle cx="44.8" cy="66" r="7.2"/><path d="M23.2 66l6.3-10.8h8.1l7.2 10.8M29.5 55.2l-3.6-2.7h5.4M37.6 55.2l-3.6 10.8"/><path d="M35.8 51.15h5.4" stroke-linecap="round"/></g><g stroke="#2b3a55" stroke-width="1.728" fill="none"><circle cx="59.36" cy="70" r="5.76"/><circle cx="76.64" cy="70" r="5.76"/><path d="M59.36 70l5.04-8.64h6.4799999999999995l5.76 8.64M64.4 61.36l-2.88-2.16h4.32M70.88 61.36l-2.88 8.64"/><path d="M69.44 58.120000000000005h4.32" stroke-linecap="round"/></g>
</svg>
