<svg xmlns="http://www.w3.org/2000/svg" width="96" height="96" viewBox="0 0 96 96">
<defs><linearGradient id="bg186" x1="0" y1="0" x2="0" y2="1"><stop offset="0" stop-color="#bfe0ff"/><stop offset="1" stop-color="#8ec3f5"/></linearGradient></defs>
<rect width="96" height="96" rx="18" fill="url(#bg186)"/><g fill="#fff" opacity=".9"><ellipse cx="24" cy="20" rx="11" ry="5"/><ellipse cx="33" cy="17" rx="8" ry="4.4"/><ellipse cx="72" cy="30" rx="9" ry="4"/></g><path d="M8 64h80v14a16 16 0 0 1-16 16h-48a16 16 0 0 1-16-16z" fill="#a57847"/><path d="M8 64h80v3h-80z" fill="#8a5f36"/><g transform="rotate(-6 38 50)"><rect x="25.65" y="41.925" width="24.7" height="16.15" rx="2" fill="#fdfaf2"/><path d="M29.450000000000003 46.675h17.099999999999998M29.450000000000003 50.475h17.099999999999998M29.450000000000003 54.275h11.399999999999999" stroke="#b9c3d6" stroke-width="1.5" stroke-linecap="round"/></g><g><path d="M60.5 21.6a6.050000000000001 6.050000000000001 0 1 1 8.25 5.5c-2 .9-3 2-3 4" stroke="#0047ab" stroke-width="2.8600000000000003" fill="none" stroke-linecap="round"/><circle cx="65.45" cy="35.9" r="1.7600000000000002" fill="#0047ab"/></g><g><path d="M78.5 39.2a3.8499999999999996 3.8499999999999996 0 1 1 5.25 3.5c-2 .9-3 2-3 4" stroke="#7d95bd" stroke-width="1.8199999999999998" fill="none" stroke-linecap="round"/><circle cx="81.65" cy="48.3" r="1.1199999999999999" fill="#7d95bd"/></g>
</svg>
