<svg xmlns="http://www.w3.org/2000/svg" width="96" height="96" viewBox="0 0 96 96">
<defs><linearGradient id="bg187" x1="0" y1="0" x2="0" y2="1"><stop offset="0" stop-color="#fff2d8"/><stop offset="1" stop-color="#ffdda6"/></linearGradient></defs>
<rect width="96" height="96" rx="18" fill="url(#bg187)"/><path d="M8 64h80v14a16 16 0 0 1-16 16h-48a16 16 0 0 1-16-16z" fill="#a57847"/><path d="M8 64h80v3h-80z" fill="#8a5f36"/><g><path d="M34.3 45.2h15.400000000000002l-1.7600000000000002 17.6h-11.880000000000003z" fill="#e05555"/><path d="M34.3 49.16h15.400000000000002" stroke="#fff" stroke-width="2.2" opacity=".6"/><path d="M39.14 37.5c-1.8 2.2-1.8 3.6 0 5.8M45.3 36.4c-1.8 2.2-1.8 3.6 0 5.8" stroke="#c3cddf" stroke-width="1.87" fill="none" stroke-linecap="round"/></g><path d="M70 28l1.62 3.33 3.6 .6-2.61 2.52 .7 3.6-3.24-1.71-3.24 1.71 .7-3.6-2.61-2.52 3.6-.6z" fill="#ffd75e"/><g fill="#ffd75e"><circle cx="84" cy="50" r="1.02"/><circle cx="92.4" cy="56" r="0.78"/><circle cx="79.2" cy="58.4" r="0.72"/></g>
</svg>
