<svg xmlns="http://www.w3.org/2000/svg" width="96" height="96" viewBox="0 0 96 96">
<defs><linearGradient id="bg188" x1="0" y1="0" x2="0" y2="1"><stop offset="0" stop-color="#ffb36b"/><stop offset=".55" stop-color="#e77e6a"/><stop offset="1" stop-color="#5a4f9e"/></linearGradient><radialGradient id="bg188u" cx=".5" cy=".5" r=".5"><stop offset="0" stop-color="#fff0b3"/><stop offset="1" stop-color="#fff0b3" stop-opacity="0"/></radialGradient></defs>
<rect width="96" height="96" rx="18" fill="url(#bg188)"/><circle cx="76" cy="28" r="16" fill="url(#bg188u)"/><circle cx="76" cy="28" r="6.5" fill="#ffdd88"/><path d="M8 68h80v10a16 16 0 0 1-16 16h-48a16 16 0 0 1-16-16z" fill="#c99a63"/><path d="M8 68h80v3h-80z" fill="#a87e4e"/><path d="M20 78h20M56 82h22" stroke="#b3854f" stroke-width="1.6"/><g><rect x="12.674" y="32.08" width="2.652" height="49.92" rx="1.326" fill="#3a3f55"/><path d="M15.326 35.199999999999996 C 23.36 32.08, 32.72 38.32, 40.519999999999996 35.199999999999996 S 49.88 33.64, 49.88 33.64 L 49.88 50.8 C 42.08 53.92, 32.72 47.68, 24.92 50.8 S 15.326 52.36, 15.326 52.36 Z" fill="#0a58c8"/><path d="M21.8 38.32l1.4040000000000001 2.886 3.12 .6-2.262 2.1839999999999997 .7 3.12-2.8080000000000003-1.482-2.8080000000000003 1.482 .7-3.12-2.262-2.1839999999999997 3.12-.6z" fill="#fff"/></g><g fill="#20264a"><path d="M40 88c1-3.8500000000000005 2.2-6.050000000000001 4.4-6.050000000000001s3.8500000000000005 2.2 4.4 6.050000000000001z"/><path d="M49.35 88c1-3.8500000000000005 2.2-6.050000000000001 4.4-6.050000000000001s3.8500000000000005 2.2 4.4 6.050000000000001z"/><path d="M58.7 88c1-3.8500000000000005 2.2-6.050000000000001 4.4-6.050000000000001s3.8500000000000005 2.2 4.4 6.050000000000001z"/><path d="M68.05 88c1-3.8500000000000005 2.2-6.050000000000001 4.4-6.050000000000001s3.8500000000000005 2.2 4.4 6.050000000000001z"/><path d="M77.4 88c1-3.8500000000000005 2.2-6.050000000000001 4.4-6.050000000000001s3.8500000000000005 2.2 4.4 6.050000000000001z"/></g><path d="M43.3 80.85l0.55-2.2M52.65 80.85l0.55-2.2M62 80.85l0.55-2.2M71.35 80.85l0.55-2.2M80.7 80.85l0.55-2.2" stroke="#20264a" stroke-width="1.6500000000000001" stroke-linecap="round"/><g stroke-linecap="round"><path d="M78 30c3 2 3 6 0 8s-3 6 0 8" stroke="#9db8ff" stroke-width="1.7600000000000002" fill="none"/><path d="M86.8 26c2.4 1.6 2.4 4.8 0 6.4s-2.4 4.8 0 6.4" stroke="#9db8ff" stroke-width="1.52" fill="none" opacity=".85"/></g>
</svg>
