<svg xmlns="http://www.w3.org/2000/svg" width="96" height="96" viewBox="0 0 96 96">
<defs><linearGradient id="bg190" x1="0" y1="0" x2="0" y2="1"><stop offset="0" stop-color="#1a2f5e"/><stop offset="1" stop-color="#0d1b3d"/></linearGradient><linearGradient id="bg190s" x1="0" y1="0" x2="0" y2="1"><stop offset="0" stop-color="#fff8dc" stop-opacity=".75"/><stop offset="1" stop-color="#fff8dc" stop-opacity=".05"/></linearGradient></defs>
<rect width="96" height="96" rx="18" fill="url(#bg190)"/><path d="M38 0h20l12 64h-44z" fill="url(#bg190s)"/><path d="M8 66h80v12a17 17 0 0 1-17 16h-46a17 17 0 0 1-17-16z" fill="#7a5533"/><path d="M8 66h80v3h-80z" fill="#956a41"/><g><circle cx="32" cy="54" r="9.025" fill="#f2c9a4"/><path d="M23.450000000000003 54.95c-1-9 4-13 9-13s10 4 9 13l-2.4-1c.6-6-2-8.6-6.6-8.6s-7.2 2.6-6.6 8.6z" fill="#2b2118"/><path d="M27.630000000000003 54.76c1-1.4 2.6-1.4 3.6 0M32.95 54.76c1-1.4 2.6-1.4 3.6 0" stroke="#2b1d12" stroke-width="1.2349999999999999" fill="none" stroke-linecap="round"/><path d="M29.91 57.99a2.8499999999999996 2.8499999999999996 0 0 0 4.18 0" stroke="#b06e4a" stroke-width="1.045" fill="none" stroke-linecap="round"/><circle cx="26.68" cy="56.85" r="1.1875" fill="#f0a08a" opacity=".7"/><circle cx="37.32" cy="56.85" r="1.1875" fill="#f0a08a" opacity=".7"/><path d="M20.6 70.15c1-6.5 5.5-9.5 12-9.5s11 3 12 9.5z" fill="#2b6bd8"/></g><g><circle cx="60" cy="54" r="9.025" fill="#f2c9a4"/><path d="M51.45 54.95c-1-9 4-13 9-13s10 4 9 13l-2.4-1c.6-6-2-8.6-6.6-8.6s-7.2 2.6-6.6 8.6z" fill="#2b2118"/><path d="M55.63 54.76c1-1.4 2.6-1.4 3.6 0M60.95 54.76c1-1.4 2.6-1.4 3.6 0" stroke="#2b1d12" stroke-width="1.2349999999999999" fill="none" stroke-linecap="round"/><path d="M57.91 57.99a2.8499999999999996 2.8499999999999996 0 0 0 4.18 0" stroke="#b06e4a" stroke-width="1.045" fill="none" stroke-linecap="round"/><circle cx="54.68" cy="56.85" r="1.1875" fill="#f0a08a" opacity=".7"/><circle cx="65.32" cy="56.85" r="1.1875" fill="#f0a08a" opacity=".7"/><path d="M48.6 70.15c1-6.5 5.5-9.5 12-9.5s11 3 12 9.5z" fill="#2b6bd8"/></g><g stroke="#ffd75e" stroke-width="1.68" stroke-linecap="round"><path d="M84 28l3.5 1.4M82.6 35h4.199999999999999M85.4 42l3.5-1.4"/></g>
</svg>
