<svg xmlns="http://www.w3.org/2000/svg" width="96" height="96" viewBox="0 0 96 96">
<defs><linearGradient id="bg191" x1="0" y1="0" x2="0" y2="1"><stop offset="0" stop-color="#bfe0ff"/><stop offset="1" stop-color="#8ec3f5"/></linearGradient></defs>
<rect width="96" height="96" rx="18" fill="url(#bg191)"/><g fill="#fff" opacity=".9"><ellipse cx="24" cy="20" rx="11" ry="5"/><ellipse cx="33" cy="17" rx="8" ry="4.4"/><ellipse cx="72" cy="30" rx="9" ry="4"/></g><path d="M8 64h80v14a16 16 0 0 1-16 16h-48a16 16 0 0 1-16-16z" fill="#a57847"/><path d="M8 64h80v3h-80z" fill="#8a5f36"/><g transform="rotate(-6 34 50)"><rect x="22.299999999999997" y="42.35" width="23.400000000000002" height="15.3" rx="2" fill="#fdfaf2"/><path d="M25.9 46.85h16.2M25.9 50.45h16.2M25.9 54.05h10.8" stroke="#b9c3d6" stroke-width="1.5" stroke-linecap="round"/></g><g transform="rotate(-6 62 54)"><rect x="52.64" y="47.88" width="18.72" height="12.24" rx="2" fill="#fdfaf2"/><path d="M55.52 51.48h12.959999999999999M55.52 54.36h12.959999999999999M55.52 57.24h8.64" stroke="#b9c3d6" stroke-width="1.5" stroke-linecap="round"/></g><path d="M84 28l1.26 2.59 2.8 .6-2.03 1.9599999999999997 .7 2.8-2.52-1.3299999999999998-2.52 1.3299999999999998 .7-2.8-2.03-1.9599999999999997 2.8-.6z" fill="#ffd75e"/>
</svg>
