<svg xmlns="http://www.w3.org/2000/svg" width="96" height="96" viewBox="0 0 96 96">
<defs><linearGradient id="bg113" x1="0" y1="0" x2="0" y2="1"><stop offset="0" stop-color="#bfe0ff"/><stop offset="1" stop-color="#8ec3f5"/></linearGradient></defs>
<rect width="96" height="96" rx="18" fill="url(#bg113)"/><g fill="#fff" opacity=".9"><ellipse cx="24" cy="20" rx="11" ry="5"/><ellipse cx="33" cy="17" rx="8" ry="4.4"/><ellipse cx="72" cy="30" rx="9" ry="4"/></g><path d="M4 72h88v10a14 14 0 0 1-14 12h-60a14 14 0 0 1-14-12z" fill="#6ea25f"/><path d="M14 72l2-5M26 72l2-5M44 72l2-5M64 72l2-5M80 72l2-5" stroke="#547f47" stroke-width="2" stroke-linecap="round"/><g><rect x="49.2" y="20.8" width="6" height="33.6" rx="3" fill="#c98d4e" transform="rotate(24 51.6 37.6)"/><circle cx="37.2" cy="52" r="9" fill="#fff" stroke="#d8d2c2"/><path d="M31.68 47.68c2 1.6 2 5.6 0 7.2M42.72 47.68c-2 1.6-2 5.6 0 7.2" stroke="#e05555" stroke-width="1.68" fill="none"/></g><g><rect x="16.4" y="18" width="3.2" height="12" rx="1.6" fill="#ef6f6f"/><circle cx="18" cy="34" r="1.9" fill="#ef6f6f"/></g><path d="M76 24l1.8 3.7 4 .6-2.9 2.8 .7 4-3.6-1.9-3.6 1.9 .7-4-2.9-2.8 4-.6z" fill="#ffd75e"/>
</svg>
