<svg xmlns="http://www.w3.org/2000/svg" width="96" height="96" viewBox="0 0 96 96">
<defs><linearGradient id="bg113" x1="0" y1="0" x2="0" y2="1"><stop offset="0" stop-color="#bfe0ff"/><stop offset="1" stop-color="#8ec3f5"/></linearGradient></defs>
<rect width="96" height="96" rx="18" fill="url(#bg113)"/><g fill="#fff" opacity=".9"><ellipse cx="24" cy="20" rx="11" ry="5"/><ellipse cx="33" cy="17" rx="8" ry="4.4"/><ellipse cx="72" cy="30" rx="9" ry="4"/></g><path d="M8 68h80v10a16 16 0 0 1-16 16h-48a16 16 0 0 1-16-16z" fill="#c99a63"/><path d="M8 68h80v3h-80z" fill="#a87e4e"/><path d="M20 78h20M56 82h22" stroke="#b3854f" stroke-width="1.6"/><g><path d="M39.35 59.2l-4 -7M52.65 59.2l4 -7" stroke="#f2c9a4" stroke-width="3.04" stroke-linecap="round"/><path d="M39.825 56.35h12.35v14.25h-12.35z" fill="#2b6bd8"/><path d="M42.58 70.6v9.5M49.42 70.6v9.5" stroke="#2b3a55" stroke-width="3.9899999999999998" stroke-linecap="round"/><circle cx="46" cy="49.7" r="7.6" fill="#f2c9a4"/><path d="M39.0555 47.3725l1.6-3.4 2 2 1.8-3.4 2 2.4 1.8-3 1.8 3 2-2.4 1.8 3.4 2-2 1.6 3.4c-5.6-2.6-13-2.6-18.4 0z" fill="#2b2118"/><path d="M42.2855 50.346000000000004c1-1.4 2.6-1.4 3.6 0M46.8075 50.346000000000004c1-1.4 2.6-1.4 3.6 0" stroke="#2b1d12" stroke-width="1.04975" fill="none" stroke-linecap="round"/><path d="M44.2235 53.0915a2.4225 2.4225 0 0 0 3.5530000000000004 0" stroke="#b06e4a" stroke-width="0.8882500000000001" fill="none" stroke-linecap="round"/><circle cx="41.478" cy="52.1225" r="1.009375" fill="#f0a08a" opacity=".7"/><circle cx="50.522" cy="52.1225" r="1.009375" fill="#f0a08a" opacity=".7"/></g><g fill="#20264a"><path d="M12 90c1-3.8500000000000005 2.2-6.050000000000001 4.4-6.050000000000001s3.8500000000000005 2.2 4.4 6.050000000000001z"/><path d="M21.35 90c1-3.8500000000000005 2.2-6.050000000000001 4.4-6.050000000000001s3.8500000000000005 2.2 4.4 6.050000000000001z"/><path d="M30.700000000000003 90c1-3.8500000000000005 2.2-6.050000000000001 4.4-6.050000000000001s3.8500000000000005 2.2 4.4 6.050000000000001z"/><path d="M40.05 90c1-3.8500000000000005 2.2-6.050000000000001 4.4-6.050000000000001s3.8500000000000005 2.2 4.4 6.050000000000001z"/><path d="M49.400000000000006 90c1-3.8500000000000005 2.2-6.050000000000001 4.4-6.050000000000001s3.8500000000000005 2.2 4.4 6.050000000000001z"/></g><path d="M15.3 82.85l0.55-2.2M24.650000000000002 82.85l0.55-2.2M34 82.85l0.55-2.2M43.35 82.85l0.55-2.2M52.7 82.85l0.55-2.2" stroke="#20264a" stroke-width="1.6500000000000001" stroke-linecap="round"/><path d="M78 24l1.62 3.33 3.6 .6-2.61 2.52 .7 3.6-3.24-1.71-3.24 1.71 .7-3.6-2.61-2.52 3.6-.6z" fill="#ffd75e"/>
</svg>
