<svg xmlns="http://www.w3.org/2000/svg" width="96" height="96" viewBox="0 0 96 96">
<defs><linearGradient id="bg114" x1="0" y1="0" x2="0" y2="1"><stop offset="0" stop-color="#fff2d8"/><stop offset="1" stop-color="#ffdda6"/></linearGradient></defs>
<rect width="96" height="96" rx="18" fill="url(#bg114)"/><path d="M8 64h80v14a16 16 0 0 1-16 16h-48a16 16 0 0 1-16-16z" fill="#a57847"/><path d="M8 64h80v3h-80z" fill="#8a5f36"/><g transform="rotate(-6 34 52)"><rect x="21" y="43.5" width="26" height="17" rx="2" fill="#fdfaf2"/><path d="M25 48.5h18M25 52.5h18M25 56.5h12" stroke="#b9c3d6" stroke-width="1.5" stroke-linecap="round"/></g><g><g transform="rotate(35 66 41.2)"><rect x="64.13" y="23.599999999999998" width="3.74" height="16.5" rx="1.87" fill="#8a5f36"/><path d="M63.14 40.1h5.720000000000001l-1.32 7.700000000000001q-1.54 2.4200000000000004 -3.08 0z" fill="#2b2118"/></g><path d="M57.2 58.8q8.8 -4.4 17.6 1.1" stroke="#2b2118" stroke-width="3.3000000000000003" fill="none" stroke-linecap="round"/></g><path d="M86 28l1.26 2.59 2.8 .6-2.03 1.9599999999999997 .7 2.8-2.52-1.3299999999999998-2.52 1.3299999999999998 .7-2.8-2.03-1.9599999999999997 2.8-.6z" fill="#ffd75e"/>
</svg>
