<svg xmlns="http://www.w3.org/2000/svg" width="96" height="96" viewBox="0 0 96 96">
<defs><linearGradient id="bg114" x1="0" y1="0" x2="0" y2="1"><stop offset="0" stop-color="#fff2d8"/><stop offset="1" stop-color="#ffdda6"/></linearGradient></defs>
<rect width="96" height="96" rx="18" fill="url(#bg114)"/><path d="M8 64h80v14a16 16 0 0 1-16 16h-48a16 16 0 0 1-16-16z" fill="#a57847"/><path d="M8 64h80v3h-80z" fill="#8a5f36"/><g><ellipse cx="42" cy="52" rx="12.649999999999999" ry="9.2" fill="#d78f35"/><ellipse cx="42" cy="50.16" rx="12.649999999999999" ry="8.51" fill="#f3bd6e"/><g fill="#fff"><circle cx="37.4" cy="49.01" r="1.4949999999999999"/><circle cx="45.45" cy="51.31" r="1.4949999999999999"/><circle cx="42" cy="47.17" r="1.4949999999999999"/></g><path d="M37.4 35.900000000000006c-2.5 3-2.5 5 0 8M46.6 33.6c-2.5 3-2.5 5 0 8" stroke="#e8ddc8" stroke-width="2.53" fill="none" stroke-linecap="round" opacity=".9"/></g><g><path d="M68.4 45.4h11.2v4.199999999999999a5.6 5.6 0 0 1-11.2 0z" fill="#ffd75e"/><path d="M68.4 46.8c-2.8 0-4.199999999999999 3.5-0.7 4.8999999999999995M79.6 46.8c2.8 0 4.199999999999999 3.5 0.7 4.8999999999999995" stroke="#ffd75e" stroke-width="1.4" fill="none"/><rect x="72.6" y="53.8" width="2.8" height="2.8" fill="#e8b23d"/><path d="M69.8 58h8.399999999999999l0.9799999999999999 2.52h-10.36z" fill="#a5772a"/><path d="M72.18 48.480000000000004l0.9099999999999999 1.8199999999999998 2.03 .4-1.47 1.4 .5 2.03-1.8199999999999998-0.9799999999999999-1.8199999999999998 0.9799999999999999 .5-2.03-1.47-1.4 2.03-.4z" fill="#fff" opacity=".85"/></g><path d="M18 26l1.62 3.33 3.6 .6-2.61 2.52 .7 3.6-3.24-1.71-3.24 1.71 .7-3.6-2.61-2.52 3.6-.6z" fill="#ffd75e"/>
</svg>
