<svg xmlns="http://www.w3.org/2000/svg" width="96" height="96" viewBox="0 0 96 96">
<defs><linearGradient id="bg115" x1="0" y1="0" x2="0" y2="1"><stop offset="0" stop-color="#4a3a72"/><stop offset="1" stop-color="#2c2350"/></linearGradient><radialGradient id="bg115c" cx=".5" cy=".5" r=".5"><stop offset="0" stop-color="#ffe9a8" stop-opacity=".95"/><stop offset="1" stop-color="#ffe9a8" stop-opacity="0"/></radialGradient></defs>
<rect width="96" height="96" rx="18" fill="url(#bg115)"/><circle cx="48" cy="13" r="12" fill="url(#bg115c)"/><circle cx="43.5" cy="14" r="1.8" fill="#ffd75e"/><circle cx="48" cy="16" r="1.8" fill="#ffd75e"/><circle cx="52.5" cy="14" r="1.8" fill="#ffd75e"/><path d="M8 66h80v12a17 17 0 0 1-17 16h-46a17 17 0 0 1-17-16z" fill="#7a5533"/><path d="M8 66h80v3h-80z" fill="#956a41"/><g><ellipse cx="42" cy="58" rx="15.6" ry="4.8" fill="#2b3450"/><path d="M32.4 58v-16.8a2.4 2.4 0 0 1 2.4-2.4h14.399999999999999a2.4 2.4 0 0 1 2.4 2.4v16.8" fill="#3a4666"/><path d="M32.4 52h19.2" stroke="#e05555" stroke-width="3.12"/></g><g stroke="#ffd75e" stroke-width="2.28" stroke-linecap="round"><path d="M70 28l4.75 1.9M68.1 37.5h5.699999999999999M71.9 47l4.75-1.9"/></g><path d="M16 28l1.4400000000000002 2.9600000000000004 3.2 .6-2.32 2.2399999999999998 .7 3.2-2.8800000000000003-1.52-2.8800000000000003 1.52 .7-3.2-2.32-2.2399999999999998 3.2-.6z" fill="#ffd75e"/>
</svg>
