<svg xmlns="http://www.w3.org/2000/svg" width="96" height="96" viewBox="0 0 96 96">
<defs><linearGradient id="bg115" x1="0" y1="0" x2="0" y2="1"><stop offset="0" stop-color="#1a2f5e"/><stop offset="1" stop-color="#0d1b3d"/></linearGradient><linearGradient id="bg115s" x1="0" y1="0" x2="0" y2="1"><stop offset="0" stop-color="#fff8dc" stop-opacity=".75"/><stop offset="1" stop-color="#fff8dc" stop-opacity=".05"/></linearGradient></defs>
<rect width="96" height="96" rx="18" fill="url(#bg115)"/><path d="M38 0h20l12 64h-44z" fill="url(#bg115s)"/><path d="M8 66h80v12a17 17 0 0 1-17 16h-46a17 17 0 0 1-17-16z" fill="#7a5533"/><path d="M8 66h80v3h-80z" fill="#956a41"/><g><rect x="40.67" y="55.3" width="2.6599999999999997" height="24.7" rx="1.3299999999999998" fill="#cfd6e4"/><path d="M34.4 80c0-2.5 3.5-4 8-4s8 1.5 8 4z" fill="#9aa4b8"/><circle cx="42" cy="49.6" r="8.075" fill="#39445c"/><path d="M35.35 47.225h13.299999999999999M34.4 50.075h15.2M35.35 52.925h13.299999999999999" stroke="#5a6880" stroke-width="1.045"/></g><g><rect x="68.4" y="16" width="3.2" height="12" rx="1.6" fill="#ffd75e"/><circle cx="70" cy="32" r="1.9" fill="#ffd75e"/></g><g stroke-linecap="round"><path d="M18 32c3 2 3 6 0 8s-3 6 0 8" stroke="#9db8ff" stroke-width="1.9800000000000002" fill="none"/><path d="M27.9 27.5c2.4 1.6 2.4 4.8 0 6.4s-2.4 4.8 0 6.4" stroke="#9db8ff" stroke-width="1.71" fill="none" opacity=".85"/></g>
</svg>
