<svg xmlns="http://www.w3.org/2000/svg" width="96" height="96" viewBox="0 0 96 96">
<defs><linearGradient id="bg116" x1="0" y1="0" x2="0" y2="1"><stop offset="0" stop-color="#ffb36b"/><stop offset=".55" stop-color="#e77e6a"/><stop offset="1" stop-color="#5a4f9e"/></linearGradient><radialGradient id="bg116u" cx=".5" cy=".5" r=".5"><stop offset="0" stop-color="#fff0b3"/><stop offset="1" stop-color="#fff0b3" stop-opacity="0"/></radialGradient></defs>
<rect width="96" height="96" rx="18" fill="url(#bg116)"/><circle cx="76" cy="28" r="16" fill="url(#bg116u)"/><circle cx="76" cy="28" r="6.5" fill="#ffdd88"/><path d="M8 68h80v10a16 16 0 0 1-16 16h-48a16 16 0 0 1-16-16z" fill="#c99a63"/><path d="M8 68h80v3h-80z" fill="#a87e4e"/><path d="M20 78h20M56 82h22" stroke="#b3854f" stroke-width="1.6"/><g><rect x="26.2" y="48.4" width="39.6" height="21.6" rx="2.16" fill="#e8ddc8"/><rect x="40.6" y="43" width="10.8" height="7.2" rx="1.6" fill="#d8c9ac"/><circle cx="46" cy="46.599999999999994" r="2.3400000000000003" fill="#fff" stroke="#0047ab" stroke-width="1.2"/><g fill="#9dc1f5"><rect x="29.8" y="52.9" width="5.4" height="5.4" rx="1"/><rect x="43.3" y="52.9" width="5.4" height="5.4" rx="1"/><rect x="56.8" y="52.9" width="5.4" height="5.4" rx="1"/></g><rect x="42.4" y="61.9" width="7.2" height="8.1" rx="1.4" fill="#7a532f"/></g><g stroke-linecap="round"><path d="M82 30c3 2 3 6 0 8s-3 6 0 8" stroke="#9db8ff" stroke-width="1.32" fill="none"/><path d="M88.6 27c2.4 1.6 2.4 4.8 0 6.4s-2.4 4.8 0 6.4" stroke="#9db8ff" stroke-width="1.14" fill="none" opacity=".85"/></g>
</svg>
