<svg xmlns="http://www.w3.org/2000/svg" width="96" height="96" viewBox="0 0 96 96">
<defs><linearGradient id="bg117" x1="0" y1="0" x2="0" y2="1"><stop offset="0" stop-color="#1a2f5e"/><stop offset="1" stop-color="#0d1b3d"/></linearGradient><linearGradient id="bg117s" x1="0" y1="0" x2="0" y2="1"><stop offset="0" stop-color="#fff8dc" stop-opacity=".75"/><stop offset="1" stop-color="#fff8dc" stop-opacity=".05"/></linearGradient></defs>
<rect width="96" height="96" rx="18" fill="url(#bg117)"/><path d="M38 0h20l12 64h-44z" fill="url(#bg117s)"/><path d="M8 66h80v12a17 17 0 0 1-17 16h-46a17 17 0 0 1-17-16z" fill="#7a5533"/><path d="M8 66h80v3h-80z" fill="#956a41"/><g><rect x="36.74" y="56.599999999999994" width="2.52" height="23.400000000000002" rx="1.26" fill="#cfd6e4"/><path d="M30.8 80c0-2.5 3.5-4 8-4s8 1.5 8 4z" fill="#9aa4b8"/><circle cx="38" cy="51.2" r="7.65" fill="#39445c"/><path d="M31.7 48.95h12.6M30.8 51.65h14.4M31.7 54.349999999999994h12.6" stroke="#5a6880" stroke-width="0.9900000000000001"/></g><path d="M66 34.3c-6.3-4.14-8.64-8.46-6.12-11.520000000000001c1.8-2.16 4.86-1.4400000000000002 6.12 .8 1.26-2.16 4.32-2.8800000000000003 6.12-.8 2.52 3.06 .2 7.38-6.12 11.520000000000001z" fill="#ef6f6f"/><g stroke-linecap="round"><path d="M80 44c3 2 3 6 0 8s-3 6 0 8" stroke="#9db8ff" stroke-width="1.54" fill="none"/><path d="M87.7 40.5c2.4 1.6 2.4 4.8 0 6.4s-2.4 4.8 0 6.4" stroke="#9db8ff" stroke-width="1.3299999999999998" fill="none" opacity=".85"/></g>
</svg>
