<svg xmlns="http://www.w3.org/2000/svg" width="96" height="96" viewBox="0 0 96 96">
<defs><linearGradient id="bg118" x1="0" y1="0" x2="0" y2="1"><stop offset="0" stop-color="#fff2d8"/><stop offset="1" stop-color="#ffdda6"/></linearGradient></defs>
<rect width="96" height="96" rx="18" fill="url(#bg118)"/><path d="M8 64h80v14a16 16 0 0 1-16 16h-48a16 16 0 0 1-16-16z" fill="#a57847"/><path d="M8 64h80v3h-80z" fill="#8a5f36"/><g><circle cx="34" cy="48" r="6.3" fill="#ffd75e" stroke="#e8b23d" stroke-width="1.4400000000000002"/><circle cx="34" cy="48" r="1.9800000000000002" fill="none" stroke="#e8b23d" stroke-width="1.26"/></g><g><ellipse cx="58" cy="54" rx="10.45" ry="7.6" fill="#d78f35"/><ellipse cx="58" cy="52.48" rx="10.45" ry="7.03" fill="#f3bd6e"/><g fill="#fff"><circle cx="54.2" cy="51.53" r="1.2349999999999999"/><circle cx="60.85" cy="53.43" r="1.2349999999999999"/><circle cx="58" cy="50.01" r="1.2349999999999999"/></g><path d="M54.2 40.7c-2.5 3-2.5 5 0 8M61.8 38.8c-2.5 3-2.5 5 0 8" stroke="#e8ddc8" stroke-width="2.09" fill="none" stroke-linecap="round" opacity=".9"/></g><path d="M82 26l1.4400000000000002 2.9600000000000004 3.2 .6-2.32 2.2399999999999998 .7 3.2-2.8800000000000003-1.52-2.8800000000000003 1.52 .7-3.2-2.32-2.2399999999999998 3.2-.6z" fill="#ffd75e"/>
</svg>
