<svg xmlns="http://www.w3.org/2000/svg" width="96" height="96" viewBox="0 0 96 96">
<defs><linearGradient id="bg119" x1="0" y1="0" x2="0" y2="1"><stop offset="0" stop-color="#1a2f5e"/><stop offset="1" stop-color="#0d1b3d"/></linearGradient><linearGradient id="bg119s" x1="0" y1="0" x2="0" y2="1"><stop offset="0" stop-color="#fff8dc" stop-opacity=".75"/><stop offset="1" stop-color="#fff8dc" stop-opacity=".05"/></linearGradient></defs>
<rect width="96" height="96" rx="18" fill="url(#bg119)"/><path d="M38 0h20l12 64h-44z" fill="url(#bg119s)"/><path d="M8 66h80v12a17 17 0 0 1-17 16h-46a17 17 0 0 1-17-16z" fill="#7a5533"/><path d="M8 66h80v3h-80z" fill="#956a41"/><g><rect x="44.53" y="52.7" width="2.94" height="27.3" rx="1.47" fill="#cfd6e4"/><path d="M37.6 80c0-2.5 3.5-4 8-4s8 1.5 8 4z" fill="#9aa4b8"/><circle cx="46" cy="46.4" r="8.925" fill="#39445c"/><path d="M38.65 43.775h14.700000000000001M37.6 46.925h16.8M38.65 50.075h14.700000000000001" stroke="#5a6880" stroke-width="1.1550000000000002"/></g><g fill="#ffd75e"><circle cx="70" cy="28" r="1.7"/><circle cx="84" cy="38" r="1.3"/><circle cx="62" cy="42" r="1.2"/></g><path d="M20 22l1.62 3.33 3.6 .6-2.61 2.52 .7 3.6-3.24-1.71-3.24 1.71 .7-3.6-2.61-2.52 3.6-.6z" fill="#ffd75e"/>
</svg>
