<svg xmlns="http://www.w3.org/2000/svg" width="96" height="96" viewBox="0 0 96 96">
<defs><linearGradient id="bg121" x1="0" y1="0" x2="0" y2="1"><stop offset="0" stop-color="#fff2d8"/><stop offset="1" stop-color="#ffdda6"/></linearGradient></defs>
<rect width="96" height="96" rx="18" fill="url(#bg121)"/><path d="M8 64h80v14a16 16 0 0 1-16 16h-48a16 16 0 0 1-16-16z" fill="#a57847"/><path d="M8 64h80v3h-80z" fill="#8a5f36"/><g><ellipse cx="32" cy="52" rx="9.9" ry="7.2" fill="#d78f35"/><ellipse cx="32" cy="50.56" rx="9.9" ry="6.66" fill="#f3bd6e"/><g fill="#fff"><circle cx="28.4" cy="49.66" r="1.1700000000000002"/><circle cx="34.7" cy="51.46" r="1.1700000000000002"/><circle cx="32" cy="48.22" r="1.1700000000000002"/></g><path d="M28.4 39.4c-2.5 3-2.5 5 0 8M35.6 37.6c-2.5 3-2.5 5 0 8" stroke="#e8ddc8" stroke-width="1.9800000000000002" fill="none" stroke-linecap="round" opacity=".9"/></g><g><path d="M54 43.6l8.8 14.4h-17.6z" fill="#fff" stroke="#39445c" stroke-width="1.7600000000000002" stroke-linejoin="round"/><rect x="50.4" y="51.6" width="7.2" height="6.4" rx="0.96" fill="#39445c"/></g><g><circle cx="78" cy="26" r="7.699999999999999" fill="#fff" stroke="#0047ab" stroke-width="2.0999999999999996"/><path d="M78 21.45v4.55l3.2199999999999998-1.4" stroke="#0047ab" stroke-width="1.8199999999999998" fill="none" stroke-linecap="round"/><circle cx="78" cy="26" r="1.1199999999999999" fill="#0047ab"/></g>
</svg>
