<svg xmlns="http://www.w3.org/2000/svg" width="96" height="96" viewBox="0 0 96 96">
<defs><linearGradient id="bg123" x1="0" y1="0" x2="0" y2="1"><stop offset="0" stop-color="#bfe0ff"/><stop offset="1" stop-color="#8ec3f5"/></linearGradient></defs>
<rect width="96" height="96" rx="18" fill="url(#bg123)"/><g fill="#fff" opacity=".9"><ellipse cx="24" cy="20" rx="11" ry="5"/><ellipse cx="33" cy="17" rx="8" ry="4.4"/><ellipse cx="72" cy="30" rx="9" ry="4"/></g><path d="M8 68h80v10a16 16 0 0 1-16 16h-48a16 16 0 0 1-16-16z" fill="#c99a63"/><path d="M8 68h80v3h-80z" fill="#a87e4e"/><path d="M20 78h20M56 82h22" stroke="#b3854f" stroke-width="1.6"/><g fill="#20264a"><path d="M8 86c1-5.6000000000000005 3.2-8.8 6.4-8.8s5.6000000000000005 3.2 6.4 8.8z"/><path d="M21.6 86c1-5.6000000000000005 3.2-8.8 6.4-8.8s5.6000000000000005 3.2 6.4 8.8z"/><path d="M35.2 86c1-5.6000000000000005 3.2-8.8 6.4-8.8s5.6000000000000005 3.2 6.4 8.8z"/><path d="M48.800000000000004 86c1-5.6000000000000005 3.2-8.8 6.4-8.8s5.6000000000000005 3.2 6.4 8.8z"/><path d="M62.400000000000006 86c1-5.6000000000000005 3.2-8.8 6.4-8.8s5.6000000000000005 3.2 6.4 8.8z"/></g><path d="M12.8 75.6l0.8-3.2M26.400000000000002 75.6l0.8-3.2M40 75.6l0.8-3.2M53.60000000000001 75.6l0.8-3.2M67.2 75.6l0.8-3.2" stroke="#20264a" stroke-width="2.4000000000000004" stroke-linecap="round"/><g><circle cx="64" cy="54" r="6.4" fill="#fff" stroke="#c3cddf"/><path d="M64 51.28l2.5600000000000005 1.8399999999999999-0.96 3.04h-3.2l-0.96-3.04z" fill="#2b3a55"/><path d="M64 51.28v-3.5200000000000005M66.56 53.12l3.2-1.1199999999999999M61.44 53.12l-3.2-1.1199999999999999M65.6 56.16l2.08 2.72M62.4 56.16l-2.08 2.72" stroke="#2b3a55" stroke-width="1.04"/></g><path d="M82 28l1.4400000000000002 2.9600000000000004 3.2 .6-2.32 2.2399999999999998 .7 3.2-2.8800000000000003-1.52-2.8800000000000003 1.52 .7-3.2-2.32-2.2399999999999998 3.2-.6z" fill="#ffd75e"/>
</svg>
