<svg xmlns="http://www.w3.org/2000/svg" width="96" height="96" viewBox="0 0 96 96">
<defs><linearGradient id="bg123" x1="0" y1="0" x2="0" y2="1"><stop offset="0" stop-color="#bfe0ff"/><stop offset="1" stop-color="#8ec3f5"/></linearGradient></defs>
<rect width="96" height="96" rx="18" fill="url(#bg123)"/><g fill="#fff" opacity=".9"><ellipse cx="24" cy="20" rx="11" ry="5"/><ellipse cx="33" cy="17" rx="8" ry="4.4"/><ellipse cx="72" cy="30" rx="9" ry="4"/></g><path d="M8 68h80v10a16 16 0 0 1-16 16h-48a16 16 0 0 1-16-16z" fill="#c99a63"/><path d="M8 68h80v3h-80z" fill="#a87e4e"/><path d="M20 78h20M56 82h22" stroke="#b3854f" stroke-width="1.6"/><g fill="#20264a"><path d="M8 86c1-5.6000000000000005 3.2-8.8 6.4-8.8s5.6000000000000005 3.2 6.4 8.8z"/><path d="M21.6 86c1-5.6000000000000005 3.2-8.8 6.4-8.8s5.6000000000000005 3.2 6.4 8.8z"/><path d="M35.2 86c1-5.6000000000000005 3.2-8.8 6.4-8.8s5.6000000000000005 3.2 6.4 8.8z"/><path d="M48.800000000000004 86c1-5.6000000000000005 3.2-8.8 6.4-8.8s5.6000000000000005 3.2 6.4 8.8z"/><path d="M62.400000000000006 86c1-5.6000000000000005 3.2-8.8 6.4-8.8s5.6000000000000005 3.2 6.4 8.8z"/></g><path d="M12.8 75.6l0.8-3.2M26.400000000000002 75.6l0.8-3.2M40 75.6l0.8-3.2M53.60000000000001 75.6l0.8-3.2M67.2 75.6l0.8-3.2" stroke="#20264a" stroke-width="2.4000000000000004" stroke-linecap="round"/><path d="M70 24l1.8 3.7 4 .6-2.9 2.8 .7 4-3.6-1.9-3.6 1.9 .7-4-2.9-2.8 4-.6z" fill="#ffd75e"/><g stroke="#ffd75e" stroke-width="1.44" stroke-linecap="round"><path d="M84 44l3 1.2M82.8 50h3.5999999999999996M85.2 56l3-1.2"/></g>
</svg>
