<svg xmlns="http://www.w3.org/2000/svg" width="96" height="96" viewBox="0 0 96 96">
<defs><linearGradient id="bg124" x1="0" y1="0" x2="0" y2="1"><stop offset="0" stop-color="#bfe0ff"/><stop offset="1" stop-color="#8ec3f5"/></linearGradient></defs>
<rect width="96" height="96" rx="18" fill="url(#bg124)"/><g fill="#fff" opacity=".9"><ellipse cx="24" cy="20" rx="11" ry="5"/><ellipse cx="33" cy="17" rx="8" ry="4.4"/><ellipse cx="72" cy="30" rx="9" ry="4"/></g><path d="M4 72h88v10a14 14 0 0 1-14 12h-60a14 14 0 0 1-14-12z" fill="#6ea25f"/><path d="M14 72l2-5M26 72l2-5M44 72l2-5M64 72l2-5M80 72l2-5" stroke="#547f47" stroke-width="2" stroke-linecap="round"/><g><path d="M34 72l15 -28l8 11l9 -16l20 33z" fill="#6b8f6b"/><path d="M46.5 50l3.6 -6l3.4 5.4l-2.4 2l-2.2 -1.6z" fill="#fff"/><path d="M62.6 44.6l3.4 -5.6l5 8.4l-3.4 1.4l-2.6 -2.4z" fill="#fff"/></g><g><path d="M14.649999999999999 49.6h14.700000000000001l-1.6800000000000002 16.8h-11.340000000000002z" fill="#e05555"/><path d="M14.649999999999999 53.379999999999995h14.700000000000001" stroke="#fff" stroke-width="2.1" opacity=".6"/><path d="M19.27 42.25c-1.8 2.2-1.8 3.6 0 5.8M25.15 41.2c-1.8 2.2-1.8 3.6 0 5.8" stroke="#c3cddf" stroke-width="1.785" fill="none" stroke-linecap="round"/></g><g fill="#ffd75e"><circle cx="84" cy="30" r="1.02"/><circle cx="92.4" cy="36" r="0.78"/><circle cx="79.2" cy="38.4" r="0.72"/></g>
</svg>
