<svg xmlns="http://www.w3.org/2000/svg" width="96" height="96" viewBox="0 0 96 96">
<defs><linearGradient id="bg124" x1="0" y1="0" x2="0" y2="1"><stop offset="0" stop-color="#fff2d8"/><stop offset="1" stop-color="#ffdda6"/></linearGradient></defs>
<rect width="96" height="96" rx="18" fill="url(#bg124)"/><path d="M8 64h80v14a16 16 0 0 1-16 16h-48a16 16 0 0 1-16-16z" fill="#a57847"/><path d="M8 64h80v3h-80z" fill="#8a5f36"/><g><ellipse cx="38" cy="54" rx="11" ry="8" fill="#d78f35"/><ellipse cx="38" cy="52.4" rx="11" ry="7.4" fill="#f3bd6e"/><g fill="#fff"><circle cx="34" cy="51.4" r="1.3"/><circle cx="41" cy="53.4" r="1.3"/><circle cx="38" cy="49.8" r="1.3"/></g><path d="M34 40c-2.5 3-2.5 5 0 8M42 38c-2.5 3-2.5 5 0 8" stroke="#e8ddc8" stroke-width="2.2" fill="none" stroke-linecap="round" opacity=".9"/></g><g><circle cx="66" cy="48" r="5.6000000000000005" fill="#ffd75e" stroke="#e8b23d" stroke-width="1.2800000000000002"/><circle cx="66" cy="48" r="1.7600000000000002" fill="none" stroke="#e8b23d" stroke-width="1.1199999999999999"/></g><path d="M82 28l1.26 2.59 2.8 .6-2.03 1.9599999999999997 .7 2.8-2.52-1.3299999999999998-2.52 1.3299999999999998 .7-2.8-2.03-1.9599999999999997 2.8-.6z" fill="#ffd75e"/>
</svg>
