<svg xmlns="http://www.w3.org/2000/svg" width="96" height="96" viewBox="0 0 96 96">
<defs><linearGradient id="bg125" x1="0" y1="0" x2="0" y2="1"><stop offset="0" stop-color="#bfe0ff"/><stop offset="1" stop-color="#8ec3f5"/></linearGradient></defs>
<rect width="96" height="96" rx="18" fill="url(#bg125)"/><g fill="#fff" opacity=".9"><ellipse cx="24" cy="20" rx="11" ry="5"/><ellipse cx="33" cy="17" rx="8" ry="4.4"/><ellipse cx="72" cy="30" rx="9" ry="4"/></g><path d="M4 74h88v8a14 14 0 0 1-14 12h-60a14 14 0 0 1-14-12z" fill="#5a6478"/><path d="M12 80h10M32 80h10M52 80h10M72 80h10" stroke="#aab4c8" stroke-width="2.4" stroke-linecap="round"/><g><path d="M32.87 58.71l-2.76 -6.21l5.289999999999999 2.07z" fill="#f2b25c"/><path d="M47.13 58.71l2.76 -6.21l-5.289999999999999 2.07z" fill="#f2b25c"/><circle cx="40" cy="64" r="8.625" fill="#f2b25c"/><circle cx="36.78" cy="62.85" r="1.035" fill="#2b1d12"/><circle cx="43.22" cy="62.85" r="1.035" fill="#2b1d12"/><path d="M38.62 66.07h2.76l-1.38 1.6099999999999999z" fill="#e05555"/><path d="M29.65 64.575l-4.6 -1.15M29.65 66.875l-4.6 0.575M50.35 64.575l4.6 -1.15M50.35 66.875l4.6 0.575" stroke="#c98d4e" stroke-width="1.15" stroke-linecap="round"/><path d="M48.05 70.9q6.8999999999999995 2.3 8.049999999999999 -4.6" stroke="#f2b25c" stroke-width="2.9899999999999998" fill="none" stroke-linecap="round"/></g><g><path d="M65 24a5.5 5.5 0 1 1 7.5 5c-2 .9-3 2-3 4" stroke="#0047ab" stroke-width="2.6" fill="none" stroke-linecap="round"/><circle cx="69.5" cy="37" r="1.6" fill="#0047ab"/></g><g><circle cx="84" cy="14" r="5.2" fill="#ffd75e"/><path d="M84 5.549999999999999v2.8600000000000003M84 19.59v2.8600000000000003M75.55 14h2.8600000000000003M89.59 14h2.8600000000000003M77.825 7.825l1.9500000000000002 1.9500000000000002M88.225 18.225l1.9500000000000002 1.9500000000000002M90.175 7.825l-1.9500000000000002 1.9500000000000002M79.775 18.225l-1.9500000000000002 1.9500000000000002" stroke="#ffd75e" stroke-width="1.56" stroke-linecap="round"/></g>
</svg>
