<svg xmlns="http://www.w3.org/2000/svg" width="96" height="96" viewBox="0 0 96 96">
<defs><linearGradient id="bg125" x1="0" y1="0" x2="0" y2="1"><stop offset="0" stop-color="#1a2f5e"/><stop offset="1" stop-color="#0d1b3d"/></linearGradient><linearGradient id="bg125s" x1="0" y1="0" x2="0" y2="1"><stop offset="0" stop-color="#fff8dc" stop-opacity=".75"/><stop offset="1" stop-color="#fff8dc" stop-opacity=".05"/></linearGradient></defs>
<rect width="96" height="96" rx="18" fill="url(#bg125)"/><path d="M38 0h20l12 64h-44z" fill="url(#bg125s)"/><path d="M8 66h80v12a17 17 0 0 1-17 16h-46a17 17 0 0 1-17-16z" fill="#7a5533"/><path d="M8 66h80v3h-80z" fill="#956a41"/><g stroke="#7d95bd" stroke-width="2.4" stroke-linecap="round"><path d="M18 28l4 3M20 38l4-1M18 47l4-4"/></g><g stroke="#ffd75e" stroke-width="2.64" stroke-linecap="round"><path d="M68 28l5.5 2.2M65.8 39h6.6000000000000005M70.2 50l5.5-2.2"/></g><g><path d="M41.5 16.4a4.95 4.95 0 1 1 6.75 4.5c-2 .9-3 2-3 4" stroke="#ffd75e" stroke-width="2.3400000000000003" fill="none" stroke-linecap="round"/><circle cx="45.55" cy="28.1" r="1.4400000000000002" fill="#ffd75e"/></g>
</svg>
