<svg xmlns="http://www.w3.org/2000/svg" width="96" height="96" viewBox="0 0 96 96">
<defs><linearGradient id="bg126" x1="0" y1="0" x2="0" y2="1"><stop offset="0" stop-color="#ffb36b"/><stop offset=".55" stop-color="#e77e6a"/><stop offset="1" stop-color="#5a4f9e"/></linearGradient><radialGradient id="bg126u" cx=".5" cy=".5" r=".5"><stop offset="0" stop-color="#fff0b3"/><stop offset="1" stop-color="#fff0b3" stop-opacity="0"/></radialGradient></defs>
<rect width="96" height="96" rx="18" fill="url(#bg126)"/><circle cx="76" cy="28" r="16" fill="url(#bg126u)"/><circle cx="76" cy="28" r="6.5" fill="#ffdd88"/><path d="M4 72h88v10a14 14 0 0 1-14 12h-60a14 14 0 0 1-14-12z" fill="#6ea25f"/><path d="M14 72l2-5M26 72l2-5M44 72l2-5M64 72l2-5M80 72l2-5" stroke="#547f47" stroke-width="2" stroke-linecap="round"/><g><circle cx="28" cy="56" r="7.2" fill="#fff" stroke="#c3cddf"/><path d="M28 52.94l2.8800000000000003 2.07-1.08 3.42h-3.6l-1.08-3.42z" fill="#2b3a55"/><path d="M28 52.94v-3.9600000000000004M30.88 55.01l3.6-1.26M25.12 55.01l-3.6-1.26M29.8 58.43l2.3400000000000003 3.06M26.2 58.43l-2.3400000000000003 3.06" stroke="#2b3a55" stroke-width="1.1700000000000002"/></g><g fill="#20264a"><path d="M40 88c1-4.2 2.4-6.6 4.8-6.6s4.2 2.4 4.8 6.6z"/><path d="M50.2 88c1-4.2 2.4-6.6 4.8-6.6s4.2 2.4 4.8 6.6z"/><path d="M60.4 88c1-4.2 2.4-6.6 4.8-6.6s4.2 2.4 4.8 6.6z"/><path d="M70.6 88c1-4.2 2.4-6.6 4.8-6.6s4.2 2.4 4.8 6.6z"/><path d="M80.8 88c1-4.2 2.4-6.6 4.8-6.6s4.2 2.4 4.8 6.6z"/></g><path d="M43.6 80.2l0.6-2.4M53.8 80.2l0.6-2.4M64 80.2l0.6-2.4M74.2 80.2l0.6-2.4M84.4 80.2l0.6-2.4" stroke="#20264a" stroke-width="1.7999999999999998" stroke-linecap="round"/><path d="M80 26l1.62 3.33 3.6 .6-2.61 2.52 .7 3.6-3.24-1.71-3.24 1.71 .7-3.6-2.61-2.52 3.6-.6z" fill="#ffd75e"/>
</svg>
