<svg xmlns="http://www.w3.org/2000/svg" width="96" height="96" viewBox="0 0 96 96">
<defs><linearGradient id="bg126" x1="0" y1="0" x2="0" y2="1"><stop offset="0" stop-color="#1a2f5e"/><stop offset="1" stop-color="#0d1b3d"/></linearGradient><linearGradient id="bg126s" x1="0" y1="0" x2="0" y2="1"><stop offset="0" stop-color="#fff8dc" stop-opacity=".75"/><stop offset="1" stop-color="#fff8dc" stop-opacity=".05"/></linearGradient></defs>
<rect width="96" height="96" rx="18" fill="url(#bg126)"/><path d="M38 0h20l12 64h-44z" fill="url(#bg126s)"/><path d="M8 68h80v10a16 16 0 0 1-16 16h-48a16 16 0 0 1-16-16z" fill="#c99a63"/><path d="M8 68h80v3h-80z" fill="#a87e4e"/><path d="M20 78h20M56 82h22" stroke="#b3854f" stroke-width="1.6"/><g transform="rotate(-14 36 44)"><path d="M26 40l14-6v20l-14-6z" fill="#e05555"/><rect x="22" y="40" width="5" height="8" rx="1.6" fill="#b23a3a"/><path d="M44 36l5-3M45 44h6M44 52l5 3" stroke="#ffd75e" stroke-width="2.2" stroke-linecap="round"/></g><g><path d="M64.4 64.8l-3.4 8M75.6 64.8l3.4 8" stroke="#f2c9a4" stroke-width="2.5600000000000005" stroke-linecap="round"/><path d="M64.8 62.4h10.4v12h-10.4z" fill="#2b6bd8"/><path d="M67.12 74.4v8M72.88 74.4v8" stroke="#2b3a55" stroke-width="3.3600000000000003" stroke-linecap="round"/><circle cx="70" cy="56.8" r="6.4" fill="#f2c9a4"/><path d="M64.152 54.431999999999995c1.3-7 16-7 17.2 0l-2.2-1.2.5 2.1c-4.8-2.6-9.6-2.6-13-.5z" fill="#3d2b1f"/><circle cx="67.824" cy="57.208" r="0.646" fill="#2b1d12"/><circle cx="72.176" cy="57.208" r="0.646" fill="#2b1d12"/><ellipse cx="70" cy="59.791999999999994" rx="1.1560000000000001" ry="1.4960000000000002" fill="#b06e4a"/><circle cx="66.19200000000001" cy="58.839999999999996" r="0.8500000000000001" fill="#f0a08a" opacity=".7"/><circle cx="73.80799999999999" cy="58.839999999999996" r="0.8500000000000001" fill="#f0a08a" opacity=".7"/></g><g><rect x="16.4" y="18" width="3.2" height="12" rx="1.6" fill="#ffd75e"/><circle cx="18" cy="34" r="1.9" fill="#ffd75e"/></g>
</svg>
