<svg xmlns="http://www.w3.org/2000/svg" width="96" height="96" viewBox="0 0 96 96">
<defs><linearGradient id="bg127" x1="0" y1="0" x2="0" y2="1"><stop offset="0" stop-color="#fff2d8"/><stop offset="1" stop-color="#ffdda6"/></linearGradient></defs>
<rect width="96" height="96" rx="18" fill="url(#bg127)"/><g><circle cx="32" cy="54" r="9.025" fill="#f2c9a4"/><path d="M23.83 50.58c1.3-7 16-7 17.2 0l-2.2-1.2.5 2.1c-4.8-2.6-9.6-2.6-13-.5z" fill="#3d2b1f"/><path d="M27.630000000000003 54.76c1-1.4 2.6-1.4 3.6 0M32.95 54.76c1-1.4 2.6-1.4 3.6 0" stroke="#2b1d12" stroke-width="1.2349999999999999" fill="none" stroke-linecap="round"/><path d="M29.91 57.99a2.8499999999999996 2.8499999999999996 0 0 0 4.18 0" stroke="#b06e4a" stroke-width="1.045" fill="none" stroke-linecap="round"/><circle cx="26.68" cy="56.85" r="1.1875" fill="#f0a08a" opacity=".7"/><circle cx="37.32" cy="56.85" r="1.1875" fill="#f0a08a" opacity=".7"/><path d="M20.6 70.15c1-6.5 5.5-9.5 12-9.5s11 3 12 9.5z" fill="#2b6bd8"/></g><g><circle cx="62" cy="54" r="9.5" fill="#f2c9a4"/><path d="M53.4 50.4c1.3-7 16-7 17.2 0l-2.8-1.2c-4.4-2.4-8.8-2.4-11.8-.4z" fill="#8f8f96"/><path d="M57.4 54.8c1-1.4 2.6-1.4 3.6 0M63 54.8c1-1.4 2.6-1.4 3.6 0" stroke="#2b1d12" stroke-width="1.3" fill="none" stroke-linecap="round"/><path d="M59.8 58.2a3 3 0 0 0 4.4 0" stroke="#b06e4a" stroke-width="1.1" fill="none" stroke-linecap="round"/><circle cx="56.4" cy="57" r="1.25" fill="#f0a08a" opacity=".7"/><circle cx="67.6" cy="57" r="1.25" fill="#f0a08a" opacity=".7"/><path d="M50 71c1-6.5 5.5-9.5 12-9.5s11 3 12 9.5z" fill="#2b6bd8"/></g><g stroke="#ffd75e" stroke-width="1.68" stroke-linecap="round"><path d="M84 30l3.5 1.4M82.6 37h4.199999999999999M85.4 44l3.5-1.4"/></g><path d="M14 28l1.26 2.59 2.8 .6-2.03 1.9599999999999997 .7 2.8-2.52-1.3299999999999998-2.52 1.3299999999999998 .7-2.8-2.03-1.9599999999999997 2.8-.6z" fill="#ffd75e"/>
</svg>
