<svg xmlns="http://www.w3.org/2000/svg" width="96" height="96" viewBox="0 0 96 96">
<defs><linearGradient id="bg128" x1="0" y1="0" x2="0" y2="1"><stop offset="0" stop-color="#3a2f68"/><stop offset="1" stop-color="#1c1740"/></linearGradient></defs>
<rect width="96" height="96" rx="18" fill="url(#bg128)"/><circle cx="18" cy="16" r="1.4" fill="#fff"/><circle cx="60" cy="12" r="1.1" fill="#fff"/><circle cx="84" cy="24" r="1.2" fill="#fff"/><path d="M8 64h80v14a16 16 0 0 1-16 16h-48a16 16 0 0 1-16-16z" fill="#a57847"/><path d="M8 64h80v3h-80z" fill="#8a5f36"/><g><rect x="32.3" y="37.55" width="11.399999999999999" height="20.9" rx="2.4699999999999998" fill="#2b3a55"/><rect x="33.63" y="39.45" width="8.739999999999998" height="14.25" rx="1.3299999999999998" fill="#9dc1f5"/><circle cx="38" cy="55.98" r="1.14" fill="#8a93ad"/></g><g stroke-linecap="round"><path d="M64 28c3 2 3 6 0 8s-3 6 0 8" stroke="#9db8ff" stroke-width="2.2" fill="none"/><path d="M75 23c2.4 1.6 2.4 4.8 0 6.4s-2.4 4.8 0 6.4" stroke="#9db8ff" stroke-width="1.9" fill="none" opacity=".85"/></g><path d="M82 52.9c-4.8999999999999995-3.2199999999999998-6.72-6.58-4.76-8.959999999999999c1.4-1.68 3.78-1.1199999999999999 4.76 .8 0.9799999999999999-1.68 3.36-2.2399999999999998 4.76-.8 1.9599999999999997 2.38 .2 5.739999999999999-4.76 8.959999999999999z" fill="#ef6f6f"/>
</svg>
