<svg xmlns="http://www.w3.org/2000/svg" width="96" height="96" viewBox="0 0 96 96">
<defs><linearGradient id="bg81" x1="0" y1="0" x2="0" y2="1"><stop offset="0" stop-color="#fff2d8"/><stop offset="1" stop-color="#ffdda6"/></linearGradient></defs>
<rect width="96" height="96" rx="18" fill="url(#bg81)"/><path d="M8 68h80v10a16 16 0 0 1-16 16h-48a16 16 0 0 1-16-16z" fill="#c99a63"/><path d="M8 68h80v3h-80z" fill="#a87e4e"/><path d="M20 78h20M56 82h22" stroke="#b3854f" stroke-width="1.6"/><g><rect x="38" y="30.7" width="3.1500000000000004" height="21" rx="1.5750000000000002" fill="#8a5f36" transform="rotate(14 38 41.2)"/><path d="M33.8 50.65l10.5 2.52-2.1 9.450000000000001c-4.2 1.05-8.4-1.05-10.5-4.2z" fill="#e8b23d"/><path d="M34.85 60.1l1.47-5.25M38.63 61.57l1.47-5.25" stroke="#c99223" stroke-width="1.26"/></g><g fill="#ffd75e"><circle cx="66" cy="30" r="1.7"/><circle cx="80" cy="40" r="1.3"/><circle cx="58" cy="44" r="1.2"/></g>
</svg>
