<svg xmlns="http://www.w3.org/2000/svg" width="96" height="96" viewBox="0 0 96 96">
<defs><linearGradient id="bg82" x1="0" y1="0" x2="0" y2="1"><stop offset="0" stop-color="#bfe0ff"/><stop offset="1" stop-color="#8ec3f5"/></linearGradient></defs>
<rect width="96" height="96" rx="18" fill="url(#bg82)"/><g fill="#fff" opacity=".9"><ellipse cx="24" cy="20" rx="11" ry="5"/><ellipse cx="33" cy="17" rx="8" ry="4.4"/><ellipse cx="72" cy="30" rx="9" ry="4"/></g><path d="M4 72h88v10a14 14 0 0 1-14 12h-60a14 14 0 0 1-14-12z" fill="#6ea25f"/><path d="M14 72l2-5M26 72l2-5M44 72l2-5M64 72l2-5M80 72l2-5" stroke="#547f47" stroke-width="2" stroke-linecap="round"/><g><rect x="48.9" y="22.1" width="5.75" height="32.199999999999996" rx="2.875" fill="#c98d4e" transform="rotate(24 51.2 38.2)"/><circle cx="37.4" cy="52" r="8.625" fill="#fff" stroke="#d8d2c2"/><path d="M32.11 47.86c2 1.6 2 5.6 0 7.2M42.69 47.86c-2 1.6-2 5.6 0 7.2" stroke="#e05555" stroke-width="1.6099999999999999" fill="none"/></g><path d="M76 22l1.62 3.33 3.6 .6-2.61 2.52 .7 3.6-3.24-1.71-3.24 1.71 .7-3.6-2.61-2.52 3.6-.6z" fill="#ffd75e"/><path d="M18 34.9c-4.8999999999999995-3.2199999999999998-6.72-6.58-4.76-8.959999999999999c1.4-1.68 3.78-1.1199999999999999 4.76 .8 0.9799999999999999-1.68 3.36-2.2399999999999998 4.76-.8 1.9599999999999997 2.38 .2 5.739999999999999-4.76 8.959999999999999z" fill="#ef6f6f"/>
</svg>
