<svg xmlns="http://www.w3.org/2000/svg" width="96" height="96" viewBox="0 0 96 96">
<defs><linearGradient id="bg83" x1="0" y1="0" x2="0" y2="1"><stop offset="0" stop-color="#bfe0ff"/><stop offset="1" stop-color="#8ec3f5"/></linearGradient></defs>
<rect width="96" height="96" rx="18" fill="url(#bg83)"/><g fill="#fff" opacity=".9"><ellipse cx="24" cy="20" rx="11" ry="5"/><ellipse cx="33" cy="17" rx="8" ry="4.4"/><ellipse cx="72" cy="30" rx="9" ry="4"/></g><path d="M4 74h88v8a14 14 0 0 1-14 12h-60a14 14 0 0 1-14-12z" fill="#5a6478"/><path d="M12 80h10M32 80h10M52 80h10M72 80h10" stroke="#aab4c8" stroke-width="2.4" stroke-linecap="round"/><g><rect x="29.7" y="37.2" width="28.6" height="18.700000000000003" rx="3.3000000000000003" fill="#39445c"/><rect x="39.6" y="33.9" width="9.9" height="4.4" rx="1.54" fill="#39445c"/><circle cx="44" cy="46.55" r="6.16" fill="#9dc1f5" stroke="#22304a" stroke-width="1.7600000000000002"/><circle cx="45.98" cy="44.46" r="1.54" fill="#fff" opacity=".9"/><circle cx="53.9" cy="41.16" r="1.4300000000000002" fill="#ffd75e"/></g><g fill="#ffd75e"><circle cx="74" cy="26" r="1.53"/><circle cx="86.6" cy="35" r="1.1700000000000002"/><circle cx="66.8" cy="38.6" r="1.08"/></g>
</svg>
