<svg xmlns="http://www.w3.org/2000/svg" width="96" height="96" viewBox="0 0 96 96">
<defs><linearGradient id="bg85" x1="0" y1="0" x2="0" y2="1"><stop offset="0" stop-color="#bfe0ff"/><stop offset="1" stop-color="#8ec3f5"/></linearGradient></defs>
<rect width="96" height="96" rx="18" fill="url(#bg85)"/><g fill="#fff" opacity=".9"><ellipse cx="24" cy="20" rx="11" ry="5"/><ellipse cx="33" cy="17" rx="8" ry="4.4"/><ellipse cx="72" cy="30" rx="9" ry="4"/></g><path d="M8 64h80v14a16 16 0 0 1-16 16h-48a16 16 0 0 1-16-16z" fill="#a57847"/><path d="M8 64h80v3h-80z" fill="#8a5f36"/><g><path d="M22.549999999999997 37.6l4.2-3.1500000000000004h10.5l4.2 3.1500000000000004-2.7300000000000004 4.2-1.8900000000000001-1.47v11.55h-9.66v-11.55l-1.8900000000000001 1.47z" fill="#fff" stroke="#c3cddf" stroke-width="1"/></g><g><path d="M47.45 42.4l3.8-2.8499999999999996h9.5l3.8 2.8499999999999996-2.4699999999999998 3.8-1.71-1.3299999999999998v10.45h-8.739999999999998v-10.45l-1.71 1.3299999999999998z" fill="#ffd75e" stroke="#c3cddf" stroke-width="1"/></g><g><path d="M77.5 28.4a4.95 4.95 0 1 1 6.75 4.5c-2 .9-3 2-3 4" stroke="#0047ab" stroke-width="2.3400000000000003" fill="none" stroke-linecap="round"/><circle cx="81.55" cy="40.1" r="1.4400000000000002" fill="#0047ab"/></g>
</svg>
