<svg xmlns="http://www.w3.org/2000/svg" width="96" height="96" viewBox="0 0 96 96">
<defs><linearGradient id="bg86" x1="0" y1="0" x2="0" y2="1"><stop offset="0" stop-color="#1f3060"/><stop offset="1" stop-color="#141f42"/></linearGradient></defs>
<rect width="96" height="96" rx="18" fill="url(#bg86)"/><circle cx="16" cy="16" r="1.4" fill="#fff"/><circle cx="38" cy="10" r="1.1" fill="#fff"/><circle cx="80" cy="14" r="1.2" fill="#fff"/><circle cx="64" cy="22" r=".9" fill="#fff" opacity=".8"/><path d="M8 64h80v14a16 16 0 0 1-16 16h-48a16 16 0 0 1-16-16z" fill="#a57847"/><path d="M8 64h80v3h-80z" fill="#8a5f36"/><g transform="rotate(10 34 72)"><rect x="31.93" y="36" width="4.14" height="36" rx="2.07" fill="#8a5a36"/><rect x="29.5" y="32.4" width="9" height="7.2" rx="2.16" fill="#2b2118"/><path d="M34.45 64.8c-9-1-15.3 4.5-15.3 12.6 0 9 7.2 15.3 15.3 15.3 7.2 0 11.700000000000001-4.5 11.700000000000001-10.8 0-3.6-2-5.8500000000000005-3.6-8.1-1.8-2.2-3.5-4-4-7-.3-2-2-2.8-5-3z" fill="#e05555"/><circle cx="34" cy="81" r="4.5" fill="#1c1030"/><path d="M33.1 36v41.4M35.26 36v41.4" stroke="#e8d9b5" stroke-width=".7"/></g><g stroke="#9db8e8" stroke-width="2.2" stroke-linecap="round" stroke-linejoin="round" fill="none"><path d="M64 28h6.6000000000000005l-6.6000000000000005 6.6000000000000005h6.6000000000000005"/><path d="M76.1 19.2h4.840000000000001l-4.840000000000001 4.840000000000001h4.840000000000001" opacity=".8"/></g><g stroke-linecap="round"><path d="M84 50c3 2 3 6 0 8s-3 6 0 8" stroke="#9db8ff" stroke-width="1.32" fill="none"/><path d="M90.6 47c2.4 1.6 2.4 4.8 0 6.4s-2.4 4.8 0 6.4" stroke="#9db8ff" stroke-width="1.14" fill="none" opacity=".85"/></g>
</svg>
