<svg xmlns="http://www.w3.org/2000/svg" width="96" height="96" viewBox="0 0 96 96">
<defs><linearGradient id="bg88" x1="0" y1="0" x2="0" y2="1"><stop offset="0" stop-color="#1a2f5e"/><stop offset="1" stop-color="#0d1b3d"/></linearGradient><linearGradient id="bg88s" x1="0" y1="0" x2="0" y2="1"><stop offset="0" stop-color="#fff8dc" stop-opacity=".75"/><stop offset="1" stop-color="#fff8dc" stop-opacity=".05"/></linearGradient></defs>
<rect width="96" height="96" rx="18" fill="url(#bg88)"/><path d="M38 0h20l12 64h-44z" fill="url(#bg88s)"/><path d="M8 66h80v12a17 17 0 0 1-17 16h-46a17 17 0 0 1-17-16z" fill="#7a5533"/><path d="M8 66h80v3h-80z" fill="#956a41"/><g><circle cx="40" cy="54" r="9.5" fill="#f2c9a4"/><path d="M31 55c-1-9 4-13 9-13s10 4 9 13l-2.4-1c.6-6-2-8.6-6.6-8.6s-7.2 2.6-6.6 8.6z" fill="#2b2118"/><path d="M35.4 54.8c1-1.4 2.6-1.4 3.6 0M41 54.8c1-1.4 2.6-1.4 3.6 0" stroke="#2b1d12" stroke-width="1.3" fill="none" stroke-linecap="round"/><path d="M37.8 58.2a3 3 0 0 0 4.4 0" stroke="#b06e4a" stroke-width="1.1" fill="none" stroke-linecap="round"/><circle cx="34.4" cy="57" r="1.25" fill="#f0a08a" opacity=".7"/><circle cx="45.6" cy="57" r="1.25" fill="#f0a08a" opacity=".7"/><path d="M28 71c1-6.5 5.5-9.5 12-9.5s11 3 12 9.5z" fill="#2b6bd8"/></g><g transform="rotate(-14 70 46)"><path d="M61 42.4l12.6-5.4v18l-12.6-5.4z" fill="#e05555"/><rect x="57.4" y="42.4" width="4.5" height="7.2" rx="1.4400000000000002" fill="#b23a3a"/><path d="M77.2 38.8l4.5-2.7M78.1 46h5.4M77.2 53.2l4.5 2.7" stroke="#ffd75e" stroke-width="1.9800000000000002" stroke-linecap="round"/></g><g stroke="#ffd75e" stroke-width="2.16" stroke-linecap="round"><path d="M18 28l4.5 1.8M16.2 37h5.4M19.8 46l4.5-1.8"/></g>
</svg>
