<svg xmlns="http://www.w3.org/2000/svg" width="96" height="96" viewBox="0 0 96 96">
<defs><linearGradient id="bg89" x1="0" y1="0" x2="0" y2="1"><stop offset="0" stop-color="#ffb36b"/><stop offset=".55" stop-color="#e77e6a"/><stop offset="1" stop-color="#5a4f9e"/></linearGradient><radialGradient id="bg89u" cx=".5" cy=".5" r=".5"><stop offset="0" stop-color="#fff0b3"/><stop offset="1" stop-color="#fff0b3" stop-opacity="0"/></radialGradient></defs>
<rect width="96" height="96" rx="18" fill="url(#bg89)"/><circle cx="76" cy="28" r="16" fill="url(#bg89u)"/><circle cx="76" cy="28" r="6.5" fill="#ffdd88"/><path d="M8 68h80v10a16 16 0 0 1-16 16h-48a16 16 0 0 1-16-16z" fill="#c99a63"/><path d="M8 68h80v3h-80z" fill="#a87e4e"/><path d="M20 78h20M56 82h22" stroke="#b3854f" stroke-width="1.6"/><g transform="rotate(-14 40 46)"><path d="M28 41.2l16.8-7.199999999999999v24l-16.8-7.199999999999999z" fill="#e05555"/><rect x="23.2" y="41.2" width="6" height="9.6" rx="1.92" fill="#b23a3a"/><path d="M49.6 36.4l6-3.5999999999999996M50.8 46h7.199999999999999M49.6 55.6l6 3.5999999999999996" stroke="#ffd75e" stroke-width="2.64" stroke-linecap="round"/></g><g stroke-linecap="round"><path d="M68 26c3 2 3 6 0 8s-3 6 0 8" stroke="#9db8ff" stroke-width="2.2" fill="none"/><path d="M79 21c2.4 1.6 2.4 4.8 0 6.4s-2.4 4.8 0 6.4" stroke="#9db8ff" stroke-width="1.9" fill="none" opacity=".85"/></g><g fill="#20264a"><path d="M14 88c1-4.2 2.4-6.6 4.8-6.6s4.2 2.4 4.8 6.6z"/><path d="M24.2 88c1-4.2 2.4-6.6 4.8-6.6s4.2 2.4 4.8 6.6z"/><path d="M34.4 88c1-4.2 2.4-6.6 4.8-6.6s4.2 2.4 4.8 6.6z"/><path d="M44.599999999999994 88c1-4.2 2.4-6.6 4.8-6.6s4.2 2.4 4.8 6.6z"/><path d="M54.8 88c1-4.2 2.4-6.6 4.8-6.6s4.2 2.4 4.8 6.6z"/></g><path d="M17.6 80.2l0.6-2.4M27.8 80.2l0.6-2.4M38 80.2l0.6-2.4M48.2 80.2l0.6-2.4M58.4 80.2l0.6-2.4" stroke="#20264a" stroke-width="1.7999999999999998" stroke-linecap="round"/>
</svg>
