<svg xmlns="http://www.w3.org/2000/svg" width="96" height="96" viewBox="0 0 96 96">
<defs><linearGradient id="bg89" x1="0" y1="0" x2="0" y2="1"><stop offset="0" stop-color="#c8d8ef"/><stop offset="1" stop-color="#9fb6d9"/></linearGradient></defs>
<rect width="96" height="96" rx="18" fill="url(#bg89)"/><g fill="#fff"><circle cx="18" cy="16" r="2"/><circle cx="42" cy="10" r="1.6"/><circle cx="66" cy="18" r="2"/><circle cx="84" cy="10" r="1.5"/><circle cx="30" cy="30" r="1.6"/><circle cx="56" cy="26" r="1.4"/><circle cx="78" cy="32" r="1.7"/><circle cx="12" cy="42" r="1.5"/><circle cx="88" cy="48" r="1.4"/></g><path d="M4 72h88v10a14 14 0 0 1-14 12h-60a14 14 0 0 1-14-12z" fill="#eef4fb"/><ellipse cx="30" cy="74" rx="16" ry="3" fill="#dce8f5"/><ellipse cx="70" cy="76" rx="12" ry="2.6" fill="#dce8f5"/><g><circle cx="42" cy="58" r="6.5" fill="#f2c9a4"/><path d="M35.980000000000004 55.480000000000004c1.3-7 16-7 17.2 0l-2.2-1.2.5 2.1c-4.8-2.6-9.6-2.6-13-.5z" fill="#3d2b1f"/><circle cx="39.76" cy="58.42" r="0.6649999999999999" fill="#2b1d12"/><circle cx="44.24" cy="58.42" r="0.6649999999999999" fill="#2b1d12"/><ellipse cx="42" cy="61.08" rx="1.19" ry="1.54" fill="#b06e4a"/><circle cx="38.08" cy="60.1" r="0.875" fill="#f0a08a" opacity=".7"/><circle cx="45.92" cy="60.1" r="0.875" fill="#f0a08a" opacity=".7"/><path d="M37 65c1-3 3-4.5 5.5-4.5 2.4 0 4.4 1.8 5 5l0.4 6-3.2 1-2.2-5-2.2 6-3.6 3.2z" fill="#e05555"/><path d="M37.4 78l-5 8 3.8 1 4.8-6.4M42 80l1 8.6 3.8-.5.5-8.6" fill="none" stroke="#f2c9a4" stroke-width="3.6" stroke-linecap="round"/><path d="M28 64h5M26 70h6M29 76h4.6" stroke="#9db8e8" stroke-width="2" stroke-linecap="round"/></g><g><rect x="76.56" y="19" width="2.8800000000000003" height="10.8" rx="1.4400000000000002" fill="#9db8e8"/><circle cx="78" cy="33.4" r="1.71" fill="#9db8e8"/></g>
</svg>
