<svg xmlns="http://www.w3.org/2000/svg" width="96" height="96" viewBox="0 0 96 96">
<defs><linearGradient id="bg91" x1="0" y1="0" x2="0" y2="1"><stop offset="0" stop-color="#3a2f68"/><stop offset="1" stop-color="#1c1740"/></linearGradient></defs>
<rect width="96" height="96" rx="18" fill="url(#bg91)"/><circle cx="18" cy="16" r="1.4" fill="#fff"/><circle cx="60" cy="12" r="1.1" fill="#fff"/><circle cx="84" cy="24" r="1.2" fill="#fff"/><path d="M8 64h80v14a16 16 0 0 1-16 16h-48a16 16 0 0 1-16-16z" fill="#a57847"/><path d="M8 64h80v3h-80z" fill="#8a5f36"/><g stroke-linecap="round"><path d="M34 32c3 2 3 6 0 8s-3 6 0 8" stroke="#9db8ff" stroke-width="2.64" fill="none"/><path d="M47.2 26c2.4 1.6 2.4 4.8 0 6.4s-2.4 4.8 0 6.4" stroke="#9db8ff" stroke-width="2.28" fill="none" opacity=".85"/></g><path d="M62 34.3c-6.3-4.14-8.64-8.46-6.12-11.520000000000001c1.8-2.16 4.86-1.4400000000000002 6.12 .8 1.26-2.16 4.32-2.8800000000000003 6.12-.8 2.52 3.06 .2 7.38-6.12 11.520000000000001z" fill="#ef6f6f"/><g><rect x="76.1" y="48.85" width="7.800000000000001" height="14.3" rx="1.6900000000000002" fill="#2b3a55"/><rect x="77.01" y="50.15" width="5.9799999999999995" height="9.75" rx="0.9099999999999999" fill="#9dc1f5"/><circle cx="80" cy="61.46" r="0.78" fill="#8a93ad"/></g>
</svg>
