<svg xmlns="http://www.w3.org/2000/svg" width="96" height="96" viewBox="0 0 96 96">
<defs><linearGradient id="bg91" x1="0" y1="0" x2="0" y2="1"><stop offset="0" stop-color="#bfe0ff"/><stop offset="1" stop-color="#8ec3f5"/></linearGradient></defs>
<rect width="96" height="96" rx="18" fill="url(#bg91)"/><g fill="#fff" opacity=".9"><ellipse cx="24" cy="20" rx="11" ry="5"/><ellipse cx="33" cy="17" rx="8" ry="4.4"/><ellipse cx="72" cy="30" rx="9" ry="4"/></g><path d="M4 72h88v10a14 14 0 0 1-14 12h-60a14 14 0 0 1-14-12z" fill="#6ea25f"/><path d="M14 72l2-5M26 72l2-5M44 72l2-5M64 72l2-5M80 72l2-5" stroke="#547f47" stroke-width="2" stroke-linecap="round"/><g><path d="M28.7 72l15.75 -29.400000000000002l8.4 11.55l9.450000000000001 -16.8l21 34.65z" fill="#6b8f6b"/><path d="M41.825 48.9l3.7800000000000002 -6.300000000000001l3.57 5.670000000000001l-2.52 2.1l-2.3100000000000005 -1.6800000000000002z" fill="#fff"/><path d="M58.730000000000004 43.230000000000004l3.57 -5.88l5.25 8.82l-3.57 1.47l-2.7300000000000004 -2.52z" fill="#fff"/></g><path d="M18 35.95c-5.95-3.9099999999999997-8.16-7.99-5.779999999999999-10.88c1.7-2.04 4.59-1.36 5.779999999999999 .8 1.19-2.04 4.08-2.72 5.779999999999999-.8 2.38 2.8899999999999997 .2 6.969999999999999-5.779999999999999 10.88z" fill="#ef6f6f"/>
</svg>
