<svg xmlns="http://www.w3.org/2000/svg" width="96" height="96" viewBox="0 0 96 96">
<defs><linearGradient id="bg92" x1="0" y1="0" x2="0" y2="1"><stop offset="0" stop-color="#bfe0ff"/><stop offset="1" stop-color="#8ec3f5"/></linearGradient></defs>
<rect width="96" height="96" rx="18" fill="url(#bg92)"/><g fill="#fff" opacity=".9"><ellipse cx="24" cy="20" rx="11" ry="5"/><ellipse cx="33" cy="17" rx="8" ry="4.4"/><ellipse cx="72" cy="30" rx="9" ry="4"/></g><path d="M8 68h80v10a16 16 0 0 1-16 16h-48a16 16 0 0 1-16-16z" fill="#c99a63"/><path d="M8 68h80v3h-80z" fill="#a87e4e"/><path d="M20 78h20M56 82h22" stroke="#b3854f" stroke-width="1.6"/><g><path d="M33.95 28h12.100000000000001v7.700000000000001l-6.050000000000001 7.700000000000001l-6.050000000000001 -7.700000000000001z" fill="#e05555"/><circle cx="40" cy="50" r="8.25" fill="#ffd75e" stroke="#e8b23d" stroke-width="1.7600000000000002"/><path d="M40 46.04l1.2100000000000002 2.532.75 .4-1.9800000000000002 1.87.4 2.75-2.4200000000000004-1.32-2.4200000000000004 1.32.4-2.75-1.9800000000000002-1.872.75-.4z" fill="#fff" opacity=".9"/></g><g stroke="#ffd75e" stroke-width="2.4" stroke-linecap="round"><path d="M66 26l5 2M64 36h6M68 46l5-2"/></g><g><rect x="76" y="44" width="3" height="6" rx="1.5" fill="#ff8f6b" transform="rotate(25 76 44)"/><rect x="94.2" y="49.6" width="3" height="6" rx="1.5" fill="#6bd0ff" transform="rotate(-30 94.2 49.6)"/><rect x="83" y="62.2" width="3" height="6" rx="1.5" fill="#8affc1" transform="rotate(40 83 62.2)"/><circle cx="97" cy="60.8" r="1.6" fill="#ffd75e"/></g>
</svg>
