<svg xmlns="http://www.w3.org/2000/svg" width="96" height="96" viewBox="0 0 96 96">
<defs><linearGradient id="bg92" x1="0" y1="0" x2="0" y2="1"><stop offset="0" stop-color="#bfe0ff"/><stop offset="1" stop-color="#8ec3f5"/></linearGradient></defs>
<rect width="96" height="96" rx="18" fill="url(#bg92)"/><g fill="#fff" opacity=".9"><ellipse cx="24" cy="20" rx="11" ry="5"/><ellipse cx="33" cy="17" rx="8" ry="4.4"/><ellipse cx="72" cy="30" rx="9" ry="4"/></g><path d="M8 68h80v10a16 16 0 0 1-16 16h-48a16 16 0 0 1-16-16z" fill="#c99a63"/><path d="M8 68h80v3h-80z" fill="#a87e4e"/><path d="M20 78h20M56 82h22" stroke="#b3854f" stroke-width="1.6"/><g><rect x="22.8" y="34.6" width="30.4" height="20.9" rx="2.8499999999999996" fill="#2b3a55"/><rect x="25.27" y="37.07" width="25.46" height="15.959999999999999" rx="1.71" fill="#9dc1f5"/><circle cx="34.2" cy="43.15" r="2.8499999999999996" fill="#f2c9a4"/><path d="M30.4 49.8c1-3 3-4.4 5.5-4.4 2 0 3.6 1 4.5 3" fill="#e05555"/><path d="M41.8 40.3l4.75-1.9" stroke="#c98d4e" stroke-width="1.9" stroke-linecap="round"/><path d="M34.2 57.4l-2.8499999999999996 3.8M41.8 57.4l2.8499999999999996 3.8" stroke="#2b3a55" stroke-width="1.9" stroke-linecap="round"/></g><g stroke="#ffd75e" stroke-width="2.16" stroke-linecap="round"><path d="M72 26l4.5 1.8M70.2 35h5.4M73.8 44l4.5-1.8"/></g><path d="M82 50l1.35 2.7750000000000004 3 .6-2.175 2.0999999999999996 .7 3-2.7-1.4249999999999998-2.7 1.4249999999999998 .7-3-2.175-2.0999999999999996 3-.6z" fill="#ffd75e"/>
</svg>
