<svg xmlns="http://www.w3.org/2000/svg" width="96" height="96" viewBox="0 0 96 96">
<defs><linearGradient id="bg93" x1="0" y1="0" x2="0" y2="1"><stop offset="0" stop-color="#1a2f5e"/><stop offset="1" stop-color="#0d1b3d"/></linearGradient><linearGradient id="bg93s" x1="0" y1="0" x2="0" y2="1"><stop offset="0" stop-color="#fff8dc" stop-opacity=".75"/><stop offset="1" stop-color="#fff8dc" stop-opacity=".05"/></linearGradient></defs>
<rect width="96" height="96" rx="18" fill="url(#bg93)"/><path d="M38 0h20l12 64h-44z" fill="url(#bg93s)"/><path d="M8 68h80v10a16 16 0 0 1-16 16h-48a16 16 0 0 1-16-16z" fill="#c99a63"/><path d="M8 68h80v3h-80z" fill="#a87e4e"/><path d="M20 78h20M56 82h22" stroke="#b3854f" stroke-width="1.6"/><g transform="rotate(-14 42 46)"><path d="M30 41.2l16.8-7.199999999999999v24l-16.8-7.199999999999999z" fill="#e05555"/><rect x="25.2" y="41.2" width="6" height="9.6" rx="1.92" fill="#b23a3a"/><path d="M51.6 36.4l6-3.5999999999999996M52.8 46h7.199999999999999M51.6 55.6l6 3.5999999999999996" stroke="#ffd75e" stroke-width="2.64" stroke-linecap="round"/></g><g><rect x="68.24" y="15" width="3.5200000000000005" height="13.200000000000001" rx="1.7600000000000002" fill="#ffd75e"/><circle cx="70" cy="32.6" r="2.09" fill="#ffd75e"/></g><g><path d="M13.5 28.4a4.95 4.95 0 1 1 6.75 4.5c-2 .9-3 2-3 4" stroke="#0047ab" stroke-width="2.3400000000000003" fill="none" stroke-linecap="round"/><circle cx="17.55" cy="40.1" r="1.4400000000000002" fill="#0047ab"/></g>
</svg>
