<svg xmlns="http://www.w3.org/2000/svg" width="96" height="96" viewBox="0 0 96 96">
<defs><linearGradient id="bg94" x1="0" y1="0" x2="0" y2="1"><stop offset="0" stop-color="#ffb36b"/><stop offset=".55" stop-color="#e77e6a"/><stop offset="1" stop-color="#5a4f9e"/></linearGradient><radialGradient id="bg94u" cx=".5" cy=".5" r=".5"><stop offset="0" stop-color="#fff0b3"/><stop offset="1" stop-color="#fff0b3" stop-opacity="0"/></radialGradient></defs>
<rect width="96" height="96" rx="18" fill="url(#bg94)"/><circle cx="76" cy="28" r="16" fill="url(#bg94u)"/><circle cx="76" cy="28" r="6.5" fill="#ffdd88"/><path d="M8 66h80v12a17 17 0 0 1-17 16h-46a17 17 0 0 1-17-16z" fill="#7a5533"/><path d="M8 66h80v3h-80z" fill="#956a41"/><g><rect x="20.4" y="39.8" width="27.2" height="20.4" rx="1.7" fill="#fdfaf2" stroke="#b98a5a" stroke-width="2.04"/><path d="M24.65 44.9h18.7M24.65 50h18.7M24.65 55.1h11.9" stroke="#b9c3d6" stroke-width="1.53" stroke-linecap="round"/><circle cx="42.5" cy="42.86" r="1.36" fill="#e05555"/></g><path d="M70 22l1.62 3.33 3.6 .6-2.61 2.52 .7 3.6-3.24-1.71-3.24 1.71 .7-3.6-2.61-2.52 3.6-.6z" fill="#ffd75e"/><g><rect x="58" y="38" width="3" height="6" rx="1.5" fill="#ff8f6b" transform="rotate(25 58 38)"/><rect x="77.5" y="44" width="3" height="6" rx="1.5" fill="#6bd0ff" transform="rotate(-30 77.5 44)"/><rect x="65.5" y="57.5" width="3" height="6" rx="1.5" fill="#8affc1" transform="rotate(40 65.5 57.5)"/><circle cx="80.5" cy="56" r="1.6" fill="#ffd75e"/></g>
</svg>
