<svg xmlns="http://www.w3.org/2000/svg" width="96" height="96" viewBox="0 0 96 96">
<defs><linearGradient id="bg95" x1="0" y1="0" x2="0" y2="1"><stop offset="0" stop-color="#1a2f5e"/><stop offset="1" stop-color="#0d1b3d"/></linearGradient><linearGradient id="bg95s" x1="0" y1="0" x2="0" y2="1"><stop offset="0" stop-color="#fff8dc" stop-opacity=".75"/><stop offset="1" stop-color="#fff8dc" stop-opacity=".05"/></linearGradient></defs>
<rect width="96" height="96" rx="18" fill="url(#bg95)"/><path d="M38 0h20l12 64h-44z" fill="url(#bg95s)"/><path d="M8 66h80v12a17 17 0 0 1-17 16h-46a17 17 0 0 1-17-16z" fill="#7a5533"/><path d="M8 66h80v3h-80z" fill="#956a41"/><g><path d="M39.35 59.2l-4 -7M52.65 59.2l4 -7" stroke="#f2c9a4" stroke-width="3.04" stroke-linecap="round"/><path d="M39.825 56.35h12.35v14.25h-12.35z" fill="#e05555"/><path d="M42.58 70.6v9.5M49.42 70.6v9.5" stroke="#2b3a55" stroke-width="3.9899999999999998" stroke-linecap="round"/><circle cx="46" cy="49.7" r="7.6" fill="#f2c9a4"/><path d="M39.0555 47.3725l1.6-3.4 2 2 1.8-3.4 2 2.4 1.8-3 1.8 3 2-2.4 1.8 3.4 2-2 1.6 3.4c-5.6-2.6-13-2.6-18.4 0z" fill="#2b2118"/><path d="M42.2855 50.346000000000004c1-1.4 2.6-1.4 3.6 0M46.8075 50.346000000000004c1-1.4 2.6-1.4 3.6 0" stroke="#2b1d12" stroke-width="1.04975" fill="none" stroke-linecap="round"/><path d="M44.2235 53.0915a2.4225 2.4225 0 0 0 3.5530000000000004 0" stroke="#b06e4a" stroke-width="0.8882500000000001" fill="none" stroke-linecap="round"/><circle cx="41.478" cy="52.1225" r="1.009375" fill="#f0a08a" opacity=".7"/><circle cx="50.522" cy="52.1225" r="1.009375" fill="#f0a08a" opacity=".7"/></g><path d="M18 22l1.8 3.7 4 .6-2.9 2.8 .7 4-3.6-1.9-3.6 1.9 .7-4-2.9-2.8 4-.6z" fill="#ffd75e"/><g><rect x="62" y="12" width="3" height="6" rx="1.5" fill="#ff8f6b" transform="rotate(25 62 12)"/><rect x="85.4" y="19.2" width="3" height="6" rx="1.5" fill="#6bd0ff" transform="rotate(-30 85.4 19.2)"/><rect x="71" y="35.400000000000006" width="3" height="6" rx="1.5" fill="#8affc1" transform="rotate(40 71 35.400000000000006)"/><circle cx="89" cy="33.6" r="1.6" fill="#ffd75e"/></g>
</svg>
