<svg xmlns="http://www.w3.org/2000/svg" width="96" height="96" viewBox="0 0 96 96">
<defs><linearGradient id="bg96" x1="0" y1="0" x2="0" y2="1"><stop offset="0" stop-color="#5a6b8f"/><stop offset="1" stop-color="#39466a"/></linearGradient></defs>
<rect width="96" height="96" rx="18" fill="url(#bg96)"/><g fill="#c3cddf"><path d="M28 24a9 9 0 0 1 1.6-17.8A12 12 0 0 1 51 3.4 8 8 0 0 1 55.5 19z"/><path d="M68 28a6.5 6.5 0 0 1 1.3-12.8 8.5 8.5 0 0 1 15.7-2A5.6 5.6 0 0 1 88 23.7z" opacity=".85"/></g><g stroke="#9db8e8" stroke-width="2.4" stroke-linecap="round"><path d="M26 30l-2.6 6M36 32l-2.6 6M46 28l-2.6 6M58 31l-2.6 6M70 34l-2.6 6M80 32l-2.6 6"/></g><path d="M8 64h80v14a16 16 0 0 1-16 16h-48a16 16 0 0 1-16-16z" fill="#a57847"/><path d="M8 64h80v3h-80z" fill="#8a5f36"/><g><circle cx="42" cy="52" r="9.5" fill="#f2c9a4"/><path d="M33.4 48.4c1.3-7 16-7 17.2 0l-2.2-1.2.5 2.1c-4.8-2.6-9.6-2.6-13-.5z" fill="#3d2b1f"/><circle cx="38.8" cy="52.6" r="0.95" fill="#2b1d12"/><circle cx="45.2" cy="52.6" r="0.95" fill="#2b1d12"/><path d="M39.8 57a3 3 0 0 1 4.4 0" stroke="#b06e4a" stroke-width="1.1" fill="none" stroke-linecap="round"/><circle cx="36.4" cy="55" r="1.25" fill="#f0a08a" opacity=".7"/><circle cx="47.6" cy="55" r="1.25" fill="#f0a08a" opacity=".7"/><path d="M30 69c1-6.5 5.5-9.5 12-9.5s11 3 12 9.5z" fill="#2b6bd8"/></g><g><path d="M67 24a5.5 5.5 0 1 1 7.5 5c-2 .9-3 2-3 4" stroke="#7d95bd" stroke-width="2.6" fill="none" stroke-linecap="round"/><circle cx="71.5" cy="37" r="1.6" fill="#7d95bd"/></g>
</svg>
