<svg xmlns="http://www.w3.org/2000/svg" width="96" height="96" viewBox="0 0 96 96">
<defs><linearGradient id="bg97" x1="0" y1="0" x2="0" y2="1"><stop offset="0" stop-color="#1a2f5e"/><stop offset="1" stop-color="#0d1b3d"/></linearGradient><linearGradient id="bg97s" x1="0" y1="0" x2="0" y2="1"><stop offset="0" stop-color="#fff8dc" stop-opacity=".75"/><stop offset="1" stop-color="#fff8dc" stop-opacity=".05"/></linearGradient></defs>
<rect width="96" height="96" rx="18" fill="url(#bg97)"/><path d="M38 0h20l12 64h-44z" fill="url(#bg97s)"/><path d="M8 66h80v12a17 17 0 0 1-17 16h-46a17 17 0 0 1-17-16z" fill="#7a5533"/><path d="M8 66h80v3h-80z" fill="#956a41"/><g><circle cx="38" cy="54" r="9.5" fill="#f2c9a4"/><path d="M29.4 51l1.6-3.4 2 2 1.8-3.4 2 2.4 1.8-3 1.8 3 2-2.4 1.8 3.4 2-2 1.6 3.4c-5.6-2.6-13-2.6-18.4 0z" fill="#2b2118"/><path d="M33.4 54.8c1-1.4 2.6-1.4 3.6 0M39 54.8c1-1.4 2.6-1.4 3.6 0" stroke="#2b1d12" stroke-width="1.3" fill="none" stroke-linecap="round"/><path d="M35.8 58.2a3 3 0 0 0 4.4 0" stroke="#b06e4a" stroke-width="1.1" fill="none" stroke-linecap="round"/><circle cx="32.4" cy="57" r="1.25" fill="#f0a08a" opacity=".7"/><circle cx="43.6" cy="57" r="1.25" fill="#f0a08a" opacity=".7"/><path d="M26 71c1-6.5 5.5-9.5 12-9.5s11 3 12 9.5z" fill="#2b6bd8"/></g><g stroke="#ffd75e" stroke-width="2.4" stroke-linecap="round"><path d="M68 26l5 2M66 36h6M70 46l5-2"/></g><g><rect x="14" y="10" width="3" height="6" rx="1.5" fill="#ff8f6b" transform="rotate(25 14 10)"/><rect x="37.400000000000006" y="17.2" width="3" height="6" rx="1.5" fill="#6bd0ff" transform="rotate(-30 37.400000000000006 17.2)"/><rect x="23" y="33.400000000000006" width="3" height="6" rx="1.5" fill="#8affc1" transform="rotate(40 23 33.400000000000006)"/><circle cx="41" cy="31.6" r="1.6" fill="#ffd75e"/></g>
</svg>
