<svg xmlns="http://www.w3.org/2000/svg" width="96" height="96" viewBox="0 0 96 96">
<defs><linearGradient id="bg98" x1="0" y1="0" x2="0" y2="1"><stop offset="0" stop-color="#fff2d8"/><stop offset="1" stop-color="#ffdda6"/></linearGradient></defs>
<rect width="96" height="96" rx="18" fill="url(#bg98)"/><path d="M8 64h80v14a16 16 0 0 1-16 16h-48a16 16 0 0 1-16-16z" fill="#a57847"/><path d="M8 64h80v3h-80z" fill="#8a5f36"/><g><circle cx="38" cy="54" r="9.5" fill="#f2c9a4"/><path d="M29.4 50.4c1.3-7 16-7 17.2 0l-2.2-1.2.5 2.1c-4.8-2.6-9.6-2.6-13-.5z" fill="#3d2b1f"/><path d="M33.6 54.6c1 1.1 2.4 1.1 3.4 0M39 54.6c1 1.1 2.4 1.1 3.4 0" stroke="#2b1d12" stroke-width="1.1" fill="none" stroke-linecap="round"/><path d="M36 58.6h4" stroke="#b06e4a" stroke-width="1.1" stroke-linecap="round"/><circle cx="32.4" cy="57" r="1.25" fill="#f0a08a" opacity=".7"/><circle cx="43.6" cy="57" r="1.25" fill="#f0a08a" opacity=".7"/><path d="M26 71c1-6.5 5.5-9.5 12-9.5s11 3 12 9.5z" fill="#2b6bd8"/></g><g stroke="#9db8e8" stroke-width="2" stroke-linecap="round" stroke-linejoin="round" fill="none"><path d="M64 26h6l-6 6h6"/><path d="M75 18h4.4l-4.4 4.4h4.4" opacity=".8"/></g><g transform="rotate(-5 80 62)"><rect x="72.8" y="58.1" width="14.399999999999999" height="7.8" rx="0.96" fill="#fdfaf2"/><path d="M80 58.1v7.8" stroke="#d8d2c2" stroke-width="0.72"/><path d="M74.6 60.5h3.5999999999999996M74.6 62.3h3.5999999999999996M81.8 60.5h3.5999999999999996M81.8 62.3h3.5999999999999996" stroke="#b9c3d6" stroke-width="0.78" stroke-linecap="round"/></g>
</svg>
