<svg xmlns="http://www.w3.org/2000/svg" width="96" height="96" viewBox="0 0 96 96">
<defs><linearGradient id="bg99" x1="0" y1="0" x2="0" y2="1"><stop offset="0" stop-color="#1a2f5e"/><stop offset="1" stop-color="#0d1b3d"/></linearGradient><linearGradient id="bg99s" x1="0" y1="0" x2="0" y2="1"><stop offset="0" stop-color="#fff8dc" stop-opacity=".75"/><stop offset="1" stop-color="#fff8dc" stop-opacity=".05"/></linearGradient></defs>
<rect width="96" height="96" rx="18" fill="url(#bg99)"/><path d="M38 0h20l12 64h-44z" fill="url(#bg99s)"/><path d="M8 66h80v12a17 17 0 0 1-17 16h-46a17 17 0 0 1-17-16z" fill="#7a5533"/><path d="M8 66h80v3h-80z" fill="#956a41"/><g transform="rotate(-6 38 58)"><rect x="30.2" y="52.9" width="15.6" height="10.2" rx="2" fill="#fdfaf2"/><path d="M32.6 55.9h10.799999999999999M32.6 58.3h10.799999999999999M32.6 60.7h7.199999999999999" stroke="#b9c3d6" stroke-width="1.5" stroke-linecap="round"/></g><g transform="rotate(-6 56 66)"><rect x="49.5" y="61.75" width="13" height="8.5" rx="2" fill="#fdfaf2"/><path d="M51.5 64.25h9M51.5 66.25h9M51.5 68.25h6" stroke="#b9c3d6" stroke-width="1.5" stroke-linecap="round"/></g><g><rect x="70.16" y="12.5" width="3.6799999999999997" height="13.799999999999999" rx="1.8399999999999999" fill="#ffd75e"/><circle cx="72" cy="30.9" r="2.1849999999999996" fill="#ffd75e"/></g><g><ellipse cx="30" cy="44" rx="13" ry="4" fill="#2b3450"/><path d="M22 44v-14a2 2 0 0 1 2-2h12a2 2 0 0 1 2 2v14" fill="#3a4666"/><path d="M22 39h16" stroke="#e05555" stroke-width="2.6"/></g>
</svg>
