<svg xmlns="http://www.w3.org/2000/svg" width="96" height="96" viewBox="0 0 96 96">
<defs><linearGradient id="bg99" x1="0" y1="0" x2="0" y2="1"><stop offset="0" stop-color="#3a2f68"/><stop offset="1" stop-color="#1c1740"/></linearGradient></defs>
<rect width="96" height="96" rx="18" fill="url(#bg99)"/><circle cx="18" cy="16" r="1.4" fill="#fff"/><circle cx="60" cy="12" r="1.1" fill="#fff"/><circle cx="84" cy="24" r="1.2" fill="#fff"/><path d="M4 74h88v8a14 14 0 0 1-14 12h-60a14 14 0 0 1-14-12z" fill="#232c4e"/><path d="M12 80h10M32 80h10M52 80h10M72 80h10" stroke="#4a5680" stroke-width="2.4" stroke-linecap="round"/><g transform="rotate(10 38 74)"><rect x="35.815" y="36" width="4.369999999999999" height="38" rx="2.1849999999999996" fill="#8a5a36"/><rect x="33.25" y="32.2" width="9.5" height="7.6" rx="2.28" fill="#2b2118"/><path d="M38.475 66.4c-9.5-1-16.15 4.75-16.15 13.299999999999999 0 9.5 7.6 16.15 16.15 16.15 7.6 0 12.35-4.75 12.35-11.399999999999999 0-3.8-2-6.175-3.8-8.549999999999999-1.8-2.2-3.5-4-4-7-.3-2-2-2.8-5-3z" fill="#c98d4e"/><circle cx="38" cy="83.5" r="4.75" fill="#1c1030"/><path d="M37.05 36v43.699999999999996M39.33 36v43.699999999999996" stroke="#e8d9b5" stroke-width=".7"/></g><path d="M68 26l1.8 3.7 4 .6-2.9 2.8 .7 4-3.6-1.9-3.6 1.9 .7-4-2.9-2.8 4-.6z" fill="#ffd75e"/><g><circle cx="82" cy="52" r="4.8999999999999995" fill="#ffd75e" stroke="#e8b23d" stroke-width="1.1199999999999999"/><circle cx="82" cy="52" r="1.54" fill="none" stroke="#e8b23d" stroke-width="0.9799999999999999"/></g>
</svg>
