<svg xmlns="http://www.w3.org/2000/svg" width="96" height="96" viewBox="0 0 96 96">
<defs><linearGradient id="bg100" x1="0" y1="0" x2="0" y2="1"><stop offset="0" stop-color="#fff2d8"/><stop offset="1" stop-color="#ffdda6"/></linearGradient></defs>
<rect width="96" height="96" rx="18" fill="url(#bg100)"/><path d="M8 64h80v14a16 16 0 0 1-16 16h-48a16 16 0 0 1-16-16z" fill="#a57847"/><path d="M8 64h80v3h-80z" fill="#8a5f36"/><g><ellipse cx="34" cy="52" rx="10.45" ry="7.6" fill="#d78f35"/><ellipse cx="34" cy="50.48" rx="10.45" ry="7.03" fill="#f3bd6e"/><g fill="#fff"><circle cx="30.2" cy="49.53" r="1.2349999999999999"/><circle cx="36.85" cy="51.43" r="1.2349999999999999"/><circle cx="34" cy="48.01" r="1.2349999999999999"/></g><path d="M30.2 38.7c-2.5 3-2.5 5 0 8M37.8 36.8c-2.5 3-2.5 5 0 8" stroke="#e8ddc8" stroke-width="2.09" fill="none" stroke-linecap="round" opacity=".9"/></g><g><ellipse cx="56" cy="56" rx="8.8" ry="6.4" fill="#d78f35"/><ellipse cx="56" cy="54.72" rx="8.8" ry="5.920000000000001" fill="#f3bd6e"/><g fill="#fff"><circle cx="52.8" cy="53.92" r="1.04"/><circle cx="58.4" cy="55.52" r="1.04"/><circle cx="56" cy="52.64" r="1.04"/></g><path d="M52.8 44.8c-2.5 3-2.5 5 0 8M59.2 43.2c-2.5 3-2.5 5 0 8" stroke="#e8ddc8" stroke-width="1.7600000000000002" fill="none" stroke-linecap="round" opacity=".9"/></g><g><circle cx="80" cy="24" r="7.699999999999999" fill="#fff" stroke="#0047ab" stroke-width="2.0999999999999996"/><path d="M80 19.45v4.55l3.2199999999999998 2.0999999999999996" stroke="#e34d4d" stroke-width="1.8199999999999998" fill="none" stroke-linecap="round"/><circle cx="80" cy="24" r="1.1199999999999999" fill="#0047ab"/></g>
</svg>
