<svg xmlns="http://www.w3.org/2000/svg" width="96" height="96" viewBox="0 0 96 96">
<defs><linearGradient id="bg101" x1="0" y1="0" x2="0" y2="1"><stop offset="0" stop-color="#2a3f76"/><stop offset=".7" stop-color="#1b2a55"/><stop offset="1" stop-color="#15224a"/></linearGradient><radialGradient id="bg101l" cx=".5" cy=".5" r=".5"><stop offset="0" stop-color="#ffe9a8" stop-opacity=".95"/><stop offset="1" stop-color="#ffe9a8" stop-opacity="0"/></radialGradient></defs>
<rect width="96" height="96" rx="18" fill="url(#bg101)"/><path d="M4 20q22 12 44 0t44 0" stroke="#0e1a3c" stroke-width="1.6" fill="none"/><circle cx="16" cy="24" r="4.6" fill="url(#bg101l)"/><circle cx="16" cy="24" r="1.6" fill="#ffd75e"/><circle cx="34" cy="28" r="4.6" fill="url(#bg101l)"/><circle cx="34" cy="28" r="1.6" fill="#ffd75e"/><circle cx="52" cy="29" r="4.6" fill="url(#bg101l)"/><circle cx="52" cy="29" r="1.6" fill="#ffd75e"/><circle cx="70" cy="27" r="4.6" fill="url(#bg101l)"/><circle cx="70" cy="27" r="1.6" fill="#ffd75e"/><circle cx="86" cy="22" r="4.6" fill="url(#bg101l)"/><circle cx="86" cy="22" r="1.6" fill="#ffd75e"/><path d="M4 74h88v8a14 14 0 0 1-14 12h-60a14 14 0 0 1-14-12z" fill="#5a6478"/><path d="M12 80h10M32 80h10M52 80h10M72 80h10" stroke="#aab4c8" stroke-width="2.4" stroke-linecap="round"/><g><circle cx="38" cy="48" r="6.6499999999999995" fill="#ffd75e" stroke="#e8b23d" stroke-width="1.52"/><circle cx="38" cy="48" r="2.09" fill="none" stroke="#e8b23d" stroke-width="1.3299999999999998"/></g><g><circle cx="54" cy="54" r="4.8999999999999995" fill="#ffd75e" stroke="#e8b23d" stroke-width="1.1199999999999999"/><circle cx="54" cy="54" r="1.54" fill="none" stroke="#e8b23d" stroke-width="0.9799999999999999"/></g><g><path d="M76 33.95c-5.95-3.9099999999999997-8.16-7.99-5.779999999999999-10.88c1.7-2.04 4.59-1.36 5.779999999999999 .8 1.19-2.04 4.08-2.72 5.779999999999999-.8 2.38 2.8899999999999997 .2 6.969999999999999-5.779999999999999 10.88z" fill="#ef6f6f"/><path d="M76 23.41l-1.36 2.8899999999999997 2.55 2.04-2.04 3.4" stroke="#e9f1fc" stroke-width="1.36" fill="none" stroke-linecap="round" stroke-linejoin="round"/></g>
</svg>
