<svg xmlns="http://www.w3.org/2000/svg" width="96" height="96" viewBox="0 0 96 96">
<defs><linearGradient id="bg102" x1="0" y1="0" x2="0" y2="1"><stop offset="0" stop-color="#1a2f5e"/><stop offset="1" stop-color="#0d1b3d"/></linearGradient><linearGradient id="bg102s" x1="0" y1="0" x2="0" y2="1"><stop offset="0" stop-color="#fff8dc" stop-opacity=".75"/><stop offset="1" stop-color="#fff8dc" stop-opacity=".05"/></linearGradient></defs>
<rect width="96" height="96" rx="18" fill="url(#bg102)"/><path d="M38 0h20l12 64h-44z" fill="url(#bg102s)"/><path d="M8 66h80v12a17 17 0 0 1-17 16h-46a17 17 0 0 1-17-16z" fill="#7a5533"/><path d="M8 66h80v3h-80z" fill="#956a41"/><g><path d="M31.7 62.4l-3.4 8M44.3 62.4l3.4 8" stroke="#f2c9a4" stroke-width="2.8800000000000003" stroke-linecap="round"/><path d="M32.15 59.7h11.700000000000001v13.5h-11.700000000000001z" fill="#2b6bd8"/><path d="M34.76 73.2v9M41.24 73.2v9" stroke="#2b3a55" stroke-width="3.7800000000000002" stroke-linecap="round"/><circle cx="38" cy="53.4" r="7.2" fill="#f2c9a4"/><path d="M31.421 50.736000000000004c1.3-7 16-7 17.2 0l-2.2-1.2.5 2.1c-4.8-2.6-9.6-2.6-13-.5z" fill="#3d2b1f"/><circle cx="35.552" cy="53.859" r="0.72675" fill="#2b1d12"/><circle cx="40.448" cy="53.859" r="0.72675" fill="#2b1d12"/><path d="M36.317 57.225a2.295 2.295 0 0 1 3.3660000000000005 0" stroke="#b06e4a" stroke-width="0.8415000000000001" fill="none" stroke-linecap="round"/><circle cx="33.716" cy="55.695" r="0.95625" fill="#f0a08a" opacity=".7"/><circle cx="42.284" cy="55.695" r="0.95625" fill="#f0a08a" opacity=".7"/></g><g stroke="#ffd75e" stroke-width="2.16" stroke-linecap="round"><path d="M68 24l4.5 1.8M66.2 33h5.4M69.8 42l4.5-1.8"/></g><g stroke="#7d95bd" stroke-width="2.16" stroke-linecap="round"><path d="M14 28l3.6 2.7M15.8 37l3.6-0.9M14 45.1l3.6-3.6"/></g>
</svg>
