<svg xmlns="http://www.w3.org/2000/svg" width="96" height="96" viewBox="0 0 96 96">
<defs><linearGradient id="bg102" x1="0" y1="0" x2="0" y2="1"><stop offset="0" stop-color="#bfe0ff"/><stop offset="1" stop-color="#8ec3f5"/></linearGradient></defs>
<rect width="96" height="96" rx="18" fill="url(#bg102)"/><g fill="#fff" opacity=".9"><ellipse cx="24" cy="20" rx="11" ry="5"/><ellipse cx="33" cy="17" rx="8" ry="4.4"/><ellipse cx="72" cy="30" rx="9" ry="4"/></g><path d="M4 72h88v10a14 14 0 0 1-14 12h-60a14 14 0 0 1-14-12z" fill="#6ea25f"/><path d="M14 72l2-5M26 72l2-5M44 72l2-5M64 72l2-5M80 72l2-5" stroke="#547f47" stroke-width="2" stroke-linecap="round"/><g><circle cx="42" cy="58" r="8" fill="#fff" stroke="#c3cddf"/><path d="M42 54.6l3.2 2.3-1.2 3.8h-4l-1.2-3.8z" fill="#2b3a55"/><path d="M42 54.6v-4.4M45.2 56.9l4-1.4M38.8 56.9l-4-1.4M44 60.7l2.6 3.4M40 60.7l-2.6 3.4" stroke="#2b3a55" stroke-width="1.3"/></g><g><rect x="68.24" y="15" width="3.5200000000000005" height="13.200000000000001" rx="1.7600000000000002" fill="#ef6f6f"/><circle cx="70" cy="32.6" r="2.09" fill="#ef6f6f"/></g><g fill="#20264a"><path d="M8 88c1-3.8500000000000005 2.2-6.050000000000001 4.4-6.050000000000001s3.8500000000000005 2.2 4.4 6.050000000000001z"/><path d="M17.35 88c1-3.8500000000000005 2.2-6.050000000000001 4.4-6.050000000000001s3.8500000000000005 2.2 4.4 6.050000000000001z"/><path d="M26.700000000000003 88c1-3.8500000000000005 2.2-6.050000000000001 4.4-6.050000000000001s3.8500000000000005 2.2 4.4 6.050000000000001z"/><path d="M36.05 88c1-3.8500000000000005 2.2-6.050000000000001 4.4-6.050000000000001s3.8500000000000005 2.2 4.4 6.050000000000001z"/><path d="M45.400000000000006 88c1-3.8500000000000005 2.2-6.050000000000001 4.4-6.050000000000001s3.8500000000000005 2.2 4.4 6.050000000000001z"/></g><path d="M11.3 80.85l0.55-2.2M20.650000000000002 80.85l0.55-2.2M30.000000000000004 80.85l0.55-2.2M39.35 80.85l0.55-2.2M48.7 80.85l0.55-2.2" stroke="#20264a" stroke-width="1.6500000000000001" stroke-linecap="round"/>
</svg>
