<svg xmlns="http://www.w3.org/2000/svg" width="96" height="96" viewBox="0 0 96 96">
<defs><linearGradient id="bg104" x1="0" y1="0" x2="0" y2="1"><stop offset="0" stop-color="#1a2f5e"/><stop offset="1" stop-color="#0d1b3d"/></linearGradient><linearGradient id="bg104s" x1="0" y1="0" x2="0" y2="1"><stop offset="0" stop-color="#fff8dc" stop-opacity=".75"/><stop offset="1" stop-color="#fff8dc" stop-opacity=".05"/></linearGradient></defs>
<rect width="96" height="96" rx="18" fill="url(#bg104)"/><path d="M38 0h20l12 64h-44z" fill="url(#bg104s)"/><path d="M8 66h80v12a17 17 0 0 1-17 16h-46a17 17 0 0 1-17-16z" fill="#7a5533"/><path d="M8 66h80v3h-80z" fill="#956a41"/><g><path d="M39.35 61.2l-3.4 8M52.65 61.2l3.4 8" stroke="#f2c9a4" stroke-width="3.04" stroke-linecap="round"/><path d="M39.825 58.35h12.35v14.25h-12.35z" fill="#2b6bd8"/><path d="M42.58 72.6v9.5M49.42 72.6v9.5" stroke="#2b3a55" stroke-width="3.9899999999999998" stroke-linecap="round"/><circle cx="46" cy="51.7" r="7.6" fill="#f2c9a4"/><path d="M39.0555 48.888c1.3-7 16-7 17.2 0l-2.2-1.2.5 2.1c-4.8-2.6-9.6-2.6-13-.5z" fill="#3d2b1f"/><circle cx="43.416" cy="52.1845" r="0.767125" fill="#2b1d12"/><circle cx="48.584" cy="52.1845" r="0.767125" fill="#2b1d12"/><path d="M44.385 55.414500000000004h3.23" stroke="#b06e4a" stroke-width="0.8882500000000001" stroke-linecap="round"/><circle cx="41.478" cy="54.1225" r="1.009375" fill="#f0a08a" opacity=".7"/><circle cx="50.522" cy="54.1225" r="1.009375" fill="#f0a08a" opacity=".7"/></g><g><rect x="70.4" y="16" width="3.2" height="12" rx="1.6" fill="#ffd75e"/><circle cx="72" cy="32" r="1.9" fill="#ffd75e"/></g><g><path d="M15.5 26.4a4.95 4.95 0 1 1 6.75 4.5c-2 .9-3 2-3 4" stroke="#0047ab" stroke-width="2.3400000000000003" fill="none" stroke-linecap="round"/><circle cx="19.55" cy="38.1" r="1.4400000000000002" fill="#0047ab"/></g>
</svg>
