<svg xmlns="http://www.w3.org/2000/svg" width="96" height="96" viewBox="0 0 96 96">
<defs><linearGradient id="bg104" x1="0" y1="0" x2="0" y2="1"><stop offset="0" stop-color="#bfe0ff"/><stop offset="1" stop-color="#8ec3f5"/></linearGradient></defs>
<rect width="96" height="96" rx="18" fill="url(#bg104)"/><g fill="#fff" opacity=".9"><ellipse cx="24" cy="20" rx="11" ry="5"/><ellipse cx="33" cy="17" rx="8" ry="4.4"/><ellipse cx="72" cy="30" rx="9" ry="4"/></g><path d="M8 64h80v14a16 16 0 0 1-16 16h-48a16 16 0 0 1-16-16z" fill="#a57847"/><path d="M8 64h80v3h-80z" fill="#8a5f36"/><g><circle cx="38" cy="54" r="9.5" fill="#f2c9a4"/><path d="M29.4 50.4c1.3-7 16-7 17.2 0l-2.2-1.2.5 2.1c-4.8-2.6-9.6-2.6-13-.5z" fill="#3d2b1f"/><circle cx="34.8" cy="54.6" r="0.95" fill="#2b1d12"/><circle cx="41.2" cy="54.6" r="0.95" fill="#2b1d12"/><ellipse cx="38" cy="58.4" rx="1.7" ry="2.2" fill="#b06e4a"/><circle cx="32.4" cy="57" r="1.25" fill="#f0a08a" opacity=".7"/><circle cx="43.6" cy="57" r="1.25" fill="#f0a08a" opacity=".7"/><path d="M26 71c1-6.5 5.5-9.5 12-9.5s11 3 12 9.5z" fill="#2b6bd8"/></g><g transform="rotate(-5 70 60)"><rect x="61" y="55.125" width="18" height="9.75" rx="1.2000000000000002" fill="#fdfaf2"/><path d="M70 55.125v9.75" stroke="#d8d2c2" stroke-width="0.8999999999999999"/><path d="M63.25 58.125h4.5M63.25 60.375h4.5M72.25 58.125h4.5M72.25 60.375h4.5" stroke="#b9c3d6" stroke-width="0.9750000000000001" stroke-linecap="round"/></g><g><rect x="82.56" y="19" width="2.8800000000000003" height="10.8" rx="1.4400000000000002" fill="#ffd75e"/><circle cx="84" cy="33.4" r="1.71" fill="#ffd75e"/></g>
</svg>
