<svg xmlns="http://www.w3.org/2000/svg" width="96" height="96" viewBox="0 0 96 96">
<defs><linearGradient id="bg105" x1="0" y1="0" x2="0" y2="1"><stop offset="0" stop-color="#bfe0ff"/><stop offset="1" stop-color="#8ec3f5"/></linearGradient></defs>
<rect width="96" height="96" rx="18" fill="url(#bg105)"/><g fill="#fff" opacity=".9"><ellipse cx="24" cy="20" rx="11" ry="5"/><ellipse cx="33" cy="17" rx="8" ry="4.4"/><ellipse cx="72" cy="30" rx="9" ry="4"/></g><path d="M8 68h80v10a16 16 0 0 1-16 16h-48a16 16 0 0 1-16-16z" fill="#c99a63"/><path d="M8 68h80v3h-80z" fill="#a87e4e"/><path d="M20 78h20M56 82h22" stroke="#b3854f" stroke-width="1.6"/><g><circle cx="26" cy="58" r="6.8" fill="#fff" stroke="#c3cddf"/><path d="M26 55.11l2.72 1.9549999999999998-1.02 3.23h-3.4l-1.02-3.23z" fill="#2b3a55"/><path d="M26 55.11v-3.74M28.72 57.065l3.4-1.19M23.28 57.065l-3.4-1.19M27.7 60.295l2.21 2.8899999999999997M24.3 60.295l-2.21 2.8899999999999997" stroke="#2b3a55" stroke-width="1.105"/></g><g transform="rotate(-18 52 52)"><ellipse cx="52" cy="40.3" rx="6.3" ry="8.46" fill="none" stroke="#e05555" stroke-width="1.9800000000000002"/><path d="M47.5 37.6h9M46.6 41.2h10.8M47.5 44.8h9M50.2 33.099999999999994v14.4M53.8 33.099999999999994v14.4" stroke="#f2b2b2" stroke-width="0.81"/><rect x="50.56" y="48.4" width="2.8800000000000003" height="11.700000000000001" rx="1.4400000000000002" fill="#8a5f36"/></g><circle cx="62.8" cy="30.4" r="1.9800000000000002" fill="#fff" stroke="#d8d2c2"/><g><ellipse cx="78" cy="54.8" rx="8.64" ry="3.312" fill="#e8edf5"/><path d="M69.36 54.8v8.64c0 1.8719999999999999 3.888 3.312 8.64 3.312s8.64-1.44 8.64-3.312v-8.64" fill="#e05555"/><path d="M69.36 56.24l5.76 5.76 5.76-5.76 5.76 5.76" stroke="#ffd75e" stroke-width="1.296" fill="none"/><path d="M73.68 46.16l3.5999999999999996 6.4799999999999995M84.48 46.88l-2.88 6.191999999999999" stroke="#8a5f36" stroke-width="1.44" stroke-linecap="round"/><circle cx="73.248" cy="45.44" r="1.44" fill="#8a5f36"/><circle cx="84.912" cy="46.16" r="1.44" fill="#8a5f36"/></g>
</svg>
