<svg xmlns="http://www.w3.org/2000/svg" width="96" height="96" viewBox="0 0 96 96">
<defs><linearGradient id="bg105" x1="0" y1="0" x2="0" y2="1"><stop offset="0" stop-color="#fff2d8"/><stop offset="1" stop-color="#ffdda6"/></linearGradient></defs>
<rect width="96" height="96" rx="18" fill="url(#bg105)"/><path d="M8 64h80v14a16 16 0 0 1-16 16h-48a16 16 0 0 1-16-16z" fill="#a57847"/><path d="M8 64h80v3h-80z" fill="#8a5f36"/><g><ellipse cx="28" cy="52" rx="9.35" ry="6.8" fill="#d78f35"/><ellipse cx="28" cy="50.64" rx="9.35" ry="6.29" fill="#f3bd6e"/><g fill="#fff"><circle cx="24.6" cy="49.79" r="1.105"/><circle cx="30.55" cy="51.49" r="1.105"/><circle cx="28" cy="48.43" r="1.105"/></g><path d="M24.6 40.1c-2.5 3-2.5 5 0 8M31.4 38.4c-2.5 3-2.5 5 0 8" stroke="#e8ddc8" stroke-width="1.87" fill="none" stroke-linecap="round" opacity=".9"/></g><g><path d="M50 44.5l8.25 13.5h-16.5z" fill="#fff" stroke="#39445c" stroke-width="1.6500000000000001" stroke-linejoin="round"/><rect x="46.625" y="52" width="6.75" height="6" rx="0.8999999999999999" fill="#39445c"/></g><g><circle cx="70" cy="48" r="5.25" fill="#ffd75e" stroke="#e8b23d" stroke-width="1.2000000000000002"/><circle cx="70" cy="48" r="1.6500000000000001" fill="none" stroke="#e8b23d" stroke-width="1.0499999999999998"/></g><path d="M84 28l1.08 2.22 2.4 .6-1.74 1.68 .7 2.4-2.16-1.14-2.16 1.14 .7-2.4-1.74-1.68 2.4-.6z" fill="#ffd75e"/>
</svg>
