<svg xmlns="http://www.w3.org/2000/svg" width="96" height="96" viewBox="0 0 96 96">
<defs><linearGradient id="bg106" x1="0" y1="0" x2="0" y2="1"><stop offset="0" stop-color="#1a2f5e"/><stop offset="1" stop-color="#0d1b3d"/></linearGradient><linearGradient id="bg106s" x1="0" y1="0" x2="0" y2="1"><stop offset="0" stop-color="#fff8dc" stop-opacity=".75"/><stop offset="1" stop-color="#fff8dc" stop-opacity=".05"/></linearGradient></defs>
<rect width="96" height="96" rx="18" fill="url(#bg106)"/><path d="M38 0h20l12 64h-44z" fill="url(#bg106s)"/><path d="M8 66h80v12a17 17 0 0 1-17 16h-46a17 17 0 0 1-17-16z" fill="#7a5533"/><path d="M8 66h80v3h-80z" fill="#956a41"/><g><ellipse cx="40" cy="54" rx="15.6" ry="4.8" fill="#2b3450"/><path d="M30.4 54v-16.8a2.4 2.4 0 0 1 2.4-2.4h14.399999999999999a2.4 2.4 0 0 1 2.4 2.4v16.8" fill="#3a4666"/><path d="M30.4 48h19.2" stroke="#e05555" stroke-width="3.12"/></g><g><path d="M59 24a5.5 5.5 0 1 1 7.5 5c-2 .9-3 2-3 4" stroke="#0047ab" stroke-width="2.6" fill="none" stroke-linecap="round"/><circle cx="63.5" cy="37" r="1.6" fill="#0047ab"/></g><g fill="#ffd75e"><circle cx="78" cy="48" r="1.19"/><circle cx="87.8" cy="55" r="0.9099999999999999"/><circle cx="72.4" cy="57.8" r="0.84"/></g>
</svg>
