<svg xmlns="http://www.w3.org/2000/svg" width="96" height="96" viewBox="0 0 96 96">
<defs><linearGradient id="bg106" x1="0" y1="0" x2="0" y2="1"><stop offset="0" stop-color="#5a6b8f"/><stop offset="1" stop-color="#39466a"/></linearGradient></defs>
<rect width="96" height="96" rx="18" fill="url(#bg106)"/><g fill="#c3cddf"><path d="M28 24a9 9 0 0 1 1.6-17.8A12 12 0 0 1 51 3.4 8 8 0 0 1 55.5 19z"/><path d="M68 28a6.5 6.5 0 0 1 1.3-12.8 8.5 8.5 0 0 1 15.7-2A5.6 5.6 0 0 1 88 23.7z" opacity=".85"/></g><g stroke="#9db8e8" stroke-width="2.4" stroke-linecap="round"><path d="M26 30l-2.6 6M36 32l-2.6 6M46 28l-2.6 6M58 31l-2.6 6M70 34l-2.6 6M80 32l-2.6 6"/></g><path d="M4 74h88v8a14 14 0 0 1-14 12h-60a14 14 0 0 1-14-12z" fill="#232c4e"/><path d="M12 80h10M32 80h10M52 80h10M72 80h10" stroke="#4a5680" stroke-width="2.4" stroke-linecap="round"/><g fill="#20264a"><path d="M10 88c1-4.8999999999999995 2.8-7.699999999999999 5.6-7.699999999999999s4.8999999999999995 2.8 5.6 7.699999999999999z"/><path d="M21.9 88c1-4.8999999999999995 2.8-7.699999999999999 5.6-7.699999999999999s4.8999999999999995 2.8 5.6 7.699999999999999z"/><path d="M33.8 88c1-4.8999999999999995 2.8-7.699999999999999 5.6-7.699999999999999s4.8999999999999995 2.8 5.6 7.699999999999999z"/><path d="M45.699999999999996 88c1-4.8999999999999995 2.8-7.699999999999999 5.6-7.699999999999999s4.8999999999999995 2.8 5.6 7.699999999999999z"/><path d="M57.599999999999994 88c1-4.8999999999999995 2.8-7.699999999999999 5.6-7.699999999999999s4.8999999999999995 2.8 5.6 7.699999999999999z"/></g><path d="M14.2 78.9l0.7-2.8M26.099999999999998 78.9l0.7-2.8M38 78.9l0.7-2.8M49.89999999999999 78.9l0.7-2.8M61.8 78.9l0.7-2.8" stroke="#20264a" stroke-width="2.0999999999999996" stroke-linecap="round"/><g><path d="M53.4 50a12.6 12.6 0 0 1 25.2 0c-2.4-2-4.8-2-7 0-2.2-2-4.8-2-7 0-2.2-2-4.6-2-7 0-2.2-2-4.6-2-7 0z" fill="#ffd75e"/><path d="M66 38.3v21.6a2.7 2.7 0 0 1-5.4 0" stroke="#2b3a55" stroke-width="1.62" fill="none" stroke-linecap="round"/></g>
</svg>
