<svg xmlns="http://www.w3.org/2000/svg" width="96" height="96" viewBox="0 0 96 96">
<defs><linearGradient id="bg107" x1="0" y1="0" x2="0" y2="1"><stop offset="0" stop-color="#fff2d8"/><stop offset="1" stop-color="#ffdda6"/></linearGradient></defs>
<rect width="96" height="96" rx="18" fill="url(#bg107)"/><path d="M8 64h80v14a16 16 0 0 1-16 16h-48a16 16 0 0 1-16-16z" fill="#a57847"/><path d="M8 64h80v3h-80z" fill="#8a5f36"/><g><circle cx="34" cy="52" r="9.5" fill="#f2c9a4"/><path d="M24.5 47.4c1.6-6.4 5.8-8.8 9.5-8.8s7.9 2.4 9.5 8.8c0 0-2.8-1.6-4.8-1.6l.8 2.4c-4.8-2.8-9.6-2.8-13.6-.8z" fill="#8f8f96"/><path d="M24.5 47.4c3.2-2 15.8-2 19 0l-1.6 4c-5.6-2.4-13.6-2.4-16 0z" fill="#e05555"/><path d="M29.4 52.8c1-1.4 2.6-1.4 3.6 0M35 52.8c1-1.4 2.6-1.4 3.6 0" stroke="#2b1d12" stroke-width="1.3" fill="none" stroke-linecap="round"/><path d="M31.8 56.2a3 3 0 0 0 4.4 0" stroke="#b06e4a" stroke-width="1.1" fill="none" stroke-linecap="round"/><circle cx="28.4" cy="55" r="1.25" fill="#f0a08a" opacity=".7"/><circle cx="39.6" cy="55" r="1.25" fill="#f0a08a" opacity=".7"/><path d="M22 69c1-6.5 5.5-9.5 12-9.5s11 3 12 9.5z" fill="#2b6bd8"/></g><g><ellipse cx="66" cy="58" rx="9.9" ry="7.2" fill="#d78f35"/><ellipse cx="66" cy="56.56" rx="9.9" ry="6.66" fill="#f3bd6e"/><g fill="#fff"><circle cx="62.4" cy="55.66" r="1.1700000000000002"/><circle cx="68.7" cy="57.46" r="1.1700000000000002"/><circle cx="66" cy="54.22" r="1.1700000000000002"/></g><path d="M62.4 45.4c-2.5 3-2.5 5 0 8M69.6 43.6c-2.5 3-2.5 5 0 8" stroke="#e8ddc8" stroke-width="1.9800000000000002" fill="none" stroke-linecap="round" opacity=".9"/></g><g><path d="M84 51.2l6.6 10.799999999999999h-13.2z" fill="#fff" stroke="#39445c" stroke-width="1.32" stroke-linejoin="round"/><rect x="81.3" y="57.2" width="5.3999999999999995" height="4.8" rx="0.72" fill="#39445c"/></g>
</svg>
