<svg xmlns="http://www.w3.org/2000/svg" width="96" height="96" viewBox="0 0 96 96">
<defs><linearGradient id="bg108" x1="0" y1="0" x2="0" y2="1"><stop offset="0" stop-color="#1a2f5e"/><stop offset="1" stop-color="#0d1b3d"/></linearGradient><linearGradient id="bg108s" x1="0" y1="0" x2="0" y2="1"><stop offset="0" stop-color="#fff8dc" stop-opacity=".75"/><stop offset="1" stop-color="#fff8dc" stop-opacity=".05"/></linearGradient></defs>
<rect width="96" height="96" rx="18" fill="url(#bg108)"/><path d="M38 0h20l12 64h-44z" fill="url(#bg108s)"/><path d="M8 66h80v12a17 17 0 0 1-17 16h-46a17 17 0 0 1-17-16z" fill="#7a5533"/><path d="M8 66h80v3h-80z" fill="#956a41"/><g><rect x="36.67" y="55.3" width="2.6599999999999997" height="24.7" rx="1.3299999999999998" fill="#cfd6e4"/><path d="M30.4 80c0-2.5 3.5-4 8-4s8 1.5 8 4z" fill="#9aa4b8"/><circle cx="38" cy="49.6" r="8.075" fill="#39445c"/><path d="M31.35 47.225h13.299999999999999M30.4 50.075h15.2M31.35 52.925h13.299999999999999" stroke="#5a6880" stroke-width="1.045"/></g><g><rect x="64.24" y="13" width="3.5200000000000005" height="13.200000000000001" rx="1.7600000000000002" fill="#ffd75e"/><circle cx="66" cy="30.6" r="2.09" fill="#ffd75e"/></g><path d="M18 24l1.62 3.33 3.6 .6-2.61 2.52 .7 3.6-3.24-1.71-3.24 1.71 .7-3.6-2.61-2.52 3.6-.6z" fill="#ffd75e"/>
</svg>
