<svg xmlns="http://www.w3.org/2000/svg" width="96" height="96" viewBox="0 0 96 96">
<defs><linearGradient id="bg108" x1="0" y1="0" x2="0" y2="1"><stop offset="0" stop-color="#1f3060"/><stop offset="1" stop-color="#141f42"/></linearGradient></defs>
<rect width="96" height="96" rx="18" fill="url(#bg108)"/><circle cx="16" cy="16" r="1.4" fill="#fff"/><circle cx="38" cy="10" r="1.1" fill="#fff"/><circle cx="80" cy="14" r="1.2" fill="#fff"/><circle cx="64" cy="22" r=".9" fill="#fff" opacity=".8"/><path d="M4 72h88v10a14 14 0 0 1-14 12h-60a14 14 0 0 1-14-12z" fill="#6ea25f"/><path d="M14 72l2-5M26 72l2-5M44 72l2-5M64 72l2-5M80 72l2-5" stroke="#547f47" stroke-width="2" stroke-linecap="round"/><g><rect x="49.2" y="20.8" width="6" height="33.6" rx="3" fill="#c98d4e" transform="rotate(24 51.6 37.6)"/><circle cx="37.2" cy="52" r="9" fill="#fff" stroke="#d8d2c2"/><path d="M31.68 47.68c2 1.6 2 5.6 0 7.2M42.72 47.68c-2 1.6-2 5.6 0 7.2" stroke="#e05555" stroke-width="1.68" fill="none"/></g><g><rect x="70.24" y="15" width="3.5200000000000005" height="13.200000000000001" rx="1.7600000000000002" fill="#ffd75e"/><circle cx="72" cy="32.6" r="2.09" fill="#ffd75e"/></g><path d="M18 28l1.62 3.33 3.6 .6-2.61 2.52 .7 3.6-3.24-1.71-3.24 1.71 .7-3.6-2.61-2.52 3.6-.6z" fill="#ffd75e"/>
</svg>
