<svg xmlns="http://www.w3.org/2000/svg" width="96" height="96" viewBox="0 0 96 96">
<defs><linearGradient id="bg109" x1="0" y1="0" x2="0" y2="1"><stop offset="0" stop-color="#1a2f5e"/><stop offset="1" stop-color="#0d1b3d"/></linearGradient><linearGradient id="bg109s" x1="0" y1="0" x2="0" y2="1"><stop offset="0" stop-color="#fff8dc" stop-opacity=".75"/><stop offset="1" stop-color="#fff8dc" stop-opacity=".05"/></linearGradient></defs>
<rect width="96" height="96" rx="18" fill="url(#bg109)"/><path d="M38 0h20l12 64h-44z" fill="url(#bg109s)"/><path d="M8 66h80v12a17 17 0 0 1-17 16h-46a17 17 0 0 1-17-16z" fill="#7a5533"/><path d="M8 66h80v3h-80z" fill="#956a41"/><g><circle cx="44" cy="54" r="9.5" fill="#f2c9a4"/><path d="M35.4 51l1.6-3.4 2 2 1.8-3.4 2 2.4 1.8-3 1.8 3 2-2.4 1.8 3.4 2-2 1.6 3.4c-5.6-2.6-13-2.6-18.4 0z" fill="#2b2118"/><path d="M39.4 54.8c1-1.4 2.6-1.4 3.6 0M45 54.8c1-1.4 2.6-1.4 3.6 0" stroke="#2b1d12" stroke-width="1.3" fill="none" stroke-linecap="round"/><path d="M41.8 58.2a3 3 0 0 0 4.4 0" stroke="#b06e4a" stroke-width="1.1" fill="none" stroke-linecap="round"/><circle cx="38.4" cy="57" r="1.25" fill="#f0a08a" opacity=".7"/><circle cx="49.6" cy="57" r="1.25" fill="#f0a08a" opacity=".7"/><path d="M32 71c1-6.5 5.5-9.5 12-9.5s11 3 12 9.5z" fill="#2b6bd8"/></g><g stroke="#ffd75e" stroke-width="2.4" stroke-linecap="round"><path d="M22 28l5 2M20 38h6M24 48l5-2"/></g><g stroke="#ffd75e" stroke-width="2.4" stroke-linecap="round"><path d="M72 28l5 2M70 38h6M74 48l5-2"/></g>
</svg>
