<svg xmlns="http://www.w3.org/2000/svg" width="96" height="96" viewBox="0 0 96 96">
<defs><linearGradient id="bg109" x1="0" y1="0" x2="0" y2="1"><stop offset="0" stop-color="#fff2d8"/><stop offset="1" stop-color="#ffdda6"/></linearGradient></defs>
<rect width="96" height="96" rx="18" fill="url(#bg109)"/><path d="M4 74h88v8a14 14 0 0 1-14 12h-60a14 14 0 0 1-14-12z" fill="#5a6478"/><path d="M12 80h10M32 80h10M52 80h10M72 80h10" stroke="#aab4c8" stroke-width="2.4" stroke-linecap="round"/><g><path d="M25.7 50.7h28.6c0 7.700000000000001-5.5 12.100000000000001-14.3 12.100000000000001s-14.3-4.4-14.3-12.100000000000001z" fill="#e8edf5"/><path d="M27.9 50.7c2.2-5.5 7.700000000000001-7.700000000000001 12.100000000000001-7.700000000000001s9.9 2.2 12.100000000000001 7.700000000000001z" fill="#c98d4e"/><path d="M36.7 38.599999999999994c-2 2.4-2 4 0 6.4M44.4 37.5c-2 2.4-2 4 0 6.4" stroke="#e8ddc8" stroke-width="1.9800000000000002" fill="none" stroke-linecap="round"/></g><g fill="#8a6134"><path d="M8 88c1-3.8500000000000005 2.2-6.050000000000001 4.4-6.050000000000001s3.8500000000000005 2.2 4.4 6.050000000000001z"/><path d="M17.35 88c1-3.8500000000000005 2.2-6.050000000000001 4.4-6.050000000000001s3.8500000000000005 2.2 4.4 6.050000000000001z"/><path d="M26.700000000000003 88c1-3.8500000000000005 2.2-6.050000000000001 4.4-6.050000000000001s3.8500000000000005 2.2 4.4 6.050000000000001z"/><path d="M36.05 88c1-3.8500000000000005 2.2-6.050000000000001 4.4-6.050000000000001s3.8500000000000005 2.2 4.4 6.050000000000001z"/><path d="M45.400000000000006 88c1-3.8500000000000005 2.2-6.050000000000001 4.4-6.050000000000001s3.8500000000000005 2.2 4.4 6.050000000000001z"/></g><path d="M11.3 80.85l0.55-2.2M20.650000000000002 80.85l0.55-2.2M30.000000000000004 80.85l0.55-2.2M39.35 80.85l0.55-2.2M48.7 80.85l0.55-2.2" stroke="#8a6134" stroke-width="1.6500000000000001" stroke-linecap="round"/><path d="M80 28l1.4400000000000002 2.9600000000000004 3.2 .6-2.32 2.2399999999999998 .7 3.2-2.8800000000000003-1.52-2.8800000000000003 1.52 .7-3.2-2.32-2.2399999999999998 3.2-.6z" fill="#ffd75e"/>
</svg>
