<svg xmlns="http://www.w3.org/2000/svg" width="96" height="96" viewBox="0 0 96 96">
<defs><linearGradient id="bg110" x1="0" y1="0" x2="0" y2="1"><stop offset="0" stop-color="#fff2d8"/><stop offset="1" stop-color="#ffdda6"/></linearGradient></defs>
<rect width="96" height="96" rx="18" fill="url(#bg110)"/><path d="M8 64h80v14a16 16 0 0 1-16 16h-48a16 16 0 0 1-16-16z" fill="#a57847"/><path d="M8 64h80v3h-80z" fill="#8a5f36"/><g><circle cx="38" cy="52" r="9.5" fill="#f2c9a4"/><path d="M29.4 49l1.6-3.4 2 2 1.8-3.4 2 2.4 1.8-3 1.8 3 2-2.4 1.8 3.4 2-2 1.6 3.4c-5.6-2.6-13-2.6-18.4 0z" fill="#2b2118"/><path d="M33.4 52.8c1-1.4 2.6-1.4 3.6 0M39 52.8c1-1.4 2.6-1.4 3.6 0" stroke="#2b1d12" stroke-width="1.3" fill="none" stroke-linecap="round"/><path d="M35.8 56.2a3 3 0 0 0 4.4 0" stroke="#b06e4a" stroke-width="1.1" fill="none" stroke-linecap="round"/><circle cx="32.4" cy="55" r="1.25" fill="#f0a08a" opacity=".7"/><circle cx="43.6" cy="55" r="1.25" fill="#f0a08a" opacity=".7"/><path d="M26 69c1-6.5 5.5-9.5 12-9.5s11 3 12 9.5z" fill="#2b6bd8"/></g><g stroke="#0047ab" stroke-width="2.6" fill="none" stroke-linecap="round"><circle cx="65" cy="46" r="4.4"/><circle cx="77" cy="46" r="4.4"/><path d="M67.6 42.6l9-14M74.4 42.6l-9-14"/></g><g fill="#ffd75e"><circle cx="82" cy="58" r="1.19"/><circle cx="91.8" cy="65" r="0.9099999999999999"/><circle cx="76.4" cy="67.8" r="0.84"/></g>
</svg>
