<svg xmlns="http://www.w3.org/2000/svg" width="96" height="96" viewBox="0 0 96 96">
<defs><linearGradient id="bg111" x1="0" y1="0" x2="0" y2="1"><stop offset="0" stop-color="#3a2f68"/><stop offset="1" stop-color="#1c1740"/></linearGradient></defs>
<rect width="96" height="96" rx="18" fill="url(#bg111)"/><circle cx="18" cy="16" r="1.4" fill="#fff"/><circle cx="60" cy="12" r="1.1" fill="#fff"/><circle cx="84" cy="24" r="1.2" fill="#fff"/><path d="M8 64h80v14a16 16 0 0 1-16 16h-48a16 16 0 0 1-16-16z" fill="#a57847"/><path d="M8 64h80v3h-80z" fill="#8a5f36"/><g transform="rotate(-6 38 52)"><rect x="25.65" y="43.925" width="24.7" height="16.15" rx="2" fill="#fdfaf2"/><path d="M29.450000000000003 48.675h17.099999999999998M29.450000000000003 52.475h17.099999999999998M29.450000000000003 56.275h11.399999999999999" stroke="#b9c3d6" stroke-width="1.5" stroke-linecap="round"/></g><g><rect x="70.95" y="58.5" width="2.0999999999999996" height="19.5" rx="1.0499999999999998" fill="#cfd6e4"/><path d="M66 78c0-2.5 3.5-4 8-4s8 1.5 8 4z" fill="#9aa4b8"/><circle cx="72" cy="54" r="6.375" fill="#39445c"/><path d="M66.75 52.125h10.5M66 54.375h12M66.75 56.625h10.5" stroke="#5a6880" stroke-width="0.8250000000000001"/></g><g><circle cx="16" cy="24" r="7.699999999999999" fill="#fff" stroke="#0047ab" stroke-width="2.0999999999999996"/><path d="M16 19.45v4.55l3.2199999999999998-1.4" stroke="#0047ab" stroke-width="1.8199999999999998" fill="none" stroke-linecap="round"/><circle cx="16" cy="24" r="1.1199999999999999" fill="#0047ab"/></g>
</svg>
