<svg xmlns="http://www.w3.org/2000/svg" width="96" height="96" viewBox="0 0 96 96">
<defs><linearGradient id="bg111" x1="0" y1="0" x2="0" y2="1"><stop offset="0" stop-color="#bfe0ff"/><stop offset="1" stop-color="#8ec3f5"/></linearGradient></defs>
<rect width="96" height="96" rx="18" fill="url(#bg111)"/><g fill="#fff" opacity=".9"><ellipse cx="24" cy="20" rx="11" ry="5"/><ellipse cx="33" cy="17" rx="8" ry="4.4"/><ellipse cx="72" cy="30" rx="9" ry="4"/></g><path d="M8 68h80v10a16 16 0 0 1-16 16h-48a16 16 0 0 1-16-16z" fill="#c99a63"/><path d="M8 68h80v3h-80z" fill="#a87e4e"/><path d="M20 78h20M56 82h22" stroke="#b3854f" stroke-width="1.6"/><g><path d="M34.225 29h11.55v7.3500000000000005l-5.775 7.3500000000000005l-5.775 -7.3500000000000005z" fill="#e05555"/><circle cx="40" cy="50" r="7.875" fill="#ffd75e" stroke="#e8b23d" stroke-width="1.6800000000000002"/><path d="M40 46.22l1.1550000000000002 2.4152.625 .4-1.8900000000000001 1.785.4 2.625-2.3100000000000005-1.26-2.3100000000000005 1.26.4-2.625-1.8900000000000001-1.7852.625-.4z" fill="#fff" opacity=".9"/></g><path d="M68 26l1.62 3.33 3.6 .6-2.61 2.52 .7 3.6-3.24-1.71-3.24 1.71 .7-3.6-2.61-2.52 3.6-.6z" fill="#ffd75e"/><g fill="#ffd75e"><circle cx="82" cy="48" r="1.19"/><circle cx="91.8" cy="55" r="0.9099999999999999"/><circle cx="76.4" cy="57.8" r="0.84"/></g>
</svg>
