<svg xmlns="http://www.w3.org/2000/svg" width="96" height="96" viewBox="0 0 96 96">
<defs><linearGradient id="bg112" x1="0" y1="0" x2="0" y2="1"><stop offset="0" stop-color="#fff2d8"/><stop offset="1" stop-color="#ffdda6"/></linearGradient></defs>
<rect width="96" height="96" rx="18" fill="url(#bg112)"/><path d="M8 64h80v14a16 16 0 0 1-16 16h-48a16 16 0 0 1-16-16z" fill="#a57847"/><path d="M8 64h80v3h-80z" fill="#8a5f36"/><g><ellipse cx="28" cy="52" rx="9.9" ry="7.2" fill="#d78f35"/><ellipse cx="28" cy="50.56" rx="9.9" ry="6.66" fill="#f3bd6e"/><g fill="#fff"><circle cx="24.4" cy="49.66" r="1.1700000000000002"/><circle cx="30.7" cy="51.46" r="1.1700000000000002"/><circle cx="28" cy="48.22" r="1.1700000000000002"/></g><path d="M24.4 39.4c-2.5 3-2.5 5 0 8M31.6 37.6c-2.5 3-2.5 5 0 8" stroke="#e8ddc8" stroke-width="1.9800000000000002" fill="none" stroke-linecap="round" opacity=".9"/></g><g><ellipse cx="46" cy="56" rx="8.25" ry="6" fill="#d78f35"/><ellipse cx="46" cy="54.8" rx="8.25" ry="5.550000000000001" fill="#f3bd6e"/><g fill="#fff"><circle cx="43" cy="54.05" r="0.9750000000000001"/><circle cx="48.25" cy="55.55" r="0.9750000000000001"/><circle cx="46" cy="52.85" r="0.9750000000000001"/></g><path d="M43 45.5c-2.5 3-2.5 5 0 8M49 44c-2.5 3-2.5 5 0 8" stroke="#e8ddc8" stroke-width="1.6500000000000001" fill="none" stroke-linecap="round" opacity=".9"/></g><g><path d="M70 44.7l9.35 15.299999999999999h-18.7z" fill="#fff" stroke="#39445c" stroke-width="1.87" stroke-linejoin="round"/><rect x="66.175" y="53.2" width="7.6499999999999995" height="6.8" rx="1.02" fill="#39445c"/></g>
</svg>
