<svg xmlns="http://www.w3.org/2000/svg" width="96" height="96" viewBox="0 0 96 96">
<defs><linearGradient id="bg225" x1="0" y1="0" x2="0" y2="1"><stop offset="0" stop-color="#bfe0ff"/><stop offset="1" stop-color="#8ec3f5"/></linearGradient></defs>
<rect width="96" height="96" rx="18" fill="url(#bg225)"/><g fill="#fff" opacity=".9"><ellipse cx="24" cy="20" rx="11" ry="5"/><ellipse cx="33" cy="17" rx="8" ry="4.4"/><ellipse cx="72" cy="30" rx="9" ry="4"/></g><path d="M8 64h80v14a16 16 0 0 1-16 16h-48a16 16 0 0 1-16-16z" fill="#a57847"/><path d="M8 64h80v3h-80z" fill="#8a5f36"/><g transform="rotate(-5 36 58)"><rect x="24.6" y="51.825" width="22.799999999999997" height="12.35" rx="1.52" fill="#fdfaf2"/><path d="M36 51.825v12.35" stroke="#d8d2c2" stroke-width="1.14"/><path d="M27.450000000000003 55.625h5.699999999999999M27.450000000000003 58.475h5.699999999999999M38.85 55.625h5.699999999999999M38.85 58.475h5.699999999999999" stroke="#b9c3d6" stroke-width="1.2349999999999999" stroke-linecap="round"/></g><g><path d="M55.9 19.7h16.2a3.6 3.6 0 0 1 3.6 3.6v4.5a3.6 3.6 0 0 1-3.6 3.6h-9l-4.5 4.5v-4.5h-2.7a3.6 3.6 0 0 1-3.6-3.6v-4.5a3.6 3.6 0 0 1 3.6-3.6z" fill="#fff" stroke="#3b82f6" stroke-width="1.62"/><path d="M61.84 24.56a2.3400000000000003 2.3400000000000003 0 1 1 3.24 2.16c-0.9 .4-1.08 0.81-1.08 1.62" stroke="#3b82f6" stroke-width="1.35" fill="none" stroke-linecap="round"/><circle cx="64" cy="29.96" r="0.81" fill="#3b82f6"/></g><g><rect x="84" y="56" width="2.4000000000000004" height="9.600000000000001" rx="1.2000000000000002" fill="#f2a83d" transform="rotate(-30 84 56)"/><path d="M80 64l-2.08 2.8800000000000003 3.44 .5z" fill="#3d2b1f"/></g>
</svg>
