<svg xmlns="http://www.w3.org/2000/svg" width="96" height="96" viewBox="0 0 96 96">
<defs><linearGradient id="bg226" x1="0" y1="0" x2="0" y2="1"><stop offset="0" stop-color="#bfe0ff"/><stop offset="1" stop-color="#8ec3f5"/></linearGradient></defs>
<rect width="96" height="96" rx="18" fill="url(#bg226)"/><g fill="#fff" opacity=".9"><ellipse cx="24" cy="20" rx="11" ry="5"/><ellipse cx="33" cy="17" rx="8" ry="4.4"/><ellipse cx="72" cy="30" rx="9" ry="4"/></g><g><path d="M18.35 24.05h15.299999999999999a3.4 3.4 0 0 1 3.4 3.4v4.25a3.4 3.4 0 0 1-3.4 3.4h-8.5l-4.25 4.25v-4.25h-2.55a3.4 3.4 0 0 1-3.4-3.4v-4.25a3.4 3.4 0 0 1 3.4-3.4z" fill="#fff" stroke="#3b82f6" stroke-width="1.53"/><circle cx="22.175" cy="30" r="1.275" fill="#3b82f6"/><circle cx="26" cy="30" r="1.275" fill="#3b82f6"/><circle cx="29.825" cy="30" r="1.275" fill="#3b82f6"/></g><g><path d="M42.35 14.05h15.299999999999999a3.4 3.4 0 0 1 3.4 3.4v4.25a3.4 3.4 0 0 1-3.4 3.4h-8.5l-4.25 4.25v-4.25h-2.55a3.4 3.4 0 0 1-3.4-3.4v-4.25a3.4 3.4 0 0 1 3.4-3.4z" fill="#fff" stroke="#3b82f6" stroke-width="1.53"/><path d="M50 22.55c-2.8899999999999997-1.87-3.9099999999999997-3.9099999999999997-2.72-5.27c0.85-1.02 2.21-.8 2.72 .4 .6-1.02 1.87-1.36 2.72-.4 1.19 1.36 .2 3.4-2.72 5.27z" fill="#ef6f6f"/></g><g><path d="M64.35 26.05h15.299999999999999a3.4 3.4 0 0 1 3.4 3.4v4.25a3.4 3.4 0 0 1-3.4 3.4h-8.5l-4.25 4.25v-4.25h-2.55a3.4 3.4 0 0 1-3.4-3.4v-4.25a3.4 3.4 0 0 1 3.4-3.4z" fill="#fff" stroke="#3b82f6" stroke-width="1.53"/><path d="M69.96 30.64a2.21 2.21 0 1 1 3.06 2.04c-0.85 .4-1.02 0.765-1.02 1.53" stroke="#3b82f6" stroke-width="1.275" fill="none" stroke-linecap="round"/><circle cx="72" cy="35.74" r="0.765" fill="#3b82f6"/></g><g><circle cx="48" cy="62" r="9.5" fill="#f2c9a4"/><path d="M39.6 60c0-7.4 15.4-8.2 16.8-.8 0 3-1 4.2-1 4.2l-1-3.6c-3.2 1.7-8.8 1.7-11.2-1.2l-1.8 4s-1.8-.4-1.8-2.6z" fill="#5a4632"/><circle cx="56" cy="55" r="2.8" fill="#5a4632"/><path d="M43.4 62.8c1-1.4 2.6-1.4 3.6 0M49 62.8c1-1.4 2.6-1.4 3.6 0" stroke="#2b1d12" stroke-width="1.3" fill="none" stroke-linecap="round"/><path d="M45.8 66.2a3 3 0 0 0 4.4 0" stroke="#b06e4a" stroke-width="1.1" fill="none" stroke-linecap="round"/><circle cx="42.4" cy="65" r="1.25" fill="#f0a08a" opacity=".7"/><circle cx="53.6" cy="65" r="1.25" fill="#f0a08a" opacity=".7"/><path d="M36 79c1-6.5 5.5-9.5 12-9.5s11 3 12 9.5z" fill="#2b6bd8"/></g>
</svg>
