<svg xmlns="http://www.w3.org/2000/svg" width="96" height="96" viewBox="0 0 96 96">
<defs><linearGradient id="bg227" x1="0" y1="0" x2="0" y2="1"><stop offset="0" stop-color="#fff2d8"/><stop offset="1" stop-color="#ffdda6"/></linearGradient></defs>
<rect width="96" height="96" rx="18" fill="url(#bg227)"/><path d="M8 64h80v14a16 16 0 0 1-16 16h-48a16 16 0 0 1-16-16z" fill="#a57847"/><path d="M8 64h80v3h-80z" fill="#8a5f36"/><g><path d="M27.35 61.2l-4 -7M40.65 61.2l4 -7" stroke="#f2c9a4" stroke-width="3.04" stroke-linecap="round"/><path d="M27.825 58.35h12.35v14.25h-12.35z" fill="#2b6bd8"/><path d="M30.58 72.6v9.5M37.42 72.6v9.5" stroke="#2b3a55" stroke-width="3.9899999999999998" stroke-linecap="round"/><circle cx="34" cy="51.7" r="7.6" fill="#f2c9a4"/><path d="M27.055500000000002 48.888c1.3-7 16-7 17.2 0l-2.2-1.2.5 2.1c-4.8-2.6-9.6-2.6-13-.5z" fill="#3d2b1f"/><circle cx="31.416" cy="52.1845" r="0.767125" fill="#2b1d12"/><circle cx="36.584" cy="52.1845" r="0.767125" fill="#2b1d12"/><ellipse cx="34" cy="55.253" rx="1.37275" ry="1.7765000000000002" fill="#b06e4a"/><circle cx="29.478" cy="54.1225" r="1.009375" fill="#f0a08a" opacity=".7"/><circle cx="38.522" cy="54.1225" r="1.009375" fill="#f0a08a" opacity=".7"/></g><g><path d="M68 41.8l9.9 16.2h-19.8z" fill="#fff" stroke="#39445c" stroke-width="1.9800000000000002" stroke-linejoin="round"/><rect x="63.95" y="50.8" width="8.1" height="7.2" rx="1.08" fill="#39445c"/></g><g><rect x="82.72" y="20" width="2.5600000000000005" height="9.600000000000001" rx="1.2800000000000002" fill="#ffd75e"/><circle cx="84" cy="32.8" r="1.52" fill="#ffd75e"/></g>
</svg>
