<svg xmlns="http://www.w3.org/2000/svg" width="96" height="96" viewBox="0 0 96 96">
<defs><linearGradient id="bg228" x1="0" y1="0" x2="0" y2="1"><stop offset="0" stop-color="#2a3f76"/><stop offset=".7" stop-color="#1b2a55"/><stop offset="1" stop-color="#15224a"/></linearGradient><radialGradient id="bg228l" cx=".5" cy=".5" r=".5"><stop offset="0" stop-color="#ffe9a8" stop-opacity=".95"/><stop offset="1" stop-color="#ffe9a8" stop-opacity="0"/></radialGradient></defs>
<rect width="96" height="96" rx="18" fill="url(#bg228)"/><path d="M4 20q22 12 44 0t44 0" stroke="#0e1a3c" stroke-width="1.6" fill="none"/><circle cx="16" cy="24" r="4.6" fill="url(#bg228l)"/><circle cx="16" cy="24" r="1.6" fill="#ffd75e"/><circle cx="34" cy="28" r="4.6" fill="url(#bg228l)"/><circle cx="34" cy="28" r="1.6" fill="#ffd75e"/><circle cx="52" cy="29" r="4.6" fill="url(#bg228l)"/><circle cx="52" cy="29" r="1.6" fill="#ffd75e"/><circle cx="70" cy="27" r="4.6" fill="url(#bg228l)"/><circle cx="70" cy="27" r="1.6" fill="#ffd75e"/><circle cx="86" cy="22" r="4.6" fill="url(#bg228l)"/><circle cx="86" cy="22" r="1.6" fill="#ffd75e"/><path d="M8 66h80v12a17 17 0 0 1-17 16h-46a17 17 0 0 1-17-16z" fill="#7a5533"/><path d="M8 66h80v3h-80z" fill="#956a41"/><g><path d="M27.200000000000003 34.4l4.8-3.5999999999999996h12l4.8 3.5999999999999996-3.12 4.8-2.16-1.68v13.2h-11.04v-13.2l-2.16 1.68z" fill="#ffd75e" stroke="#c3cddf" stroke-width="1"/></g><path d="M68 26l1.8 3.7 4 .6-2.9 2.8 .7 4-3.6-1.9-3.6 1.9 .7-4-2.9-2.8 4-.6z" fill="#ffd75e"/><path d="M84 48.9c-4.8999999999999995-3.2199999999999998-6.72-6.58-4.76-8.959999999999999c1.4-1.68 3.78-1.1199999999999999 4.76 .8 0.9799999999999999-1.68 3.36-2.2399999999999998 4.76-.8 1.9599999999999997 2.38 .2 5.739999999999999-4.76 8.959999999999999z" fill="#ef6f6f"/>
</svg>
