<svg xmlns="http://www.w3.org/2000/svg" width="96" height="96" viewBox="0 0 96 96">
<defs><linearGradient id="bg229" x1="0" y1="0" x2="0" y2="1"><stop offset="0" stop-color="#1f3060"/><stop offset="1" stop-color="#141f42"/></linearGradient></defs>
<rect width="96" height="96" rx="18" fill="url(#bg229)"/><circle cx="16" cy="16" r="1.4" fill="#fff"/><circle cx="38" cy="10" r="1.1" fill="#fff"/><circle cx="80" cy="14" r="1.2" fill="#fff"/><circle cx="64" cy="22" r=".9" fill="#fff" opacity=".8"/><path d="M8 64h80v14a16 16 0 0 1-16 16h-48a16 16 0 0 1-16-16z" fill="#a57847"/><path d="M8 64h80v3h-80z" fill="#8a5f36"/><g><rect x="32.3" y="37.55" width="11.399999999999999" height="20.9" rx="2.4699999999999998" fill="#2b3a55"/><rect x="33.63" y="39.45" width="8.739999999999998" height="14.25" rx="1.3299999999999998" fill="#9dc1f5"/><circle cx="38" cy="55.98" r="1.14" fill="#8a93ad"/></g><g stroke-linecap="round"><path d="M64 28c3 2 3 6 0 8s-3 6 0 8" stroke="#9db8ff" stroke-width="1.9800000000000002" fill="none"/><path d="M73.9 23.5c2.4 1.6 2.4 4.8 0 6.4s-2.4 4.8 0 6.4" stroke="#9db8ff" stroke-width="1.71" fill="none" opacity=".85"/></g><path d="M84 10a7 7 0 1 0 5.109999999999999 11.479999999999999 7.699999999999999 7.699999999999999 0 0 1-5.109999999999999-11.479999999999999z" fill="#ffe9a8"/>
</svg>
