<svg xmlns="http://www.w3.org/2000/svg" width="96" height="96" viewBox="0 0 96 96">
<defs><linearGradient id="bg230" x1="0" y1="0" x2="0" y2="1"><stop offset="0" stop-color="#bfe0ff"/><stop offset="1" stop-color="#8ec3f5"/></linearGradient></defs>
<rect width="96" height="96" rx="18" fill="url(#bg230)"/><g fill="#fff" opacity=".9"><ellipse cx="24" cy="20" rx="11" ry="5"/><ellipse cx="33" cy="17" rx="8" ry="4.4"/><ellipse cx="72" cy="30" rx="9" ry="4"/></g><path d="M4 72h88v10a14 14 0 0 1-14 12h-60a14 14 0 0 1-14-12z" fill="#6ea25f"/><path d="M14 72l2-5M26 72l2-5M44 72l2-5M64 72l2-5M80 72l2-5" stroke="#547f47" stroke-width="2" stroke-linecap="round"/><g><circle cx="38" cy="58" r="9.5" fill="#f2c9a4"/><path d="M29.4 54.4c1.3-7 16-7 17.2 0l-2.2-1.2.5 2.1c-4.8-2.6-9.6-2.6-13-.5z" fill="#3d2b1f"/><path d="M33.6 58.6c1 1.1 2.4 1.1 3.4 0M39 58.6c1 1.1 2.4 1.1 3.4 0" stroke="#2b1d12" stroke-width="1.1" fill="none" stroke-linecap="round"/><path d="M36 62.6h4" stroke="#b06e4a" stroke-width="1.1" stroke-linecap="round"/><circle cx="32.4" cy="61" r="1.25" fill="#f0a08a" opacity=".7"/><circle cx="43.6" cy="61" r="1.25" fill="#f0a08a" opacity=".7"/><path d="M26 75c1-6.5 5.5-9.5 12-9.5s11 3 12 9.5z" fill="#2b6bd8"/></g><g stroke="#9db8e8" stroke-width="2" stroke-linecap="round" stroke-linejoin="round" fill="none"><path d="M66 26h6l-6 6h6"/><path d="M77 18h4.4l-4.4 4.4h4.4" opacity=".8"/></g>
</svg>
