<svg xmlns="http://www.w3.org/2000/svg" width="96" height="96" viewBox="0 0 96 96">
<defs><linearGradient id="bg231" x1="0" y1="0" x2="0" y2="1"><stop offset="0" stop-color="#ffb36b"/><stop offset=".55" stop-color="#e77e6a"/><stop offset="1" stop-color="#5a4f9e"/></linearGradient><radialGradient id="bg231u" cx=".5" cy=".5" r=".5"><stop offset="0" stop-color="#fff0b3"/><stop offset="1" stop-color="#fff0b3" stop-opacity="0"/></radialGradient></defs>
<rect width="96" height="96" rx="18" fill="url(#bg231)"/><circle cx="76" cy="28" r="16" fill="url(#bg231u)"/><circle cx="76" cy="28" r="6.5" fill="#ffdd88"/><path d="M8 68h80v10a16 16 0 0 1-16 16h-48a16 16 0 0 1-16-16z" fill="#c99a63"/><path d="M8 68h80v3h-80z" fill="#a87e4e"/><path d="M20 78h20M56 82h22" stroke="#b3854f" stroke-width="1.6"/><g stroke-linecap="round"><path d="M34 28c3 2 3 6 0 8s-3 6 0 8" stroke="#9db8ff" stroke-width="2.64" fill="none"/><path d="M47.2 22c2.4 1.6 2.4 4.8 0 6.4s-2.4 4.8 0 6.4" stroke="#9db8ff" stroke-width="2.28" fill="none" opacity=".85"/></g><path d="M62 38.3c-6.3-4.14-8.64-8.46-6.12-11.520000000000001c1.8-2.16 4.86-1.4400000000000002 6.12 .8 1.26-2.16 4.32-2.8800000000000003 6.12-.8 2.52 3.06 .2 7.38-6.12 11.520000000000001z" fill="#ef6f6f"/><g><rect x="79.02" y="61.8" width="1.9599999999999997" height="18.2" rx="0.9799999999999999" fill="#cfd6e4"/><path d="M74.4 80c0-2.5 3.5-4 8-4s8 1.5 8 4z" fill="#9aa4b8"/><circle cx="80" cy="57.6" r="5.949999999999999" fill="#39445c"/><path d="M75.1 55.85h9.799999999999999M74.4 57.95h11.2M75.1 60.05h9.799999999999999" stroke="#5a6880" stroke-width="0.77"/></g>
</svg>
