<svg xmlns="http://www.w3.org/2000/svg" width="96" height="96" viewBox="0 0 96 96">
<defs><linearGradient id="bg233" x1="0" y1="0" x2="0" y2="1"><stop offset="0" stop-color="#3a2f68"/><stop offset="1" stop-color="#1c1740"/></linearGradient></defs>
<rect width="96" height="96" rx="18" fill="url(#bg233)"/><circle cx="18" cy="16" r="1.4" fill="#fff"/><circle cx="60" cy="12" r="1.1" fill="#fff"/><circle cx="84" cy="24" r="1.2" fill="#fff"/><path d="M8 66h80v12a17 17 0 0 1-17 16h-46a17 17 0 0 1-17-16z" fill="#7a5533"/><path d="M8 66h80v3h-80z" fill="#956a41"/><g><rect x="36.67" y="55.3" width="2.6599999999999997" height="24.7" rx="1.3299999999999998" fill="#cfd6e4"/><path d="M30.4 80c0-2.5 3.5-4 8-4s8 1.5 8 4z" fill="#9aa4b8"/><circle cx="38" cy="49.6" r="8.075" fill="#39445c"/><path d="M31.35 47.225h13.299999999999999M30.4 50.075h15.2M31.35 52.925h13.299999999999999" stroke="#5a6880" stroke-width="1.045"/></g><g><circle cx="66" cy="26" r="9.9" fill="#fff" stroke="#0047ab" stroke-width="2.7"/><path d="M66 20.15v5.8500000000000005l4.14 2.7" stroke="#e34d4d" stroke-width="2.3400000000000003" fill="none" stroke-linecap="round"/><circle cx="66" cy="26" r="1.4400000000000002" fill="#0047ab"/></g><g><rect x="84.72" y="38" width="2.5600000000000005" height="9.600000000000001" rx="1.2800000000000002" fill="#ef6f6f"/><circle cx="86" cy="50.8" r="1.52" fill="#ef6f6f"/></g>
</svg>
