<svg xmlns="http://www.w3.org/2000/svg" width="96" height="96" viewBox="0 0 96 96">
<defs><linearGradient id="bg234" x1="0" y1="0" x2="0" y2="1"><stop offset="0" stop-color="#fff2d8"/><stop offset="1" stop-color="#ffdda6"/></linearGradient></defs>
<rect width="96" height="96" rx="18" fill="url(#bg234)"/><path d="M8 64h80v14a16 16 0 0 1-16 16h-48a16 16 0 0 1-16-16z" fill="#a57847"/><path d="M8 64h80v3h-80z" fill="#8a5f36"/><g><circle cx="32" cy="52" r="9.025" fill="#f2c9a4"/><path d="M22.975 47.63c1.6-6.4 5.8-8.8 9.5-8.8s7.9 2.4 9.5 8.8c0 0-2.8-1.6-4.8-1.6l.8 2.4c-4.8-2.8-9.6-2.8-13.6-.8z" fill="#8f8f96"/><path d="M22.975 47.63c3.2-2 15.8-2 19 0l-1.6 4c-5.6-2.4-13.6-2.4-16 0z" fill="#e05555"/><path d="M27.630000000000003 52.76c1-1.4 2.6-1.4 3.6 0M32.95 52.76c1-1.4 2.6-1.4 3.6 0" stroke="#2b1d12" stroke-width="1.2349999999999999" fill="none" stroke-linecap="round"/><path d="M29.91 55.99a2.8499999999999996 2.8499999999999996 0 0 0 4.18 0" stroke="#b06e4a" stroke-width="1.045" fill="none" stroke-linecap="round"/><circle cx="26.68" cy="54.85" r="1.1875" fill="#f0a08a" opacity=".7"/><circle cx="37.32" cy="54.85" r="1.1875" fill="#f0a08a" opacity=".7"/><path d="M20.6 68.15c1-6.5 5.5-9.5 12-9.5s11 3 12 9.5z" fill="#2b6bd8"/></g><g><ellipse cx="62" cy="56" rx="10.45" ry="7.6" fill="#d78f35"/><ellipse cx="62" cy="54.48" rx="10.45" ry="7.03" fill="#f3bd6e"/><g fill="#fff"><circle cx="58.2" cy="53.53" r="1.2349999999999999"/><circle cx="64.85" cy="55.43" r="1.2349999999999999"/><circle cx="62" cy="52.01" r="1.2349999999999999"/></g><path d="M58.2 42.7c-2.5 3-2.5 5 0 8M65.8 40.8c-2.5 3-2.5 5 0 8" stroke="#e8ddc8" stroke-width="2.09" fill="none" stroke-linecap="round" opacity=".9"/></g><g><circle cx="86" cy="26" r="7.15" fill="#fff" stroke="#0047ab" stroke-width="1.9500000000000002"/><path d="M86 21.775v4.2250000000000005l2.9899999999999998-1.3" stroke="#0047ab" stroke-width="1.6900000000000002" fill="none" stroke-linecap="round"/><circle cx="86" cy="26" r="1.04" fill="#0047ab"/></g>
</svg>
