<svg xmlns="http://www.w3.org/2000/svg" width="96" height="96" viewBox="0 0 96 96">
<defs><linearGradient id="bg234" x1="0" y1="0" x2="0" y2="1"><stop offset="0" stop-color="#bfe0ff"/><stop offset="1" stop-color="#8ec3f5"/></linearGradient></defs>
<rect width="96" height="96" rx="18" fill="url(#bg234)"/><g fill="#fff" opacity=".9"><ellipse cx="24" cy="20" rx="11" ry="5"/><ellipse cx="33" cy="17" rx="8" ry="4.4"/><ellipse cx="72" cy="30" rx="9" ry="4"/></g><path d="M8 64h80v14a16 16 0 0 1-16 16h-48a16 16 0 0 1-16-16z" fill="#a57847"/><path d="M8 64h80v3h-80z" fill="#8a5f36"/><g><rect x="25.9" y="40.1" width="24.200000000000003" height="19.8" rx="3.3000000000000003" fill="#fff" stroke="#d8e0ec" stroke-width="1.54"/><rect x="35.91" y="43.4" width="4.18" height="13.200000000000001" rx="1.1" fill="#e05555"/><rect x="31.4" y="47.91" width="13.200000000000001" height="4.18" rx="1.1" fill="#e05555"/></g><g><circle cx="70" cy="28" r="9.9" fill="#fff" stroke="#0047ab" stroke-width="2.7"/><path d="M70 22.15v5.8500000000000005l4.14 2.7" stroke="#e34d4d" stroke-width="2.3400000000000003" fill="none" stroke-linecap="round"/><circle cx="70" cy="28" r="1.4400000000000002" fill="#0047ab"/></g><g><rect x="82.72" y="42" width="2.5600000000000005" height="9.600000000000001" rx="1.2800000000000002" fill="#ef6f6f"/><circle cx="84" cy="54.8" r="1.52" fill="#ef6f6f"/></g>
</svg>
