<svg xmlns="http://www.w3.org/2000/svg" width="96" height="96" viewBox="0 0 96 96">
<defs><linearGradient id="bg235" x1="0" y1="0" x2="0" y2="1"><stop offset="0" stop-color="#3a2f68"/><stop offset="1" stop-color="#1c1740"/></linearGradient></defs>
<rect width="96" height="96" rx="18" fill="url(#bg235)"/><circle cx="18" cy="16" r="1.4" fill="#fff"/><circle cx="60" cy="12" r="1.1" fill="#fff"/><circle cx="84" cy="24" r="1.2" fill="#fff"/><path d="M8 64h80v14a16 16 0 0 1-16 16h-48a16 16 0 0 1-16-16z" fill="#a57847"/><path d="M8 64h80v3h-80z" fill="#8a5f36"/><g transform="rotate(-6 36 52)"><rect x="23.65" y="43.925" width="24.7" height="16.15" rx="2" fill="#fdfaf2"/><path d="M27.450000000000003 48.675h17.099999999999998M27.450000000000003 52.475h17.099999999999998M27.450000000000003 56.275h11.399999999999999" stroke="#b9c3d6" stroke-width="1.5" stroke-linecap="round"/></g><g stroke-linecap="round"><path d="M64 28c3 2 3 6 0 8s-3 6 0 8" stroke="#9db8ff" stroke-width="1.9800000000000002" fill="none"/><path d="M73.9 23.5c2.4 1.6 2.4 4.8 0 6.4s-2.4 4.8 0 6.4" stroke="#9db8ff" stroke-width="1.71" fill="none" opacity=".85"/></g><g><circle cx="84" cy="50" r="7.699999999999999" fill="#fff" stroke="#0047ab" stroke-width="2.0999999999999996"/><path d="M84 45.45v4.55l3.2199999999999998-1.4" stroke="#0047ab" stroke-width="1.8199999999999998" fill="none" stroke-linecap="round"/><circle cx="84" cy="50" r="1.1199999999999999" fill="#0047ab"/></g>
</svg>
