<svg xmlns="http://www.w3.org/2000/svg" width="96" height="96" viewBox="0 0 96 96">
<defs><linearGradient id="bg235" x1="0" y1="0" x2="0" y2="1"><stop offset="0" stop-color="#3a2f68"/><stop offset="1" stop-color="#1c1740"/></linearGradient></defs>
<rect width="96" height="96" rx="18" fill="url(#bg235)"/><circle cx="18" cy="16" r="1.4" fill="#fff"/><circle cx="60" cy="12" r="1.1" fill="#fff"/><circle cx="84" cy="24" r="1.2" fill="#fff"/><path d="M8 64h80v14a16 16 0 0 1-16 16h-48a16 16 0 0 1-16-16z" fill="#a57847"/><path d="M8 64h80v3h-80z" fill="#8a5f36"/><g stroke="#0047ab" stroke-width="2.8600000000000003" fill="none" stroke-linecap="round"><circle cx="30.5" cy="56.8" r="4.840000000000001"/><circle cx="43.7" cy="56.8" r="4.840000000000001"/><path d="M33.36 53.06l9.9-15.400000000000002M40.84 53.06l-9.9-15.400000000000002"/></g><g><path d="M58 60l8 -20l8 20z" fill="#7c5cd6"/><circle cx="66" cy="40" r="2.4" fill="#ffd75e"/><circle cx="63.6" cy="53" r="1.2" fill="#fff"/><circle cx="68.8" cy="48" r="1.1" fill="#fff"/></g><g><circle cx="84" cy="26" r="7.699999999999999" fill="#fff" stroke="#0047ab" stroke-width="2.0999999999999996"/><path d="M84 21.45v4.55l3.2199999999999998 2.0999999999999996" stroke="#e34d4d" stroke-width="1.8199999999999998" fill="none" stroke-linecap="round"/><circle cx="84" cy="26" r="1.1199999999999999" fill="#0047ab"/></g>
</svg>
