<svg xmlns="http://www.w3.org/2000/svg" width="96" height="96" viewBox="0 0 96 96">
<defs><linearGradient id="bg236" x1="0" y1="0" x2="0" y2="1"><stop offset="0" stop-color="#1f3060"/><stop offset="1" stop-color="#141f42"/></linearGradient></defs>
<rect width="96" height="96" rx="18" fill="url(#bg236)"/><circle cx="16" cy="16" r="1.4" fill="#fff"/><circle cx="38" cy="10" r="1.1" fill="#fff"/><circle cx="80" cy="14" r="1.2" fill="#fff"/><circle cx="64" cy="22" r=".9" fill="#fff" opacity=".8"/><g transform="rotate(-8 40 44)"><rect x="26.799999999999997" y="36.3" width="26.400000000000002" height="15.400000000000002" rx="2.2" fill="#ffd75e"/><path d="M43.3 36.3v15.400000000000002" stroke="#e8b23d" stroke-width="1.54" stroke-dasharray="2.4 2.4"/><path d="M31.2 41.8h8.8M31.2 46.2h6.6000000000000005" stroke="#a5772a" stroke-width="1.6500000000000001" stroke-linecap="round"/></g><g><circle cx="68" cy="52" r="6.3" fill="#ffd75e" stroke="#e8b23d" stroke-width="1.4400000000000002"/><circle cx="68" cy="52" r="1.9800000000000002" fill="none" stroke="#e8b23d" stroke-width="1.26"/></g><path d="M84 24l1.4400000000000002 2.9600000000000004 3.2 .6-2.32 2.2399999999999998 .7 3.2-2.8800000000000003-1.52-2.8800000000000003 1.52 .7-3.2-2.32-2.2399999999999998 3.2-.6z" fill="#ffd75e"/>
</svg>
