<svg xmlns="http://www.w3.org/2000/svg" width="96" height="96" viewBox="0 0 96 96">
<defs><linearGradient id="bg238" x1="0" y1="0" x2="0" y2="1"><stop offset="0" stop-color="#bfe0ff"/><stop offset="1" stop-color="#8ec3f5"/></linearGradient></defs>
<rect width="96" height="96" rx="18" fill="url(#bg238)"/><g fill="#fff" opacity=".9"><ellipse cx="24" cy="20" rx="11" ry="5"/><ellipse cx="33" cy="17" rx="8" ry="4.4"/><ellipse cx="72" cy="30" rx="9" ry="4"/></g><g><path d="M25.450000000000003 21.35h17.099999999999998a3.8 3.8 0 0 1 3.8 3.8v4.75a3.8 3.8 0 0 1-3.8 3.8h-9.5l-4.75 4.75v-4.75h-2.8499999999999996a3.8 3.8 0 0 1-3.8-3.8v-4.75a3.8 3.8 0 0 1 3.8-3.8z" fill="#fff" stroke="#3b82f6" stroke-width="1.71"/><path d="M31.72 26.48a2.4699999999999998 2.4699999999999998 0 1 1 3.42 2.28c-0.95 .4-1.14 0.855-1.14 1.71" stroke="#3b82f6" stroke-width="1.4249999999999998" fill="none" stroke-linecap="round"/><circle cx="34" cy="32.18" r="0.855" fill="#3b82f6"/></g><g><circle cx="48" cy="62" r="9.5" fill="#f2c9a4"/><path d="M39.4 58.4c1.3-7 16-7 17.2 0l-2.2-1.2.5 2.1c-4.8-2.6-9.6-2.6-13-.5z" fill="#3d2b1f"/><circle cx="44.8" cy="62.6" r="0.95" fill="#2b1d12"/><circle cx="51.2" cy="62.6" r="0.95" fill="#2b1d12"/><path d="M45.8 67a3 3 0 0 1 4.4 0" stroke="#b06e4a" stroke-width="1.1" fill="none" stroke-linecap="round"/><circle cx="42.4" cy="65" r="1.25" fill="#f0a08a" opacity=".7"/><circle cx="53.6" cy="65" r="1.25" fill="#f0a08a" opacity=".7"/><path d="M36 79c1-6.5 5.5-9.5 12-9.5s11 3 12 9.5z" fill="#2b6bd8"/></g><g fill="#e8edf5"><path d="M68.2 18h15.399999999999999l4.199999999999999-3.5 1.4 0.9799999999999999-2.8 3.9199999999999995 2.8 3.9199999999999995-1.4 0.9799999999999999-4.199999999999999-3.5h-15.399999999999999c-1.4 0-1.4-2.8 0-2.8z"/><path d="M76.6 18l-4.199999999999999-5.6 2.38-.6 5.6 6.02z"/></g><path d="M62.6 19.4h3.5M61.2 22.2h4.199999999999999" stroke="#c3cddf" stroke-width="1.26" stroke-linecap="round"/>
</svg>
