<svg xmlns="http://www.w3.org/2000/svg" width="96" height="96" viewBox="0 0 96 96">
<defs><linearGradient id="bg240" x1="0" y1="0" x2="0" y2="1"><stop offset="0" stop-color="#bfe0ff"/><stop offset="1" stop-color="#8ec3f5"/></linearGradient></defs>
<rect width="96" height="96" rx="18" fill="url(#bg240)"/><g fill="#fff" opacity=".9"><ellipse cx="24" cy="20" rx="11" ry="5"/><ellipse cx="33" cy="17" rx="8" ry="4.4"/><ellipse cx="72" cy="30" rx="9" ry="4"/></g><path d="M4 74h88v8a14 14 0 0 1-14 12h-60a14 14 0 0 1-14-12z" fill="#5a6478"/><path d="M12 80h10M32 80h10M52 80h10M72 80h10" stroke="#aab4c8" stroke-width="2.4" stroke-linecap="round"/><g stroke="#2b3a55" stroke-width="2.28" fill="none"><circle cx="32.6" cy="66" r="7.6"/><circle cx="55.4" cy="66" r="7.6"/><path d="M32.6 66l6.6499999999999995-11.399999999999999h8.549999999999999l7.6 11.399999999999999M39.25 54.6l-3.8-2.8499999999999996h5.699999999999999M47.8 54.6l-3.8 11.399999999999999"/><path d="M45.9 50.325h5.699999999999999" stroke-linecap="round"/></g><g><path d="M70.8 20.4h14.4a3.2 3.2 0 0 1 3.2 3.2v4a3.2 3.2 0 0 1-3.2 3.2h-8l-4 4v-4h-2.4000000000000004a3.2 3.2 0 0 1-3.2-3.2v-4a3.2 3.2 0 0 1 3.2-3.2z" fill="#fff" stroke="#3b82f6" stroke-width="1.4400000000000002"/><path d="M76.08 24.72a2.08 2.08 0 1 1 2.8800000000000003 1.92c-0.8 .4-0.96 0.7200000000000001-0.96 1.4400000000000002" stroke="#3b82f6" stroke-width="1.2000000000000002" fill="none" stroke-linecap="round"/><circle cx="78" cy="29.52" r="0.7200000000000001" fill="#3b82f6"/></g>
</svg>
