<svg xmlns="http://www.w3.org/2000/svg" width="96" height="96" viewBox="0 0 96 96">
<defs><linearGradient id="bg65" x1="0" y1="0" x2="0" y2="1"><stop offset="0" stop-color="#2a3f76"/><stop offset=".7" stop-color="#1b2a55"/><stop offset="1" stop-color="#15224a"/></linearGradient><radialGradient id="bg65l" cx=".5" cy=".5" r=".5"><stop offset="0" stop-color="#ffe9a8" stop-opacity=".95"/><stop offset="1" stop-color="#ffe9a8" stop-opacity="0"/></radialGradient></defs>
<rect width="96" height="96" rx="18" fill="url(#bg65)"/><path d="M4 20q22 12 44 0t44 0" stroke="#0e1a3c" stroke-width="1.6" fill="none"/><circle cx="16" cy="24" r="4.6" fill="url(#bg65l)"/><circle cx="16" cy="24" r="1.6" fill="#ffd75e"/><circle cx="34" cy="28" r="4.6" fill="url(#bg65l)"/><circle cx="34" cy="28" r="1.6" fill="#ffd75e"/><circle cx="52" cy="29" r="4.6" fill="url(#bg65l)"/><circle cx="52" cy="29" r="1.6" fill="#ffd75e"/><circle cx="70" cy="27" r="4.6" fill="url(#bg65l)"/><circle cx="70" cy="27" r="1.6" fill="#ffd75e"/><circle cx="86" cy="22" r="4.6" fill="url(#bg65l)"/><circle cx="86" cy="22" r="1.6" fill="#ffd75e"/><path d="M8 68h80v10a16 16 0 0 1-16 16h-48a16 16 0 0 1-16-16z" fill="#c99a63"/><path d="M8 68h80v3h-80z" fill="#a87e4e"/><path d="M20 78h20M56 82h22" stroke="#b3854f" stroke-width="1.6"/><g><circle cx="36" cy="54" r="9.5" fill="#f2c9a4"/><path d="M27.4 50.4c1.3-7 16-7 17.2 0l-2.2-1.2.5 2.1c-4.8-2.6-9.6-2.6-13-.5z" fill="#3d2b1f"/><circle cx="32.8" cy="54.6" r="0.95" fill="#2b1d12"/><circle cx="39.2" cy="54.6" r="0.95" fill="#2b1d12"/><path d="M34 58.6h4" stroke="#b06e4a" stroke-width="1.1" stroke-linecap="round"/><circle cx="30.4" cy="57" r="1.25" fill="#f0a08a" opacity=".7"/><circle cx="41.6" cy="57" r="1.25" fill="#f0a08a" opacity=".7"/><path d="M24 71c1-6.5 5.5-9.5 12-9.5s11 3 12 9.5z" fill="#2b6bd8"/></g><g><path d="M68.75 64l-3.4 8M79.25 64l3.4 8" stroke="#f2c9a4" stroke-width="2.4000000000000004" stroke-linecap="round"/><path d="M69.125 61.75h9.75l2.625 11.25h-15z" fill="#f26d6d"/><path d="M71 73v6.75M77 73v6.75" stroke="#f2c9a4" stroke-width="2.25" stroke-linecap="round"/><circle cx="74" cy="56.5" r="6" fill="#f2c9a4"/><path d="M68.645 55.3c0-7.4 15.4-8.2 16.8-.8 0 3-1 4.2-1 4.2l-1-3.6c-3.2 1.7-8.8 1.7-11.2-1.2l-1.8 4s-1.8-.4-1.8-2.6z" fill="#5a4632"/><circle cx="79.1" cy="52.1125" r="1.7849999999999997" fill="#5a4632"/><path d="M71.0675 57.01c1-1.4 2.6-1.4 3.6 0M74.6375 57.01c1-1.4 2.6-1.4 3.6 0" stroke="#2b1d12" stroke-width="0.82875" fill="none" stroke-linecap="round"/><path d="M72.5975 59.1775a1.9124999999999999 1.9124999999999999 0 0 0 2.805 0" stroke="#b06e4a" stroke-width="0.70125" fill="none" stroke-linecap="round"/><circle cx="70.43" cy="58.4125" r="0.796875" fill="#f0a08a" opacity=".7"/><circle cx="77.57" cy="58.4125" r="0.796875" fill="#f0a08a" opacity=".7"/></g><g><rect x="18.56" y="21" width="2.8800000000000003" height="10.8" rx="1.4400000000000002" fill="#9db8e8"/><circle cx="20" cy="35.4" r="1.71" fill="#9db8e8"/></g>
</svg>
