<svg xmlns="http://www.w3.org/2000/svg" width="96" height="96" viewBox="0 0 96 96">
<defs><linearGradient id="bg66" x1="0" y1="0" x2="0" y2="1"><stop offset="0" stop-color="#bfe0ff"/><stop offset="1" stop-color="#8ec3f5"/></linearGradient></defs>
<rect width="96" height="96" rx="18" fill="url(#bg66)"/><g fill="#fff" opacity=".9"><ellipse cx="24" cy="20" rx="11" ry="5"/><ellipse cx="33" cy="17" rx="8" ry="4.4"/><ellipse cx="72" cy="30" rx="9" ry="4"/></g><g><path d="M23.65 36.8l4.6-3.4499999999999997h11.5l4.6 3.4499999999999997-2.9899999999999998 4.6-2.07-1.6099999999999999v12.649999999999999h-10.579999999999998v-12.649999999999999l-2.07 1.6099999999999999z" fill="#fff" stroke="#c3cddf" stroke-width="1"/></g><g><path d="M51.45 44.4l3.8-2.8499999999999996h9.5l3.8 2.8499999999999996-2.4699999999999998 3.8-1.71-1.3299999999999998v10.45h-8.739999999999998v-10.45l-1.71 1.3299999999999998z" fill="#9dc1f5" stroke="#c3cddf" stroke-width="1"/></g><path d="M82 24l1.4400000000000002 2.9600000000000004 3.2 .6-2.32 2.2399999999999998 .7 3.2-2.8800000000000003-1.52-2.8800000000000003 1.52 .7-3.2-2.32-2.2399999999999998 3.2-.6z" fill="#ffd75e"/>
</svg>
