<svg xmlns="http://www.w3.org/2000/svg" width="96" height="96" viewBox="0 0 96 96">
<defs><linearGradient id="bg67" x1="0" y1="0" x2="0" y2="1"><stop offset="0" stop-color="#bfe0ff"/><stop offset="1" stop-color="#8ec3f5"/></linearGradient></defs>
<rect width="96" height="96" rx="18" fill="url(#bg67)"/><g fill="#fff" opacity=".9"><ellipse cx="24" cy="20" rx="11" ry="5"/><ellipse cx="33" cy="17" rx="8" ry="4.4"/><ellipse cx="72" cy="30" rx="9" ry="4"/></g><path d="M4 72h88v10a14 14 0 0 1-14 12h-60a14 14 0 0 1-14-12z" fill="#6ea25f"/><path d="M14 72l2-5M26 72l2-5M44 72l2-5M64 72l2-5M80 72l2-5" stroke="#547f47" stroke-width="2" stroke-linecap="round"/><g><path d="M32 72l15 -28l8 11l9 -16l20 33z" fill="#6b8f6b"/><path d="M44.5 50l3.6 -6l3.4 5.4l-2.4 2l-2.2 -1.6z" fill="#fff"/><path d="M60.6 44.6l3.4 -5.6l5 8.4l-3.4 1.4l-2.6 -2.4z" fill="#fff"/></g><g><path d="M22 66.4l13.6 13.6h-27.2z" fill="#e07a4a"/><path d="M22 66.4l4.25 13.6h-8.5z" fill="#b85a30"/><path d="M22 66.4v-3.4" stroke="#5a4632" stroke-width="1.53" stroke-linecap="round"/></g><g><rect x="78.5" y="71" width="11" height="9" rx="1.3" fill="#c98d4e"/><path d="M78.5 74.5h11" stroke="#a5713a" stroke-width="0.8"/><path d="M82 71v-1.7a1 1 0 0 1 1-1h2a1 1 0 0 1 1 1v1.7" stroke="#a5713a" stroke-width="1" fill="none"/></g>
</svg>
