<svg xmlns="http://www.w3.org/2000/svg" width="96" height="96" viewBox="0 0 96 96">
<defs><linearGradient id="bg68" x1="0" y1="0" x2="0" y2="1"><stop offset="0" stop-color="#2a3f76"/><stop offset=".7" stop-color="#1b2a55"/><stop offset="1" stop-color="#15224a"/></linearGradient><radialGradient id="bg68l" cx=".5" cy=".5" r=".5"><stop offset="0" stop-color="#ffe9a8" stop-opacity=".95"/><stop offset="1" stop-color="#ffe9a8" stop-opacity="0"/></radialGradient></defs>
<rect width="96" height="96" rx="18" fill="url(#bg68)"/><path d="M4 20q22 12 44 0t44 0" stroke="#0e1a3c" stroke-width="1.6" fill="none"/><circle cx="16" cy="24" r="4.6" fill="url(#bg68l)"/><circle cx="16" cy="24" r="1.6" fill="#ffd75e"/><circle cx="34" cy="28" r="4.6" fill="url(#bg68l)"/><circle cx="34" cy="28" r="1.6" fill="#ffd75e"/><circle cx="52" cy="29" r="4.6" fill="url(#bg68l)"/><circle cx="52" cy="29" r="1.6" fill="#ffd75e"/><circle cx="70" cy="27" r="4.6" fill="url(#bg68l)"/><circle cx="70" cy="27" r="1.6" fill="#ffd75e"/><circle cx="86" cy="22" r="4.6" fill="url(#bg68l)"/><circle cx="86" cy="22" r="1.6" fill="#ffd75e"/><path d="M8 68h80v10a16 16 0 0 1-16 16h-48a16 16 0 0 1-16-16z" fill="#c99a63"/><path d="M8 68h80v3h-80z" fill="#a87e4e"/><path d="M20 78h20M56 82h22" stroke="#b3854f" stroke-width="1.6"/><g><g fill="#f4f7fc"><ellipse cx="24" cy="86" rx="4.18" ry="6.6499999999999995" transform="rotate(-18 24 86)"/><ellipse cx="35.4" cy="77.45" rx="4.18" ry="6.6499999999999995" transform="rotate(12 35.4 77.45)"/></g><g fill="#ff9d9d"><ellipse cx="47.75" cy="69.85" rx="4.18" ry="6.6499999999999995" transform="rotate(-12 47.75 69.85)"/><ellipse cx="60.1" cy="62.25" rx="4.18" ry="6.6499999999999995" transform="rotate(14 60.1 62.25)"/></g></g><g stroke-linecap="round"><path d="M70 32c3 2 3 6 0 8s-3 6 0 8" stroke="#9db8ff" stroke-width="1.9800000000000002" fill="none"/><path d="M79.9 27.5c2.4 1.6 2.4 4.8 0 6.4s-2.4 4.8 0 6.4" stroke="#9db8ff" stroke-width="1.71" fill="none" opacity=".85"/></g>
</svg>
