<svg xmlns="http://www.w3.org/2000/svg" width="96" height="96" viewBox="0 0 96 96">
<defs><linearGradient id="bg69" x1="0" y1="0" x2="0" y2="1"><stop offset="0" stop-color="#4a3a72"/><stop offset="1" stop-color="#2c2350"/></linearGradient><radialGradient id="bg69c" cx=".5" cy=".5" r=".5"><stop offset="0" stop-color="#ffe9a8" stop-opacity=".95"/><stop offset="1" stop-color="#ffe9a8" stop-opacity="0"/></radialGradient></defs>
<rect width="96" height="96" rx="18" fill="url(#bg69)"/><circle cx="48" cy="13" r="12" fill="url(#bg69c)"/><circle cx="43.5" cy="14" r="1.8" fill="#ffd75e"/><circle cx="48" cy="16" r="1.8" fill="#ffd75e"/><circle cx="52.5" cy="14" r="1.8" fill="#ffd75e"/><path d="M8 68h80v10a16 16 0 0 1-16 16h-48a16 16 0 0 1-16-16z" fill="#c99a63"/><path d="M8 68h80v3h-80z" fill="#a87e4e"/><path d="M20 78h20M56 82h22" stroke="#b3854f" stroke-width="1.6"/><g><g fill="#f4f7fc"><ellipse cx="28" cy="86" rx="3.74" ry="5.95" transform="rotate(-18 28 86)"/><ellipse cx="38.2" cy="78.35" rx="3.74" ry="5.95" transform="rotate(12 38.2 78.35)"/></g><g fill="#ff9d9d"><ellipse cx="49.25" cy="71.55" rx="3.74" ry="5.95" transform="rotate(-12 49.25 71.55)"/><ellipse cx="60.3" cy="64.75" rx="3.74" ry="5.95" transform="rotate(14 60.3 64.75)"/></g></g><g><path d="M53.9 25.7h16.2a3.6 3.6 0 0 1 3.6 3.6v4.5a3.6 3.6 0 0 1-3.6 3.6h-9l-4.5 4.5v-4.5h-2.7a3.6 3.6 0 0 1-3.6-3.6v-4.5a3.6 3.6 0 0 1 3.6-3.6z" fill="#fff" stroke="#3b82f6" stroke-width="1.62"/><path d="M59.84 30.56a2.3400000000000003 2.3400000000000003 0 1 1 3.24 2.16c-0.9 .4-1.08 0.81-1.08 1.62" stroke="#3b82f6" stroke-width="1.35" fill="none" stroke-linecap="round"/><circle cx="62" cy="35.96" r="0.81" fill="#3b82f6"/></g>
</svg>
