<svg xmlns="http://www.w3.org/2000/svg" width="96" height="96" viewBox="0 0 96 96">
<defs><linearGradient id="bg70" x1="0" y1="0" x2="0" y2="1"><stop offset="0" stop-color="#bfe0ff"/><stop offset="1" stop-color="#8ec3f5"/></linearGradient></defs>
<rect width="96" height="96" rx="18" fill="url(#bg70)"/><g fill="#fff" opacity=".9"><ellipse cx="24" cy="20" rx="11" ry="5"/><ellipse cx="33" cy="17" rx="8" ry="4.4"/><ellipse cx="72" cy="30" rx="9" ry="4"/></g><path d="M8 68h80v10a16 16 0 0 1-16 16h-48a16 16 0 0 1-16-16z" fill="#c99a63"/><path d="M8 68h80v3h-80z" fill="#a87e4e"/><path d="M20 78h20M56 82h22" stroke="#b3854f" stroke-width="1.6"/><g transform="rotate(-14 34 48)"><path d="M24 44l14-6v20l-14-6z" fill="#e05555"/><rect x="20" y="44" width="5" height="8" rx="1.6" fill="#b23a3a"/><path d="M42 40l5-3M43 48h6M42 56l5 3" stroke="#ffd75e" stroke-width="2.2" stroke-linecap="round"/></g><g transform="rotate(-6 68 54)"><rect x="56.95" y="46.775" width="22.099999999999998" height="14.45" rx="2" fill="#fdfaf2"/><path d="M60.35 51.025h15.299999999999999M60.35 54.425h15.299999999999999M60.35 57.825h10.2" stroke="#b9c3d6" stroke-width="1.5" stroke-linecap="round"/></g><g stroke-linecap="round"><path d="M84 28c3 2 3 6 0 8s-3 6 0 8" stroke="#9db8ff" stroke-width="1.4300000000000002" fill="none"/><path d="M91.15 24.75c2.4 1.6 2.4 4.8 0 6.4s-2.4 4.8 0 6.4" stroke="#9db8ff" stroke-width="1.2349999999999999" fill="none" opacity=".85"/></g>
</svg>
