<svg xmlns="http://www.w3.org/2000/svg" width="96" height="96" viewBox="0 0 96 96">
<defs><linearGradient id="bg70" x1="0" y1="0" x2="0" y2="1"><stop offset="0" stop-color="#bfe0ff"/><stop offset="1" stop-color="#8ec3f5"/></linearGradient></defs>
<rect width="96" height="96" rx="18" fill="url(#bg70)"/><g fill="#fff" opacity=".9"><ellipse cx="24" cy="20" rx="11" ry="5"/><ellipse cx="33" cy="17" rx="8" ry="4.4"/><ellipse cx="72" cy="30" rx="9" ry="4"/></g><path d="M8 68h80v10a16 16 0 0 1-16 16h-48a16 16 0 0 1-16-16z" fill="#c99a63"/><path d="M8 68h80v3h-80z" fill="#a87e4e"/><path d="M20 78h20M56 82h22" stroke="#b3854f" stroke-width="1.6"/><g transform="rotate(-18 40 54)"><ellipse cx="40" cy="39.7" rx="7.700000000000001" ry="10.340000000000002" fill="none" stroke="#e05555" stroke-width="2.4200000000000004"/><path d="M34.5 36.4h11M33.4 40.8h13.200000000000001M34.5 45.2h11M37.8 30.9v17.6M42.2 30.9v17.6" stroke="#f2b2b2" stroke-width="0.9900000000000001"/><rect x="38.24" y="49.6" width="3.5200000000000005" height="14.3" rx="1.7600000000000002" fill="#8a5f36"/></g><circle cx="53.2" cy="27.599999999999998" r="2.4200000000000004" fill="#fff" stroke="#d8d2c2"/><g><rect x="72.4" y="16" width="3.2" height="12" rx="1.6" fill="#ffd75e"/><circle cx="74" cy="32" r="1.9" fill="#ffd75e"/></g><g fill="#ffd75e"><circle cx="86" cy="48" r="1.19"/><circle cx="95.8" cy="55" r="0.9099999999999999"/><circle cx="80.4" cy="57.8" r="0.84"/></g>
</svg>
