<svg xmlns="http://www.w3.org/2000/svg" width="96" height="96" viewBox="0 0 96 96">
<defs><linearGradient id="bg71" x1="0" y1="0" x2="0" y2="1"><stop offset="0" stop-color="#ffb36b"/><stop offset=".55" stop-color="#e77e6a"/><stop offset="1" stop-color="#5a4f9e"/></linearGradient><radialGradient id="bg71u" cx=".5" cy=".5" r=".5"><stop offset="0" stop-color="#fff0b3"/><stop offset="1" stop-color="#fff0b3" stop-opacity="0"/></radialGradient></defs>
<rect width="96" height="96" rx="18" fill="url(#bg71)"/><circle cx="76" cy="28" r="16" fill="url(#bg71u)"/><circle cx="76" cy="28" r="6.5" fill="#ffdd88"/><path d="M4 74h88v8a14 14 0 0 1-14 12h-60a14 14 0 0 1-14-12z" fill="#5a6478"/><path d="M12 80h10M32 80h10M52 80h10M72 80h10" stroke="#aab4c8" stroke-width="2.4" stroke-linecap="round"/><g><rect x="17.5" y="47.6" width="45" height="18" rx="4.05" fill="#ffcf5e"/><rect x="22" y="51.2" width="8.1" height="6.3" rx="1.6" fill="#fff3c9"/><rect x="33.7" y="51.2" width="8.1" height="6.3" rx="1.6" fill="#fff3c9"/><rect x="45.4" y="51.2" width="8.1" height="6.3" rx="1.6" fill="#fff3c9"/><path d="M17.5 60.2h45" stroke="#0047ab" stroke-width="2.3400000000000003"/><circle cx="28.299999999999997" cy="65.6" r="3.24" fill="#1c2038"/><circle cx="51.7" cy="65.6" r="3.24" fill="#1c2038"/></g><path d="M76 33.6c-5.6000000000000005-3.6799999999999997-7.68-7.5200000000000005-5.44-10.240000000000002c1.6-1.92 4.32-1.2800000000000002 5.44 .8 1.1199999999999999-1.92 3.84-2.5600000000000005 5.44-.8 2.2399999999999998 2.72 .2 6.56-5.44 10.240000000000002z" fill="#ef6f6f"/><g fill="#ffd75e"><circle cx="18" cy="32" r="1.275"/><circle cx="28.5" cy="39.5" r="0.9750000000000001"/><circle cx="12" cy="42.5" r="0.8999999999999999"/></g>
</svg>
