<svg xmlns="http://www.w3.org/2000/svg" width="96" height="96" viewBox="0 0 96 96">
<defs><linearGradient id="bg72" x1="0" y1="0" x2="0" y2="1"><stop offset="0" stop-color="#2a3f76"/><stop offset=".7" stop-color="#1b2a55"/><stop offset="1" stop-color="#15224a"/></linearGradient><radialGradient id="bg72l" cx=".5" cy=".5" r=".5"><stop offset="0" stop-color="#ffe9a8" stop-opacity=".95"/><stop offset="1" stop-color="#ffe9a8" stop-opacity="0"/></radialGradient></defs>
<rect width="96" height="96" rx="18" fill="url(#bg72)"/><path d="M4 20q22 12 44 0t44 0" stroke="#0e1a3c" stroke-width="1.6" fill="none"/><circle cx="16" cy="24" r="4.6" fill="url(#bg72l)"/><circle cx="16" cy="24" r="1.6" fill="#ffd75e"/><circle cx="34" cy="28" r="4.6" fill="url(#bg72l)"/><circle cx="34" cy="28" r="1.6" fill="#ffd75e"/><circle cx="52" cy="29" r="4.6" fill="url(#bg72l)"/><circle cx="52" cy="29" r="1.6" fill="#ffd75e"/><circle cx="70" cy="27" r="4.6" fill="url(#bg72l)"/><circle cx="70" cy="27" r="1.6" fill="#ffd75e"/><circle cx="86" cy="22" r="4.6" fill="url(#bg72l)"/><circle cx="86" cy="22" r="1.6" fill="#ffd75e"/><path d="M8 68h80v10a16 16 0 0 1-16 16h-48a16 16 0 0 1-16-16z" fill="#c99a63"/><path d="M8 68h80v3h-80z" fill="#a87e4e"/><path d="M20 78h20M56 82h22" stroke="#b3854f" stroke-width="1.6"/><g><circle cx="34" cy="54" r="9.5" fill="#f2c9a4"/><path d="M25.4 50.4c1.3-7 16-7 17.2 0l-2.2-1.2.5 2.1c-4.8-2.6-9.6-2.6-13-.5z" fill="#3d2b1f"/><circle cx="30.8" cy="54.6" r="0.95" fill="#2b1d12"/><circle cx="37.2" cy="54.6" r="0.95" fill="#2b1d12"/><path d="M32 58.6h4" stroke="#b06e4a" stroke-width="1.1" stroke-linecap="round"/><circle cx="28.4" cy="57" r="1.25" fill="#f0a08a" opacity=".7"/><circle cx="39.6" cy="57" r="1.25" fill="#f0a08a" opacity=".7"/><path d="M22 71c1-6.5 5.5-9.5 12-9.5s11 3 12 9.5z" fill="#2b6bd8"/></g><g><circle cx="66" cy="54" r="9.025" fill="#f2c9a4"/><path d="M58.02 52.1c0-7.4 15.4-8.2 16.8-.8 0 3-1 4.2-1 4.2l-1-3.6c-3.2 1.7-8.8 1.7-11.2-1.2l-1.8 4s-1.8-.4-1.8-2.6z" fill="#5a4632"/><circle cx="73.6" cy="47.35" r="2.6599999999999997" fill="#5a4632"/><path d="M61.63 54.76c1-1.4 2.6-1.4 3.6 0M66.95 54.76c1-1.4 2.6-1.4 3.6 0" stroke="#2b1d12" stroke-width="1.2349999999999999" fill="none" stroke-linecap="round"/><path d="M63.91 57.99a2.8499999999999996 2.8499999999999996 0 0 0 4.18 0" stroke="#b06e4a" stroke-width="1.045" fill="none" stroke-linecap="round"/><circle cx="60.68" cy="56.85" r="1.1875" fill="#f0a08a" opacity=".7"/><circle cx="71.32" cy="56.85" r="1.1875" fill="#f0a08a" opacity=".7"/><path d="M54.6 70.15c1-6.5 5.5-9.5 12-9.5s11 3 12 9.5z" fill="#2b6bd8"/></g><path d="M18 24l1.62 3.33 3.6 .6-2.61 2.52 .7 3.6-3.24-1.71-3.24 1.71 .7-3.6-2.61-2.52 3.6-.6z" fill="#ffd75e"/>
</svg>
