<svg xmlns="http://www.w3.org/2000/svg" width="96" height="96" viewBox="0 0 96 96">
<defs><linearGradient id="bg73" x1="0" y1="0" x2="0" y2="1"><stop offset="0" stop-color="#2a3f76"/><stop offset=".7" stop-color="#1b2a55"/><stop offset="1" stop-color="#15224a"/></linearGradient><radialGradient id="bg73l" cx=".5" cy=".5" r=".5"><stop offset="0" stop-color="#ffe9a8" stop-opacity=".95"/><stop offset="1" stop-color="#ffe9a8" stop-opacity="0"/></radialGradient></defs>
<rect width="96" height="96" rx="18" fill="url(#bg73)"/><path d="M4 20q22 12 44 0t44 0" stroke="#0e1a3c" stroke-width="1.6" fill="none"/><circle cx="16" cy="24" r="4.6" fill="url(#bg73l)"/><circle cx="16" cy="24" r="1.6" fill="#ffd75e"/><circle cx="34" cy="28" r="4.6" fill="url(#bg73l)"/><circle cx="34" cy="28" r="1.6" fill="#ffd75e"/><circle cx="52" cy="29" r="4.6" fill="url(#bg73l)"/><circle cx="52" cy="29" r="1.6" fill="#ffd75e"/><circle cx="70" cy="27" r="4.6" fill="url(#bg73l)"/><circle cx="70" cy="27" r="1.6" fill="#ffd75e"/><circle cx="86" cy="22" r="4.6" fill="url(#bg73l)"/><circle cx="86" cy="22" r="1.6" fill="#ffd75e"/><path d="M8 68h80v10a16 16 0 0 1-16 16h-48a16 16 0 0 1-16-16z" fill="#c99a63"/><path d="M8 68h80v3h-80z" fill="#a87e4e"/><path d="M20 78h20M56 82h22" stroke="#b3854f" stroke-width="1.6"/><g><path d="M31.7 60.4l-3.4 8M44.3 60.4l3.4 8" stroke="#f2c9a4" stroke-width="2.8800000000000003" stroke-linecap="round"/><path d="M32.15 57.7h11.700000000000001v13.5h-11.700000000000001z" fill="#e8edf5"/><path d="M34.76 71.2v9M41.24 71.2v9" stroke="#2b3a55" stroke-width="3.7800000000000002" stroke-linecap="round"/><circle cx="38" cy="51.4" r="7.2" fill="#f2c9a4"/><path d="M31.421 48.736000000000004c1.3-7 16-7 17.2 0l-2.2-1.2.5 2.1c-4.8-2.6-9.6-2.6-13-.5z" fill="#3d2b1f"/><circle cx="35.552" cy="51.859" r="0.72675" fill="#2b1d12"/><circle cx="40.448" cy="51.859" r="0.72675" fill="#2b1d12"/><path d="M36.317 54.613a2.295 2.295 0 0 0 3.3660000000000005 0" stroke="#b06e4a" stroke-width="0.8415000000000001" fill="none" stroke-linecap="round"/><circle cx="33.716" cy="53.695" r="0.95625" fill="#f0a08a" opacity=".7"/><circle cx="42.284" cy="53.695" r="0.95625" fill="#f0a08a" opacity=".7"/></g><g><path d="M53.7 60.4l-3.4 8M66.3 60.4l3.4 8" stroke="#f2c9a4" stroke-width="2.8800000000000003" stroke-linecap="round"/><path d="M54.15 57.7h11.700000000000001l3.15 13.5h-18z" fill="#f26d6d"/><path d="M56.4 71.2v8.1M63.6 71.2v8.1" stroke="#f2c9a4" stroke-width="2.7" stroke-linecap="round"/><circle cx="60" cy="51.4" r="7.2" fill="#f2c9a4"/><path d="M53.574 49.96c0-7.4 15.4-8.2 16.8-.8 0 3-1 4.2-1 4.2l-1-3.6c-3.2 1.7-8.8 1.7-11.2-1.2l-1.8 4s-1.8-.4-1.8-2.6z" fill="#5a4632"/><circle cx="66.12" cy="46.135" r="2.142" fill="#5a4632"/><circle cx="57.552" cy="51.859" r="0.72675" fill="#2b1d12"/><circle cx="62.448" cy="51.859" r="0.72675" fill="#2b1d12"/><path d="M58.317 54.613a2.295 2.295 0 0 0 3.3660000000000005 0" stroke="#b06e4a" stroke-width="0.8415000000000001" fill="none" stroke-linecap="round"/><circle cx="55.716" cy="53.695" r="0.95625" fill="#f0a08a" opacity=".7"/><circle cx="64.284" cy="53.695" r="0.95625" fill="#f0a08a" opacity=".7"/></g><g stroke-linecap="round"><path d="M80 38c3 2 3 6 0 8s-3 6 0 8" stroke="#9db8ff" stroke-width="1.54" fill="none"/><path d="M87.7 34.5c2.4 1.6 2.4 4.8 0 6.4s-2.4 4.8 0 6.4" stroke="#9db8ff" stroke-width="1.3299999999999998" fill="none" opacity=".85"/></g>
</svg>
