<svg xmlns="http://www.w3.org/2000/svg" width="96" height="96" viewBox="0 0 96 96">
<defs><linearGradient id="bg74" x1="0" y1="0" x2="0" y2="1"><stop offset="0" stop-color="#1a2f5e"/><stop offset="1" stop-color="#0d1b3d"/></linearGradient><linearGradient id="bg74s" x1="0" y1="0" x2="0" y2="1"><stop offset="0" stop-color="#fff8dc" stop-opacity=".75"/><stop offset="1" stop-color="#fff8dc" stop-opacity=".05"/></linearGradient></defs>
<rect width="96" height="96" rx="18" fill="url(#bg74)"/><path d="M38 0h20l12 64h-44z" fill="url(#bg74s)"/><path d="M8 68h80v10a16 16 0 0 1-16 16h-48a16 16 0 0 1-16-16z" fill="#c99a63"/><path d="M8 68h80v3h-80z" fill="#a87e4e"/><path d="M20 78h20M56 82h22" stroke="#b3854f" stroke-width="1.6"/><g><rect x="14.64" y="30.799999999999997" width="2.72" height="51.2" rx="1.36" fill="#3a3f55"/><path d="M17.36 34 C 25.6 30.799999999999997, 35.2 37.199999999999996, 43.2 34 S 52.800000000000004 32.4, 52.800000000000004 32.4 L 52.800000000000004 50 C 44.8 53.2, 35.2 46.8, 27.200000000000003 50 S 17.36 51.599999999999994, 17.36 51.599999999999994 Z" fill="#0a58c8"/><path d="M24 37.199999999999996l1.4400000000000002 2.9600000000000004 3.2 .6-2.32 2.2399999999999998 .7 3.2-2.8800000000000003-1.52-2.8800000000000003 1.52 .7-3.2-2.32-2.2399999999999998 3.2-.6z" fill="#fff"/></g><path d="M64 36.3c-6.3-4.14-8.64-8.46-6.12-11.520000000000001c1.8-2.16 4.86-1.4400000000000002 6.12 .8 1.26-2.16 4.32-2.8800000000000003 6.12-.8 2.52 3.06 .2 7.38-6.12 11.520000000000001z" fill="#ef6f6f"/><g stroke-linecap="round"><path d="M80 46c3 2 3 6 0 8s-3 6 0 8" stroke="#9db8ff" stroke-width="1.54" fill="none"/><path d="M87.7 42.5c2.4 1.6 2.4 4.8 0 6.4s-2.4 4.8 0 6.4" stroke="#9db8ff" stroke-width="1.3299999999999998" fill="none" opacity=".85"/></g>
</svg>
