<svg xmlns="http://www.w3.org/2000/svg" width="96" height="96" viewBox="0 0 96 96">
<defs><linearGradient id="bg74" x1="0" y1="0" x2="0" y2="1"><stop offset="0" stop-color="#bfe0ff"/><stop offset="1" stop-color="#8ec3f5"/></linearGradient></defs>
<rect width="96" height="96" rx="18" fill="url(#bg74)"/><g fill="#fff" opacity=".9"><ellipse cx="24" cy="20" rx="11" ry="5"/><ellipse cx="33" cy="17" rx="8" ry="4.4"/><ellipse cx="72" cy="30" rx="9" ry="4"/></g><path d="M8 68h80v10a16 16 0 0 1-16 16h-48a16 16 0 0 1-16-16z" fill="#c99a63"/><path d="M8 68h80v3h-80z" fill="#a87e4e"/><path d="M20 78h20M56 82h22" stroke="#b3854f" stroke-width="1.6"/><g fill="#20264a"><path d="M8 88c1-5.25 3-8.25 6-8.25s5.25 3 6 8.25z"/><path d="M20.75 88c1-5.25 3-8.25 6-8.25s5.25 3 6 8.25z"/><path d="M33.5 88c1-5.25 3-8.25 6-8.25s5.25 3 6 8.25z"/><path d="M46.25 88c1-5.25 3-8.25 6-8.25s5.25 3 6 8.25z"/><path d="M59 88c1-5.25 3-8.25 6-8.25s5.25 3 6 8.25z"/></g><path d="M12.5 78.25l0.75-3M25.25 78.25l0.75-3M38 78.25l0.75-3M50.75 78.25l0.75-3M63.5 78.25l0.75-3" stroke="#20264a" stroke-width="2.25" stroke-linecap="round"/><g><rect x="54.16" y="14.5" width="3.6799999999999997" height="13.799999999999999" rx="1.8399999999999999" fill="#ef6f6f"/><circle cx="56" cy="32.9" r="2.1849999999999996" fill="#ef6f6f"/></g><path d="M78 40l1.4400000000000002 2.9600000000000004 3.2 .6-2.32 2.2399999999999998 .7 3.2-2.8800000000000003-1.52-2.8800000000000003 1.52 .7-3.2-2.32-2.2399999999999998 3.2-.6z" fill="#ffd75e"/>
</svg>
