<svg xmlns="http://www.w3.org/2000/svg" width="96" height="96" viewBox="0 0 96 96">
<defs><linearGradient id="bg75" x1="0" y1="0" x2="0" y2="1"><stop offset="0" stop-color="#3a2f68"/><stop offset="1" stop-color="#1c1740"/></linearGradient></defs>
<rect width="96" height="96" rx="18" fill="url(#bg75)"/><circle cx="18" cy="16" r="1.4" fill="#fff"/><circle cx="60" cy="12" r="1.1" fill="#fff"/><circle cx="84" cy="24" r="1.2" fill="#fff"/><path d="M4 74h88v8a14 14 0 0 1-14 12h-60a14 14 0 0 1-14-12z" fill="#5a6478"/><path d="M12 80h10M32 80h10M52 80h10M72 80h10" stroke="#aab4c8" stroke-width="2.4" stroke-linecap="round"/><g><circle cx="34" cy="56" r="9.5" fill="#f2c9a4"/><path d="M25.4 52.4c1.3-7 16-7 17.2 0l-2.2-1.2.5 2.1c-4.8-2.6-9.6-2.6-13-.5z" fill="#3d2b1f"/><circle cx="30.8" cy="56.6" r="0.95" fill="#2b1d12"/><circle cx="37.2" cy="56.6" r="0.95" fill="#2b1d12"/><path d="M31.8 61a3 3 0 0 1 4.4 0" stroke="#b06e4a" stroke-width="1.1" fill="none" stroke-linecap="round"/><circle cx="28.4" cy="59" r="1.25" fill="#f0a08a" opacity=".7"/><circle cx="39.6" cy="59" r="1.25" fill="#f0a08a" opacity=".7"/><path d="M22 73c1-6.5 5.5-9.5 12-9.5s11 3 12 9.5z" fill="#2b6bd8"/></g><g><path d="M66 37c-7-4.6-9.6-9.4-6.8-12.8c2-2.4 5.4-1.6 6.8 .8 1.4-2.4 4.8-3.2 6.8-.8 2.8 3.4 .2 8.2-6.8 12.8z" fill="#ef6f6f"/><path d="M66 24.6l-1.6 3.4 3 2.4-2.4 4" stroke="#e9f1fc" stroke-width="1.6" fill="none" stroke-linecap="round" stroke-linejoin="round"/></g>
</svg>
