<svg xmlns="http://www.w3.org/2000/svg" width="96" height="96" viewBox="0 0 96 96">
<defs><linearGradient id="bg76" x1="0" y1="0" x2="0" y2="1"><stop offset="0" stop-color="#bfe0ff"/><stop offset="1" stop-color="#8ec3f5"/></linearGradient></defs>
<rect width="96" height="96" rx="18" fill="url(#bg76)"/><g fill="#fff" opacity=".9"><ellipse cx="24" cy="20" rx="11" ry="5"/><ellipse cx="33" cy="17" rx="8" ry="4.4"/><ellipse cx="72" cy="30" rx="9" ry="4"/></g><g><path d="M20.549999999999997 35.6l4.2-3.1500000000000004h10.5l4.2 3.1500000000000004-2.7300000000000004 4.2-1.8900000000000001-1.47v11.55h-9.66v-11.55l-1.8900000000000001 1.47z" fill="#ffd75e" stroke="#c3cddf" stroke-width="1"/></g><g><path d="M47.45 42.4l3.8-2.8499999999999996h9.5l3.8 2.8499999999999996-2.4699999999999998 3.8-1.71-1.3299999999999998v10.45h-8.739999999999998v-10.45l-1.71 1.3299999999999998z" fill="#9dc1f5" stroke="#c3cddf" stroke-width="1"/></g><g><path d="M71.9 36c0-6 4.5-9.5 9-9.5s9 3.5 9 9.5z" fill="#e05555"/><path d="M71.9 36h20.7" stroke="#e05555" stroke-width="2.3400000000000003" stroke-linecap="round"/></g><path d="M18 64l1.26 2.59 2.8 .6-2.03 1.9599999999999997 .7 2.8-2.52-1.3299999999999998-2.52 1.3299999999999998 .7-2.8-2.03-1.9599999999999997 2.8-.6z" fill="#ffd75e"/>
</svg>
