<svg xmlns="http://www.w3.org/2000/svg" width="96" height="96" viewBox="0 0 96 96">
<defs><linearGradient id="bg77" x1="0" y1="0" x2="0" y2="1"><stop offset="0" stop-color="#2a3f76"/><stop offset=".7" stop-color="#1b2a55"/><stop offset="1" stop-color="#15224a"/></linearGradient><radialGradient id="bg77l" cx=".5" cy=".5" r=".5"><stop offset="0" stop-color="#ffe9a8" stop-opacity=".95"/><stop offset="1" stop-color="#ffe9a8" stop-opacity="0"/></radialGradient></defs>
<rect width="96" height="96" rx="18" fill="url(#bg77)"/><path d="M4 20q22 12 44 0t44 0" stroke="#0e1a3c" stroke-width="1.6" fill="none"/><circle cx="16" cy="24" r="4.6" fill="url(#bg77l)"/><circle cx="16" cy="24" r="1.6" fill="#ffd75e"/><circle cx="34" cy="28" r="4.6" fill="url(#bg77l)"/><circle cx="34" cy="28" r="1.6" fill="#ffd75e"/><circle cx="52" cy="29" r="4.6" fill="url(#bg77l)"/><circle cx="52" cy="29" r="1.6" fill="#ffd75e"/><circle cx="70" cy="27" r="4.6" fill="url(#bg77l)"/><circle cx="70" cy="27" r="1.6" fill="#ffd75e"/><circle cx="86" cy="22" r="4.6" fill="url(#bg77l)"/><circle cx="86" cy="22" r="1.6" fill="#ffd75e"/><path d="M8 68h80v10a16 16 0 0 1-16 16h-48a16 16 0 0 1-16-16z" fill="#c99a63"/><path d="M8 68h80v3h-80z" fill="#a87e4e"/><path d="M20 78h20M56 82h22" stroke="#b3854f" stroke-width="1.6"/><g><path d="M37.7 60.4l-3.4 8M50.3 60.4l3.4 8" stroke="#f2c9a4" stroke-width="2.8800000000000003" stroke-linecap="round"/><path d="M38.15 57.7h11.700000000000001l3.15 13.5h-18z" fill="#f26d6d"/><path d="M40.4 71.2v8.1M47.6 71.2v8.1" stroke="#f2c9a4" stroke-width="2.7" stroke-linecap="round"/><circle cx="44" cy="51.4" r="7.2" fill="#f2c9a4"/><path d="M37.574 49.96c0-7.4 15.4-8.2 16.8-.8 0 3-1 4.2-1 4.2l-1-3.6c-3.2 1.7-8.8 1.7-11.2-1.2l-1.8 4s-1.8-.4-1.8-2.6z" fill="#5a4632"/><circle cx="50.12" cy="46.135" r="2.142" fill="#5a4632"/><path d="M40.481 52.012c1-1.4 2.6-1.4 3.6 0M44.765 52.012c1-1.4 2.6-1.4 3.6 0" stroke="#2b1d12" stroke-width="0.9945" fill="none" stroke-linecap="round"/><path d="M42.317 54.613a2.295 2.295 0 0 0 3.3660000000000005 0" stroke="#b06e4a" stroke-width="0.8415000000000001" fill="none" stroke-linecap="round"/><circle cx="39.716" cy="53.695" r="0.95625" fill="#f0a08a" opacity=".7"/><circle cx="48.284" cy="53.695" r="0.95625" fill="#f0a08a" opacity=".7"/></g><g fill="#ffd75e"><circle cx="70" cy="28" r="1.7"/><circle cx="84" cy="38" r="1.3"/><circle cx="62" cy="42" r="1.2"/></g><path d="M20 38.9c-4.8999999999999995-3.2199999999999998-6.72-6.58-4.76-8.959999999999999c1.4-1.68 3.78-1.1199999999999999 4.76 .8 0.9799999999999999-1.68 3.36-2.2399999999999998 4.76-.8 1.9599999999999997 2.38 .2 5.739999999999999-4.76 8.959999999999999z" fill="#ef6f6f"/>
</svg>
