<svg xmlns="http://www.w3.org/2000/svg" width="96" height="96" viewBox="0 0 96 96">
<defs><linearGradient id="bg78" x1="0" y1="0" x2="0" y2="1"><stop offset="0" stop-color="#2a3f76"/><stop offset=".7" stop-color="#1b2a55"/><stop offset="1" stop-color="#15224a"/></linearGradient><radialGradient id="bg78l" cx=".5" cy=".5" r=".5"><stop offset="0" stop-color="#ffe9a8" stop-opacity=".95"/><stop offset="1" stop-color="#ffe9a8" stop-opacity="0"/></radialGradient></defs>
<rect width="96" height="96" rx="18" fill="url(#bg78)"/><path d="M4 20q22 12 44 0t44 0" stroke="#0e1a3c" stroke-width="1.6" fill="none"/><circle cx="16" cy="24" r="4.6" fill="url(#bg78l)"/><circle cx="16" cy="24" r="1.6" fill="#ffd75e"/><circle cx="34" cy="28" r="4.6" fill="url(#bg78l)"/><circle cx="34" cy="28" r="1.6" fill="#ffd75e"/><circle cx="52" cy="29" r="4.6" fill="url(#bg78l)"/><circle cx="52" cy="29" r="1.6" fill="#ffd75e"/><circle cx="70" cy="27" r="4.6" fill="url(#bg78l)"/><circle cx="70" cy="27" r="1.6" fill="#ffd75e"/><circle cx="86" cy="22" r="4.6" fill="url(#bg78l)"/><circle cx="86" cy="22" r="1.6" fill="#ffd75e"/><path d="M8 64h80v14a16 16 0 0 1-16 16h-48a16 16 0 0 1-16-16z" fill="#a57847"/><path d="M8 64h80v3h-80z" fill="#8a5f36"/><g><ellipse cx="38" cy="54" rx="10.45" ry="7.6" fill="#d78f35"/><ellipse cx="38" cy="52.48" rx="10.45" ry="7.03" fill="#f3bd6e"/><g fill="#fff"><circle cx="34.2" cy="51.53" r="1.2349999999999999"/><circle cx="40.85" cy="53.43" r="1.2349999999999999"/><circle cx="38" cy="50.01" r="1.2349999999999999"/></g><path d="M34.2 40.7c-2.5 3-2.5 5 0 8M41.8 38.8c-2.5 3-2.5 5 0 8" stroke="#e8ddc8" stroke-width="2.09" fill="none" stroke-linecap="round" opacity=".9"/></g><g><path d="M64 45.6l8.8 14.4h-17.6z" fill="#fff" stroke="#39445c" stroke-width="1.7600000000000002" stroke-linejoin="round"/><rect x="60.4" y="53.6" width="7.2" height="6.4" rx="0.96" fill="#39445c"/></g><path d="M82 32.2c-4.2-2.76-5.76-5.64-4.08-7.68c1.2-1.44 3.24-0.96 4.08 .8 0.84-1.44 2.88-1.92 4.08-.8 1.68 2.04 .2 4.919999999999999-4.08 7.68z" fill="#ff9d9d"/>
</svg>
