<svg xmlns="http://www.w3.org/2000/svg" width="96" height="96" viewBox="0 0 96 96">
<defs><linearGradient id="bg79" x1="0" y1="0" x2="0" y2="1"><stop offset="0" stop-color="#1a2f5e"/><stop offset="1" stop-color="#0d1b3d"/></linearGradient><linearGradient id="bg79s" x1="0" y1="0" x2="0" y2="1"><stop offset="0" stop-color="#fff8dc" stop-opacity=".75"/><stop offset="1" stop-color="#fff8dc" stop-opacity=".05"/></linearGradient></defs>
<rect width="96" height="96" rx="18" fill="url(#bg79)"/><path d="M38 0h20l12 64h-44z" fill="url(#bg79s)"/><path d="M8 66h80v12a17 17 0 0 1-17 16h-46a17 17 0 0 1-17-16z" fill="#7a5533"/><path d="M8 66h80v3h-80z" fill="#956a41"/><g stroke-linecap="round"><path d="M28 30c3 2 3 6 0 8s-3 6 0 8" stroke="#ff9d9d" stroke-width="2.64" fill="none"/><path d="M41.2 24c2.4 1.6 2.4 4.8 0 6.4s-2.4 4.8 0 6.4" stroke="#ff9d9d" stroke-width="2.28" fill="none" opacity=".85"/></g><g stroke-linecap="round"><path d="M58 22c3 2 3 6 0 8s-3 6 0 8" stroke="#9db8ff" stroke-width="2.2" fill="none"/><path d="M69 17c2.4 1.6 2.4 4.8 0 6.4s-2.4 4.8 0 6.4" stroke="#9db8ff" stroke-width="1.9" fill="none" opacity=".85"/></g><g><rect x="80.4" y="24" width="3.2" height="12" rx="1.6" fill="#ffd75e"/><circle cx="82" cy="40" r="1.9" fill="#ffd75e"/></g>
</svg>
