<svg xmlns="http://www.w3.org/2000/svg" width="96" height="96" viewBox="0 0 96 96">
<defs><linearGradient id="bg80" x1="0" y1="0" x2="0" y2="1"><stop offset="0" stop-color="#3a2f68"/><stop offset="1" stop-color="#1c1740"/></linearGradient></defs>
<rect width="96" height="96" rx="18" fill="url(#bg80)"/><circle cx="18" cy="16" r="1.4" fill="#fff"/><circle cx="60" cy="12" r="1.1" fill="#fff"/><circle cx="84" cy="24" r="1.2" fill="#fff"/><g><circle cx="38" cy="56" r="9.5" fill="#f2c9a4"/><path d="M29.4 52.4c1.3-7 16-7 17.2 0l-2.2-1.2.5 2.1c-4.8-2.6-9.6-2.6-13-.5z" fill="#3d2b1f"/><path d="M33.4 56.8c1-1.4 2.6-1.4 3.6 0M39 56.8c1-1.4 2.6-1.4 3.6 0" stroke="#2b1d12" stroke-width="1.3" fill="none" stroke-linecap="round"/><path d="M35.8 60.2a3 3 0 0 0 4.4 0" stroke="#b06e4a" stroke-width="1.1" fill="none" stroke-linecap="round"/><circle cx="32.4" cy="59" r="1.25" fill="#f0a08a" opacity=".7"/><circle cx="43.6" cy="59" r="1.25" fill="#f0a08a" opacity=".7"/><path d="M26 73c1-6.5 5.5-9.5 12-9.5s11 3 12 9.5z" fill="#2b6bd8"/></g><path d="M66 33c-7-4.6-9.6-9.4-6.8-12.8c2-2.4 5.4-1.6 6.8 .8 1.4-2.4 4.8-3.2 6.8-.8 2.8 3.4 .2 8.2-6.8 12.8z" fill="#ef6f6f"/><path d="M80 48.9c-4.8999999999999995-3.2199999999999998-6.72-6.58-4.76-8.959999999999999c1.4-1.68 3.78-1.1199999999999999 4.76 .8 0.9799999999999999-1.68 3.36-2.2399999999999998 4.76-.8 1.9599999999999997 2.38 .2 5.739999999999999-4.76 8.959999999999999z" fill="#ff9d9d"/>
</svg>
