<svg xmlns="http://www.w3.org/2000/svg" width="96" height="96" viewBox="0 0 96 96">
<defs><linearGradient id="bg129" x1="0" y1="0" x2="0" y2="1"><stop offset="0" stop-color="#bfe0ff"/><stop offset="1" stop-color="#8ec3f5"/></linearGradient></defs>
<rect width="96" height="96" rx="18" fill="url(#bg129)"/><g fill="#fff" opacity=".9"><ellipse cx="24" cy="20" rx="11" ry="5"/><ellipse cx="33" cy="17" rx="8" ry="4.4"/><ellipse cx="72" cy="30" rx="9" ry="4"/></g><path d="M4 72h88v10a14 14 0 0 1-14 12h-60a14 14 0 0 1-14-12z" fill="#6ea25f"/><path d="M14 72l2-5M26 72l2-5M44 72l2-5M64 72l2-5M80 72l2-5" stroke="#547f47" stroke-width="2" stroke-linecap="round"/><g><path d="M31.35 61.2l-3.4 8M44.65 61.2l3.4 8" stroke="#f2c9a4" stroke-width="3.04" stroke-linecap="round"/><path d="M31.825 58.35h12.35v14.25h-12.35z" fill="#2b6bd8"/><path d="M34.58 72.6v9.5M41.42 72.6v9.5" stroke="#2b3a55" stroke-width="3.9899999999999998" stroke-linecap="round"/><circle cx="38" cy="51.7" r="7.6" fill="#f2c9a4"/><path d="M31.055500000000002 48.888c1.3-7 16-7 17.2 0l-2.2-1.2.5 2.1c-4.8-2.6-9.6-2.6-13-.5z" fill="#3d2b1f"/><circle cx="35.416" cy="52.1845" r="0.767125" fill="#2b1d12"/><circle cx="40.584" cy="52.1845" r="0.767125" fill="#2b1d12"/><path d="M36.2235 55.0915a2.4225 2.4225 0 0 0 3.5530000000000004 0" stroke="#b06e4a" stroke-width="0.8882500000000001" fill="none" stroke-linecap="round"/><circle cx="33.478" cy="54.1225" r="1.009375" fill="#f0a08a" opacity=".7"/><circle cx="42.522" cy="54.1225" r="1.009375" fill="#f0a08a" opacity=".7"/></g><g><path d="M53.56 61.92l-3.4 8M66.44 61.92l3.4 8" stroke="#f2c9a4" stroke-width="2.9440000000000004" stroke-linecap="round"/><path d="M54.019999999999996 59.16h11.96v13.8h-11.96z" fill="#ffd75e"/><path d="M56.688 72.96v9.200000000000001M63.312 72.96v9.200000000000001" stroke="#2b3a55" stroke-width="3.8640000000000003" stroke-linecap="round"/><circle cx="60" cy="52.72" r="7.36" fill="#f2c9a4"/><path d="M53.2748 50.465999999999994l1.6-3.4 2 2 1.8-3.4 2 2.4 1.8-3 1.8 3 2-2.4 1.8 3.4 2-2 1.6 3.4c-5.6-2.6-13-2.6-18.4 0z" fill="#2b2118"/><circle cx="57.4976" cy="53.1892" r="0.7429" fill="#2b1d12"/><circle cx="62.5024" cy="53.1892" r="0.7429" fill="#2b1d12"/><path d="M58.2796 56.0044a2.346 2.346 0 0 0 3.4408000000000003 0" stroke="#b06e4a" stroke-width="0.8602000000000001" fill="none" stroke-linecap="round"/><circle cx="55.6208" cy="55.066" r="0.9775" fill="#f0a08a" opacity=".7"/><circle cx="64.3792" cy="55.066" r="0.9775" fill="#f0a08a" opacity=".7"/></g>
</svg>
