<svg xmlns="http://www.w3.org/2000/svg" width="96" height="96" viewBox="0 0 96 96">
<defs><linearGradient id="bg130" x1="0" y1="0" x2="0" y2="1"><stop offset="0" stop-color="#bfe0ff"/><stop offset="1" stop-color="#8ec3f5"/></linearGradient></defs>
<rect width="96" height="96" rx="18" fill="url(#bg130)"/><g fill="#fff" opacity=".9"><ellipse cx="24" cy="20" rx="11" ry="5"/><ellipse cx="33" cy="17" rx="8" ry="4.4"/><ellipse cx="72" cy="30" rx="9" ry="4"/></g><path d="M4 72h88v10a14 14 0 0 1-14 12h-60a14 14 0 0 1-14-12z" fill="#6ea25f"/><path d="M14 72l2-5M26 72l2-5M44 72l2-5M64 72l2-5M80 72l2-5" stroke="#547f47" stroke-width="2" stroke-linecap="round"/><g><rect x="12.600000000000001" y="57.2" width="30.799999999999997" height="16.799999999999997" rx="1.68" fill="#e8ddc8"/><rect x="23.8" y="53" width="8.399999999999999" height="5.6" rx="1.6" fill="#d8c9ac"/><circle cx="28" cy="55.8" r="1.8199999999999998" fill="#fff" stroke="#0047ab" stroke-width="1.2"/><g fill="#9dc1f5"><rect x="15.4" y="60.7" width="4.199999999999999" height="4.199999999999999" rx="1"/><rect x="25.9" y="60.7" width="4.199999999999999" height="4.199999999999999" rx="1"/><rect x="36.4" y="60.7" width="4.199999999999999" height="4.199999999999999" rx="1"/></g><rect x="25.2" y="67.7" width="5.6" height="6.3" rx="1.4" fill="#7a532f"/></g><g><rect x="47.1" y="49.2" width="41.8" height="22.799999999999997" rx="2.28" fill="#e8ddc8"/><rect x="62.3" y="43.5" width="11.399999999999999" height="7.6" rx="1.6" fill="#d8c9ac"/><circle cx="68" cy="47.3" r="2.4699999999999998" fill="#fff" stroke="#0047ab" stroke-width="1.2"/><g fill="#9dc1f5"><rect x="50.900000000000006" y="53.95" width="5.699999999999999" height="5.699999999999999" rx="1"/><rect x="65.15" y="53.95" width="5.699999999999999" height="5.699999999999999" rx="1"/><rect x="79.4" y="53.95" width="5.699999999999999" height="5.699999999999999" rx="1"/></g><rect x="64.2" y="63.45" width="7.6" height="8.549999999999999" rx="1.4" fill="#7a532f"/></g><g fill="#ffd75e"><circle cx="86" cy="30" r="1.02"/><circle cx="94.4" cy="36" r="0.78"/><circle cx="81.2" cy="38.4" r="0.72"/></g>
</svg>
