<svg xmlns="http://www.w3.org/2000/svg" width="96" height="96" viewBox="0 0 96 96">
<defs><linearGradient id="bg131" x1="0" y1="0" x2="0" y2="1"><stop offset="0" stop-color="#ffb36b"/><stop offset=".55" stop-color="#e77e6a"/><stop offset="1" stop-color="#5a4f9e"/></linearGradient><radialGradient id="bg131u" cx=".5" cy=".5" r=".5"><stop offset="0" stop-color="#fff0b3"/><stop offset="1" stop-color="#fff0b3" stop-opacity="0"/></radialGradient></defs>
<rect width="96" height="96" rx="18" fill="url(#bg131)"/><circle cx="76" cy="28" r="16" fill="url(#bg131u)"/><circle cx="76" cy="28" r="6.5" fill="#ffdd88"/><path d="M8 64h80v14a16 16 0 0 1-16 16h-48a16 16 0 0 1-16-16z" fill="#a57847"/><path d="M8 64h80v3h-80z" fill="#8a5f36"/><g transform="rotate(-5 38 60)"><rect x="27.2" y="54.15" width="21.6" height="11.700000000000001" rx="1.4400000000000002" fill="#fdfaf2"/><path d="M38 54.15v11.700000000000001" stroke="#d8d2c2" stroke-width="1.08"/><path d="M29.9 57.75h5.4M29.9 60.45h5.4M40.7 57.75h5.4M40.7 60.45h5.4" stroke="#b9c3d6" stroke-width="1.1700000000000002" stroke-linecap="round"/></g><g><circle cx="68" cy="32" r="9.9" fill="#fff" stroke="#0047ab" stroke-width="2.7"/><path d="M68 26.15v5.8500000000000005l4.14-1.8" stroke="#0047ab" stroke-width="2.3400000000000003" fill="none" stroke-linecap="round"/><circle cx="68" cy="32" r="1.4400000000000002" fill="#0047ab"/></g>
</svg>
