<svg xmlns="http://www.w3.org/2000/svg" width="96" height="96" viewBox="0 0 96 96">
<defs><linearGradient id="bg132" x1="0" y1="0" x2="0" y2="1"><stop offset="0" stop-color="#fff2d8"/><stop offset="1" stop-color="#ffdda6"/></linearGradient></defs>
<rect width="96" height="96" rx="18" fill="url(#bg132)"/><path d="M8 64h80v14a16 16 0 0 1-16 16h-48a16 16 0 0 1-16-16z" fill="#a57847"/><path d="M8 64h80v3h-80z" fill="#8a5f36"/><g><ellipse cx="42" cy="52" rx="13.2" ry="9.6" fill="#d78f35"/><ellipse cx="42" cy="50.08" rx="13.2" ry="8.88" fill="#f3bd6e"/><g fill="#fff"><circle cx="37.2" cy="48.88" r="1.56"/><circle cx="45.6" cy="51.28" r="1.56"/><circle cx="42" cy="46.96" r="1.56"/></g><path d="M37.2 35.2c-2.5 3-2.5 5 0 8M46.8 32.8c-2.5 3-2.5 5 0 8" stroke="#e8ddc8" stroke-width="2.64" fill="none" stroke-linecap="round" opacity=".9"/></g><path d="M72 26l1.8 3.7 4 .6-2.9 2.8 .7 4-3.6-1.9-3.6 1.9 .7-4-2.9-2.8 4-.6z" fill="#ffd75e"/><g fill="#ffd75e"><circle cx="18" cy="32" r="1.36"/><circle cx="29.200000000000003" cy="40" r="1.04"/><circle cx="11.6" cy="43.2" r="0.96"/></g>
</svg>
