<svg xmlns="http://www.w3.org/2000/svg" width="96" height="96" viewBox="0 0 96 96">
<defs><linearGradient id="bg133" x1="0" y1="0" x2="0" y2="1"><stop offset="0" stop-color="#1a2f5e"/><stop offset="1" stop-color="#0d1b3d"/></linearGradient><linearGradient id="bg133s" x1="0" y1="0" x2="0" y2="1"><stop offset="0" stop-color="#fff8dc" stop-opacity=".75"/><stop offset="1" stop-color="#fff8dc" stop-opacity=".05"/></linearGradient></defs>
<rect width="96" height="96" rx="18" fill="url(#bg133)"/><path d="M38 0h20l12 64h-44z" fill="url(#bg133s)"/><path d="M8 66h80v12a17 17 0 0 1-17 16h-46a17 17 0 0 1-17-16z" fill="#7a5533"/><path d="M8 66h80v3h-80z" fill="#956a41"/><g transform="rotate(10 36 74)"><rect x="33.815" y="36" width="4.369999999999999" height="38" rx="2.1849999999999996" fill="#8a5a36"/><rect x="31.25" y="32.2" width="9.5" height="7.6" rx="2.28" fill="#2b2118"/><path d="M36.475 66.4c-9.5-1-16.15 4.75-16.15 13.299999999999999 0 9.5 7.6 16.15 16.15 16.15 7.6 0 12.35-4.75 12.35-11.399999999999999 0-3.8-2-6.175-3.8-8.549999999999999-1.8-2.2-3.5-4-4-7-.3-2-2-2.8-5-3z" fill="#e05555"/><circle cx="36" cy="83.5" r="4.75" fill="#1c1030"/><path d="M35.05 36v43.699999999999996M37.33 36v43.699999999999996" stroke="#e8d9b5" stroke-width=".7"/></g><g><rect x="58" y="14" width="3" height="6" rx="1.5" fill="#ff8f6b" transform="rotate(25 58 14)"/><rect x="81.4" y="21.2" width="3" height="6" rx="1.5" fill="#6bd0ff" transform="rotate(-30 81.4 21.2)"/><rect x="67" y="37.400000000000006" width="3" height="6" rx="1.5" fill="#8affc1" transform="rotate(40 67 37.400000000000006)"/><circle cx="85" cy="35.6" r="1.6" fill="#ffd75e"/></g><path d="M82 38l1.4400000000000002 2.9600000000000004 3.2 .6-2.32 2.2399999999999998 .7 3.2-2.8800000000000003-1.52-2.8800000000000003 1.52 .7-3.2-2.32-2.2399999999999998 3.2-.6z" fill="#ffd75e"/>
</svg>
