<svg xmlns="http://www.w3.org/2000/svg" width="96" height="96" viewBox="0 0 96 96">
<defs><linearGradient id="bg134" x1="0" y1="0" x2="0" y2="1"><stop offset="0" stop-color="#1f3060"/><stop offset="1" stop-color="#141f42"/></linearGradient></defs>
<rect width="96" height="96" rx="18" fill="url(#bg134)"/><circle cx="16" cy="16" r="1.4" fill="#fff"/><circle cx="38" cy="10" r="1.1" fill="#fff"/><circle cx="80" cy="14" r="1.2" fill="#fff"/><circle cx="64" cy="22" r=".9" fill="#fff" opacity=".8"/><path d="M8 66h80v12a17 17 0 0 1-17 16h-46a17 17 0 0 1-17-16z" fill="#7a5533"/><path d="M8 66h80v3h-80z" fill="#956a41"/><g><rect x="20.950000000000003" y="53.8" width="22.099999999999998" height="20.4" rx="2.55" fill="#3a3f55"/><rect x="23.16" y="56.35" width="17.849999999999998" height="8.5" rx="1.36" fill="#23273a"/><circle cx="26.05" cy="69.1" r="1.87" fill="#ffd75e"/><circle cx="32" cy="69.1" r="1.87" fill="#c9d3e4"/><circle cx="37.95" cy="69.1" r="1.87" fill="#c9d3e4"/></g><g><rect x="47.75" y="43" width="32.5" height="30" rx="3.75" fill="#3a3f55"/><rect x="51" y="46.75" width="26.25" height="12.5" rx="2" fill="#23273a"/><circle cx="55.25" cy="65.5" r="2.75" fill="#ffd75e"/><circle cx="64" cy="65.5" r="2.75" fill="#c9d3e4"/><circle cx="72.75" cy="65.5" r="2.75" fill="#c9d3e4"/></g><g stroke-linecap="round"><path d="M18 28c3 2 3 6 0 8s-3 6 0 8" stroke="#9db8ff" stroke-width="1.9800000000000002" fill="none"/><path d="M27.9 23.5c2.4 1.6 2.4 4.8 0 6.4s-2.4 4.8 0 6.4" stroke="#9db8ff" stroke-width="1.71" fill="none" opacity=".85"/></g>
</svg>
