<svg xmlns="http://www.w3.org/2000/svg" width="96" height="96" viewBox="0 0 96 96">
<defs><linearGradient id="bg135" x1="0" y1="0" x2="0" y2="1"><stop offset="0" stop-color="#3a2f68"/><stop offset="1" stop-color="#1c1740"/></linearGradient></defs>
<rect width="96" height="96" rx="18" fill="url(#bg135)"/><circle cx="18" cy="16" r="1.4" fill="#fff"/><circle cx="60" cy="12" r="1.1" fill="#fff"/><circle cx="84" cy="24" r="1.2" fill="#fff"/><path d="M8 66h80v12a17 17 0 0 1-17 16h-46a17 17 0 0 1-17-16z" fill="#7a5533"/><path d="M8 66h80v3h-80z" fill="#956a41"/><g><rect x="36.74" y="56.599999999999994" width="2.52" height="23.400000000000002" rx="1.26" fill="#cfd6e4"/><path d="M30.8 80c0-2.5 3.5-4 8-4s8 1.5 8 4z" fill="#9aa4b8"/><circle cx="38" cy="51.2" r="7.65" fill="#39445c"/><path d="M31.7 48.95h12.6M30.8 51.65h14.4M31.7 54.349999999999994h12.6" stroke="#5a6880" stroke-width="0.9900000000000001"/></g><path d="M64 36l1.26 2.59 2.8 .6-2.03 1.9599999999999997 .7 2.8-2.52-1.3299999999999998-2.52 1.3299999999999998 .7-2.8-2.03-1.9599999999999997 2.8-.6z" fill="#ffd75e"/><path d="M74 26l1.71 3.515 3.8 .6-2.755 2.6599999999999997 .7 3.8-3.42-1.805-3.42 1.805 .7-3.8-2.755-2.6599999999999997 3.8-.6z" fill="#ffd75e"/><path d="M86 16l2.16 4.44 4.8 .6-3.48 3.36 .7 4.8-4.32-2.28-4.32 2.28 .7-4.8-3.48-3.36 4.8-.6z" fill="#ffd75e"/>
</svg>
