<svg xmlns="http://www.w3.org/2000/svg" width="96" height="96" viewBox="0 0 96 96">
<defs><linearGradient id="bg136" x1="0" y1="0" x2="0" y2="1"><stop offset="0" stop-color="#3a2f68"/><stop offset="1" stop-color="#1c1740"/></linearGradient></defs>
<rect width="96" height="96" rx="18" fill="url(#bg136)"/><circle cx="18" cy="16" r="1.4" fill="#fff"/><circle cx="60" cy="12" r="1.1" fill="#fff"/><circle cx="84" cy="24" r="1.2" fill="#fff"/><path d="M8 68h80v10a16 16 0 0 1-16 16h-48a16 16 0 0 1-16-16z" fill="#c99a63"/><path d="M8 68h80v3h-80z" fill="#a87e4e"/><path d="M20 78h20M56 82h22" stroke="#b3854f" stroke-width="1.6"/><g><path d="M31.95 28h12.100000000000001v7.700000000000001l-6.050000000000001 7.700000000000001l-6.050000000000001 -7.700000000000001z" fill="#e05555"/><circle cx="38" cy="50" r="8.25" fill="#ffd75e" stroke="#e8b23d" stroke-width="1.7600000000000002"/><path d="M38 46.04l1.2100000000000002 2.532.75 .4-1.9800000000000002 1.87.4 2.75-2.4200000000000004-1.32-2.4200000000000004 1.32.4-2.75-1.9800000000000002-1.872.75-.4z" fill="#fff" opacity=".9"/></g><g><rect x="64.24" y="15" width="3.5200000000000005" height="13.200000000000001" rx="1.7600000000000002" fill="#ef6f6f"/><circle cx="66" cy="32.6" r="2.09" fill="#ef6f6f"/></g><path d="M84 44l1.26 2.59 2.8 .6-2.03 1.9599999999999997 .7 2.8-2.52-1.3299999999999998-2.52 1.3299999999999998 .7-2.8-2.03-1.9599999999999997 2.8-.6z" fill="#ffd75e"/>
</svg>
