<svg xmlns="http://www.w3.org/2000/svg" width="96" height="96" viewBox="0 0 96 96">
<defs><linearGradient id="bg137" x1="0" y1="0" x2="0" y2="1"><stop offset="0" stop-color="#2a3f76"/><stop offset=".7" stop-color="#1b2a55"/><stop offset="1" stop-color="#15224a"/></linearGradient><radialGradient id="bg137l" cx=".5" cy=".5" r=".5"><stop offset="0" stop-color="#ffe9a8" stop-opacity=".95"/><stop offset="1" stop-color="#ffe9a8" stop-opacity="0"/></radialGradient></defs>
<rect width="96" height="96" rx="18" fill="url(#bg137)"/><path d="M4 20q22 12 44 0t44 0" stroke="#0e1a3c" stroke-width="1.6" fill="none"/><circle cx="16" cy="24" r="4.6" fill="url(#bg137l)"/><circle cx="16" cy="24" r="1.6" fill="#ffd75e"/><circle cx="34" cy="28" r="4.6" fill="url(#bg137l)"/><circle cx="34" cy="28" r="1.6" fill="#ffd75e"/><circle cx="52" cy="29" r="4.6" fill="url(#bg137l)"/><circle cx="52" cy="29" r="1.6" fill="#ffd75e"/><circle cx="70" cy="27" r="4.6" fill="url(#bg137l)"/><circle cx="70" cy="27" r="1.6" fill="#ffd75e"/><circle cx="86" cy="22" r="4.6" fill="url(#bg137l)"/><circle cx="86" cy="22" r="1.6" fill="#ffd75e"/><path d="M8 68h80v10a16 16 0 0 1-16 16h-48a16 16 0 0 1-16-16z" fill="#c99a63"/><path d="M8 68h80v3h-80z" fill="#a87e4e"/><path d="M20 78h20M56 82h22" stroke="#b3854f" stroke-width="1.6"/><g><rect x="14.64" y="30.799999999999997" width="2.72" height="51.2" rx="1.36" fill="#3a3f55"/><path d="M17.36 34 C 25.6 30.799999999999997, 35.2 37.199999999999996, 43.2 34 S 52.800000000000004 32.4, 52.800000000000004 32.4 L 52.800000000000004 50 C 44.8 53.2, 35.2 46.8, 27.200000000000003 50 S 17.36 51.599999999999994, 17.36 51.599999999999994 Z" fill="#0a58c8"/><path d="M24 37.199999999999996l1.4400000000000002 2.9600000000000004 3.2 .6-2.32 2.2399999999999998 .7 3.2-2.8800000000000003-1.52-2.8800000000000003 1.52 .7-3.2-2.32-2.2399999999999998 3.2-.6z" fill="#fff"/></g><g><rect x="54" y="12" width="3" height="6" rx="1.5" fill="#ff8f6b" transform="rotate(25 54 12)"/><rect x="77.4" y="19.2" width="3" height="6" rx="1.5" fill="#6bd0ff" transform="rotate(-30 77.4 19.2)"/><rect x="63" y="35.400000000000006" width="3" height="6" rx="1.5" fill="#8affc1" transform="rotate(40 63 35.400000000000006)"/><circle cx="81" cy="33.6" r="1.6" fill="#ffd75e"/></g><path d="M80 39.6c-5.6000000000000005-3.6799999999999997-7.68-7.5200000000000005-5.44-10.240000000000002c1.6-1.92 4.32-1.2800000000000002 5.44 .8 1.1199999999999999-1.92 3.84-2.5600000000000005 5.44-.8 2.2399999999999998 2.72 .2 6.56-5.44 10.240000000000002z" fill="#ef6f6f"/>
</svg>
