<svg xmlns="http://www.w3.org/2000/svg" width="96" height="96" viewBox="0 0 96 96">
<defs><linearGradient id="bg139" x1="0" y1="0" x2="0" y2="1"><stop offset="0" stop-color="#fff2d8"/><stop offset="1" stop-color="#ffdda6"/></linearGradient></defs>
<rect width="96" height="96" rx="18" fill="url(#bg139)"/><path d="M8 64h80v14a16 16 0 0 1-16 16h-48a16 16 0 0 1-16-16z" fill="#a57847"/><path d="M8 64h80v3h-80z" fill="#8a5f36"/><g><path d="M25.7 50.7h28.6c0 7.700000000000001-5.5 12.100000000000001-14.3 12.100000000000001s-14.3-4.4-14.3-12.100000000000001z" fill="#e8edf5"/><path d="M27.9 50.7c2.2-5.5 7.700000000000001-7.700000000000001 12.100000000000001-7.700000000000001s9.9 2.2 12.100000000000001 7.700000000000001z" fill="#c98d4e"/><path d="M36.7 38.599999999999994c-2 2.4-2 4 0 6.4M44.4 37.5c-2 2.4-2 4 0 6.4" stroke="#e8ddc8" stroke-width="1.9800000000000002" fill="none" stroke-linecap="round"/></g><g><circle cx="70" cy="48" r="6.3" fill="#ffd75e" stroke="#e8b23d" stroke-width="1.4400000000000002"/><circle cx="70" cy="48" r="1.9800000000000002" fill="none" stroke="#e8b23d" stroke-width="1.26"/></g>
</svg>
