<svg xmlns="http://www.w3.org/2000/svg" width="96" height="96" viewBox="0 0 96 96">
<defs><linearGradient id="bg141" x1="0" y1="0" x2="0" y2="1"><stop offset="0" stop-color="#ffb36b"/><stop offset=".55" stop-color="#e77e6a"/><stop offset="1" stop-color="#5a4f9e"/></linearGradient><radialGradient id="bg141u" cx=".5" cy=".5" r=".5"><stop offset="0" stop-color="#fff0b3"/><stop offset="1" stop-color="#fff0b3" stop-opacity="0"/></radialGradient></defs>
<rect width="96" height="96" rx="18" fill="url(#bg141)"/><circle cx="76" cy="28" r="16" fill="url(#bg141u)"/><circle cx="76" cy="28" r="6.5" fill="#ffdd88"/><path d="M4 74h88v8a14 14 0 0 1-14 12h-60a14 14 0 0 1-14-12z" fill="#5a6478"/><path d="M12 80h10M32 80h10M52 80h10M72 80h10" stroke="#aab4c8" stroke-width="2.4" stroke-linecap="round"/><g><circle cx="40" cy="58" r="6.5" fill="#f2c9a4"/><path d="M33.980000000000004 55.480000000000004c1.3-7 16-7 17.2 0l-2.2-1.2.5 2.1c-4.8-2.6-9.6-2.6-13-.5z" fill="#3d2b1f"/><circle cx="37.76" cy="58.42" r="0.6649999999999999" fill="#2b1d12"/><circle cx="42.24" cy="58.42" r="0.6649999999999999" fill="#2b1d12"/><ellipse cx="40" cy="61.08" rx="1.19" ry="1.54" fill="#b06e4a"/><circle cx="36.08" cy="60.1" r="0.875" fill="#f0a08a" opacity=".7"/><circle cx="43.92" cy="60.1" r="0.875" fill="#f0a08a" opacity=".7"/><path d="M35 65c1-3 3-4.5 5.5-4.5 2.4 0 4.4 1.8 5 5l0.4 6-3.2 1-2.2-5-2.2 6-3.6 3.2z" fill="#e05555"/><path d="M35.4 78l-5 8 3.8 1 4.8-6.4M40 80l1 8.6 3.8-.5.5-8.6" fill="none" stroke="#f2c9a4" stroke-width="3.6" stroke-linecap="round"/><path d="M26 64h5M24 70h6M27 76h4.6" stroke="#9db8e8" stroke-width="2" stroke-linecap="round"/></g><path d="M18 24l1.62 3.33 3.6 .6-2.61 2.52 .7 3.6-3.24-1.71-3.24 1.71 .7-3.6-2.61-2.52 3.6-.6z" fill="#ffd75e"/>
</svg>
