<svg xmlns="http://www.w3.org/2000/svg" width="96" height="96" viewBox="0 0 96 96">
<defs><linearGradient id="bg142" x1="0" y1="0" x2="0" y2="1"><stop offset="0" stop-color="#1f3060"/><stop offset="1" stop-color="#141f42"/></linearGradient></defs>
<rect width="96" height="96" rx="18" fill="url(#bg142)"/><circle cx="16" cy="16" r="1.4" fill="#fff"/><circle cx="38" cy="10" r="1.1" fill="#fff"/><circle cx="80" cy="14" r="1.2" fill="#fff"/><circle cx="64" cy="22" r=".9" fill="#fff" opacity=".8"/><path d="M8 64h80v14a16 16 0 0 1-16 16h-48a16 16 0 0 1-16-16z" fill="#a57847"/><path d="M8 64h80v3h-80z" fill="#8a5f36"/><g transform="rotate(-6 38 48)"><rect x="27" y="41" width="22" height="14" rx="2" fill="#fdfaf2" stroke="#d8d2c2"/><path d="M27 41l11 8 11-8" stroke="#d8d2c2" stroke-width="1.4" fill="none"/><path d="M35.4 49c1-1.5 3-1.5 3.2.2.2-1.7 2.2-1.7 3.2-.2.8 1.1-1 2.6-3.2 4-2.2-1.4-4-2.9-3.2-4z" fill="#ef6f6f"/></g><g transform="rotate(-5 70 62)"><rect x="61.6" y="57.45" width="16.799999999999997" height="9.1" rx="1.1199999999999999" fill="#fdfaf2"/><path d="M70 57.45v9.1" stroke="#d8d2c2" stroke-width="0.84"/><path d="M63.7 60.25h4.199999999999999M63.7 62.35h4.199999999999999M72.1 60.25h4.199999999999999M72.1 62.35h4.199999999999999" stroke="#b9c3d6" stroke-width="0.9099999999999999" stroke-linecap="round"/></g><g><rect x="80.4" y="16" width="3.2" height="12" rx="1.6" fill="#ef6f6f"/><circle cx="82" cy="32" r="1.9" fill="#ef6f6f"/></g>
</svg>
