<svg xmlns="http://www.w3.org/2000/svg" width="96" height="96" viewBox="0 0 96 96">
<defs><linearGradient id="bg143" x1="0" y1="0" x2="0" y2="1"><stop offset="0" stop-color="#fff2d8"/><stop offset="1" stop-color="#ffdda6"/></linearGradient></defs>
<rect width="96" height="96" rx="18" fill="url(#bg143)"/><path d="M8 64h80v14a16 16 0 0 1-16 16h-48a16 16 0 0 1-16-16z" fill="#a57847"/><path d="M8 64h80v3h-80z" fill="#8a5f36"/><g><ellipse cx="40" cy="52" rx="12.100000000000001" ry="8.8" fill="#d78f35"/><ellipse cx="40" cy="50.24" rx="12.100000000000001" ry="8.14" fill="#f3bd6e"/><g fill="#fff"><circle cx="35.6" cy="49.14" r="1.4300000000000002"/><circle cx="43.3" cy="51.34" r="1.4300000000000002"/><circle cx="40" cy="47.379999999999995" r="1.4300000000000002"/></g><path d="M35.6 36.599999999999994c-2.5 3-2.5 5 0 8M44.4 34.4c-2.5 3-2.5 5 0 8" stroke="#e8ddc8" stroke-width="2.4200000000000004" fill="none" stroke-linecap="round" opacity=".9"/></g><g><path d="M64 44.5h12v4.5a6 6 0 0 1-12 0z" fill="#ffd75e"/><path d="M64 46c-3 0-4.5 3.75-0.75 5.25M76 46c3 0 4.5 3.75 0.75 5.25" stroke="#ffd75e" stroke-width="1.5" fill="none"/><rect x="68.5" y="53.5" width="3" height="3" fill="#e8b23d"/><path d="M65.5 58h9l1.0499999999999998 2.7h-11.100000000000001z" fill="#a5772a"/><path d="M68.05 47.8l0.9750000000000001 1.9500000000000002 2.175 .4-1.5750000000000002 1.5 .5 2.175-1.9500000000000002-1.0499999999999998-1.9500000000000002 1.0499999999999998 .5-2.175-1.5750000000000002-1.5 2.175-.4z" fill="#fff" opacity=".85"/></g><path d="M18 26l1.4400000000000002 2.9600000000000004 3.2 .6-2.32 2.2399999999999998 .7 3.2-2.8800000000000003-1.52-2.8800000000000003 1.52 .7-3.2-2.32-2.2399999999999998 3.2-.6z" fill="#ffd75e"/>
</svg>
