<svg xmlns="http://www.w3.org/2000/svg" width="96" height="96" viewBox="0 0 96 96">
<defs><linearGradient id="bg143" x1="0" y1="0" x2="0" y2="1"><stop offset="0" stop-color="#bfe0ff"/><stop offset="1" stop-color="#8ec3f5"/></linearGradient></defs>
<rect width="96" height="96" rx="18" fill="url(#bg143)"/><g fill="#fff" opacity=".9"><ellipse cx="24" cy="20" rx="11" ry="5"/><ellipse cx="33" cy="17" rx="8" ry="4.4"/><ellipse cx="72" cy="30" rx="9" ry="4"/></g><path d="M8 68h80v10a16 16 0 0 1-16 16h-48a16 16 0 0 1-16-16z" fill="#c99a63"/><path d="M8 68h80v3h-80z" fill="#a87e4e"/><path d="M20 78h20M56 82h22" stroke="#b3854f" stroke-width="1.6"/><g><rect x="10.674" y="32.08" width="2.652" height="49.92" rx="1.326" fill="#3a3f55"/><path d="M13.326 35.199999999999996 C 21.36 32.08, 30.72 38.32, 38.519999999999996 35.199999999999996 S 47.88 33.64, 47.88 33.64 L 47.88 50.8 C 40.08 53.92, 30.72 47.68, 22.92 50.8 S 13.326 52.36, 13.326 52.36 Z" fill="#0a58c8"/><path d="M19.8 38.32l1.4040000000000001 2.886 3.12 .6-2.262 2.1839999999999997 .7 3.12-2.8080000000000003-1.482-2.8080000000000003 1.482 .7-3.12-2.262-2.1839999999999997 3.12-.6z" fill="#fff"/></g><g><path d="M50.8 39.8h14.4v5.4a7.2 7.2 0 0 1-14.4 0z" fill="#ffd75e"/><path d="M50.8 41.6c-3.6 0-5.4 4.5-0.9 6.3M65.2 41.6c3.6 0 5.4 4.5 0.9 6.3" stroke="#ffd75e" stroke-width="1.8" fill="none"/><rect x="56.2" y="50.6" width="3.6" height="3.6" fill="#e8b23d"/><path d="M52.6 56h10.8l1.26 3.24h-13.32z" fill="#a5772a"/><path d="M55.66 43.76l1.1700000000000002 2.3400000000000003 2.61 .4-1.8900000000000001 1.8 .5 2.61-2.3400000000000003-1.26-2.3400000000000003 1.26 .5-2.61-1.8900000000000001-1.8 2.61-.4z" fill="#fff" opacity=".85"/></g><g><rect x="74" y="14" width="3" height="6" rx="1.5" fill="#ff8f6b" transform="rotate(25 74 14)"/><rect x="96.1" y="20.8" width="3" height="6" rx="1.5" fill="#6bd0ff" transform="rotate(-30 96.1 20.8)"/><rect x="82.5" y="36.099999999999994" width="3" height="6" rx="1.5" fill="#8affc1" transform="rotate(40 82.5 36.099999999999994)"/><circle cx="99.5" cy="34.4" r="1.6" fill="#ffd75e"/></g>
</svg>
