<svg xmlns="http://www.w3.org/2000/svg" width="96" height="96" viewBox="0 0 96 96">
<defs><linearGradient id="bg144" x1="0" y1="0" x2="0" y2="1"><stop offset="0" stop-color="#c8d8ef"/><stop offset="1" stop-color="#9fb6d9"/></linearGradient></defs>
<rect width="96" height="96" rx="18" fill="url(#bg144)"/><g fill="#fff"><circle cx="18" cy="16" r="2"/><circle cx="42" cy="10" r="1.6"/><circle cx="66" cy="18" r="2"/><circle cx="84" cy="10" r="1.5"/><circle cx="30" cy="30" r="1.6"/><circle cx="56" cy="26" r="1.4"/><circle cx="78" cy="32" r="1.7"/><circle cx="12" cy="42" r="1.5"/><circle cx="88" cy="48" r="1.4"/></g><path d="M4 72h88v10a14 14 0 0 1-14 12h-60a14 14 0 0 1-14-12z" fill="#eef4fb"/><ellipse cx="30" cy="74" rx="16" ry="3" fill="#dce8f5"/><ellipse cx="70" cy="76" rx="12" ry="2.6" fill="#dce8f5"/><g><circle cx="28" cy="72" r="7" fill="#fff"/><circle cx="28" cy="62" r="5" fill="#fff"/><circle cx="26.4" cy="61" r=".9" fill="#2b3a55"/><circle cx="29.6" cy="61" r=".9" fill="#2b3a55"/><path d="M24 57.4h8" stroke="#e05555" stroke-width="2.2" stroke-linecap="round"/></g><g><path d="M54.3 49.2h15.400000000000002l-1.7600000000000002 17.6h-11.880000000000003z" fill="#e05555"/><path d="M54.3 53.16h15.400000000000002" stroke="#fff" stroke-width="2.2" opacity=".6"/><path d="M59.14 41.5c-1.8 2.2-1.8 3.6 0 5.8M65.3 40.4c-1.8 2.2-1.8 3.6 0 5.8" stroke="#c3cddf" stroke-width="1.87" fill="none" stroke-linecap="round"/></g><g fill="#ffd75e"><circle cx="82" cy="32" r="1.19"/><circle cx="91.8" cy="39" r="0.9099999999999999"/><circle cx="76.4" cy="41.8" r="0.84"/></g>
</svg>
