<svg xmlns="http://www.w3.org/2000/svg" width="96" height="96" viewBox="0 0 96 96">
<defs><linearGradient id="bg241" x1="0" y1="0" x2="0" y2="1"><stop offset="0" stop-color="#2a3f76"/><stop offset=".7" stop-color="#1b2a55"/><stop offset="1" stop-color="#15224a"/></linearGradient><radialGradient id="bg241l" cx=".5" cy=".5" r=".5"><stop offset="0" stop-color="#ffe9a8" stop-opacity=".95"/><stop offset="1" stop-color="#ffe9a8" stop-opacity="0"/></radialGradient></defs>
<rect width="96" height="96" rx="18" fill="url(#bg241)"/><path d="M4 20q22 12 44 0t44 0" stroke="#0e1a3c" stroke-width="1.6" fill="none"/><circle cx="16" cy="24" r="4.6" fill="url(#bg241l)"/><circle cx="16" cy="24" r="1.6" fill="#ffd75e"/><circle cx="34" cy="28" r="4.6" fill="url(#bg241l)"/><circle cx="34" cy="28" r="1.6" fill="#ffd75e"/><circle cx="52" cy="29" r="4.6" fill="url(#bg241l)"/><circle cx="52" cy="29" r="1.6" fill="#ffd75e"/><circle cx="70" cy="27" r="4.6" fill="url(#bg241l)"/><circle cx="70" cy="27" r="1.6" fill="#ffd75e"/><circle cx="86" cy="22" r="4.6" fill="url(#bg241l)"/><circle cx="86" cy="22" r="1.6" fill="#ffd75e"/><path d="M8 68h80v10a16 16 0 0 1-16 16h-48a16 16 0 0 1-16-16z" fill="#c99a63"/><path d="M8 68h80v3h-80z" fill="#a87e4e"/><path d="M20 78h20M56 82h22" stroke="#b3854f" stroke-width="1.6"/><g><circle cx="32" cy="56" r="9.025" fill="#f2c9a4"/><path d="M23.83 52.58c1.3-7 16-7 17.2 0l-2.2-1.2.5 2.1c-4.8-2.6-9.6-2.6-13-.5z" fill="#3d2b1f"/><path d="M27.630000000000003 56.76c1-1.4 2.6-1.4 3.6 0M32.95 56.76c1-1.4 2.6-1.4 3.6 0" stroke="#2b1d12" stroke-width="1.2349999999999999" fill="none" stroke-linecap="round"/><path d="M29.91 59.99a2.8499999999999996 2.8499999999999996 0 0 0 4.18 0" stroke="#b06e4a" stroke-width="1.045" fill="none" stroke-linecap="round"/><circle cx="26.68" cy="58.85" r="1.1875" fill="#f0a08a" opacity=".7"/><circle cx="37.32" cy="58.85" r="1.1875" fill="#f0a08a" opacity=".7"/><path d="M20.6 72.15c1-6.5 5.5-9.5 12-9.5s11 3 12 9.5z" fill="#2b6bd8"/></g><g><circle cx="62" cy="56" r="8.55" fill="#f2c9a4"/><path d="M54.44 54.2c0-7.4 15.4-8.2 16.8-.8 0 3-1 4.2-1 4.2l-1-3.6c-3.2 1.7-8.8 1.7-11.2-1.2l-1.8 4s-1.8-.4-1.8-2.6z" fill="#5a4632"/><circle cx="69.2" cy="49.7" r="2.52" fill="#5a4632"/><path d="M57.86 56.72c1-1.4 2.6-1.4 3.6 0M62.9 56.72c1-1.4 2.6-1.4 3.6 0" stroke="#2b1d12" stroke-width="1.1700000000000002" fill="none" stroke-linecap="round"/><path d="M60.02 59.78a2.7 2.7 0 0 0 3.9600000000000004 0" stroke="#b06e4a" stroke-width="0.9900000000000001" fill="none" stroke-linecap="round"/><circle cx="56.96" cy="58.7" r="1.125" fill="#f0a08a" opacity=".7"/><circle cx="67.04" cy="58.7" r="1.125" fill="#f0a08a" opacity=".7"/><path d="M51.2 71.3c1-6.5 5.5-9.5 12-9.5s11 3 12 9.5z" fill="#2b6bd8"/></g><path d="M86 26l1.26 2.59 2.8 .6-2.03 1.9599999999999997 .7 2.8-2.52-1.3299999999999998-2.52 1.3299999999999998 .7-2.8-2.03-1.9599999999999997 2.8-.6z" fill="#ffd75e"/>
</svg>
