<svg xmlns="http://www.w3.org/2000/svg" width="96" height="96" viewBox="0 0 96 96">
<defs><linearGradient id="bg242" x1="0" y1="0" x2="0" y2="1"><stop offset="0" stop-color="#1a2f5e"/><stop offset="1" stop-color="#0d1b3d"/></linearGradient><linearGradient id="bg242s" x1="0" y1="0" x2="0" y2="1"><stop offset="0" stop-color="#fff8dc" stop-opacity=".75"/><stop offset="1" stop-color="#fff8dc" stop-opacity=".05"/></linearGradient></defs>
<rect width="96" height="96" rx="18" fill="url(#bg242)"/><path d="M38 0h20l12 64h-44z" fill="url(#bg242s)"/><path d="M8 68h80v10a16 16 0 0 1-16 16h-48a16 16 0 0 1-16-16z" fill="#c99a63"/><path d="M8 68h80v3h-80z" fill="#a87e4e"/><path d="M20 78h20M56 82h22" stroke="#b3854f" stroke-width="1.6"/><g stroke-linecap="round"><path d="M32 28c3 2 3 6 0 8s-3 6 0 8" stroke="#9db8ff" stroke-width="2.4200000000000004" fill="none"/><path d="M44.1 22.5c2.4 1.6 2.4 4.8 0 6.4s-2.4 4.8 0 6.4" stroke="#9db8ff" stroke-width="2.09" fill="none" opacity=".85"/></g><g stroke-linecap="round"><path d="M58 22c3 2 3 6 0 8s-3 6 0 8" stroke="#ff9d9d" stroke-width="1.9800000000000002" fill="none"/><path d="M67.9 17.5c2.4 1.6 2.4 4.8 0 6.4s-2.4 4.8 0 6.4" stroke="#ff9d9d" stroke-width="1.71" fill="none" opacity=".85"/></g><g fill="#20264a"><path d="M14 88c1-4.2 2.4-6.6 4.8-6.6s4.2 2.4 4.8 6.6z"/><path d="M24.2 88c1-4.2 2.4-6.6 4.8-6.6s4.2 2.4 4.8 6.6z"/><path d="M34.4 88c1-4.2 2.4-6.6 4.8-6.6s4.2 2.4 4.8 6.6z"/><path d="M44.599999999999994 88c1-4.2 2.4-6.6 4.8-6.6s4.2 2.4 4.8 6.6z"/><path d="M54.8 88c1-4.2 2.4-6.6 4.8-6.6s4.2 2.4 4.8 6.6z"/></g><path d="M17.6 80.2l0.6-2.4M27.8 80.2l0.6-2.4M38 80.2l0.6-2.4M48.2 80.2l0.6-2.4M58.4 80.2l0.6-2.4" stroke="#20264a" stroke-width="1.7999999999999998" stroke-linecap="round"/>
</svg>
