<svg xmlns="http://www.w3.org/2000/svg" width="96" height="96" viewBox="0 0 96 96">
<defs><linearGradient id="bg243" x1="0" y1="0" x2="0" y2="1"><stop offset="0" stop-color="#bfe0ff"/><stop offset="1" stop-color="#8ec3f5"/></linearGradient></defs>
<rect width="96" height="96" rx="18" fill="url(#bg243)"/><g fill="#fff" opacity=".9"><ellipse cx="24" cy="20" rx="11" ry="5"/><ellipse cx="33" cy="17" rx="8" ry="4.4"/><ellipse cx="72" cy="30" rx="9" ry="4"/></g><path d="M8 68h80v10a16 16 0 0 1-16 16h-48a16 16 0 0 1-16-16z" fill="#c99a63"/><path d="M8 68h80v3h-80z" fill="#a87e4e"/><path d="M20 78h20M56 82h22" stroke="#b3854f" stroke-width="1.6"/><g><path d="M25.7 62.4l-3.4 8M38.3 62.4l3.4 8" stroke="#f2c9a4" stroke-width="2.8800000000000003" stroke-linecap="round"/><path d="M26.15 59.7h11.700000000000001v13.5h-11.700000000000001z" fill="#2b6bd8"/><path d="M28.759999999999998 73.2v9M35.24 73.2v9" stroke="#2b3a55" stroke-width="3.7800000000000002" stroke-linecap="round"/><circle cx="32" cy="53.4" r="7.2" fill="#f2c9a4"/><path d="M25.421 50.736000000000004c1.3-7 16-7 17.2 0l-2.2-1.2.5 2.1c-4.8-2.6-9.6-2.6-13-.5z" fill="#3d2b1f"/><circle cx="29.552" cy="53.859" r="0.72675" fill="#2b1d12"/><circle cx="34.448" cy="53.859" r="0.72675" fill="#2b1d12"/><path d="M30.47 56.919h3.06" stroke="#b06e4a" stroke-width="0.8415000000000001" stroke-linecap="round"/><circle cx="27.716" cy="55.695" r="0.95625" fill="#f0a08a" opacity=".7"/><circle cx="36.284" cy="55.695" r="0.95625" fill="#f0a08a" opacity=".7"/></g><g><path d="M51.7 62.4l-3.4 8M64.3 62.4l3.4 8" stroke="#f2c9a4" stroke-width="2.8800000000000003" stroke-linecap="round"/><path d="M52.15 59.7h11.700000000000001v13.5h-11.700000000000001z" fill="#ffd75e"/><path d="M54.76 73.2v9M61.24 73.2v9" stroke="#2b3a55" stroke-width="3.7800000000000002" stroke-linecap="round"/><circle cx="58" cy="53.4" r="7.2" fill="#f2c9a4"/><path d="M51.421 51.195l1.6-3.4 2 2 1.8-3.4 2 2.4 1.8-3 1.8 3 2-2.4 1.8 3.4 2-2 1.6 3.4c-5.6-2.6-13-2.6-18.4 0z" fill="#2b2118"/><circle cx="55.552" cy="53.859" r="0.72675" fill="#2b1d12"/><circle cx="60.448" cy="53.859" r="0.72675" fill="#2b1d12"/><path d="M56.47 56.919h3.06" stroke="#b06e4a" stroke-width="0.8415000000000001" stroke-linecap="round"/><circle cx="53.716" cy="55.695" r="0.95625" fill="#f0a08a" opacity=".7"/><circle cx="62.284" cy="55.695" r="0.95625" fill="#f0a08a" opacity=".7"/></g><g><path d="M77.5 24.4a4.95 4.95 0 1 1 6.75 4.5c-2 .9-3 2-3 4" stroke="#0047ab" stroke-width="2.3400000000000003" fill="none" stroke-linecap="round"/><circle cx="81.55" cy="36.1" r="1.4400000000000002" fill="#0047ab"/></g>
</svg>
