<svg xmlns="http://www.w3.org/2000/svg" width="96" height="96" viewBox="0 0 96 96">
<defs><linearGradient id="bg244" x1="0" y1="0" x2="0" y2="1"><stop offset="0" stop-color="#bfe0ff"/><stop offset="1" stop-color="#8ec3f5"/></linearGradient></defs>
<rect width="96" height="96" rx="18" fill="url(#bg244)"/><g fill="#fff" opacity=".9"><ellipse cx="24" cy="20" rx="11" ry="5"/><ellipse cx="33" cy="17" rx="8" ry="4.4"/><ellipse cx="72" cy="30" rx="9" ry="4"/></g><path d="M8 68h80v10a16 16 0 0 1-16 16h-48a16 16 0 0 1-16-16z" fill="#c99a63"/><path d="M8 68h80v3h-80z" fill="#a87e4e"/><path d="M20 78h20M56 82h22" stroke="#b3854f" stroke-width="1.6"/><g><path d="M30 38h16v6a8 8 0 0 1-16 0z" fill="#ffd75e"/><path d="M30 40c-4 0-6 5-1 7M46 40c4 0 6 5 1 7" stroke="#ffd75e" stroke-width="2" fill="none"/><rect x="36" y="50" width="4" height="4" fill="#e8b23d"/><path d="M32 56h12l1.4 3.6h-14.8z" fill="#a5772a"/><path d="M35.4 42.4l1.3 2.6 2.9 .4-2.1 2 .5 2.9-2.6-1.4-2.6 1.4 .5-2.9-2.1-2 2.9-.4z" fill="#fff" opacity=".85"/></g><g><rect x="64.24" y="13" width="3.5200000000000005" height="13.200000000000001" rx="1.7600000000000002" fill="#ffd75e"/><circle cx="66" cy="30.6" r="2.09" fill="#ffd75e"/></g><g stroke="#ffd75e" stroke-width="1.68" stroke-linecap="round"><path d="M82 40l3.5 1.4M80.6 47h4.199999999999999M83.4 54l3.5-1.4"/></g>
</svg>
