<svg xmlns="http://www.w3.org/2000/svg" width="96" height="96" viewBox="0 0 96 96">
<defs><linearGradient id="bg245" x1="0" y1="0" x2="0" y2="1"><stop offset="0" stop-color="#fff2d8"/><stop offset="1" stop-color="#ffdda6"/></linearGradient></defs>
<rect width="96" height="96" rx="18" fill="url(#bg245)"/><path d="M8 64h80v14a16 16 0 0 1-16 16h-48a16 16 0 0 1-16-16z" fill="#a57847"/><path d="M8 64h80v3h-80z" fill="#8a5f36"/><g><ellipse cx="40" cy="52" rx="12.100000000000001" ry="8.8" fill="#d78f35"/><ellipse cx="40" cy="50.24" rx="12.100000000000001" ry="8.14" fill="#f3bd6e"/><g fill="#fff"><circle cx="35.6" cy="49.14" r="1.4300000000000002"/><circle cx="43.3" cy="51.34" r="1.4300000000000002"/><circle cx="40" cy="47.379999999999995" r="1.4300000000000002"/></g><path d="M35.6 36.599999999999994c-2.5 3-2.5 5 0 8M44.4 34.4c-2.5 3-2.5 5 0 8" stroke="#e8ddc8" stroke-width="2.4200000000000004" fill="none" stroke-linecap="round" opacity=".9"/></g><path d="M70 34.3c-6.3-4.14-8.64-8.46-6.12-11.520000000000001c1.8-2.16 4.86-1.4400000000000002 6.12 .8 1.26-2.16 4.32-2.8800000000000003 6.12-.8 2.52 3.06 .2 7.38-6.12 11.520000000000001z" fill="#ef6f6f"/><path d="M86 48l1.08 2.22 2.4 .6-1.74 1.68 .7 2.4-2.16-1.14-2.16 1.14 .7-2.4-1.74-1.68 2.4-.6z" fill="#ffd75e"/>
</svg>
