<svg xmlns="http://www.w3.org/2000/svg" width="96" height="96" viewBox="0 0 96 96">
<defs><linearGradient id="bg245" x1="0" y1="0" x2="0" y2="1"><stop offset="0" stop-color="#bfe0ff"/><stop offset="1" stop-color="#8ec3f5"/></linearGradient></defs>
<rect width="96" height="96" rx="18" fill="url(#bg245)"/><g fill="#fff" opacity=".9"><ellipse cx="24" cy="20" rx="11" ry="5"/><ellipse cx="33" cy="17" rx="8" ry="4.4"/><ellipse cx="72" cy="30" rx="9" ry="4"/></g><path d="M8 68h80v10a16 16 0 0 1-16 16h-48a16 16 0 0 1-16-16z" fill="#c99a63"/><path d="M8 68h80v3h-80z" fill="#a87e4e"/><path d="M20 78h20M56 82h22" stroke="#b3854f" stroke-width="1.6"/><g fill="#20264a"><path d="M10 88c1-5.6000000000000005 3.2-8.8 6.4-8.8s5.6000000000000005 3.2 6.4 8.8z"/><path d="M23.6 88c1-5.6000000000000005 3.2-8.8 6.4-8.8s5.6000000000000005 3.2 6.4 8.8z"/><path d="M37.2 88c1-5.6000000000000005 3.2-8.8 6.4-8.8s5.6000000000000005 3.2 6.4 8.8z"/><path d="M50.800000000000004 88c1-5.6000000000000005 3.2-8.8 6.4-8.8s5.6000000000000005 3.2 6.4 8.8z"/><path d="M64.4 88c1-5.6000000000000005 3.2-8.8 6.4-8.8s5.6000000000000005 3.2 6.4 8.8z"/></g><path d="M14.8 77.6l0.8-3.2M28.400000000000002 77.6l0.8-3.2M42 77.6l0.8-3.2M55.60000000000001 77.6l0.8-3.2M69.2 77.6l0.8-3.2" stroke="#20264a" stroke-width="2.4000000000000004" stroke-linecap="round"/><g><rect x="52.24" y="15" width="3.5200000000000005" height="13.200000000000001" rx="1.7600000000000002" fill="#ef6f6f"/><circle cx="54" cy="32.6" r="2.09" fill="#ef6f6f"/></g><path d="M78 40l1.26 2.59 2.8 .6-2.03 1.9599999999999997 .7 2.8-2.52-1.3299999999999998-2.52 1.3299999999999998 .7-2.8-2.03-1.9599999999999997 2.8-.6z" fill="#ffd75e"/>
</svg>
