<svg xmlns="http://www.w3.org/2000/svg" width="96" height="96" viewBox="0 0 96 96">
<defs><linearGradient id="bg246" x1="0" y1="0" x2="0" y2="1"><stop offset="0" stop-color="#bfe0ff"/><stop offset="1" stop-color="#8ec3f5"/></linearGradient></defs>
<rect width="96" height="96" rx="18" fill="url(#bg246)"/><g fill="#fff" opacity=".9"><ellipse cx="24" cy="20" rx="11" ry="5"/><ellipse cx="33" cy="17" rx="8" ry="4.4"/><ellipse cx="72" cy="30" rx="9" ry="4"/></g><path d="M4 72h88v10a14 14 0 0 1-14 12h-60a14 14 0 0 1-14-12z" fill="#6ea25f"/><path d="M14 72l2-5M26 72l2-5M44 72l2-5M64 72l2-5M80 72l2-5" stroke="#547f47" stroke-width="2" stroke-linecap="round"/><g fill="#f7b2c4"><circle cx="20" cy="16" r="2.2"/><circle cx="31" cy="24.8" r="1.7600000000000002"/><circle cx="11.2" cy="29.200000000000003" r="1.6500000000000001"/><circle cx="24.4" cy="38" r="1.54"/></g><g><rect x="38.2" y="50.4" width="39.6" height="21.6" rx="2.16" fill="#e8ddc8"/><rect x="52.6" y="45" width="10.8" height="7.2" rx="1.6" fill="#d8c9ac"/><circle cx="58" cy="48.599999999999994" r="2.3400000000000003" fill="#fff" stroke="#0047ab" stroke-width="1.2"/><g fill="#9dc1f5"><rect x="41.8" y="54.9" width="5.4" height="5.4" rx="1"/><rect x="55.3" y="54.9" width="5.4" height="5.4" rx="1"/><rect x="68.8" y="54.9" width="5.4" height="5.4" rx="1"/></g><rect x="54.4" y="63.9" width="7.2" height="8.1" rx="1.4" fill="#7a532f"/></g><path d="M86 36.55c-4.55-2.9899999999999998-6.24-6.11-4.42-8.32c1.3-1.56 3.5100000000000002-1.04 4.42 .8 0.9099999999999999-1.56 3.12-2.08 4.42-.8 1.8199999999999998 2.21 .2 5.33-4.42 8.32z" fill="#ef6f6f"/>
</svg>
