<svg xmlns="http://www.w3.org/2000/svg" width="96" height="96" viewBox="0 0 96 96">
<defs><linearGradient id="bg247" x1="0" y1="0" x2="0" y2="1"><stop offset="0" stop-color="#1f3060"/><stop offset="1" stop-color="#141f42"/></linearGradient></defs>
<rect width="96" height="96" rx="18" fill="url(#bg247)"/><circle cx="16" cy="16" r="1.4" fill="#fff"/><circle cx="38" cy="10" r="1.1" fill="#fff"/><circle cx="80" cy="14" r="1.2" fill="#fff"/><circle cx="64" cy="22" r=".9" fill="#fff" opacity=".8"/><path d="M8 66h80v12a17 17 0 0 1-17 16h-46a17 17 0 0 1-17-16z" fill="#7a5533"/><path d="M8 66h80v3h-80z" fill="#956a41"/><g><ellipse cx="40" cy="58" rx="14.95" ry="4.6" fill="#2b3450"/><path d="M30.8 58v-16.099999999999998a2.3 2.3 0 0 1 2.3-2.3h13.799999999999999a2.3 2.3 0 0 1 2.3 2.3v16.099999999999998" fill="#3a4666"/><path d="M30.8 52.25h18.4" stroke="#e05555" stroke-width="2.9899999999999998"/></g><path d="M68 24l1.8 3.7 4 .6-2.9 2.8 .7 4-3.6-1.9-3.6 1.9 .7-4-2.9-2.8 4-.6z" fill="#ffd75e"/><g stroke="#ffd75e" stroke-width="2.04" stroke-linecap="round"><path d="M16 28l4.25 1.7M14.3 36.5h5.1M17.7 45l4.25-1.7"/></g>
</svg>
