<svg xmlns="http://www.w3.org/2000/svg" width="96" height="96" viewBox="0 0 96 96">
<defs><linearGradient id="bg248" x1="0" y1="0" x2="0" y2="1"><stop offset="0" stop-color="#fff2d8"/><stop offset="1" stop-color="#ffdda6"/></linearGradient></defs>
<rect width="96" height="96" rx="18" fill="url(#bg248)"/><path d="M8 64h80v14a16 16 0 0 1-16 16h-48a16 16 0 0 1-16-16z" fill="#a57847"/><path d="M8 64h80v3h-80z" fill="#8a5f36"/><g><rect x="26" y="12" width="3" height="6" rx="1.5" fill="#ff8f6b" transform="rotate(25 26 12)"/><rect x="49.400000000000006" y="19.2" width="3" height="6" rx="1.5" fill="#6bd0ff" transform="rotate(-30 49.400000000000006 19.2)"/><rect x="35" y="35.400000000000006" width="3" height="6" rx="1.5" fill="#8affc1" transform="rotate(40 35 35.400000000000006)"/><circle cx="53" cy="33.6" r="1.6" fill="#ffd75e"/></g><g><circle cx="44" cy="54" r="9.5" fill="#f2c9a4"/><path d="M35.4 50.4c1.3-7 16-7 17.2 0l-2.2-1.2.5 2.1c-4.8-2.6-9.6-2.6-13-.5z" fill="#3d2b1f"/><circle cx="40.8" cy="54.6" r="0.95" fill="#2b1d12"/><circle cx="47.2" cy="54.6" r="0.95" fill="#2b1d12"/><ellipse cx="44" cy="58.4" rx="1.7" ry="2.2" fill="#b06e4a"/><circle cx="38.4" cy="57" r="1.25" fill="#f0a08a" opacity=".7"/><circle cx="49.6" cy="57" r="1.25" fill="#f0a08a" opacity=".7"/><path d="M32 71c1-6.5 5.5-9.5 12-9.5s11 3 12 9.5z" fill="#2b6bd8"/></g><path d="M70 31.6c-5.6000000000000005-3.6799999999999997-7.68-7.5200000000000005-5.44-10.240000000000002c1.6-1.92 4.32-1.2800000000000002 5.44 .8 1.1199999999999999-1.92 3.84-2.5600000000000005 5.44-.8 2.2399999999999998 2.72 .2 6.56-5.44 10.240000000000002z" fill="#ef6f6f"/><g><rect x="82.56" y="25" width="2.8800000000000003" height="10.8" rx="1.4400000000000002" fill="#ffd75e"/><circle cx="84" cy="39.4" r="1.71" fill="#ffd75e"/></g>
</svg>
