<svg xmlns="http://www.w3.org/2000/svg" width="96" height="96" viewBox="0 0 96 96">
<defs><linearGradient id="bg249" x1="0" y1="0" x2="0" y2="1"><stop offset="0" stop-color="#bfe0ff"/><stop offset="1" stop-color="#8ec3f5"/></linearGradient></defs>
<rect width="96" height="96" rx="18" fill="url(#bg249)"/><g fill="#fff" opacity=".9"><ellipse cx="24" cy="20" rx="11" ry="5"/><ellipse cx="33" cy="17" rx="8" ry="4.4"/><ellipse cx="72" cy="30" rx="9" ry="4"/></g><path d="M8 64h80v14a16 16 0 0 1-16 16h-48a16 16 0 0 1-16-16z" fill="#a57847"/><path d="M8 64h80v3h-80z" fill="#8a5f36"/><g transform="rotate(-5 36 58)"><rect x="24.6" y="51.825" width="22.799999999999997" height="12.35" rx="1.52" fill="#fdfaf2"/><path d="M36 51.825v12.35" stroke="#d8d2c2" stroke-width="1.14"/><path d="M27.450000000000003 55.625h5.699999999999999M27.450000000000003 58.475h5.699999999999999M38.85 55.625h5.699999999999999M38.85 58.475h5.699999999999999" stroke="#b9c3d6" stroke-width="1.2349999999999999" stroke-linecap="round"/></g><g stroke-linecap="round"><path d="M66 26c3 2 3 6 0 8s-3 6 0 8" stroke="#9db8ff" stroke-width="2.2" fill="none"/><path d="M77 21c2.4 1.6 2.4 4.8 0 6.4s-2.4 4.8 0 6.4" stroke="#9db8ff" stroke-width="1.9" fill="none" opacity=".85"/></g>
</svg>
