<svg xmlns="http://www.w3.org/2000/svg" width="96" height="96" viewBox="0 0 96 96">
<defs><linearGradient id="bg250" x1="0" y1="0" x2="0" y2="1"><stop offset="0" stop-color="#ffb36b"/><stop offset=".55" stop-color="#e77e6a"/><stop offset="1" stop-color="#5a4f9e"/></linearGradient><radialGradient id="bg250u" cx=".5" cy=".5" r=".5"><stop offset="0" stop-color="#fff0b3"/><stop offset="1" stop-color="#fff0b3" stop-opacity="0"/></radialGradient></defs>
<rect width="96" height="96" rx="18" fill="url(#bg250)"/><circle cx="76" cy="28" r="16" fill="url(#bg250u)"/><circle cx="76" cy="28" r="6.5" fill="#ffdd88"/><path d="M8 68h80v10a16 16 0 0 1-16 16h-48a16 16 0 0 1-16-16z" fill="#c99a63"/><path d="M8 68h80v3h-80z" fill="#a87e4e"/><path d="M20 78h20M56 82h22" stroke="#b3854f" stroke-width="1.6"/><g><rect x="12.64" y="30.799999999999997" width="2.72" height="51.2" rx="1.36" fill="#3a3f55"/><path d="M15.36 34 C 23.6 30.799999999999997, 33.2 37.199999999999996, 41.2 34 S 50.800000000000004 32.4, 50.800000000000004 32.4 L 50.800000000000004 50 C 42.8 53.2, 33.2 46.8, 25.200000000000003 50 S 15.36 51.599999999999994, 15.36 51.599999999999994 Z" fill="#0a58c8"/><path d="M22 37.199999999999996l1.4400000000000002 2.9600000000000004 3.2 .6-2.32 2.2399999999999998 .7 3.2-2.8800000000000003-1.52-2.8800000000000003 1.52 .7-3.2-2.32-2.2399999999999998 3.2-.6z" fill="#fff"/></g><path d="M60 34.3c-6.3-4.14-8.64-8.46-6.12-11.520000000000001c1.8-2.16 4.86-1.4400000000000002 6.12 .8 1.26-2.16 4.32-2.8800000000000003 6.12-.8 2.52 3.06 .2 7.38-6.12 11.520000000000001z" fill="#ef6f6f"/><g stroke-linecap="round"><path d="M80 44c3 2 3 6 0 8s-3 6 0 8" stroke="#9db8ff" stroke-width="1.54" fill="none"/><path d="M87.7 40.5c2.4 1.6 2.4 4.8 0 6.4s-2.4 4.8 0 6.4" stroke="#9db8ff" stroke-width="1.3299999999999998" fill="none" opacity=".85"/></g>
</svg>
