<svg xmlns="http://www.w3.org/2000/svg" width="96" height="96" viewBox="0 0 96 96">
<defs><linearGradient id="bg252" x1="0" y1="0" x2="0" y2="1"><stop offset="0" stop-color="#1f3060"/><stop offset="1" stop-color="#141f42"/></linearGradient></defs>
<rect width="96" height="96" rx="18" fill="url(#bg252)"/><circle cx="16" cy="16" r="1.4" fill="#fff"/><circle cx="38" cy="10" r="1.1" fill="#fff"/><circle cx="80" cy="14" r="1.2" fill="#fff"/><circle cx="64" cy="22" r=".9" fill="#fff" opacity=".8"/><path d="M8 66h80v12a17 17 0 0 1-17 16h-46a17 17 0 0 1-17-16z" fill="#7a5533"/><path d="M8 66h80v3h-80z" fill="#956a41"/><g transform="rotate(10 36 74)"><rect x="33.93" y="38" width="4.14" height="36" rx="2.07" fill="#8a5a36"/><rect x="31.5" y="34.4" width="9" height="7.2" rx="2.16" fill="#2b2118"/><path d="M36.45 66.8c-9-1-15.3 4.5-15.3 12.6 0 9 7.2 15.3 15.3 15.3 7.2 0 11.700000000000001-4.5 11.700000000000001-10.8 0-3.6-2-5.8500000000000005-3.6-8.1-1.8-2.2-3.5-4-4-7-.3-2-2-2.8-5-3z" fill="#e05555"/><circle cx="36" cy="83" r="4.5" fill="#1c1030"/><path d="M35.1 38v41.4M37.26 38v41.4" stroke="#e8d9b5" stroke-width=".7"/></g><path d="M66 33.95c-5.95-3.9099999999999997-8.16-7.99-5.779999999999999-10.88c1.7-2.04 4.59-1.36 5.779999999999999 .8 1.19-2.04 4.08-2.72 5.779999999999999-.8 2.38 2.8899999999999997 .2 6.969999999999999-5.779999999999999 10.88z" fill="#ef6f6f"/><path d="M84 44l1.08 2.22 2.4 .6-1.74 1.68 .7 2.4-2.16-1.14-2.16 1.14 .7-2.4-1.74-1.68 2.4-.6z" fill="#ffd75e"/>
</svg>
