<svg xmlns="http://www.w3.org/2000/svg" width="96" height="96" viewBox="0 0 96 96">
<defs><linearGradient id="bg253" x1="0" y1="0" x2="0" y2="1"><stop offset="0" stop-color="#1a2f5e"/><stop offset="1" stop-color="#0d1b3d"/></linearGradient><linearGradient id="bg253s" x1="0" y1="0" x2="0" y2="1"><stop offset="0" stop-color="#fff8dc" stop-opacity=".75"/><stop offset="1" stop-color="#fff8dc" stop-opacity=".05"/></linearGradient></defs>
<rect width="96" height="96" rx="18" fill="url(#bg253)"/><path d="M38 0h20l12 64h-44z" fill="url(#bg253s)"/><path d="M8 66h80v12a17 17 0 0 1-17 16h-46a17 17 0 0 1-17-16z" fill="#7a5533"/><path d="M8 66h80v3h-80z" fill="#956a41"/><g><rect x="36.74" y="56.599999999999994" width="2.52" height="23.400000000000002" rx="1.26" fill="#cfd6e4"/><path d="M30.8 80c0-2.5 3.5-4 8-4s8 1.5 8 4z" fill="#9aa4b8"/><circle cx="38" cy="51.2" r="7.65" fill="#39445c"/><path d="M31.7 48.95h12.6M30.8 51.65h14.4M31.7 54.349999999999994h12.6" stroke="#5a6880" stroke-width="0.9900000000000001"/></g><g><path d="M64 44.5h12v4.5a6 6 0 0 1-12 0z" fill="#ffd75e"/><path d="M64 46c-3 0-4.5 3.75-0.75 5.25M76 46c3 0 4.5 3.75 0.75 5.25" stroke="#ffd75e" stroke-width="1.5" fill="none"/><rect x="68.5" y="53.5" width="3" height="3" fill="#e8b23d"/><path d="M65.5 58h9l1.0499999999999998 2.7h-11.100000000000001z" fill="#a5772a"/><path d="M68.05 47.8l0.9750000000000001 1.9500000000000002 2.175 .4-1.5750000000000002 1.5 .5 2.175-1.9500000000000002-1.0499999999999998-1.9500000000000002 1.0499999999999998 .5-2.175-1.5750000000000002-1.5 2.175-.4z" fill="#fff" opacity=".85"/></g><path d="M18 24l1.62 3.33 3.6 .6-2.61 2.52 .7 3.6-3.24-1.71-3.24 1.71 .7-3.6-2.61-2.52 3.6-.6z" fill="#ffd75e"/>
</svg>
