<svg xmlns="http://www.w3.org/2000/svg" width="96" height="96" viewBox="0 0 96 96">
<defs><linearGradient id="bg254" x1="0" y1="0" x2="0" y2="1"><stop offset="0" stop-color="#3a2f68"/><stop offset="1" stop-color="#1c1740"/></linearGradient></defs>
<rect width="96" height="96" rx="18" fill="url(#bg254)"/><circle cx="18" cy="16" r="1.4" fill="#fff"/><circle cx="60" cy="12" r="1.1" fill="#fff"/><circle cx="84" cy="24" r="1.2" fill="#fff"/><path d="M8 68h80v10a16 16 0 0 1-16 16h-48a16 16 0 0 1-16-16z" fill="#c99a63"/><path d="M8 68h80v3h-80z" fill="#a87e4e"/><path d="M20 78h20M56 82h22" stroke="#b3854f" stroke-width="1.6"/><g><circle cx="36" cy="54" r="9.5" fill="#f2c9a4"/><path d="M27.4 50.4c1.3-7 16-7 17.2 0l-2.2-1.2.5 2.1c-4.8-2.6-9.6-2.6-13-.5z" fill="#3d2b1f"/><path d="M31.4 54.8c1-1.4 2.6-1.4 3.6 0M37 54.8c1-1.4 2.6-1.4 3.6 0" stroke="#2b1d12" stroke-width="1.3" fill="none" stroke-linecap="round"/><path d="M33.8 58.2a3 3 0 0 0 4.4 0" stroke="#b06e4a" stroke-width="1.1" fill="none" stroke-linecap="round"/><circle cx="30.4" cy="57" r="1.25" fill="#f0a08a" opacity=".7"/><circle cx="41.6" cy="57" r="1.25" fill="#f0a08a" opacity=".7"/><path d="M24 71c1-6.5 5.5-9.5 12-9.5s11 3 12 9.5z" fill="#2b6bd8"/></g><path d="M64 32.65c-6.6499999999999995-4.369999999999999-9.12-8.93-6.46-12.16c1.9-2.28 5.13-1.52 6.46 .8 1.3299999999999998-2.28 4.56-3.04 6.46-.8 2.6599999999999997 3.23 .2 7.789999999999999-6.46 12.16z" fill="#ef6f6f"/><g><rect x="82.72" y="34" width="2.5600000000000005" height="9.600000000000001" rx="1.2800000000000002" fill="#ffd75e"/><circle cx="84" cy="46.8" r="1.52" fill="#ffd75e"/></g>
</svg>
