<svg xmlns="http://www.w3.org/2000/svg" width="96" height="96" viewBox="0 0 96 96">
<defs><linearGradient id="bg254" x1="0" y1="0" x2="0" y2="1"><stop offset="0" stop-color="#ffb36b"/><stop offset=".55" stop-color="#e77e6a"/><stop offset="1" stop-color="#5a4f9e"/></linearGradient><radialGradient id="bg254u" cx=".5" cy=".5" r=".5"><stop offset="0" stop-color="#fff0b3"/><stop offset="1" stop-color="#fff0b3" stop-opacity="0"/></radialGradient></defs>
<rect width="96" height="96" rx="18" fill="url(#bg254)"/><circle cx="76" cy="28" r="16" fill="url(#bg254u)"/><circle cx="76" cy="28" r="6.5" fill="#ffdd88"/><path d="M4 72h88v10a14 14 0 0 1-14 12h-60a14 14 0 0 1-14-12z" fill="#6ea25f"/><path d="M14 72l2-5M26 72l2-5M44 72l2-5M64 72l2-5M80 72l2-5" stroke="#547f47" stroke-width="2" stroke-linecap="round"/><g><circle cx="40" cy="58" r="8" fill="#fff" stroke="#c3cddf"/><path d="M40 54.6l3.2 2.3-1.2 3.8h-4l-1.2-3.8z" fill="#2b3a55"/><path d="M40 54.6v-4.4M43.2 56.9l4-1.4M36.8 56.9l-4-1.4M42 60.7l2.6 3.4M38 60.7l-2.6 3.4" stroke="#2b3a55" stroke-width="1.3"/></g><path d="M68 34.3c-6.3-4.14-8.64-8.46-6.12-11.520000000000001c1.8-2.16 4.86-1.4400000000000002 6.12 .8 1.26-2.16 4.32-2.8800000000000003 6.12-.8 2.52 3.06 .2 7.38-6.12 11.520000000000001z" fill="#ef6f6f"/><g><rect x="82.72" y="38" width="2.5600000000000005" height="9.600000000000001" rx="1.2800000000000002" fill="#ffd75e"/><circle cx="84" cy="50.8" r="1.52" fill="#ffd75e"/></g>
</svg>
