<svg xmlns="http://www.w3.org/2000/svg" width="96" height="96" viewBox="0 0 96 96">
<defs><linearGradient id="bg256" x1="0" y1="0" x2="0" y2="1"><stop offset="0" stop-color="#1a2f5e"/><stop offset="1" stop-color="#0d1b3d"/></linearGradient><linearGradient id="bg256s" x1="0" y1="0" x2="0" y2="1"><stop offset="0" stop-color="#fff8dc" stop-opacity=".75"/><stop offset="1" stop-color="#fff8dc" stop-opacity=".05"/></linearGradient></defs>
<rect width="96" height="96" rx="18" fill="url(#bg256)"/><path d="M38 0h20l12 64h-44z" fill="url(#bg256s)"/><path d="M8 66h80v12a17 17 0 0 1-17 16h-46a17 17 0 0 1-17-16z" fill="#7a5533"/><path d="M8 66h80v3h-80z" fill="#956a41"/><g><path d="M37.35 61.2l-3.4 8M50.65 61.2l3.4 8" stroke="#f2c9a4" stroke-width="3.04" stroke-linecap="round"/><path d="M37.825 58.35h12.35v14.25h-12.35z" fill="#2b6bd8"/><path d="M40.58 72.6v9.5M47.42 72.6v9.5" stroke="#2b3a55" stroke-width="3.9899999999999998" stroke-linecap="round"/><circle cx="44" cy="51.7" r="7.6" fill="#f2c9a4"/><path d="M37.0555 48.888c1.3-7 16-7 17.2 0l-2.2-1.2.5 2.1c-4.8-2.6-9.6-2.6-13-.5z" fill="#3d2b1f"/><circle cx="41.416" cy="52.1845" r="0.767125" fill="#2b1d12"/><circle cx="46.584" cy="52.1845" r="0.767125" fill="#2b1d12"/><path d="M42.385 55.414500000000004h3.23" stroke="#b06e4a" stroke-width="0.8882500000000001" stroke-linecap="round"/><circle cx="39.478" cy="54.1225" r="1.009375" fill="#f0a08a" opacity=".7"/><circle cx="48.522" cy="54.1225" r="1.009375" fill="#f0a08a" opacity=".7"/></g><g><rect x="68.56" y="17" width="2.8800000000000003" height="10.8" rx="1.4400000000000002" fill="#9db8e8"/><circle cx="70" cy="31.4" r="1.71" fill="#9db8e8"/></g><g fill="#ffd75e"><circle cx="18" cy="34" r="1.19"/><circle cx="27.799999999999997" cy="41" r="0.9099999999999999"/><circle cx="12.4" cy="43.8" r="0.84"/></g>
</svg>
