<svg xmlns="http://www.w3.org/2000/svg" width="96" height="96" viewBox="0 0 96 96">
<defs><linearGradient id="bg50" x1="0" y1="0" x2="0" y2="1"><stop offset="0" stop-color="#ffb36b"/><stop offset=".55" stop-color="#e77e6a"/><stop offset="1" stop-color="#5a4f9e"/></linearGradient><radialGradient id="bg50u" cx=".5" cy=".5" r=".5"><stop offset="0" stop-color="#fff0b3"/><stop offset="1" stop-color="#fff0b3" stop-opacity="0"/></radialGradient></defs>
<rect width="96" height="96" rx="18" fill="url(#bg50)"/><circle cx="76" cy="28" r="16" fill="url(#bg50u)"/><circle cx="76" cy="28" r="6.5" fill="#ffdd88"/><path d="M4 72h88v10a14 14 0 0 1-14 12h-60a14 14 0 0 1-14-12z" fill="#6ea25f"/><path d="M14 72l2-5M26 72l2-5M44 72l2-5M64 72l2-5M80 72l2-5" stroke="#547f47" stroke-width="2" stroke-linecap="round"/><g><path d="M52 36h16v6a8 8 0 0 1-16 0z" fill="#ffd75e"/><path d="M52 38c-4 0-6 5-1 7M68 38c4 0 6 5 1 7" stroke="#ffd75e" stroke-width="2" fill="none"/><rect x="58" y="48" width="4" height="4" fill="#e8b23d"/><path d="M54 54h12l1.4 3.6h-14.8z" fill="#a5772a"/><path d="M57.4 40.4l1.3 2.6 2.9 .4-2.1 2 .5 2.9-2.6-1.4-2.6 1.4 .5-2.9-2.1-2 2.9-.4z" fill="#fff" opacity=".85"/></g><g><circle cx="26" cy="61.900000000000006" r="5.5249999999999995" fill="#f2c9a4"/><path d="M20.883 59.758c1.3-7 16-7 17.2 0l-2.2-1.2.5 2.1c-4.8-2.6-9.6-2.6-13-.5z" fill="#3d2b1f"/><circle cx="24.096" cy="62.257000000000005" r="0.5652499999999999" fill="#2b1d12"/><circle cx="27.904" cy="62.257000000000005" r="0.5652499999999999" fill="#2b1d12"/><ellipse cx="26" cy="64.518" rx="1.0114999999999998" ry="1.309" fill="#b06e4a"/><circle cx="22.668" cy="63.685" r="0.7437499999999999" fill="#f0a08a" opacity=".7"/><circle cx="29.332" cy="63.685" r="0.7437499999999999" fill="#f0a08a" opacity=".7"/><path d="M21.75 67.85c0.85-3 2.55-4.5 4.675-4.5 2.04 0 3.74 1.53 4.25 4.25l0.34 5.1-2.72 0.85-1.87-4.25-1.87 5.1-3.06 2.72z" fill="#e05555"/><path d="M22.09 78.9l-5 6.8 3.23 0.85 4.08-5.44M26 80.6l0.85 7.31 3.23-.5.5-7.31" fill="none" stroke="#f2c9a4" stroke-width="3.06" stroke-linecap="round"/><path d="M14.1 67h4.25M12.4 72.1h5.1M14.950000000000001 77.2h3.9099999999999997" stroke="#9db8e8" stroke-width="1.7" stroke-linecap="round"/></g><path d="M84 30l1.26 2.59 2.8 .6-2.03 1.9599999999999997 .7 2.8-2.52-1.3299999999999998-2.52 1.3299999999999998 .7-2.8-2.03-1.9599999999999997 2.8-.6z" fill="#ffd75e"/>
</svg>
