<svg xmlns="http://www.w3.org/2000/svg" width="96" height="96" viewBox="0 0 96 96">
<defs><linearGradient id="bg51" x1="0" y1="0" x2="0" y2="1"><stop offset="0" stop-color="#1a2f5e"/><stop offset="1" stop-color="#0d1b3d"/></linearGradient><linearGradient id="bg51s" x1="0" y1="0" x2="0" y2="1"><stop offset="0" stop-color="#fff8dc" stop-opacity=".75"/><stop offset="1" stop-color="#fff8dc" stop-opacity=".05"/></linearGradient></defs>
<rect width="96" height="96" rx="18" fill="url(#bg51)"/><path d="M38 0h20l12 64h-44z" fill="url(#bg51s)"/><path d="M8 66h80v12a17 17 0 0 1-17 16h-46a17 17 0 0 1-17-16z" fill="#7a5533"/><path d="M8 66h80v3h-80z" fill="#956a41"/><g><circle cx="28" cy="54" r="9.025" fill="#f2c9a4"/><path d="M19.83 50.58c1.3-7 16-7 17.2 0l-2.2-1.2.5 2.1c-4.8-2.6-9.6-2.6-13-.5z" fill="#3d2b1f"/><circle cx="24.96" cy="54.57" r="0.9025" fill="#2b1d12"/><circle cx="31.04" cy="54.57" r="0.9025" fill="#2b1d12"/><path d="M26.1 58.37h3.8" stroke="#b06e4a" stroke-width="1.045" stroke-linecap="round"/><circle cx="22.68" cy="56.85" r="1.1875" fill="#f0a08a" opacity=".7"/><circle cx="33.32" cy="56.85" r="1.1875" fill="#f0a08a" opacity=".7"/><path d="M16.6 70.15c1-6.5 5.5-9.5 12-9.5s11 3 12 9.5z" fill="#2b6bd8"/></g><g transform="rotate(-14 58 46)"><path d="M46.5 41.4l16.099999999999998-6.8999999999999995v23l-16.099999999999998-6.8999999999999995z" fill="#e05555"/><rect x="41.900000000000006" y="41.4" width="5.75" height="9.2" rx="1.8399999999999999" fill="#b23a3a"/><path d="M67.2 36.8l5.75-3.4499999999999997M68.35 46h6.8999999999999995M67.2 55.2l5.75 3.4499999999999997" stroke="#ffd75e" stroke-width="2.53" stroke-linecap="round"/></g><g stroke-linecap="round"><path d="M80 26c3 2 3 6 0 8s-3 6 0 8" stroke="#9db8ff" stroke-width="1.7600000000000002" fill="none"/><path d="M88.8 22c2.4 1.6 2.4 4.8 0 6.4s-2.4 4.8 0 6.4" stroke="#9db8ff" stroke-width="1.52" fill="none" opacity=".85"/></g>
</svg>
