<svg xmlns="http://www.w3.org/2000/svg" width="96" height="96" viewBox="0 0 96 96">
<defs><linearGradient id="bg51" x1="0" y1="0" x2="0" y2="1"><stop offset="0" stop-color="#bfe0ff"/><stop offset="1" stop-color="#8ec3f5"/></linearGradient></defs>
<rect width="96" height="96" rx="18" fill="url(#bg51)"/><g fill="#fff" opacity=".9"><ellipse cx="24" cy="20" rx="11" ry="5"/><ellipse cx="33" cy="17" rx="8" ry="4.4"/><ellipse cx="72" cy="30" rx="9" ry="4"/></g><path d="M8 68h80v10a16 16 0 0 1-16 16h-48a16 16 0 0 1-16-16z" fill="#c99a63"/><path d="M8 68h80v3h-80z" fill="#a87e4e"/><path d="M20 78h20M56 82h22" stroke="#b3854f" stroke-width="1.6"/><g><g transform="rotate(-20 40 52)"><ellipse cx="40" cy="45.1" rx="8.049999999999999" ry="10.35" fill="#e05555"/><ellipse cx="40" cy="45.1" rx="8.049999999999999" ry="10.35" fill="none" stroke="#b23a3a" stroke-width="1.6099999999999999"/><rect x="37.93" y="54.3" width="4.14" height="11.5" rx="2.07" fill="#c98d4e"/></g><circle cx="54.95" cy="35.900000000000006" r="2.9899999999999998" fill="#fff" stroke="#d8d2c2"/></g><path d="M72 26l1.8 3.7 4 .6-2.9 2.8 .7 4-3.6-1.9-3.6 1.9 .7-4-2.9-2.8 4-.6z" fill="#ffd75e"/><g><rect x="82.72" y="38" width="2.5600000000000005" height="9.600000000000001" rx="1.2800000000000002" fill="#ffd75e"/><circle cx="84" cy="50.8" r="1.52" fill="#ffd75e"/></g>
</svg>
