<svg xmlns="http://www.w3.org/2000/svg" width="96" height="96" viewBox="0 0 96 96">
<defs><linearGradient id="bg52" x1="0" y1="0" x2="0" y2="1"><stop offset="0" stop-color="#2a3f76"/><stop offset=".7" stop-color="#1b2a55"/><stop offset="1" stop-color="#15224a"/></linearGradient><radialGradient id="bg52l" cx=".5" cy=".5" r=".5"><stop offset="0" stop-color="#ffe9a8" stop-opacity=".95"/><stop offset="1" stop-color="#ffe9a8" stop-opacity="0"/></radialGradient></defs>
<rect width="96" height="96" rx="18" fill="url(#bg52)"/><path d="M4 20q22 12 44 0t44 0" stroke="#0e1a3c" stroke-width="1.6" fill="none"/><circle cx="16" cy="24" r="4.6" fill="url(#bg52l)"/><circle cx="16" cy="24" r="1.6" fill="#ffd75e"/><circle cx="34" cy="28" r="4.6" fill="url(#bg52l)"/><circle cx="34" cy="28" r="1.6" fill="#ffd75e"/><circle cx="52" cy="29" r="4.6" fill="url(#bg52l)"/><circle cx="52" cy="29" r="1.6" fill="#ffd75e"/><circle cx="70" cy="27" r="4.6" fill="url(#bg52l)"/><circle cx="70" cy="27" r="1.6" fill="#ffd75e"/><circle cx="86" cy="22" r="4.6" fill="url(#bg52l)"/><circle cx="86" cy="22" r="1.6" fill="#ffd75e"/><g transform="rotate(-8 44 44)"><rect x="29.6" y="35.6" width="28.799999999999997" height="16.8" rx="2.4" fill="#ffd75e"/><path d="M47.6 35.6v16.8" stroke="#e8b23d" stroke-width="1.68" stroke-dasharray="2.4 2.4"/><path d="M34.4 41.6h9.6M34.4 46.4h7.199999999999999" stroke="#a5772a" stroke-width="1.7999999999999998" stroke-linecap="round"/></g><g fill="#ffd75e"><circle cx="70" cy="24" r="1.7"/><circle cx="84" cy="34" r="1.3"/><circle cx="62" cy="38" r="1.2"/></g><g><path d="M14.8 20.4h14.4a3.2 3.2 0 0 1 3.2 3.2v4a3.2 3.2 0 0 1-3.2 3.2h-8l-4 4v-4h-2.4000000000000004a3.2 3.2 0 0 1-3.2-3.2v-4a3.2 3.2 0 0 1 3.2-3.2z" fill="#fff" stroke="#3b82f6" stroke-width="1.4400000000000002"/><path d="M22 28.4c-2.72-1.7600000000000002-3.6799999999999997-3.6799999999999997-2.5600000000000005-4.960000000000001c0.8-0.96 2.08-.8 2.5600000000000005 .4 .6-0.96 1.7600000000000002-1.2800000000000002 2.5600000000000005-.4 1.1199999999999999 1.2800000000000002 .2 3.2-2.5600000000000005 4.960000000000001z" fill="#ef6f6f"/></g>
</svg>
