<svg xmlns="http://www.w3.org/2000/svg" width="96" height="96" viewBox="0 0 96 96">
<defs><linearGradient id="bg53" x1="0" y1="0" x2="0" y2="1"><stop offset="0" stop-color="#bfe0ff"/><stop offset="1" stop-color="#8ec3f5"/></linearGradient></defs>
<rect width="96" height="96" rx="18" fill="url(#bg53)"/><g fill="#fff" opacity=".9"><ellipse cx="24" cy="20" rx="11" ry="5"/><ellipse cx="33" cy="17" rx="8" ry="4.4"/><ellipse cx="72" cy="30" rx="9" ry="4"/></g><path d="M4 74h88v8a14 14 0 0 1-14 12h-60a14 14 0 0 1-14-12z" fill="#5a6478"/><path d="M12 80h10M32 80h10M52 80h10M72 80h10" stroke="#aab4c8" stroke-width="2.4" stroke-linecap="round"/><g><circle cx="30" cy="58" r="9.025" fill="#f2c9a4"/><path d="M21.83 54.58c1.3-7 16-7 17.2 0l-2.2-1.2.5 2.1c-4.8-2.6-9.6-2.6-13-.5z" fill="#3d2b1f"/><circle cx="26.96" cy="58.57" r="0.9025" fill="#2b1d12"/><circle cx="33.04" cy="58.57" r="0.9025" fill="#2b1d12"/><path d="M28.1 62.37h3.8" stroke="#b06e4a" stroke-width="1.045" stroke-linecap="round"/><circle cx="24.68" cy="60.85" r="1.1875" fill="#f0a08a" opacity=".7"/><circle cx="35.32" cy="60.85" r="1.1875" fill="#f0a08a" opacity=".7"/><path d="M18.6 74.15c1-6.5 5.5-9.5 12-9.5s11 3 12 9.5z" fill="#2b6bd8"/></g><g><circle cx="66" cy="58" r="9.025" fill="#f2c9a4"/><path d="M57.45 58.95c-1-9 4-13 9-13s10 4 9 13l-2.4-1c.6-6-2-8.6-6.6-8.6s-7.2 2.6-6.6 8.6z" fill="#2b2118"/><circle cx="62.96" cy="58.57" r="0.9025" fill="#2b1d12"/><circle cx="69.04" cy="58.57" r="0.9025" fill="#2b1d12"/><path d="M63.91 62.75a2.8499999999999996 2.8499999999999996 0 0 1 4.18 0" stroke="#b06e4a" stroke-width="1.045" fill="none" stroke-linecap="round"/><circle cx="60.68" cy="60.85" r="1.1875" fill="#f0a08a" opacity=".7"/><circle cx="71.32" cy="60.85" r="1.1875" fill="#f0a08a" opacity=".7"/><path d="M54.6 74.15c1-6.5 5.5-9.5 12-9.5s11 3 12 9.5z" fill="#2b6bd8"/></g><g><path d="M39.9 17.7h16.2a3.6 3.6 0 0 1 3.6 3.6v4.5a3.6 3.6 0 0 1-3.6 3.6h-9l-4.5 4.5v-4.5h-2.7a3.6 3.6 0 0 1-3.6-3.6v-4.5a3.6 3.6 0 0 1 3.6-3.6z" fill="#fff" stroke="#3b82f6" stroke-width="1.62"/><circle cx="43.95" cy="24" r="1.35" fill="#3b82f6"/><circle cx="48" cy="24" r="1.35" fill="#3b82f6"/><circle cx="52.05" cy="24" r="1.35" fill="#3b82f6"/></g>
</svg>
