<svg xmlns="http://www.w3.org/2000/svg" width="96" height="96" viewBox="0 0 96 96">
<defs><linearGradient id="bg54" x1="0" y1="0" x2="0" y2="1"><stop offset="0" stop-color="#3a2f68"/><stop offset="1" stop-color="#1c1740"/></linearGradient></defs>
<rect width="96" height="96" rx="18" fill="url(#bg54)"/><circle cx="18" cy="16" r="1.4" fill="#fff"/><circle cx="60" cy="12" r="1.1" fill="#fff"/><circle cx="84" cy="24" r="1.2" fill="#fff"/><path d="M8 64h80v14a16 16 0 0 1-16 16h-48a16 16 0 0 1-16-16z" fill="#a57847"/><path d="M8 64h80v3h-80z" fill="#8a5f36"/><g><circle cx="30" cy="42" r="11" fill="#fff" stroke="#0047ab" stroke-width="3"/><path d="M30 35.5v6.5l4.6-2" stroke="#0047ab" stroke-width="2.6" fill="none" stroke-linecap="round"/><circle cx="30" cy="42" r="1.6" fill="#0047ab"/></g><g transform="rotate(-5 64 62)"><rect x="54.4" y="56.8" width="19.200000000000003" height="10.4" rx="1.2800000000000002" fill="#fdfaf2"/><path d="M64 56.8v10.4" stroke="#d8d2c2" stroke-width="0.96"/><path d="M56.8 60h4.800000000000001M56.8 62.4h4.800000000000001M66.4 60h4.800000000000001M66.4 62.4h4.800000000000001" stroke="#b9c3d6" stroke-width="1.04" stroke-linecap="round"/></g><g><rect x="82" y="54" width="2.7" height="10.8" rx="1.35" fill="#f2a83d" transform="rotate(-30 82 54)"/><path d="M77.5 63l-2.3400000000000003 3.24 3.87 .5z" fill="#3d2b1f"/></g>
</svg>
