<svg xmlns="http://www.w3.org/2000/svg" width="96" height="96" viewBox="0 0 96 96">
<defs><linearGradient id="bg55" x1="0" y1="0" x2="0" y2="1"><stop offset="0" stop-color="#ffb36b"/><stop offset=".55" stop-color="#e77e6a"/><stop offset="1" stop-color="#5a4f9e"/></linearGradient><radialGradient id="bg55u" cx=".5" cy=".5" r=".5"><stop offset="0" stop-color="#fff0b3"/><stop offset="1" stop-color="#fff0b3" stop-opacity="0"/></radialGradient></defs>
<rect width="96" height="96" rx="18" fill="url(#bg55)"/><circle cx="76" cy="28" r="16" fill="url(#bg55u)"/><circle cx="76" cy="28" r="6.5" fill="#ffdd88"/><path d="M8 68h80v10a16 16 0 0 1-16 16h-48a16 16 0 0 1-16-16z" fill="#c99a63"/><path d="M8 68h80v3h-80z" fill="#a87e4e"/><path d="M20 78h20M56 82h22" stroke="#b3854f" stroke-width="1.6"/><g><rect x="14.555" y="27.6" width="2.8899999999999997" height="54.4" rx="1.4449999999999998" fill="#3a3f55"/><path d="M17.445 31 C 26.2 27.6, 36.4 34.4, 44.9 31 S 55.1 29.300000000000004, 55.1 29.300000000000004 L 55.1 48 C 46.599999999999994 51.400000000000006, 36.4 44.6, 27.9 48 S 17.445 49.7, 17.445 49.7 Z" fill="#0a58c8"/><path d="M24.5 34.4l1.53 3.145 3.4 .6-2.465 2.38 .7 3.4-3.06-1.615-3.06 1.615 .7-3.4-2.465-2.38 3.4-.6z" fill="#fff"/></g><g fill="#20264a"><path d="M14 88c1-4.55 2.6-7.15 5.2-7.15s4.55 2.6 5.2 7.15z"/><path d="M25.05 88c1-4.55 2.6-7.15 5.2-7.15s4.55 2.6 5.2 7.15z"/><path d="M36.1 88c1-4.55 2.6-7.15 5.2-7.15s4.55 2.6 5.2 7.15z"/><path d="M47.15 88c1-4.55 2.6-7.15 5.2-7.15s4.55 2.6 5.2 7.15z"/><path d="M58.2 88c1-4.55 2.6-7.15 5.2-7.15s4.55 2.6 5.2 7.15z"/></g><path d="M17.9 79.55l0.65-2.6M28.95 79.55l0.65-2.6M40 79.55l0.65-2.6M51.05 79.55l0.65-2.6M62.1 79.55l0.65-2.6" stroke="#20264a" stroke-width="1.9500000000000002" stroke-linecap="round"/><path d="M72 34.3c-6.3-4.14-8.64-8.46-6.12-11.520000000000001c1.8-2.16 4.86-1.4400000000000002 6.12 .8 1.26-2.16 4.32-2.8800000000000003 6.12-.8 2.52 3.06 .2 7.38-6.12 11.520000000000001z" fill="#ef6f6f"/>
</svg>
