<svg xmlns="http://www.w3.org/2000/svg" width="96" height="96" viewBox="0 0 96 96">
<defs><linearGradient id="bg56" x1="0" y1="0" x2="0" y2="1"><stop offset="0" stop-color="#1f3060"/><stop offset="1" stop-color="#141f42"/></linearGradient></defs>
<rect width="96" height="96" rx="18" fill="url(#bg56)"/><circle cx="16" cy="16" r="1.4" fill="#fff"/><circle cx="38" cy="10" r="1.1" fill="#fff"/><circle cx="80" cy="14" r="1.2" fill="#fff"/><circle cx="64" cy="22" r=".9" fill="#fff" opacity=".8"/><path d="M8 64h80v14a16 16 0 0 1-16 16h-48a16 16 0 0 1-16-16z" fill="#a57847"/><path d="M8 64h80v3h-80z" fill="#8a5f36"/><g><rect x="37.7" y="36.45" width="12.600000000000001" height="23.1" rx="2.7300000000000004" fill="#2b3a55"/><rect x="39.17" y="38.55" width="9.66" height="15.75" rx="1.47" fill="#3e4f78"/><circle cx="44" cy="56.82" r="1.26" fill="#8a93ad"/></g><g><path d="M67 24a5.5 5.5 0 1 1 7.5 5c-2 .9-3 2-3 4" stroke="#0047ab" stroke-width="2.6" fill="none" stroke-linecap="round"/><circle cx="71.5" cy="37" r="1.6" fill="#0047ab"/></g>
</svg>
