<svg xmlns="http://www.w3.org/2000/svg" width="96" height="96" viewBox="0 0 96 96">
<defs><linearGradient id="bg57" x1="0" y1="0" x2="0" y2="1"><stop offset="0" stop-color="#bfe0ff"/><stop offset="1" stop-color="#8ec3f5"/></linearGradient></defs>
<rect width="96" height="96" rx="18" fill="url(#bg57)"/><g fill="#fff" opacity=".9"><ellipse cx="24" cy="20" rx="11" ry="5"/><ellipse cx="33" cy="17" rx="8" ry="4.4"/><ellipse cx="72" cy="30" rx="9" ry="4"/></g><g fill="#e8edf5"><path d="M32 32h22l6-5 2 1.4-4 5.6 4 5.6-2 1.4-6-5h-22c-2 0-2-4 0-4z"/><path d="M44 32l-6-8 3.4-.6 8 8.6z"/></g><path d="M24 34h5M22 38h6" stroke="#c3cddf" stroke-width="1.8" stroke-linecap="round"/><g><rect x="61.2" y="52.8" width="17.6" height="14.4" rx="2.08" fill="#c98d4e"/><path d="M61.2 58.4h17.6" stroke="#a5713a" stroke-width="1.2800000000000002"/><path d="M66.8 52.8v-2.72a1.6 1.6 0 0 1 1.6-1.6h3.2a1.6 1.6 0 0 1 1.6 1.6v2.72" stroke="#a5713a" stroke-width="1.6" fill="none"/></g><g fill="#ffd75e"><circle cx="20" cy="50" r="1.36"/><circle cx="31.200000000000003" cy="58" r="1.04"/><circle cx="13.6" cy="61.2" r="0.96"/></g>
</svg>
