<svg xmlns="http://www.w3.org/2000/svg" width="96" height="96" viewBox="0 0 96 96">
<defs><linearGradient id="bg58" x1="0" y1="0" x2="0" y2="1"><stop offset="0" stop-color="#ffb36b"/><stop offset=".55" stop-color="#e77e6a"/><stop offset="1" stop-color="#5a4f9e"/></linearGradient><radialGradient id="bg58u" cx=".5" cy=".5" r=".5"><stop offset="0" stop-color="#fff0b3"/><stop offset="1" stop-color="#fff0b3" stop-opacity="0"/></radialGradient></defs>
<rect width="96" height="96" rx="18" fill="url(#bg58)"/><circle cx="76" cy="28" r="16" fill="url(#bg58u)"/><circle cx="76" cy="28" r="6.5" fill="#ffdd88"/><path d="M8 68h80v10a16 16 0 0 1-16 16h-48a16 16 0 0 1-16-16z" fill="#c99a63"/><path d="M8 68h80v3h-80z" fill="#a87e4e"/><path d="M20 78h20M56 82h22" stroke="#b3854f" stroke-width="1.6"/><g><ellipse cx="40" cy="49.5" rx="12.600000000000001" ry="4.83" fill="#e8edf5"/><path d="M27.4 49.5v12.600000000000001c0 2.7300000000000004 5.670000000000001 4.83 12.600000000000001 4.83s12.600000000000001-2.1 12.600000000000001-4.83v-12.600000000000001" fill="#e05555"/><path d="M27.4 51.6l8.4 8.4 8.4-8.4 8.4 8.4" stroke="#ffd75e" stroke-width="1.8900000000000001" fill="none"/><path d="M33.7 36.9l5.25 9.450000000000001M49.45 37.95l-4.2 9.03" stroke="#8a5f36" stroke-width="2.1" stroke-linecap="round"/><circle cx="33.07" cy="35.849999999999994" r="2.1" fill="#8a5f36"/><circle cx="50.08" cy="36.9" r="2.1" fill="#8a5f36"/></g><g stroke-linecap="round"><path d="M68 28c3 2 3 6 0 8s-3 6 0 8" stroke="#9db8ff" stroke-width="2.09" fill="none"/><path d="M78.45 23.25c2.4 1.6 2.4 4.8 0 6.4s-2.4 4.8 0 6.4" stroke="#9db8ff" stroke-width="1.805" fill="none" opacity=".85"/></g><g><path d="M80 40.8a4.4 4.4 0 1 1 6 4c-2 .9-3 2-3 4" stroke="#0047ab" stroke-width="2.08" fill="none" stroke-linecap="round"/><circle cx="83.6" cy="51.2" r="1.2800000000000002" fill="#0047ab"/></g>
</svg>
