<svg xmlns="http://www.w3.org/2000/svg" width="96" height="96" viewBox="0 0 96 96">
<defs><linearGradient id="bg58" x1="0" y1="0" x2="0" y2="1"><stop offset="0" stop-color="#1a2f5e"/><stop offset="1" stop-color="#0d1b3d"/></linearGradient><linearGradient id="bg58s" x1="0" y1="0" x2="0" y2="1"><stop offset="0" stop-color="#fff8dc" stop-opacity=".75"/><stop offset="1" stop-color="#fff8dc" stop-opacity=".05"/></linearGradient></defs>
<rect width="96" height="96" rx="18" fill="url(#bg58)"/><path d="M38 0h20l12 64h-44z" fill="url(#bg58s)"/><path d="M8 68h80v10a16 16 0 0 1-16 16h-48a16 16 0 0 1-16-16z" fill="#c99a63"/><path d="M8 68h80v3h-80z" fill="#a87e4e"/><path d="M20 78h20M56 82h22" stroke="#b3854f" stroke-width="1.6"/><g transform="rotate(-14 44 46)"><path d="M31.5 41l17.5-7.5v25l-17.5-7.5z" fill="#e05555"/><rect x="26.5" y="41" width="6.25" height="10" rx="2" fill="#b23a3a"/><path d="M54 36l6.25-3.75M55.25 46h7.5M54 56l6.25 3.75" stroke="#ffd75e" stroke-width="2.75" stroke-linecap="round"/></g><g stroke-linecap="round"><path d="M70 26c3 2 3 6 0 8s-3 6 0 8" stroke="#9db8ff" stroke-width="1.9800000000000002" fill="none"/><path d="M79.9 21.5c2.4 1.6 2.4 4.8 0 6.4s-2.4 4.8 0 6.4" stroke="#9db8ff" stroke-width="1.71" fill="none" opacity=".85"/></g><g><rect x="18.4" y="20" width="3.2" height="12" rx="1.6" fill="#ffd75e"/><circle cx="20" cy="36" r="1.9" fill="#ffd75e"/></g>
</svg>
