<svg xmlns="http://www.w3.org/2000/svg" width="96" height="96" viewBox="0 0 96 96">
<defs><linearGradient id="bg59" x1="0" y1="0" x2="0" y2="1"><stop offset="0" stop-color="#ffb36b"/><stop offset=".55" stop-color="#e77e6a"/><stop offset="1" stop-color="#5a4f9e"/></linearGradient><radialGradient id="bg59u" cx=".5" cy=".5" r=".5"><stop offset="0" stop-color="#fff0b3"/><stop offset="1" stop-color="#fff0b3" stop-opacity="0"/></radialGradient></defs>
<rect width="96" height="96" rx="18" fill="url(#bg59)"/><circle cx="76" cy="28" r="16" fill="url(#bg59u)"/><circle cx="76" cy="28" r="6.5" fill="#ffdd88"/><path d="M4 74h88v8a14 14 0 0 1-14 12h-60a14 14 0 0 1-14-12z" fill="#5a6478"/><path d="M12 80h10M32 80h10M52 80h10M72 80h10" stroke="#aab4c8" stroke-width="2.4" stroke-linecap="round"/><g><circle cx="32" cy="56" r="9.025" fill="#f2c9a4"/><path d="M23.83 52.58c1.3-7 16-7 17.2 0l-2.2-1.2.5 2.1c-4.8-2.6-9.6-2.6-13-.5z" fill="#3d2b1f"/><circle cx="28.96" cy="56.57" r="0.9025" fill="#2b1d12"/><circle cx="35.04" cy="56.57" r="0.9025" fill="#2b1d12"/><path d="M29.91 60.75a2.8499999999999996 2.8499999999999996 0 0 1 4.18 0" stroke="#b06e4a" stroke-width="1.045" fill="none" stroke-linecap="round"/><circle cx="26.68" cy="58.85" r="1.1875" fill="#f0a08a" opacity=".7"/><circle cx="37.32" cy="58.85" r="1.1875" fill="#f0a08a" opacity=".7"/><path d="M20.6 72.15c1-6.5 5.5-9.5 12-9.5s11 3 12 9.5z" fill="#2b6bd8"/></g><g><path d="M45.9 17.7h16.2a3.6 3.6 0 0 1 3.6 3.6v4.5a3.6 3.6 0 0 1-3.6 3.6h-9l-4.5 4.5v-4.5h-2.7a3.6 3.6 0 0 1-3.6-3.6v-4.5a3.6 3.6 0 0 1 3.6-3.6z" fill="#fff" stroke="#3b82f6" stroke-width="1.62"/><path d="M54 26.7c-3.06-1.9800000000000002-4.14-4.14-2.8800000000000003-5.58c0.9-1.08 2.3400000000000003-.8 2.8800000000000003 .4 .6-1.08 1.9800000000000002-1.4400000000000002 2.8800000000000003-.4 1.26 1.4400000000000002 .2 3.6-2.8800000000000003 5.58z" fill="#ef6f6f"/></g><g><path d="M73.1 67.2l-3.4 8M82.9 67.2l3.4 8" stroke="#f2c9a4" stroke-width="2.2399999999999998" stroke-linecap="round"/><path d="M73.45 65.1h9.1l2.4499999999999997 10.5h-14z" fill="#f26d6d"/><path d="M75.2 75.6v6.3M80.8 75.6v6.3" stroke="#f2c9a4" stroke-width="2.0999999999999996" stroke-linecap="round"/><circle cx="78" cy="60.2" r="5.6" fill="#f2c9a4"/><path d="M73.002 59.08c0-7.4 15.4-8.2 16.8-.8 0 3-1 4.2-1 4.2l-1-3.6c-3.2 1.7-8.8 1.7-11.2-1.2l-1.8 4s-1.8-.4-1.8-2.6z" fill="#5a4632"/><circle cx="82.76" cy="56.105" r="1.666" fill="#5a4632"/><circle cx="76.096" cy="60.557" r="0.5652499999999999" fill="#2b1d12"/><circle cx="79.904" cy="60.557" r="0.5652499999999999" fill="#2b1d12"/><path d="M76.691 62.699000000000005a1.785 1.785 0 0 0 2.618 0" stroke="#b06e4a" stroke-width="0.6545" fill="none" stroke-linecap="round"/><circle cx="74.668" cy="61.985" r="0.7437499999999999" fill="#f0a08a" opacity=".7"/><circle cx="81.332" cy="61.985" r="0.7437499999999999" fill="#f0a08a" opacity=".7"/></g>
</svg>
