<svg xmlns="http://www.w3.org/2000/svg" width="96" height="96" viewBox="0 0 96 96">
<defs><linearGradient id="bg60" x1="0" y1="0" x2="0" y2="1"><stop offset="0" stop-color="#1f3060"/><stop offset="1" stop-color="#141f42"/></linearGradient></defs>
<rect width="96" height="96" rx="18" fill="url(#bg60)"/><circle cx="16" cy="16" r="1.4" fill="#fff"/><circle cx="38" cy="10" r="1.1" fill="#fff"/><circle cx="80" cy="14" r="1.2" fill="#fff"/><circle cx="64" cy="22" r=".9" fill="#fff" opacity=".8"/><path d="M8 64h80v14a16 16 0 0 1-16 16h-48a16 16 0 0 1-16-16z" fill="#a57847"/><path d="M8 64h80v3h-80z" fill="#8a5f36"/><g transform="rotate(-6 38 50)"><rect x="25" y="41.5" width="26" height="17" rx="2" fill="#fdfaf2"/><path d="M29 46.5h18M29 50.5h18M29 54.5h12" stroke="#b9c3d6" stroke-width="1.5" stroke-linecap="round"/></g><g><rect x="64.24" y="17" width="3.5200000000000005" height="13.200000000000001" rx="1.7600000000000002" fill="#ffd75e"/><circle cx="66" cy="34.6" r="2.09" fill="#ffd75e"/></g><g><circle cx="82" cy="50" r="7.699999999999999" fill="#fff" stroke="#0047ab" stroke-width="2.0999999999999996"/><path d="M82 45.45v4.55l3.2199999999999998 2.0999999999999996" stroke="#e34d4d" stroke-width="1.8199999999999998" fill="none" stroke-linecap="round"/><circle cx="82" cy="50" r="1.1199999999999999" fill="#0047ab"/></g>
</svg>
