<svg xmlns="http://www.w3.org/2000/svg" width="96" height="96" viewBox="0 0 96 96">
<defs><linearGradient id="bg61" x1="0" y1="0" x2="0" y2="1"><stop offset="0" stop-color="#2a3f76"/><stop offset=".7" stop-color="#1b2a55"/><stop offset="1" stop-color="#15224a"/></linearGradient><radialGradient id="bg61l" cx=".5" cy=".5" r=".5"><stop offset="0" stop-color="#ffe9a8" stop-opacity=".95"/><stop offset="1" stop-color="#ffe9a8" stop-opacity="0"/></radialGradient></defs>
<rect width="96" height="96" rx="18" fill="url(#bg61)"/><path d="M4 20q22 12 44 0t44 0" stroke="#0e1a3c" stroke-width="1.6" fill="none"/><circle cx="16" cy="24" r="4.6" fill="url(#bg61l)"/><circle cx="16" cy="24" r="1.6" fill="#ffd75e"/><circle cx="34" cy="28" r="4.6" fill="url(#bg61l)"/><circle cx="34" cy="28" r="1.6" fill="#ffd75e"/><circle cx="52" cy="29" r="4.6" fill="url(#bg61l)"/><circle cx="52" cy="29" r="1.6" fill="#ffd75e"/><circle cx="70" cy="27" r="4.6" fill="url(#bg61l)"/><circle cx="70" cy="27" r="1.6" fill="#ffd75e"/><circle cx="86" cy="22" r="4.6" fill="url(#bg61l)"/><circle cx="86" cy="22" r="1.6" fill="#ffd75e"/><g><circle cx="44" cy="54" r="9.5" fill="#f2c9a4"/><path d="M35.4 50.4c1.3-7 16-7 17.2 0l-2.2-1.2.5 2.1c-4.8-2.6-9.6-2.6-13-.5z" fill="#3d2b1f"/><path d="M39.4 54.8c1-1.4 2.6-1.4 3.6 0M45 54.8c1-1.4 2.6-1.4 3.6 0" stroke="#2b1d12" stroke-width="1.3" fill="none" stroke-linecap="round"/><path d="M41.8 58.2a3 3 0 0 0 4.4 0" stroke="#b06e4a" stroke-width="1.1" fill="none" stroke-linecap="round"/><circle cx="38.4" cy="57" r="1.25" fill="#f0a08a" opacity=".7"/><circle cx="49.6" cy="57" r="1.25" fill="#f0a08a" opacity=".7"/><path d="M32 71c1-6.5 5.5-9.5 12-9.5s11 3 12 9.5z" fill="#2b6bd8"/></g><path d="M68 33.95c-5.95-3.9099999999999997-8.16-7.99-5.779999999999999-10.88c1.7-2.04 4.59-1.36 5.779999999999999 .8 1.19-2.04 4.08-2.72 5.779999999999999-.8 2.38 2.8899999999999997 .2 6.969999999999999-5.779999999999999 10.88z" fill="#ef6f6f"/><path d="M22 38.2c-4.2-2.76-5.76-5.64-4.08-7.68c1.2-1.44 3.24-0.96 4.08 .8 0.84-1.44 2.88-1.92 4.08-.8 1.68 2.04 .2 4.919999999999999-4.08 7.68z" fill="#ff9d9d"/><g fill="#ffd75e"><circle cx="78" cy="50" r="1.4449999999999998"/><circle cx="89.9" cy="58.5" r="1.105"/><circle cx="71.2" cy="61.9" r="1.02"/></g>
</svg>
