<svg xmlns="http://www.w3.org/2000/svg" width="96" height="96" viewBox="0 0 96 96">
<defs><linearGradient id="bg62" x1="0" y1="0" x2="0" y2="1"><stop offset="0" stop-color="#5a6b8f"/><stop offset="1" stop-color="#39466a"/></linearGradient></defs>
<rect width="96" height="96" rx="18" fill="url(#bg62)"/><g fill="#c3cddf"><path d="M28 24a9 9 0 0 1 1.6-17.8A12 12 0 0 1 51 3.4 8 8 0 0 1 55.5 19z"/><path d="M68 28a6.5 6.5 0 0 1 1.3-12.8 8.5 8.5 0 0 1 15.7-2A5.6 5.6 0 0 1 88 23.7z" opacity=".85"/></g><g stroke="#9db8e8" stroke-width="2.4" stroke-linecap="round"><path d="M26 30l-2.6 6M36 32l-2.6 6M46 28l-2.6 6M58 31l-2.6 6M70 34l-2.6 6M80 32l-2.6 6"/></g><path d="M8 68h80v10a16 16 0 0 1-16 16h-48a16 16 0 0 1-16-16z" fill="#c99a63"/><path d="M8 68h80v3h-80z" fill="#a87e4e"/><path d="M20 78h20M56 82h22" stroke="#b3854f" stroke-width="1.6"/><g><rect x="16.64" y="30.799999999999997" width="2.72" height="51.2" rx="1.36" fill="#3a3f55"/><path d="M19.36 34 C 27.6 30.799999999999997, 37.2 37.199999999999996, 45.2 34 S 54.800000000000004 32.4, 54.800000000000004 32.4 L 54.800000000000004 50 C 46.8 53.2, 37.2 46.8, 29.200000000000003 50 S 19.36 51.599999999999994, 19.36 51.599999999999994 Z" fill="#0a58c8"/><path d="M26 37.199999999999996l1.4400000000000002 2.9600000000000004 3.2 .6-2.32 2.2399999999999998 .7 3.2-2.8800000000000003-1.52-2.8800000000000003 1.52 .7-3.2-2.32-2.2399999999999998 3.2-.6z" fill="#fff"/></g><g><rect x="58.08" y="20" width="3.84" height="14.399999999999999" rx="1.92" fill="#ef6f6f"/><circle cx="60" cy="39.2" r="2.28" fill="#ef6f6f"/></g><g><path d="M78 55.6c-5.6000000000000005-3.6799999999999997-7.68-7.5200000000000005-5.44-10.240000000000002c1.6-1.92 4.32-1.2800000000000002 5.44 .8 1.1199999999999999-1.92 3.84-2.5600000000000005 5.44-.8 2.2399999999999998 2.72 .2 6.56-5.44 10.240000000000002z" fill="#ef6f6f"/><path d="M78 45.68l-1.2800000000000002 2.72 2.4000000000000004 1.92-1.92 3.2" stroke="#e9f1fc" stroke-width="1.2800000000000002" fill="none" stroke-linecap="round" stroke-linejoin="round"/></g>
</svg>
