<svg xmlns="http://www.w3.org/2000/svg" width="96" height="96" viewBox="0 0 96 96">
<defs><linearGradient id="bg63" x1="0" y1="0" x2="0" y2="1"><stop offset="0" stop-color="#ffb36b"/><stop offset=".55" stop-color="#e77e6a"/><stop offset="1" stop-color="#5a4f9e"/></linearGradient><radialGradient id="bg63u" cx=".5" cy=".5" r=".5"><stop offset="0" stop-color="#fff0b3"/><stop offset="1" stop-color="#fff0b3" stop-opacity="0"/></radialGradient></defs>
<rect width="96" height="96" rx="18" fill="url(#bg63)"/><circle cx="76" cy="28" r="16" fill="url(#bg63u)"/><circle cx="76" cy="28" r="6.5" fill="#ffdd88"/><path d="M4 72h88v10a14 14 0 0 1-14 12h-60a14 14 0 0 1-14-12z" fill="#6ea25f"/><path d="M14 72l2-5M26 72l2-5M44 72l2-5M64 72l2-5M80 72l2-5" stroke="#547f47" stroke-width="2" stroke-linecap="round"/><g><path d="M29.7 62.4l-3.4 8M42.3 62.4l3.4 8" stroke="#f2c9a4" stroke-width="2.8800000000000003" stroke-linecap="round"/><path d="M30.15 59.7h11.700000000000001v13.5h-11.700000000000001z" fill="#2b6bd8"/><path d="M32.76 73.2v9M39.24 73.2v9" stroke="#2b3a55" stroke-width="3.7800000000000002" stroke-linecap="round"/><circle cx="36" cy="53.4" r="7.2" fill="#f2c9a4"/><path d="M29.421 50.736000000000004c1.3-7 16-7 17.2 0l-2.2-1.2.5 2.1c-4.8-2.6-9.6-2.6-13-.5z" fill="#3d2b1f"/><path d="M32.481 54.012c1-1.4 2.6-1.4 3.6 0M36.765 54.012c1-1.4 2.6-1.4 3.6 0" stroke="#2b1d12" stroke-width="0.9945" fill="none" stroke-linecap="round"/><path d="M34.317 56.613a2.295 2.295 0 0 0 3.3660000000000005 0" stroke="#b06e4a" stroke-width="0.8415000000000001" fill="none" stroke-linecap="round"/><circle cx="31.716" cy="55.695" r="0.95625" fill="#f0a08a" opacity=".7"/><circle cx="40.284" cy="55.695" r="0.95625" fill="#f0a08a" opacity=".7"/></g><g><path d="M53.7 62.4l-3.4 8M66.3 62.4l3.4 8" stroke="#f2c9a4" stroke-width="2.8800000000000003" stroke-linecap="round"/><path d="M54.15 59.7h11.700000000000001v13.5h-11.700000000000001z" fill="#f26d6d"/><path d="M56.76 73.2v9M63.24 73.2v9" stroke="#2b3a55" stroke-width="3.7800000000000002" stroke-linecap="round"/><circle cx="60" cy="53.4" r="7.2" fill="#f2c9a4"/><path d="M53.115 54.255c-1-9 4-13 9-13s10 4 9 13l-2.4-1c.6-6-2-8.6-6.6-8.6s-7.2 2.6-6.6 8.6z" fill="#2b2118"/><path d="M56.481 54.012c1-1.4 2.6-1.4 3.6 0M60.765 54.012c1-1.4 2.6-1.4 3.6 0" stroke="#2b1d12" stroke-width="0.9945" fill="none" stroke-linecap="round"/><path d="M58.317 56.613a2.295 2.295 0 0 0 3.3660000000000005 0" stroke="#b06e4a" stroke-width="0.8415000000000001" fill="none" stroke-linecap="round"/><circle cx="55.716" cy="55.695" r="0.95625" fill="#f0a08a" opacity=".7"/><circle cx="64.284" cy="55.695" r="0.95625" fill="#f0a08a" opacity=".7"/></g><path d="M48 34.3c-6.3-4.14-8.64-8.46-6.12-11.520000000000001c1.8-2.16 4.86-1.4400000000000002 6.12 .8 1.26-2.16 4.32-2.8800000000000003 6.12-.8 2.52 3.06 .2 7.38-6.12 11.520000000000001z" fill="#ef6f6f"/>
</svg>
