<svg xmlns="http://www.w3.org/2000/svg" width="96" height="96" viewBox="0 0 96 96">
<defs><linearGradient id="bg161" x1="0" y1="0" x2="0" y2="1"><stop offset="0" stop-color="#fff2d8"/><stop offset="1" stop-color="#ffdda6"/></linearGradient></defs>
<rect width="96" height="96" rx="18" fill="url(#bg161)"/><path d="M8 64h80v14a16 16 0 0 1-16 16h-48a16 16 0 0 1-16-16z" fill="#a57847"/><path d="M8 64h80v3h-80z" fill="#8a5f36"/><g><circle cx="34" cy="52" r="9.5" fill="#f2c9a4"/><path d="M25.4 48.4c1.3-7 16-7 17.2 0l-2.8-1.2c-4.4-2.4-8.8-2.4-11.8-.4z" fill="#8f8f96"/><path d="M29.4 52.8c1-1.4 2.6-1.4 3.6 0M35 52.8c1-1.4 2.6-1.4 3.6 0" stroke="#2b1d12" stroke-width="1.3" fill="none" stroke-linecap="round"/><path d="M31.8 56.2a3 3 0 0 0 4.4 0" stroke="#b06e4a" stroke-width="1.1" fill="none" stroke-linecap="round"/><circle cx="28.4" cy="55" r="1.25" fill="#f0a08a" opacity=".7"/><circle cx="39.6" cy="55" r="1.25" fill="#f0a08a" opacity=".7"/><path d="M22 69c1-6.5 5.5-9.5 12-9.5s11 3 12 9.5z" fill="#2b6bd8"/></g><g><path d="M55.9 19.7h16.2a3.6 3.6 0 0 1 3.6 3.6v4.5a3.6 3.6 0 0 1-3.6 3.6h-9l-4.5 4.5v-4.5h-2.7a3.6 3.6 0 0 1-3.6-3.6v-4.5a3.6 3.6 0 0 1 3.6-3.6z" fill="#fff" stroke="#3b82f6" stroke-width="1.62"/><circle cx="59.95" cy="26" r="1.35" fill="#3b82f6"/><circle cx="64" cy="26" r="1.35" fill="#3b82f6"/><circle cx="68.05" cy="26" r="1.35" fill="#3b82f6"/></g><g transform="rotate(-6 80 58)"><rect x="72.85" y="53.325" width="14.3" height="9.350000000000001" rx="2" fill="#fdfaf2"/><path d="M75.05 56.075h9.9M75.05 58.275h9.9M75.05 60.475h6.6000000000000005" stroke="#b9c3d6" stroke-width="1.5" stroke-linecap="round"/></g>
</svg>
