<svg xmlns="http://www.w3.org/2000/svg" width="96" height="96" viewBox="0 0 96 96">
<defs><linearGradient id="bg162" x1="0" y1="0" x2="0" y2="1"><stop offset="0" stop-color="#4a3a72"/><stop offset="1" stop-color="#2c2350"/></linearGradient><radialGradient id="bg162c" cx=".5" cy=".5" r=".5"><stop offset="0" stop-color="#ffe9a8" stop-opacity=".95"/><stop offset="1" stop-color="#ffe9a8" stop-opacity="0"/></radialGradient></defs>
<rect width="96" height="96" rx="18" fill="url(#bg162)"/><circle cx="48" cy="13" r="12" fill="url(#bg162c)"/><circle cx="43.5" cy="14" r="1.8" fill="#ffd75e"/><circle cx="48" cy="16" r="1.8" fill="#ffd75e"/><circle cx="52.5" cy="14" r="1.8" fill="#ffd75e"/><path d="M8 66h80v12a17 17 0 0 1-17 16h-46a17 17 0 0 1-17-16z" fill="#7a5533"/><path d="M8 66h80v3h-80z" fill="#956a41"/><g transform="rotate(10 42 74)"><rect x="39.815" y="36" width="4.369999999999999" height="38" rx="2.1849999999999996" fill="#8a5a36"/><rect x="37.25" y="32.2" width="9.5" height="7.6" rx="2.28" fill="#2b2118"/><path d="M42.475 66.4c-9.5-1-16.15 4.75-16.15 13.299999999999999 0 9.5 7.6 16.15 16.15 16.15 7.6 0 12.35-4.75 12.35-11.399999999999999 0-3.8-2-6.175-3.8-8.549999999999999-1.8-2.2-3.5-4-4-7-.3-2-2-2.8-5-3z" fill="#c98d4e"/><circle cx="42" cy="83.5" r="4.75" fill="#1c1030"/><path d="M41.05 36v43.699999999999996M43.33 36v43.699999999999996" stroke="#e8d9b5" stroke-width=".7"/></g><g stroke-linecap="round"><path d="M70 30c3 2 3 6 0 8s-3 6 0 8" stroke="#9db8ff" stroke-width="2.09" fill="none"/><path d="M80.45 25.25c2.4 1.6 2.4 4.8 0 6.4s-2.4 4.8 0 6.4" stroke="#9db8ff" stroke-width="1.805" fill="none" opacity=".85"/></g>
</svg>
