<svg xmlns="http://www.w3.org/2000/svg" width="96" height="96" viewBox="0 0 96 96">
<defs><linearGradient id="bg163" x1="0" y1="0" x2="0" y2="1"><stop offset="0" stop-color="#bfe0ff"/><stop offset="1" stop-color="#8ec3f5"/></linearGradient></defs>
<rect width="96" height="96" rx="18" fill="url(#bg163)"/><g fill="#fff" opacity=".9"><ellipse cx="24" cy="20" rx="11" ry="5"/><ellipse cx="33" cy="17" rx="8" ry="4.4"/><ellipse cx="72" cy="30" rx="9" ry="4"/></g><path d="M8 64h80v14a16 16 0 0 1-16 16h-48a16 16 0 0 1-16-16z" fill="#a57847"/><path d="M8 64h80v3h-80z" fill="#8a5f36"/><g transform="rotate(-5 38 58)"><rect x="26.6" y="51.825" width="22.799999999999997" height="12.35" rx="1.52" fill="#fdfaf2"/><path d="M38 51.825v12.35" stroke="#d8d2c2" stroke-width="1.14"/><path d="M29.450000000000003 55.625h5.699999999999999M29.450000000000003 58.475h5.699999999999999M40.85 55.625h5.699999999999999M40.85 58.475h5.699999999999999" stroke="#b9c3d6" stroke-width="1.2349999999999999" stroke-linecap="round"/></g><path d="M66 36.3c-6.3-4.14-8.64-8.46-6.12-11.520000000000001c1.8-2.16 4.86-1.4400000000000002 6.12 .8 1.26-2.16 4.32-2.8800000000000003 6.12-.8 2.52 3.06 .2 7.38-6.12 11.520000000000001z" fill="#ef6f6f"/><path d="M84 48l1.08 2.22 2.4 .6-1.74 1.68 .7 2.4-2.16-1.14-2.16 1.14 .7-2.4-1.74-1.68 2.4-.6z" fill="#ffd75e"/>
</svg>
