<svg xmlns="http://www.w3.org/2000/svg" width="96" height="96" viewBox="0 0 96 96">
<defs><linearGradient id="bg164" x1="0" y1="0" x2="0" y2="1"><stop offset="0" stop-color="#1a2f5e"/><stop offset="1" stop-color="#0d1b3d"/></linearGradient><linearGradient id="bg164s" x1="0" y1="0" x2="0" y2="1"><stop offset="0" stop-color="#fff8dc" stop-opacity=".75"/><stop offset="1" stop-color="#fff8dc" stop-opacity=".05"/></linearGradient></defs>
<rect width="96" height="96" rx="18" fill="url(#bg164)"/><path d="M38 0h20l12 64h-44z" fill="url(#bg164s)"/><path d="M8 66h80v12a17 17 0 0 1-17 16h-46a17 17 0 0 1-17-16z" fill="#7a5533"/><path d="M8 66h80v3h-80z" fill="#956a41"/><g><circle cx="38" cy="40" r="11.55" fill="#fff" stroke="#0047ab" stroke-width="3.1500000000000004"/><path d="M38 33.175v6.825l4.83-2.1" stroke="#0047ab" stroke-width="2.7300000000000004" fill="none" stroke-linecap="round"/><circle cx="38" cy="40" r="1.6800000000000002" fill="#0047ab"/></g><g><rect x="70.88" y="59.2" width="2.2399999999999998" height="20.8" rx="1.1199999999999999" fill="#cfd6e4"/><path d="M65.6 80c0-2.5 3.5-4 8-4s8 1.5 8 4z" fill="#9aa4b8"/><circle cx="72" cy="54.4" r="6.800000000000001" fill="#39445c"/><path d="M66.4 52.4h11.200000000000001M65.6 54.8h12.8M66.4 57.2h11.200000000000001" stroke="#5a6880" stroke-width="0.8800000000000001"/></g><g stroke-linecap="round"><path d="M16 32c3 2 3 6 0 8s-3 6 0 8" stroke="#9db8ff" stroke-width="1.7600000000000002" fill="none"/><path d="M24.8 28c2.4 1.6 2.4 4.8 0 6.4s-2.4 4.8 0 6.4" stroke="#9db8ff" stroke-width="1.52" fill="none" opacity=".85"/></g>
</svg>
