<svg xmlns="http://www.w3.org/2000/svg" width="96" height="96" viewBox="0 0 96 96">
<defs><linearGradient id="bg165" x1="0" y1="0" x2="0" y2="1"><stop offset="0" stop-color="#bfe0ff"/><stop offset="1" stop-color="#8ec3f5"/></linearGradient></defs>
<rect width="96" height="96" rx="18" fill="url(#bg165)"/><g fill="#fff" opacity=".9"><ellipse cx="24" cy="20" rx="11" ry="5"/><ellipse cx="33" cy="17" rx="8" ry="4.4"/><ellipse cx="72" cy="30" rx="9" ry="4"/></g><path d="M4 74h88v8a14 14 0 0 1-14 12h-60a14 14 0 0 1-14-12z" fill="#5a6478"/><path d="M12 80h10M32 80h10M52 80h10M72 80h10" stroke="#aab4c8" stroke-width="2.4" stroke-linecap="round"/><g><rect x="40.2" y="50.4" width="39.6" height="21.6" rx="2.16" fill="#e8ddc8"/><rect x="54.6" y="45" width="10.8" height="7.2" rx="1.6" fill="#d8c9ac"/><circle cx="60" cy="48.599999999999994" r="2.3400000000000003" fill="#fff" stroke="#0047ab" stroke-width="1.2"/><g fill="#9dc1f5"><rect x="43.8" y="54.9" width="5.4" height="5.4" rx="1"/><rect x="57.3" y="54.9" width="5.4" height="5.4" rx="1"/><rect x="70.8" y="54.9" width="5.4" height="5.4" rx="1"/></g><rect x="56.4" y="63.9" width="7.2" height="8.1" rx="1.4" fill="#7a532f"/></g><g><path d="M16.4 64.8l-3.4 8M27.6 64.8l3.4 8" stroke="#f2c9a4" stroke-width="2.5600000000000005" stroke-linecap="round"/><path d="M16.8 62.4h10.4l2.8000000000000003 12h-16z" fill="#ffd75e"/><path d="M18.8 74.4v7.2M25.2 74.4v7.2" stroke="#f2c9a4" stroke-width="2.4000000000000004" stroke-linecap="round"/><circle cx="22" cy="56.8" r="6.4" fill="#f2c9a4"/><path d="M16.288 55.519999999999996c0-7.4 15.4-8.2 16.8-.8 0 3-1 4.2-1 4.2l-1-3.6c-3.2 1.7-8.8 1.7-11.2-1.2l-1.8 4s-1.8-.4-1.8-2.6z" fill="#5a4632"/><circle cx="27.44" cy="52.12" r="1.904" fill="#5a4632"/><path d="M18.872 57.343999999999994c1-1.4 2.6-1.4 3.6 0M22.68 57.343999999999994c1-1.4 2.6-1.4 3.6 0" stroke="#2b1d12" stroke-width="0.8840000000000001" fill="none" stroke-linecap="round"/><path d="M20.504 59.656a2.04 2.04 0 0 0 2.9920000000000004 0" stroke="#b06e4a" stroke-width="0.7480000000000001" fill="none" stroke-linecap="round"/><circle cx="18.192" cy="58.839999999999996" r="0.8500000000000001" fill="#f0a08a" opacity=".7"/><circle cx="25.808" cy="58.839999999999996" r="0.8500000000000001" fill="#f0a08a" opacity=".7"/></g>
</svg>
