<svg xmlns="http://www.w3.org/2000/svg" width="96" height="96" viewBox="0 0 96 96">
<defs><linearGradient id="bg166" x1="0" y1="0" x2="0" y2="1"><stop offset="0" stop-color="#bfe0ff"/><stop offset="1" stop-color="#8ec3f5"/></linearGradient></defs>
<rect width="96" height="96" rx="18" fill="url(#bg166)"/><g fill="#fff" opacity=".9"><ellipse cx="24" cy="20" rx="11" ry="5"/><ellipse cx="33" cy="17" rx="8" ry="4.4"/><ellipse cx="72" cy="30" rx="9" ry="4"/></g><g fill="#e8edf5"><path d="M31.4 26h19.8l5.4-4.5 1.8 1.26-3.6 5.04 3.6 5.04-1.8 1.26-5.4-4.5h-19.8c-1.8 0-1.8-3.6 0-3.6z"/><path d="M42.2 26l-5.4-7.2 3.06-.6 7.2 7.74z"/></g><path d="M24.2 27.8h4.5M22.4 31.4h5.4" stroke="#c3cddf" stroke-width="1.62" stroke-linecap="round"/><g><rect x="51.7" y="41.3" width="4.75" height="26.599999999999998" rx="2.375" fill="#c98d4e" transform="rotate(24 53.6 54.6)"/><circle cx="42.2" cy="66" r="7.125" fill="#fff" stroke="#d8d2c2"/><path d="M37.83 62.58c2 1.6 2 5.6 0 7.2M46.57 62.58c-2 1.6-2 5.6 0 7.2" stroke="#e05555" stroke-width="1.3299999999999998" fill="none"/></g><path d="M84 48l1.4400000000000002 2.9600000000000004 3.2 .6-2.32 2.2399999999999998 .7 3.2-2.8800000000000003-1.52-2.8800000000000003 1.52 .7-3.2-2.32-2.2399999999999998 3.2-.6z" fill="#ffd75e"/>
</svg>
