<svg xmlns="http://www.w3.org/2000/svg" width="96" height="96" viewBox="0 0 96 96">
<defs><linearGradient id="bg166" x1="0" y1="0" x2="0" y2="1"><stop offset="0" stop-color="#1a2f5e"/><stop offset="1" stop-color="#0d1b3d"/></linearGradient><linearGradient id="bg166s" x1="0" y1="0" x2="0" y2="1"><stop offset="0" stop-color="#fff8dc" stop-opacity=".75"/><stop offset="1" stop-color="#fff8dc" stop-opacity=".05"/></linearGradient></defs>
<rect width="96" height="96" rx="18" fill="url(#bg166)"/><path d="M38 0h20l12 64h-44z" fill="url(#bg166s)"/><path d="M8 66h80v12a17 17 0 0 1-17 16h-46a17 17 0 0 1-17-16z" fill="#7a5533"/><path d="M8 66h80v3h-80z" fill="#956a41"/><g><path d="M39.35 61.2l-4 -7M52.65 61.2l4 -7" stroke="#f2c9a4" stroke-width="3.04" stroke-linecap="round"/><path d="M39.825 58.35h12.35v14.25h-12.35z" fill="#2b6bd8"/><path d="M42.58 72.6v9.5M49.42 72.6v9.5" stroke="#2b3a55" stroke-width="3.9899999999999998" stroke-linecap="round"/><circle cx="46" cy="51.7" r="7.6" fill="#f2c9a4"/><path d="M39.0555 48.888c1.3-7 16-7 17.2 0l-2.2-1.2.5 2.1c-4.8-2.6-9.6-2.6-13-.5z" fill="#3d2b1f"/><path d="M42.2855 52.346000000000004c1-1.4 2.6-1.4 3.6 0M46.8075 52.346000000000004c1-1.4 2.6-1.4 3.6 0" stroke="#2b1d12" stroke-width="1.04975" fill="none" stroke-linecap="round"/><path d="M44.2235 55.0915a2.4225 2.4225 0 0 0 3.5530000000000004 0" stroke="#b06e4a" stroke-width="0.8882500000000001" fill="none" stroke-linecap="round"/><circle cx="41.478" cy="54.1225" r="1.009375" fill="#f0a08a" opacity=".7"/><circle cx="50.522" cy="54.1225" r="1.009375" fill="#f0a08a" opacity=".7"/></g><g><circle cx="34" cy="26" r="4.8999999999999995" fill="#ffd75e" stroke="#e8b23d" stroke-width="1.1199999999999999"/><circle cx="34" cy="26" r="1.54" fill="none" stroke="#e8b23d" stroke-width="0.9799999999999999"/></g><g><circle cx="48" cy="18" r="4.4" fill="#fff" stroke="#c3cddf"/><path d="M48 16.13l1.7600000000000002 1.265-0.66 2.09h-2.2l-0.66-2.09z" fill="#2b3a55"/><path d="M48 16.13v-2.4200000000000004M49.76 17.395l2.2-0.77M46.24 17.395l-2.2-0.77M49.1 19.485l1.4300000000000002 1.87M46.9 19.485l-1.4300000000000002 1.87" stroke="#2b3a55" stroke-width="0.7150000000000001"/></g><g><circle cx="62" cy="26" r="4.8999999999999995" fill="#ffd75e" stroke="#e8b23d" stroke-width="1.1199999999999999"/><circle cx="62" cy="26" r="1.54" fill="none" stroke="#e8b23d" stroke-width="0.9799999999999999"/></g>
</svg>
