<svg xmlns="http://www.w3.org/2000/svg" width="96" height="96" viewBox="0 0 96 96">
<defs><linearGradient id="bg167" x1="0" y1="0" x2="0" y2="1"><stop offset="0" stop-color="#bfe0ff"/><stop offset="1" stop-color="#8ec3f5"/></linearGradient></defs>
<rect width="96" height="96" rx="18" fill="url(#bg167)"/><g fill="#fff" opacity=".9"><ellipse cx="24" cy="20" rx="11" ry="5"/><ellipse cx="33" cy="17" rx="8" ry="4.4"/><ellipse cx="72" cy="30" rx="9" ry="4"/></g><path d="M4 74h88v8a14 14 0 0 1-14 12h-60a14 14 0 0 1-14-12z" fill="#5a6478"/><path d="M12 80h10M32 80h10M52 80h10M72 80h10" stroke="#aab4c8" stroke-width="2.4" stroke-linecap="round"/><g><rect x="25" y="46" width="22" height="18" rx="2.6" fill="#c98d4e"/><path d="M25 53h22" stroke="#a5713a" stroke-width="1.6"/><path d="M32 46v-3.4a2 2 0 0 1 2-2h4a2 2 0 0 1 2 2v3.4" stroke="#a5713a" stroke-width="2" fill="none"/></g><g><rect x="53.75" y="53.5" width="16.5" height="13.5" rx="1.9500000000000002" fill="#c98d4e"/><path d="M53.75 58.75h16.5" stroke="#a5713a" stroke-width="1.2000000000000002"/><path d="M59 53.5v-2.55a1.5 1.5 0 0 1 1.5-1.5h3a1.5 1.5 0 0 1 1.5 1.5v2.55" stroke="#a5713a" stroke-width="1.5" fill="none"/></g><g><path d="M77.5 24.4a4.95 4.95 0 1 1 6.75 4.5c-2 .9-3 2-3 4" stroke="#0047ab" stroke-width="2.3400000000000003" fill="none" stroke-linecap="round"/><circle cx="81.55" cy="36.1" r="1.4400000000000002" fill="#0047ab"/></g>
</svg>
