<svg xmlns="http://www.w3.org/2000/svg" width="96" height="96" viewBox="0 0 96 96">
<defs><linearGradient id="bg168" x1="0" y1="0" x2="0" y2="1"><stop offset="0" stop-color="#3a2f68"/><stop offset="1" stop-color="#1c1740"/></linearGradient></defs>
<rect width="96" height="96" rx="18" fill="url(#bg168)"/><circle cx="18" cy="16" r="1.4" fill="#fff"/><circle cx="60" cy="12" r="1.1" fill="#fff"/><circle cx="84" cy="24" r="1.2" fill="#fff"/><path d="M8 64h80v14a16 16 0 0 1-16 16h-48a16 16 0 0 1-16-16z" fill="#a57847"/><path d="M8 64h80v3h-80z" fill="#8a5f36"/><g transform="rotate(-5 34 60)"><rect x="23.2" y="54.15" width="21.6" height="11.700000000000001" rx="1.4400000000000002" fill="#fdfaf2"/><path d="M34 54.15v11.700000000000001" stroke="#d8d2c2" stroke-width="1.08"/><path d="M25.9 57.75h5.4M25.9 60.45h5.4M36.7 57.75h5.4M36.7 60.45h5.4" stroke="#b9c3d6" stroke-width="1.1700000000000002" stroke-linecap="round"/></g><g transform="rotate(-6 60 52)"><rect x="49.6" y="45.2" width="20.8" height="13.600000000000001" rx="2" fill="#fdfaf2"/><path d="M52.8 49.2h14.4M52.8 52.4h14.4M52.8 55.6h9.600000000000001" stroke="#b9c3d6" stroke-width="1.5" stroke-linecap="round"/></g><g><rect x="82" y="58" width="2.7" height="10.8" rx="1.35" fill="#f2a83d" transform="rotate(-30 82 58)"/><path d="M77.5 67l-2.3400000000000003 3.24 3.87 .5z" fill="#3d2b1f"/></g>
</svg>
