<svg xmlns="http://www.w3.org/2000/svg" width="96" height="96" viewBox="0 0 96 96">
<defs><linearGradient id="bg169" x1="0" y1="0" x2="0" y2="1"><stop offset="0" stop-color="#bfe0ff"/><stop offset="1" stop-color="#8ec3f5"/></linearGradient></defs>
<rect width="96" height="96" rx="18" fill="url(#bg169)"/><g fill="#fff" opacity=".9"><ellipse cx="24" cy="20" rx="11" ry="5"/><ellipse cx="33" cy="17" rx="8" ry="4.4"/><ellipse cx="72" cy="30" rx="9" ry="4"/></g><path d="M8 64h80v14a16 16 0 0 1-16 16h-48a16 16 0 0 1-16-16z" fill="#a57847"/><path d="M8 64h80v3h-80z" fill="#8a5f36"/><g><path d="M25.35 61.2l-3.4 8M38.65 61.2l3.4 8" stroke="#f2c9a4" stroke-width="3.04" stroke-linecap="round"/><path d="M25.825 58.35h12.35v14.25h-12.35z" fill="#2b6bd8"/><path d="M28.58 72.6v9.5M35.42 72.6v9.5" stroke="#2b3a55" stroke-width="3.9899999999999998" stroke-linecap="round"/><circle cx="32" cy="51.7" r="7.6" fill="#f2c9a4"/><path d="M25.055500000000002 48.888c1.3-7 16-7 17.2 0l-2.2-1.2.5 2.1c-4.8-2.6-9.6-2.6-13-.5z" fill="#3d2b1f"/><path d="M28.2855 52.346000000000004c1-1.4 2.6-1.4 3.6 0M32.8075 52.346000000000004c1-1.4 2.6-1.4 3.6 0" stroke="#2b1d12" stroke-width="1.04975" fill="none" stroke-linecap="round"/><path d="M30.2235 55.0915a2.4225 2.4225 0 0 0 3.5530000000000004 0" stroke="#b06e4a" stroke-width="0.8882500000000001" fill="none" stroke-linecap="round"/><circle cx="27.478" cy="54.1225" r="1.009375" fill="#f0a08a" opacity=".7"/><circle cx="36.522" cy="54.1225" r="1.009375" fill="#f0a08a" opacity=".7"/></g><g transform="rotate(-5 64 58)"><rect x="53.8" y="52.475" width="20.4" height="11.049999999999999" rx="1.36" fill="#fdfaf2"/><path d="M64 52.475v11.049999999999999" stroke="#d8d2c2" stroke-width="1.02"/><path d="M56.35 55.875h5.1M56.35 58.425h5.1M66.55 55.875h5.1M66.55 58.425h5.1" stroke="#b9c3d6" stroke-width="1.105" stroke-linecap="round"/></g><g stroke="#9db8e8" stroke-width="1.8" stroke-linecap="round" stroke-linejoin="round" fill="none"><path d="M80 28h5.4l-5.4 5.4h5.4"/><path d="M89.9 20.8h3.9600000000000004l-3.9600000000000004 3.9600000000000004h3.9600000000000004" opacity=".8"/></g>
</svg>
