<svg xmlns="http://www.w3.org/2000/svg" width="96" height="96" viewBox="0 0 96 96">
<defs><linearGradient id="bg169" x1="0" y1="0" x2="0" y2="1"><stop offset="0" stop-color="#fff2d8"/><stop offset="1" stop-color="#ffdda6"/></linearGradient></defs>
<rect width="96" height="96" rx="18" fill="url(#bg169)"/><path d="M8 64h80v14a16 16 0 0 1-16 16h-48a16 16 0 0 1-16-16z" fill="#a57847"/><path d="M8 64h80v3h-80z" fill="#8a5f36"/><g><path d="M34 42l11 18h-22z" fill="#fff" stroke="#39445c" stroke-width="2.2" stroke-linejoin="round"/><rect x="29.5" y="52" width="9" height="8" rx="1.2" fill="#39445c"/></g><g><path d="M54 46.7l9.35 15.299999999999999h-18.7z" fill="#fff" stroke="#39445c" stroke-width="1.87" stroke-linejoin="round"/><rect x="50.175" y="55.2" width="7.6499999999999995" height="6.8" rx="1.02" fill="#39445c"/></g><g><path d="M72 51.4l7.699999999999999 12.6h-15.399999999999999z" fill="#fff" stroke="#39445c" stroke-width="1.54" stroke-linejoin="round"/><rect x="68.85" y="58.4" width="6.3" height="5.6" rx="0.84" fill="#39445c"/></g>
</svg>
