<svg xmlns="http://www.w3.org/2000/svg" width="96" height="96" viewBox="0 0 96 96">
<defs><linearGradient id="bg171" x1="0" y1="0" x2="0" y2="1"><stop offset="0" stop-color="#c8d8ef"/><stop offset="1" stop-color="#9fb6d9"/></linearGradient></defs>
<rect width="96" height="96" rx="18" fill="url(#bg171)"/><g fill="#fff"><circle cx="18" cy="16" r="2"/><circle cx="42" cy="10" r="1.6"/><circle cx="66" cy="18" r="2"/><circle cx="84" cy="10" r="1.5"/><circle cx="30" cy="30" r="1.6"/><circle cx="56" cy="26" r="1.4"/><circle cx="78" cy="32" r="1.7"/><circle cx="12" cy="42" r="1.5"/><circle cx="88" cy="48" r="1.4"/></g><path d="M4 72h88v10a14 14 0 0 1-14 12h-60a14 14 0 0 1-14-12z" fill="#eef4fb"/><ellipse cx="30" cy="74" rx="16" ry="3" fill="#dce8f5"/><ellipse cx="70" cy="76" rx="12" ry="2.6" fill="#dce8f5"/><g stroke="#2b3a55" stroke-width="2.28" fill="none"><circle cx="32.6" cy="66" r="7.6"/><circle cx="55.4" cy="66" r="7.6"/><path d="M32.6 66l6.6499999999999995-11.399999999999999h8.549999999999999l7.6 11.399999999999999M39.25 54.6l-3.8-2.8499999999999996h5.699999999999999M47.8 54.6l-3.8 11.399999999999999"/><path d="M45.9 50.325h5.699999999999999" stroke-linecap="round"/></g>
</svg>
