<svg xmlns="http://www.w3.org/2000/svg" width="96" height="96" viewBox="0 0 96 96">
<defs><linearGradient id="bg172" x1="0" y1="0" x2="0" y2="1"><stop offset="0" stop-color="#bfe0ff"/><stop offset="1" stop-color="#8ec3f5"/></linearGradient></defs>
<rect width="96" height="96" rx="18" fill="url(#bg172)"/><g fill="#fff" opacity=".9"><ellipse cx="24" cy="20" rx="11" ry="5"/><ellipse cx="33" cy="17" rx="8" ry="4.4"/><ellipse cx="72" cy="30" rx="9" ry="4"/></g><path d="M8 68h80v10a16 16 0 0 1-16 16h-48a16 16 0 0 1-16-16z" fill="#c99a63"/><path d="M8 68h80v3h-80z" fill="#a87e4e"/><path d="M20 78h20M56 82h22" stroke="#b3854f" stroke-width="1.6"/><g><g fill="#f4f7fc"><ellipse cx="26" cy="84" rx="3.08" ry="4.8999999999999995" transform="rotate(-18 26 84)"/><ellipse cx="34.4" cy="77.7" rx="3.08" ry="4.8999999999999995" transform="rotate(12 34.4 77.7)"/></g><g fill="#ff9d9d"><ellipse cx="43.5" cy="72.1" rx="3.08" ry="4.8999999999999995" transform="rotate(-12 43.5 72.1)"/><ellipse cx="52.599999999999994" cy="66.5" rx="3.08" ry="4.8999999999999995" transform="rotate(14 52.599999999999994 66.5)"/></g></g><g><circle cx="76" cy="20" r="6.8" fill="#ffd75e"/><path d="M76 8.950000000000001v3.74M76 27.31v3.74M64.95 20h3.74M83.31 20h3.74M67.925 11.925l2.55 2.55M81.525 25.525l2.55 2.55M84.075 11.925l-2.55 2.55M70.475 25.525l-2.55 2.55" stroke="#ffd75e" stroke-width="2.04" stroke-linecap="round"/></g><g stroke="#9db8e8" stroke-width="1.6" stroke-linecap="round" stroke-linejoin="round" fill="none"><path d="M18 32h4.800000000000001l-4.800000000000001 4.800000000000001h4.800000000000001"/><path d="M26.8 25.6h3.5200000000000005l-3.5200000000000005 3.5200000000000005h3.5200000000000005" opacity=".8"/></g>
</svg>
