<svg xmlns="http://www.w3.org/2000/svg" width="96" height="96" viewBox="0 0 96 96">
<defs><linearGradient id="bg173" x1="0" y1="0" x2="0" y2="1"><stop offset="0" stop-color="#bfe0ff"/><stop offset="1" stop-color="#8ec3f5"/></linearGradient></defs>
<rect width="96" height="96" rx="18" fill="url(#bg173)"/><g fill="#fff" opacity=".9"><ellipse cx="24" cy="20" rx="11" ry="5"/><ellipse cx="33" cy="17" rx="8" ry="4.4"/><ellipse cx="72" cy="30" rx="9" ry="4"/></g><path d="M4 74h88v8a14 14 0 0 1-14 12h-60a14 14 0 0 1-14-12z" fill="#5a6478"/><path d="M12 80h10M32 80h10M52 80h10M72 80h10" stroke="#aab4c8" stroke-width="2.4" stroke-linecap="round"/><g><rect x="21.3" y="42.900000000000006" width="49.4" height="19" rx="4.75" fill="#e8edf5"/><rect x="21.3" y="42.900000000000006" width="49.4" height="5.699999999999999" rx="2.8499999999999996" fill="#0a58c8"/><rect x="27" y="50.5" width="8.549999999999999" height="6.6499999999999995" rx="1.6" fill="#9dc1f5"/><rect x="40.3" y="50.5" width="8.549999999999999" height="6.6499999999999995" rx="1.6" fill="#9dc1f5"/><rect x="53.6" y="50.5" width="8.549999999999999" height="6.6499999999999995" rx="1.6" fill="#9dc1f5"/><circle cx="32.7" cy="63.8" r="3.23" fill="#2b3a55"/><circle cx="57.4" cy="63.8" r="3.23" fill="#2b3a55"/><path d="M74.5 46.7h4.75M73.55 52.4h6.6499999999999995" stroke="#c3cddf" stroke-width="1.9" stroke-linecap="round"/></g><g><rect x="82.4" y="16" width="3.2" height="12" rx="1.6" fill="#ef6f6f"/><circle cx="84" cy="32" r="1.9" fill="#ef6f6f"/></g>
</svg>
