<svg xmlns="http://www.w3.org/2000/svg" width="96" height="96" viewBox="0 0 96 96">
<defs><linearGradient id="bg174" x1="0" y1="0" x2="0" y2="1"><stop offset="0" stop-color="#1a2f5e"/><stop offset="1" stop-color="#0d1b3d"/></linearGradient><linearGradient id="bg174s" x1="0" y1="0" x2="0" y2="1"><stop offset="0" stop-color="#fff8dc" stop-opacity=".75"/><stop offset="1" stop-color="#fff8dc" stop-opacity=".05"/></linearGradient></defs>
<rect width="96" height="96" rx="18" fill="url(#bg174)"/><path d="M38 0h20l12 64h-44z" fill="url(#bg174s)"/><path d="M8 68h80v10a16 16 0 0 1-16 16h-48a16 16 0 0 1-16-16z" fill="#c99a63"/><path d="M8 68h80v3h-80z" fill="#a87e4e"/><path d="M20 78h20M56 82h22" stroke="#b3854f" stroke-width="1.6"/><g fill="#20264a"><path d="M10 88c1-5.6000000000000005 3.2-8.8 6.4-8.8s5.6000000000000005 3.2 6.4 8.8z"/><path d="M23.6 88c1-5.6000000000000005 3.2-8.8 6.4-8.8s5.6000000000000005 3.2 6.4 8.8z"/><path d="M37.2 88c1-5.6000000000000005 3.2-8.8 6.4-8.8s5.6000000000000005 3.2 6.4 8.8z"/><path d="M50.800000000000004 88c1-5.6000000000000005 3.2-8.8 6.4-8.8s5.6000000000000005 3.2 6.4 8.8z"/><path d="M64.4 88c1-5.6000000000000005 3.2-8.8 6.4-8.8s5.6000000000000005 3.2 6.4 8.8z"/></g><path d="M14.8 77.6l0.8-3.2M28.400000000000002 77.6l0.8-3.2M42 77.6l0.8-3.2M55.60000000000001 77.6l0.8-3.2M69.2 77.6l0.8-3.2" stroke="#20264a" stroke-width="2.4000000000000004" stroke-linecap="round"/><path d="M48 20l1.8 3.7 4 .6-2.9 2.8 .7 4-3.6-1.9-3.6 1.9 .7-4-2.9-2.8 4-.6z" fill="#ffd75e"/><g><rect x="64" y="10" width="3" height="6" rx="1.5" fill="#ff8f6b" transform="rotate(25 64 10)"/><rect x="84.8" y="16.4" width="3" height="6" rx="1.5" fill="#6bd0ff" transform="rotate(-30 84.8 16.4)"/><rect x="72" y="30.8" width="3" height="6" rx="1.5" fill="#8affc1" transform="rotate(40 72 30.8)"/><circle cx="88" cy="29.200000000000003" r="1.6" fill="#ffd75e"/></g>
</svg>
