<svg xmlns="http://www.w3.org/2000/svg" width="96" height="96" viewBox="0 0 96 96">
<defs><linearGradient id="bg175" x1="0" y1="0" x2="0" y2="1"><stop offset="0" stop-color="#bfe0ff"/><stop offset="1" stop-color="#8ec3f5"/></linearGradient></defs>
<rect width="96" height="96" rx="18" fill="url(#bg175)"/><g fill="#fff" opacity=".9"><ellipse cx="24" cy="20" rx="11" ry="5"/><ellipse cx="33" cy="17" rx="8" ry="4.4"/><ellipse cx="72" cy="30" rx="9" ry="4"/></g><path d="M8 64h80v14a16 16 0 0 1-16 16h-48a16 16 0 0 1-16-16z" fill="#a57847"/><path d="M8 64h80v3h-80z" fill="#8a5f36"/><g><rect x="20.8" y="34.6" width="30.4" height="22.799999999999997" rx="1.9" fill="#fdfaf2" stroke="#b98a5a" stroke-width="2.28"/><path d="M25.55 40.3h20.9M25.55 46h20.9M25.55 51.7h13.299999999999999" stroke="#b9c3d6" stroke-width="1.71" stroke-linecap="round"/><circle cx="45.5" cy="38.02" r="1.52" fill="#e05555"/></g><g><rect x="66" y="58" width="11" height="3.4" rx="1.7" fill="#fff" transform="rotate(-8 66 58)"/><rect x="68" y="63" width="11" height="3.4" rx="1.7" fill="#ffd0d0" transform="rotate(4 68 63)"/><rect x="65" y="68" width="11" height="3.4" rx="1.7" fill="#cfe3ff" transform="rotate(-3 65 68)"/></g>
</svg>
