<svg xmlns="http://www.w3.org/2000/svg" width="96" height="96" viewBox="0 0 96 96">
<defs><linearGradient id="bg176" x1="0" y1="0" x2="0" y2="1"><stop offset="0" stop-color="#fff2d8"/><stop offset="1" stop-color="#ffdda6"/></linearGradient></defs>
<rect width="96" height="96" rx="18" fill="url(#bg176)"/><path d="M8 64h80v14a16 16 0 0 1-16 16h-48a16 16 0 0 1-16-16z" fill="#a57847"/><path d="M8 64h80v3h-80z" fill="#8a5f36"/><g><rect x="28.35" y="39.6" width="27.3" height="17.85" rx="3.1500000000000004" fill="#39445c"/><rect x="37.8" y="36.45" width="9.450000000000001" height="4.2" rx="1.47" fill="#39445c"/><circle cx="42" cy="48.525" r="5.88" fill="#9dc1f5" stroke="#22304a" stroke-width="1.6800000000000002"/><circle cx="43.89" cy="46.53" r="1.47" fill="#fff" opacity=".9"/><circle cx="51.45" cy="43.379999999999995" r="1.3650000000000002" fill="#ffd75e"/></g><g><rect x="70.48" y="18.5" width="3.04" height="11.399999999999999" rx="1.52" fill="#ef6f6f"/><circle cx="72" cy="33.7" r="1.805" fill="#ef6f6f"/></g>
</svg>
