<svg xmlns="http://www.w3.org/2000/svg" width="96" height="96" viewBox="0 0 96 96">
<defs><linearGradient id="bg145" x1="0" y1="0" x2="0" y2="1"><stop offset="0" stop-color="#bfe0ff"/><stop offset="1" stop-color="#8ec3f5"/></linearGradient></defs>
<rect width="96" height="96" rx="18" fill="url(#bg145)"/><g fill="#fff" opacity=".9"><ellipse cx="24" cy="20" rx="11" ry="5"/><ellipse cx="33" cy="17" rx="8" ry="4.4"/><ellipse cx="72" cy="30" rx="9" ry="4"/></g><path d="M8 68h80v10a16 16 0 0 1-16 16h-48a16 16 0 0 1-16-16z" fill="#c99a63"/><path d="M8 68h80v3h-80z" fill="#a87e4e"/><path d="M20 78h20M56 82h22" stroke="#b3854f" stroke-width="1.6"/><g><rect x="14.555" y="27.6" width="2.8899999999999997" height="54.4" rx="1.4449999999999998" fill="#3a3f55"/><path d="M17.445 31 C 26.2 27.6, 36.4 34.4, 44.9 31 S 55.1 29.300000000000004, 55.1 29.300000000000004 L 55.1 48 C 46.599999999999994 51.400000000000006, 36.4 44.6, 27.9 48 S 17.445 49.7, 17.445 49.7 Z" fill="#0a58c8"/><path d="M24.5 34.4l1.53 3.145 3.4 .6-2.465 2.38 .7 3.4-3.06-1.615-3.06 1.615 .7-3.4-2.465-2.38 3.4-.6z" fill="#fff"/></g><g><path d="M58.5 25.6a6.050000000000001 6.050000000000001 0 1 1 8.25 5.5c-2 .9-3 2-3 4" stroke="#0047ab" stroke-width="2.8600000000000003" fill="none" stroke-linecap="round"/><circle cx="63.45" cy="39.9" r="1.7600000000000002" fill="#0047ab"/></g><g><path d="M74.15 47.45h11.700000000000001a2.6 2.6 0 0 1 2.6 2.6v3.25a2.6 2.6 0 0 1-2.6 2.6h-6.5l-3.25 3.25v-3.25h-1.9500000000000002a2.6 2.6 0 0 1-2.6-2.6v-3.25a2.6 2.6 0 0 1 2.6-2.6z" fill="#fff" stroke="#3b82f6" stroke-width="1.1700000000000002"/><path d="M78.44 50.96a1.6900000000000002 1.6900000000000002 0 1 1 2.3400000000000003 1.56c-0.65 .4-0.78 0.5850000000000001-0.78 1.1700000000000002" stroke="#3b82f6" stroke-width="0.9750000000000001" fill="none" stroke-linecap="round"/><circle cx="80" cy="54.86" r="0.5850000000000001" fill="#3b82f6"/></g>
</svg>
