<svg xmlns="http://www.w3.org/2000/svg" width="96" height="96" viewBox="0 0 96 96">
<defs><linearGradient id="bg148" x1="0" y1="0" x2="0" y2="1"><stop offset="0" stop-color="#1a2f5e"/><stop offset="1" stop-color="#0d1b3d"/></linearGradient><linearGradient id="bg148s" x1="0" y1="0" x2="0" y2="1"><stop offset="0" stop-color="#fff8dc" stop-opacity=".75"/><stop offset="1" stop-color="#fff8dc" stop-opacity=".05"/></linearGradient></defs>
<rect width="96" height="96" rx="18" fill="url(#bg148)"/><path d="M38 0h20l12 64h-44z" fill="url(#bg148s)"/><path d="M8 66h80v12a17 17 0 0 1-17 16h-46a17 17 0 0 1-17-16z" fill="#7a5533"/><path d="M8 66h80v3h-80z" fill="#956a41"/><g><circle cx="40" cy="54" r="9.5" fill="#f2c9a4"/><path d="M31.4 51l1.6-3.4 2 2 1.8-3.4 2 2.4 1.8-3 1.8 3 2-2.4 1.8 3.4 2-2 1.6 3.4c-5.6-2.6-13-2.6-18.4 0z" fill="#2b2118"/><circle cx="36.8" cy="54.6" r="0.95" fill="#2b1d12"/><circle cx="43.2" cy="54.6" r="0.95" fill="#2b1d12"/><path d="M38 58.6h4" stroke="#b06e4a" stroke-width="1.1" stroke-linecap="round"/><circle cx="34.4" cy="57" r="1.25" fill="#f0a08a" opacity=".7"/><circle cx="45.6" cy="57" r="1.25" fill="#f0a08a" opacity=".7"/><path d="M28 71c1-6.5 5.5-9.5 12-9.5s11 3 12 9.5z" fill="#2b6bd8"/></g><g stroke="#ffd75e" stroke-width="2.16" stroke-linecap="round"><path d="M70 26l4.5 1.8M68.2 35h5.4M71.8 44l4.5-1.8"/></g><g stroke="#7d95bd" stroke-width="2.16" stroke-linecap="round"><path d="M14 28l3.6 2.7M15.8 37l3.6-0.9M14 45.1l3.6-3.6"/></g>
</svg>
