<svg xmlns="http://www.w3.org/2000/svg" width="96" height="96" viewBox="0 0 96 96">
<defs><linearGradient id="bg149" x1="0" y1="0" x2="0" y2="1"><stop offset="0" stop-color="#bfe0ff"/><stop offset="1" stop-color="#8ec3f5"/></linearGradient></defs>
<rect width="96" height="96" rx="18" fill="url(#bg149)"/><g fill="#fff" opacity=".9"><ellipse cx="24" cy="20" rx="11" ry="5"/><ellipse cx="33" cy="17" rx="8" ry="4.4"/><ellipse cx="72" cy="30" rx="9" ry="4"/></g><path d="M4 74h88v8a14 14 0 0 1-14 12h-60a14 14 0 0 1-14-12z" fill="#5a6478"/><path d="M12 80h10M32 80h10M52 80h10M72 80h10" stroke="#aab4c8" stroke-width="2.4" stroke-linecap="round"/><g><circle cx="38" cy="58" r="6.5" fill="#f2c9a4"/><path d="M31.98 55.480000000000004c1.3-7 16-7 17.2 0l-2.2-1.2.5 2.1c-4.8-2.6-9.6-2.6-13-.5z" fill="#3d2b1f"/><circle cx="35.76" cy="58.42" r="0.6649999999999999" fill="#2b1d12"/><circle cx="40.24" cy="58.42" r="0.6649999999999999" fill="#2b1d12"/><ellipse cx="38" cy="61.08" rx="1.19" ry="1.54" fill="#b06e4a"/><circle cx="34.08" cy="60.1" r="0.875" fill="#f0a08a" opacity=".7"/><circle cx="41.92" cy="60.1" r="0.875" fill="#f0a08a" opacity=".7"/><path d="M33 65c1-3 3-4.5 5.5-4.5 2.4 0 4.4 1.8 5 5l0.4 6-3.2 1-2.2-5-2.2 6-3.6 3.2z" fill="#e05555"/><path d="M33.4 78l-5 8 3.8 1 4.8-6.4M38 80l1 8.6 3.8-.5.5-8.6" fill="none" stroke="#f2c9a4" stroke-width="3.6" stroke-linecap="round"/><path d="M24 64h5M22 70h6M25 76h4.6" stroke="#9db8e8" stroke-width="2" stroke-linecap="round"/></g><g><circle cx="72" cy="24" r="9.9" fill="#fff" stroke="#0047ab" stroke-width="2.7"/><path d="M72 18.15v5.8500000000000005l4.14 2.7" stroke="#e34d4d" stroke-width="2.3400000000000003" fill="none" stroke-linecap="round"/><circle cx="72" cy="24" r="1.4400000000000002" fill="#0047ab"/></g>
</svg>
