<svg xmlns="http://www.w3.org/2000/svg" width="96" height="96" viewBox="0 0 96 96">
<defs><linearGradient id="bg150" x1="0" y1="0" x2="0" y2="1"><stop offset="0" stop-color="#ffb36b"/><stop offset=".55" stop-color="#e77e6a"/><stop offset="1" stop-color="#5a4f9e"/></linearGradient><radialGradient id="bg150u" cx=".5" cy=".5" r=".5"><stop offset="0" stop-color="#fff0b3"/><stop offset="1" stop-color="#fff0b3" stop-opacity="0"/></radialGradient></defs>
<rect width="96" height="96" rx="18" fill="url(#bg150)"/><circle cx="76" cy="28" r="16" fill="url(#bg150u)"/><circle cx="76" cy="28" r="6.5" fill="#ffdd88"/><path d="M8 68h80v10a16 16 0 0 1-16 16h-48a16 16 0 0 1-16-16z" fill="#c99a63"/><path d="M8 68h80v3h-80z" fill="#a87e4e"/><path d="M20 78h20M56 82h22" stroke="#b3854f" stroke-width="1.6"/><g transform="rotate(-14 38 46)"><path d="M26 41.2l16.8-7.199999999999999v24l-16.8-7.199999999999999z" fill="#e05555"/><rect x="21.2" y="41.2" width="6" height="9.6" rx="1.92" fill="#b23a3a"/><path d="M47.6 36.4l6-3.5999999999999996M48.8 46h7.199999999999999M47.6 55.6l6 3.5999999999999996" stroke="#ffd75e" stroke-width="2.64" stroke-linecap="round"/></g><g fill="#20264a"><path d="M14 88c1-4.2 2.4-6.6 4.8-6.6s4.2 2.4 4.8 6.6z"/><path d="M24.2 88c1-4.2 2.4-6.6 4.8-6.6s4.2 2.4 4.8 6.6z"/><path d="M34.4 88c1-4.2 2.4-6.6 4.8-6.6s4.2 2.4 4.8 6.6z"/><path d="M44.599999999999994 88c1-4.2 2.4-6.6 4.8-6.6s4.2 2.4 4.8 6.6z"/><path d="M54.8 88c1-4.2 2.4-6.6 4.8-6.6s4.2 2.4 4.8 6.6z"/></g><path d="M17.6 80.2l0.6-2.4M27.8 80.2l0.6-2.4M38 80.2l0.6-2.4M48.2 80.2l0.6-2.4M58.4 80.2l0.6-2.4" stroke="#20264a" stroke-width="1.7999999999999998" stroke-linecap="round"/><g><rect x="74.4" y="16" width="3.2" height="12" rx="1.6" fill="#ffd75e"/><circle cx="76" cy="32" r="1.9" fill="#ffd75e"/></g>
</svg>
