<svg xmlns="http://www.w3.org/2000/svg" width="96" height="96" viewBox="0 0 96 96">
<defs><linearGradient id="bg151" x1="0" y1="0" x2="0" y2="1"><stop offset="0" stop-color="#fff2d8"/><stop offset="1" stop-color="#ffdda6"/></linearGradient></defs>
<rect width="96" height="96" rx="18" fill="url(#bg151)"/><path d="M8 64h80v14a16 16 0 0 1-16 16h-48a16 16 0 0 1-16-16z" fill="#a57847"/><path d="M8 64h80v3h-80z" fill="#8a5f36"/><g transform="rotate(-6 36 50)"><rect x="23.65" y="41.925" width="24.7" height="16.15" rx="2" fill="#fdfaf2"/><path d="M27.450000000000003 46.675h17.099999999999998M27.450000000000003 50.475h17.099999999999998M27.450000000000003 54.275h11.399999999999999" stroke="#b9c3d6" stroke-width="1.5" stroke-linecap="round"/></g><g><circle cx="66" cy="30" r="9.9" fill="#fff" stroke="#0047ab" stroke-width="2.7"/><path d="M66 24.15v5.8500000000000005l4.14-1.8" stroke="#0047ab" stroke-width="2.3400000000000003" fill="none" stroke-linecap="round"/><circle cx="66" cy="30" r="1.4400000000000002" fill="#0047ab"/></g><path d="M84 52l1.26 2.59 2.8 .6-2.03 1.9599999999999997 .7 2.8-2.52-1.3299999999999998-2.52 1.3299999999999998 .7-2.8-2.03-1.9599999999999997 2.8-.6z" fill="#ffd75e"/>
</svg>
