<svg xmlns="http://www.w3.org/2000/svg" width="96" height="96" viewBox="0 0 96 96">
<defs><linearGradient id="bg152" x1="0" y1="0" x2="0" y2="1"><stop offset="0" stop-color="#bfe0ff"/><stop offset="1" stop-color="#8ec3f5"/></linearGradient></defs>
<rect width="96" height="96" rx="18" fill="url(#bg152)"/><g fill="#fff" opacity=".9"><ellipse cx="24" cy="20" rx="11" ry="5"/><ellipse cx="33" cy="17" rx="8" ry="4.4"/><ellipse cx="72" cy="30" rx="9" ry="4"/></g><path d="M8 64h80v14a16 16 0 0 1-16 16h-48a16 16 0 0 1-16-16z" fill="#a57847"/><path d="M8 64h80v3h-80z" fill="#8a5f36"/><g><rect x="22" y="36" width="32" height="24" rx="2" fill="#fdfaf2" stroke="#b98a5a" stroke-width="2.4"/><path d="M27 42h22M27 48h22M27 54h14" stroke="#b9c3d6" stroke-width="1.8" stroke-linecap="round"/><circle cx="48" cy="39.6" r="1.6" fill="#e05555"/></g><g><path d="M66.5 21.6a6.050000000000001 6.050000000000001 0 1 1 8.25 5.5c-2 .9-3 2-3 4" stroke="#0047ab" stroke-width="2.8600000000000003" fill="none" stroke-linecap="round"/><circle cx="71.45" cy="35.9" r="1.7600000000000002" fill="#0047ab"/></g>
</svg>
