<svg xmlns="http://www.w3.org/2000/svg" width="96" height="96" viewBox="0 0 96 96">
<defs><linearGradient id="bg153" x1="0" y1="0" x2="0" y2="1"><stop offset="0" stop-color="#3a2f68"/><stop offset="1" stop-color="#1c1740"/></linearGradient></defs>
<rect width="96" height="96" rx="18" fill="url(#bg153)"/><circle cx="18" cy="16" r="1.4" fill="#fff"/><circle cx="60" cy="12" r="1.1" fill="#fff"/><circle cx="84" cy="24" r="1.2" fill="#fff"/><g><circle cx="38" cy="56" r="9.5" fill="#f2c9a4"/><path d="M29.4 52.4c1.3-7 16-7 17.2 0l-2.2-1.2.5 2.1c-4.8-2.6-9.6-2.6-13-.5z" fill="#3d2b1f"/><circle cx="34.8" cy="56.6" r="0.95" fill="#2b1d12"/><circle cx="41.2" cy="56.6" r="0.95" fill="#2b1d12"/><path d="M36 60.6h4" stroke="#b06e4a" stroke-width="1.1" stroke-linecap="round"/><circle cx="32.4" cy="59" r="1.25" fill="#f0a08a" opacity=".7"/><circle cx="43.6" cy="59" r="1.25" fill="#f0a08a" opacity=".7"/><path d="M26 73c1-6.5 5.5-9.5 12-9.5s11 3 12 9.5z" fill="#2b6bd8"/></g><g><path d="M55.9 21.7h16.2a3.6 3.6 0 0 1 3.6 3.6v4.5a3.6 3.6 0 0 1-3.6 3.6h-9l-4.5 4.5v-4.5h-2.7a3.6 3.6 0 0 1-3.6-3.6v-4.5a3.6 3.6 0 0 1 3.6-3.6z" fill="#fff" stroke="#3b82f6" stroke-width="1.62"/><path d="M61.84 26.56a2.3400000000000003 2.3400000000000003 0 1 1 3.24 2.16c-0.9 .4-1.08 0.81-1.08 1.62" stroke="#3b82f6" stroke-width="1.35" fill="none" stroke-linecap="round"/><circle cx="64" cy="31.96" r="0.81" fill="#3b82f6"/></g><g><path d="M14 28.8a4.4 4.4 0 1 1 6 4c-2 .9-3 2-3 4" stroke="#0047ab" stroke-width="2.08" fill="none" stroke-linecap="round"/><circle cx="17.6" cy="39.2" r="1.2800000000000002" fill="#0047ab"/></g>
</svg>
