<svg xmlns="http://www.w3.org/2000/svg" width="96" height="96" viewBox="0 0 96 96">
<defs><linearGradient id="bg154" x1="0" y1="0" x2="0" y2="1"><stop offset="0" stop-color="#1a2f5e"/><stop offset="1" stop-color="#0d1b3d"/></linearGradient><linearGradient id="bg154s" x1="0" y1="0" x2="0" y2="1"><stop offset="0" stop-color="#fff8dc" stop-opacity=".75"/><stop offset="1" stop-color="#fff8dc" stop-opacity=".05"/></linearGradient></defs>
<rect width="96" height="96" rx="18" fill="url(#bg154)"/><path d="M38 0h20l12 64h-44z" fill="url(#bg154s)"/><path d="M8 66h80v12a17 17 0 0 1-17 16h-46a17 17 0 0 1-17-16z" fill="#7a5533"/><path d="M8 66h80v3h-80z" fill="#956a41"/><g><ellipse cx="38" cy="52.5" rx="11.399999999999999" ry="4.369999999999999" fill="#e8edf5"/><path d="M26.6 52.5v11.399999999999999c0 2.4699999999999998 5.13 4.369999999999999 11.399999999999999 4.369999999999999s11.399999999999999-1.9 11.399999999999999-4.369999999999999v-11.399999999999999" fill="#e05555"/><path d="M26.6 54.4l7.6 7.6 7.6-7.6 7.6 7.6" stroke="#ffd75e" stroke-width="1.71" fill="none"/><path d="M32.3 41.1l4.75 8.549999999999999M46.55 42.05l-3.8 8.17" stroke="#8a5f36" stroke-width="1.9" stroke-linecap="round"/><circle cx="31.73" cy="40.150000000000006" r="1.9" fill="#8a5f36"/><circle cx="47.12" cy="41.1" r="1.9" fill="#8a5f36"/></g><g stroke="#ffd75e" stroke-width="2.4" stroke-linecap="round"><path d="M68 26l5 2M66 36h6M70 46l5-2"/></g><g stroke-linecap="round"><path d="M18 32c3 2 3 6 0 8s-3 6 0 8" stroke="#9db8ff" stroke-width="1.9800000000000002" fill="none"/><path d="M27.9 27.5c2.4 1.6 2.4 4.8 0 6.4s-2.4 4.8 0 6.4" stroke="#9db8ff" stroke-width="1.71" fill="none" opacity=".85"/></g>
</svg>
