<svg xmlns="http://www.w3.org/2000/svg" width="96" height="96" viewBox="0 0 96 96">
<defs><linearGradient id="bg155" x1="0" y1="0" x2="0" y2="1"><stop offset="0" stop-color="#bfe0ff"/><stop offset="1" stop-color="#8ec3f5"/></linearGradient></defs>
<rect width="96" height="96" rx="18" fill="url(#bg155)"/><g fill="#fff" opacity=".9"><ellipse cx="24" cy="20" rx="11" ry="5"/><ellipse cx="33" cy="17" rx="8" ry="4.4"/><ellipse cx="72" cy="30" rx="9" ry="4"/></g><path d="M8 68h80v10a16 16 0 0 1-16 16h-48a16 16 0 0 1-16-16z" fill="#c99a63"/><path d="M8 68h80v3h-80z" fill="#a87e4e"/><path d="M20 78h20M56 82h22" stroke="#b3854f" stroke-width="1.6"/><g><circle cx="34" cy="59.3" r="6.175" fill="#f2c9a4"/><path d="M28.281 56.906c1.3-7 16-7 17.2 0l-2.2-1.2.5 2.1c-4.8-2.6-9.6-2.6-13-.5z" fill="#3d2b1f"/><circle cx="31.872" cy="59.699" r="0.6317499999999999" fill="#2b1d12"/><circle cx="36.128" cy="59.699" r="0.6317499999999999" fill="#2b1d12"/><ellipse cx="34" cy="62.226" rx="1.1304999999999998" ry="1.4629999999999999" fill="#b06e4a"/><circle cx="30.276" cy="61.294999999999995" r="0.8312499999999999" fill="#f0a08a" opacity=".7"/><circle cx="37.724" cy="61.294999999999995" r="0.8312499999999999" fill="#f0a08a" opacity=".7"/><path d="M29.25 65.95c0.95-3 2.8499999999999996-4.5 5.225-4.5 2.28 0 4.18 1.71 4.75 4.75l0.38 5.699999999999999-3.04 0.95-2.09-4.75-2.09 5.699999999999999-3.42 3.04z" fill="#e05555"/><path d="M29.630000000000003 78.3l-5 7.6 3.61 0.95 4.56-6.08M34 80.2l0.95 8.17 3.61-.5.5-8.17" fill="none" stroke="#f2c9a4" stroke-width="3.42" stroke-linecap="round"/><path d="M20.700000000000003 65h4.75M18.8 70.7h5.699999999999999M21.65 76.4h4.369999999999999" stroke="#9db8e8" stroke-width="1.9" stroke-linecap="round"/></g><g transform="rotate(-30 64 44)"><rect x="61.36" y="30.799999999999997" width="5.28" height="26.400000000000002" rx="2.64" fill="#ffd75e" stroke="#e8b23d" stroke-width="1.32"/></g><g><rect x="80.56" y="17" width="2.8800000000000003" height="10.8" rx="1.4400000000000002" fill="#ffd75e"/><circle cx="82" cy="31.4" r="1.71" fill="#ffd75e"/></g>
</svg>
