<svg xmlns="http://www.w3.org/2000/svg" width="96" height="96" viewBox="0 0 96 96">
<defs><linearGradient id="bg157" x1="0" y1="0" x2="0" y2="1"><stop offset="0" stop-color="#bfe0ff"/><stop offset="1" stop-color="#8ec3f5"/></linearGradient></defs>
<rect width="96" height="96" rx="18" fill="url(#bg157)"/><g fill="#fff" opacity=".9"><ellipse cx="24" cy="20" rx="11" ry="5"/><ellipse cx="33" cy="17" rx="8" ry="4.4"/><ellipse cx="72" cy="30" rx="9" ry="4"/></g><path d="M4 72h88v10a14 14 0 0 1-14 12h-60a14 14 0 0 1-14-12z" fill="#6ea25f"/><path d="M14 72l2-5M26 72l2-5M44 72l2-5M64 72l2-5M80 72l2-5" stroke="#547f47" stroke-width="2" stroke-linecap="round"/><g><circle cx="44" cy="60" r="8" fill="#fff" stroke="#c3cddf"/><path d="M44 56.6l3.2 2.3-1.2 3.8h-4l-1.2-3.8z" fill="#2b3a55"/><path d="M44 56.6v-4.4M47.2 58.9l4-1.4M40.8 58.9l-4-1.4M46 62.7l2.6 3.4M42 62.7l-2.6 3.4" stroke="#2b3a55" stroke-width="1.3"/></g><g><rect x="70.4" y="18" width="3.2" height="12" rx="1.6" fill="#ffd75e"/><circle cx="72" cy="34" r="1.9" fill="#ffd75e"/></g>
</svg>
