<svg xmlns="http://www.w3.org/2000/svg" width="96" height="96" viewBox="0 0 96 96">
<defs><linearGradient id="bg159" x1="0" y1="0" x2="0" y2="1"><stop offset="0" stop-color="#1a2f5e"/><stop offset="1" stop-color="#0d1b3d"/></linearGradient><linearGradient id="bg159s" x1="0" y1="0" x2="0" y2="1"><stop offset="0" stop-color="#fff8dc" stop-opacity=".75"/><stop offset="1" stop-color="#fff8dc" stop-opacity=".05"/></linearGradient></defs>
<rect width="96" height="96" rx="18" fill="url(#bg159)"/><path d="M38 0h20l12 64h-44z" fill="url(#bg159s)"/><path d="M8 66h80v12a17 17 0 0 1-17 16h-46a17 17 0 0 1-17-16z" fill="#7a5533"/><path d="M8 66h80v3h-80z" fill="#956a41"/><g><rect x="38.67" y="55.3" width="2.6599999999999997" height="24.7" rx="1.3299999999999998" fill="#cfd6e4"/><path d="M32.4 80c0-2.5 3.5-4 8-4s8 1.5 8 4z" fill="#9aa4b8"/><circle cx="40" cy="49.6" r="8.075" fill="#39445c"/><path d="M33.35 47.225h13.299999999999999M32.4 50.075h15.2M33.35 52.925h13.299999999999999" stroke="#5a6880" stroke-width="1.045"/></g><path d="M66 22l1.9800000000000002 4.07 4.4 .6-3.19 3.08 .7 4.4-3.9600000000000004-2.09-3.9600000000000004 2.09 .7-4.4-3.19-3.08 4.4-.6z" fill="#ffd75e"/><g><rect x="16.4" y="18" width="3.2" height="12" rx="1.6" fill="#ffd75e"/><circle cx="18" cy="34" r="1.9" fill="#ffd75e"/></g>
</svg>
