<svg xmlns="http://www.w3.org/2000/svg" width="96" height="96" viewBox="0 0 96 96">
<defs><linearGradient id="bg209" x1="0" y1="0" x2="0" y2="1"><stop offset="0" stop-color="#bfe0ff"/><stop offset="1" stop-color="#8ec3f5"/></linearGradient></defs>
<rect width="96" height="96" rx="18" fill="url(#bg209)"/><g fill="#fff" opacity=".9"><ellipse cx="24" cy="20" rx="11" ry="5"/><ellipse cx="33" cy="17" rx="8" ry="4.4"/><ellipse cx="72" cy="30" rx="9" ry="4"/></g><path d="M8 64h80v14a16 16 0 0 1-16 16h-48a16 16 0 0 1-16-16z" fill="#a57847"/><path d="M8 64h80v3h-80z" fill="#8a5f36"/><g transform="rotate(-6 38 50)"><rect x="25.65" y="41.925" width="24.7" height="16.15" rx="2" fill="#fdfaf2"/><path d="M29.450000000000003 46.675h17.099999999999998M29.450000000000003 50.475h17.099999999999998M29.450000000000003 54.275h11.399999999999999" stroke="#b9c3d6" stroke-width="1.5" stroke-linecap="round"/></g><g><circle cx="68" cy="28" r="9.9" fill="#fff" stroke="#0047ab" stroke-width="2.7"/><path d="M68 22.15v5.8500000000000005l4.14-1.8" stroke="#0047ab" stroke-width="2.3400000000000003" fill="none" stroke-linecap="round"/><circle cx="68" cy="28" r="1.4400000000000002" fill="#0047ab"/></g><g><rect x="82.88" y="43" width="2.2399999999999998" height="8.399999999999999" rx="1.1199999999999999" fill="#ffd75e"/><circle cx="84" cy="54.2" r="1.3299999999999998" fill="#ffd75e"/></g>
</svg>
