<svg xmlns="http://www.w3.org/2000/svg" width="96" height="96" viewBox="0 0 96 96">
<defs><linearGradient id="bg210" x1="0" y1="0" x2="0" y2="1"><stop offset="0" stop-color="#bfe0ff"/><stop offset="1" stop-color="#8ec3f5"/></linearGradient></defs>
<rect width="96" height="96" rx="18" fill="url(#bg210)"/><g fill="#fff" opacity=".9"><ellipse cx="24" cy="20" rx="11" ry="5"/><ellipse cx="33" cy="17" rx="8" ry="4.4"/><ellipse cx="72" cy="30" rx="9" ry="4"/></g><path d="M8 68h80v10a16 16 0 0 1-16 16h-48a16 16 0 0 1-16-16z" fill="#c99a63"/><path d="M8 68h80v3h-80z" fill="#a87e4e"/><path d="M20 78h20M56 82h22" stroke="#b3854f" stroke-width="1.6"/><g><rect x="12.64" y="30.799999999999997" width="2.72" height="51.2" rx="1.36" fill="#3a3f55"/><path d="M15.36 34 C 23.6 30.799999999999997, 33.2 37.199999999999996, 41.2 34 S 50.800000000000004 32.4, 50.800000000000004 32.4 L 50.800000000000004 50 C 42.8 53.2, 33.2 46.8, 25.200000000000003 50 S 15.36 51.599999999999994, 15.36 51.599999999999994 Z" fill="#0a58c8"/><path d="M22 37.199999999999996l1.4400000000000002 2.9600000000000004 3.2 .6-2.32 2.2399999999999998 .7 3.2-2.8800000000000003-1.52-2.8800000000000003 1.52 .7-3.2-2.32-2.2399999999999998 3.2-.6z" fill="#fff"/></g><g><circle cx="74" cy="18" r="6.8" fill="#ffd75e"/><path d="M74 6.950000000000001v3.74M74 25.31v3.74M62.95 18h3.74M81.31 18h3.74M65.925 9.925l2.55 2.55M79.525 23.525l2.55 2.55M82.075 9.925l-2.55 2.55M68.475 23.525l-2.55 2.55" stroke="#ffd75e" stroke-width="2.04" stroke-linecap="round"/></g><g><rect x="54.56" y="25" width="2.8800000000000003" height="10.8" rx="1.4400000000000002" fill="#ffd75e"/><circle cx="56" cy="39.4" r="1.71" fill="#ffd75e"/></g>
</svg>
