<svg xmlns="http://www.w3.org/2000/svg" width="96" height="96" viewBox="0 0 96 96">
<defs><linearGradient id="bg211" x1="0" y1="0" x2="0" y2="1"><stop offset="0" stop-color="#bfe0ff"/><stop offset="1" stop-color="#8ec3f5"/></linearGradient></defs>
<rect width="96" height="96" rx="18" fill="url(#bg211)"/><g fill="#fff" opacity=".9"><ellipse cx="24" cy="20" rx="11" ry="5"/><ellipse cx="33" cy="17" rx="8" ry="4.4"/><ellipse cx="72" cy="30" rx="9" ry="4"/></g><path d="M4 72h88v10a14 14 0 0 1-14 12h-60a14 14 0 0 1-14-12z" fill="#6ea25f"/><path d="M14 72l2-5M26 72l2-5M44 72l2-5M64 72l2-5M80 72l2-5" stroke="#547f47" stroke-width="2" stroke-linecap="round"/><g transform="rotate(-5 36 58)"><rect x="24" y="51.5" width="24" height="13" rx="1.6" fill="#fdfaf2"/><path d="M36 51.5v13" stroke="#d8d2c2" stroke-width="1.2"/><path d="M27 55.5h6M27 58.5h6M39 55.5h6M39 58.5h6" stroke="#b9c3d6" stroke-width="1.3" stroke-linecap="round"/></g><g transform="rotate(-5 60 64)"><rect x="50.4" y="58.8" width="19.200000000000003" height="10.4" rx="1.2800000000000002" fill="#fdfaf2"/><path d="M60 58.8v10.4" stroke="#d8d2c2" stroke-width="0.96"/><path d="M52.8 62h4.800000000000001M52.8 64.4h4.800000000000001M62.4 62h4.800000000000001M62.4 64.4h4.800000000000001" stroke="#b9c3d6" stroke-width="1.04" stroke-linecap="round"/></g><g><circle cx="80" cy="20" r="6.4" fill="#ffd75e"/><path d="M80 9.6v3.5200000000000005M80 26.88v3.5200000000000005M69.6 20h3.5200000000000005M86.88 20h3.5200000000000005M72.4 12.399999999999999l2.4000000000000004 2.4000000000000004M85.2 25.2l2.4000000000000004 2.4000000000000004M87.6 12.399999999999999l-2.4000000000000004 2.4000000000000004M74.8 25.2l-2.4000000000000004 2.4000000000000004" stroke="#ffd75e" stroke-width="1.92" stroke-linecap="round"/></g>
</svg>
