<svg xmlns="http://www.w3.org/2000/svg" width="96" height="96" viewBox="0 0 96 96">
<defs><linearGradient id="bg213" x1="0" y1="0" x2="0" y2="1"><stop offset="0" stop-color="#bfe0ff"/><stop offset="1" stop-color="#8ec3f5"/></linearGradient></defs>
<rect width="96" height="96" rx="18" fill="url(#bg213)"/><g fill="#fff" opacity=".9"><ellipse cx="24" cy="20" rx="11" ry="5"/><ellipse cx="33" cy="17" rx="8" ry="4.4"/><ellipse cx="72" cy="30" rx="9" ry="4"/></g><path d="M4 72h88v10a14 14 0 0 1-14 12h-60a14 14 0 0 1-14-12z" fill="#6ea25f"/><path d="M14 72l2-5M26 72l2-5M44 72l2-5M64 72l2-5M80 72l2-5" stroke="#547f47" stroke-width="2" stroke-linecap="round"/><g><path d="M26.87 56.71l-2.76 -6.21l5.289999999999999 2.07z" fill="#f2b25c"/><path d="M41.13 56.71l2.76 -6.21l-5.289999999999999 2.07z" fill="#f2b25c"/><circle cx="34" cy="62" r="8.625" fill="#f2b25c"/><circle cx="30.78" cy="60.85" r="1.035" fill="#2b1d12"/><circle cx="37.22" cy="60.85" r="1.035" fill="#2b1d12"/><path d="M32.62 64.07h2.76l-1.38 1.6099999999999999z" fill="#e05555"/><path d="M23.65 62.575l-4.6 -1.15M23.65 64.875l-4.6 0.575M44.35 62.575l4.6 -1.15M44.35 64.875l4.6 0.575" stroke="#c98d4e" stroke-width="1.15" stroke-linecap="round"/><path d="M42.05 68.9q6.8999999999999995 2.3 8.049999999999999 -4.6" stroke="#f2b25c" stroke-width="2.9899999999999998" fill="none" stroke-linecap="round"/></g><g><path d="M58.730000000000004 64.09l-2.04 -4.59l3.9099999999999997 1.53z" fill="#f2b25c"/><path d="M69.27 64.09l2.04 -4.59l-3.9099999999999997 1.53z" fill="#f2b25c"/><circle cx="64" cy="68" r="6.375" fill="#f2b25c"/><circle cx="61.62" cy="67.15" r="0.765" fill="#2b1d12"/><circle cx="66.38" cy="67.15" r="0.765" fill="#2b1d12"/><path d="M62.98 69.53h2.04l-1.02 1.19z" fill="#e05555"/><path d="M56.35 68.425l-3.4 -0.85M56.35 70.125l-3.4 0.425M71.65 68.425l3.4 -0.85M71.65 70.125l3.4 0.425" stroke="#c98d4e" stroke-width="0.85" stroke-linecap="round"/><path d="M69.95 73.1q5.1 1.7 5.95 -3.4" stroke="#f2b25c" stroke-width="2.21" fill="none" stroke-linecap="round"/></g><path d="M84 26l1.4400000000000002 2.9600000000000004 3.2 .6-2.32 2.2399999999999998 .7 3.2-2.8800000000000003-1.52-2.8800000000000003 1.52 .7-3.2-2.32-2.2399999999999998 3.2-.6z" fill="#ffd75e"/>
</svg>
