<svg xmlns="http://www.w3.org/2000/svg" width="96" height="96" viewBox="0 0 96 96">
<defs><linearGradient id="bg214" x1="0" y1="0" x2="0" y2="1"><stop offset="0" stop-color="#1f3060"/><stop offset="1" stop-color="#141f42"/></linearGradient></defs>
<rect width="96" height="96" rx="18" fill="url(#bg214)"/><circle cx="16" cy="16" r="1.4" fill="#fff"/><circle cx="38" cy="10" r="1.1" fill="#fff"/><circle cx="80" cy="14" r="1.2" fill="#fff"/><circle cx="64" cy="22" r=".9" fill="#fff" opacity=".8"/><path d="M4 74h88v8a14 14 0 0 1-14 12h-60a14 14 0 0 1-14-12z" fill="#232c4e"/><path d="M12 80h10M32 80h10M52 80h10M72 80h10" stroke="#4a5680" stroke-width="2.4" stroke-linecap="round"/><g><circle cx="34" cy="58" r="6.5" fill="#f2c9a4"/><path d="M27.98 55.480000000000004c1.3-7 16-7 17.2 0l-2.2-1.2.5 2.1c-4.8-2.6-9.6-2.6-13-.5z" fill="#3d2b1f"/><circle cx="31.76" cy="58.42" r="0.6649999999999999" fill="#2b1d12"/><circle cx="36.24" cy="58.42" r="0.6649999999999999" fill="#2b1d12"/><ellipse cx="34" cy="61.08" rx="1.19" ry="1.54" fill="#b06e4a"/><circle cx="30.080000000000002" cy="60.1" r="0.875" fill="#f0a08a" opacity=".7"/><circle cx="37.92" cy="60.1" r="0.875" fill="#f0a08a" opacity=".7"/><path d="M29 65c1-3 3-4.5 5.5-4.5 2.4 0 4.4 1.8 5 5l0.4 6-3.2 1-2.2-5-2.2 6-3.6 3.2z" fill="#e05555"/><path d="M29.4 78l-5 8 3.8 1 4.8-6.4M34 80l1 8.6 3.8-.5.5-8.6" fill="none" stroke="#f2c9a4" stroke-width="3.6" stroke-linecap="round"/><path d="M20 64h5M18 70h6M21 76h4.6" stroke="#9db8e8" stroke-width="2" stroke-linecap="round"/></g><g><circle cx="68" cy="24" r="9.9" fill="#fff" stroke="#0047ab" stroke-width="2.7"/><path d="M68 18.15v5.8500000000000005l4.14-1.8" stroke="#0047ab" stroke-width="2.3400000000000003" fill="none" stroke-linecap="round"/><circle cx="68" cy="24" r="1.4400000000000002" fill="#0047ab"/></g><g transform="rotate(-8 84 50)"><rect x="77.4" y="46.15" width="13.200000000000001" height="7.700000000000001" rx="1.1" fill="#ffd75e"/><path d="M85.65 46.15v7.700000000000001" stroke="#e8b23d" stroke-width="0.77" stroke-dasharray="2.4 2.4"/><path d="M79.6 48.9h4.4M79.6 51.1h3.3000000000000003" stroke="#a5772a" stroke-width="0.8250000000000001" stroke-linecap="round"/></g>
</svg>
