<svg xmlns="http://www.w3.org/2000/svg" width="96" height="96" viewBox="0 0 96 96">
<defs><linearGradient id="bg215" x1="0" y1="0" x2="0" y2="1"><stop offset="0" stop-color="#3a2f68"/><stop offset="1" stop-color="#1c1740"/></linearGradient></defs>
<rect width="96" height="96" rx="18" fill="url(#bg215)"/><circle cx="18" cy="16" r="1.4" fill="#fff"/><circle cx="60" cy="12" r="1.1" fill="#fff"/><circle cx="84" cy="24" r="1.2" fill="#fff"/><path d="M8 64h80v14a16 16 0 0 1-16 16h-48a16 16 0 0 1-16-16z" fill="#a57847"/><path d="M8 64h80v3h-80z" fill="#8a5f36"/><g><path d="M34 40h16v6a8 8 0 0 1-16 0z" fill="#ffd75e"/><path d="M34 42c-4 0-6 5-1 7M50 42c4 0 6 5 1 7" stroke="#ffd75e" stroke-width="2" fill="none"/><rect x="40" y="52" width="4" height="4" fill="#e8b23d"/><path d="M36 58h12l1.4 3.6h-14.8z" fill="#a5772a"/><path d="M39.4 44.4l1.3 2.6 2.9 .4-2.1 2 .5 2.9-2.6-1.4-2.6 1.4 .5-2.9-2.1-2 2.9-.4z" fill="#fff" opacity=".85"/></g><g><path d="M64.5 21.6a6.050000000000001 6.050000000000001 0 1 1 8.25 5.5c-2 .9-3 2-3 4" stroke="#ef6f6f" stroke-width="2.8600000000000003" fill="none" stroke-linecap="round"/><circle cx="69.45" cy="35.9" r="1.7600000000000002" fill="#ef6f6f"/></g><g><rect x="16.4" y="18" width="3.2" height="12" rx="1.6" fill="#ef6f6f"/><circle cx="18" cy="34" r="1.9" fill="#ef6f6f"/></g>
</svg>
