<svg xmlns="http://www.w3.org/2000/svg" width="96" height="96" viewBox="0 0 96 96">
<defs><linearGradient id="bg216" x1="0" y1="0" x2="0" y2="1"><stop offset="0" stop-color="#bfe0ff"/><stop offset="1" stop-color="#8ec3f5"/></linearGradient></defs>
<rect width="96" height="96" rx="18" fill="url(#bg216)"/><g fill="#fff" opacity=".9"><ellipse cx="24" cy="20" rx="11" ry="5"/><ellipse cx="33" cy="17" rx="8" ry="4.4"/><ellipse cx="72" cy="30" rx="9" ry="4"/></g><path d="M4 72h88v10a14 14 0 0 1-14 12h-60a14 14 0 0 1-14-12z" fill="#6ea25f"/><path d="M14 72l2-5M26 72l2-5M44 72l2-5M64 72l2-5M80 72l2-5" stroke="#547f47" stroke-width="2" stroke-linecap="round"/><path d="M48 31.35c-7.3500000000000005-4.83-10.08-9.870000000000001-7.14-13.440000000000001c2.1-2.52 5.670000000000001-1.6800000000000002 7.14 .8 1.47-2.52 5.04-3.3600000000000003 7.14-.8 2.94 3.57 .2 8.61-7.14 13.440000000000001z" fill="#ef6f6f"/><g><path d="M27.7 62.4l-3.4 8M40.3 62.4l3.4 8" stroke="#f2c9a4" stroke-width="2.8800000000000003" stroke-linecap="round"/><path d="M28.15 59.7h11.700000000000001v13.5h-11.700000000000001z" fill="#42506e"/><path d="M30.759999999999998 73.2v9M37.24 73.2v9" stroke="#2b3a55" stroke-width="3.7800000000000002" stroke-linecap="round"/><circle cx="34" cy="53.4" r="7.2" fill="#f2c9a4"/><path d="M27.421 50.736000000000004c1.3-7 16-7 17.2 0l-2.2-1.2.5 2.1c-4.8-2.6-9.6-2.6-13-.5z" fill="#3d2b1f"/><circle cx="31.552" cy="53.859" r="0.72675" fill="#2b1d12"/><circle cx="36.448" cy="53.859" r="0.72675" fill="#2b1d12"/><path d="M32.317 56.613a2.295 2.295 0 0 0 3.3660000000000005 0" stroke="#b06e4a" stroke-width="0.8415000000000001" fill="none" stroke-linecap="round"/><circle cx="29.716" cy="55.695" r="0.95625" fill="#f0a08a" opacity=".7"/><circle cx="38.284" cy="55.695" r="0.95625" fill="#f0a08a" opacity=".7"/></g><g><path d="M54.05 63.6l-3.4 8M65.95 63.6l3.4 8" stroke="#f2c9a4" stroke-width="2.72" stroke-linecap="round"/><path d="M54.475 61.05h11.049999999999999l2.975 12.75h-17z" fill="#fff"/><path d="M56.6 73.8v7.6499999999999995M63.4 73.8v7.6499999999999995" stroke="#f2c9a4" stroke-width="2.55" stroke-linecap="round"/><circle cx="60" cy="55.1" r="6.8" fill="#f2c9a4"/><path d="M53.931 53.739999999999995c0-7.4 15.4-8.2 16.8-.8 0 3-1 4.2-1 4.2l-1-3.6c-3.2 1.7-8.8 1.7-11.2-1.2l-1.8 4s-1.8-.4-1.8-2.6z" fill="#5a4632"/><circle cx="65.78" cy="50.1275" r="2.0229999999999997" fill="#5a4632"/><circle cx="57.688" cy="55.533500000000004" r="0.6863749999999998" fill="#2b1d12"/><circle cx="62.312" cy="55.533500000000004" r="0.6863749999999998" fill="#2b1d12"/><path d="M58.4105 58.1345a2.1674999999999995 2.1674999999999995 0 0 0 3.179 0" stroke="#b06e4a" stroke-width="0.79475" fill="none" stroke-linecap="round"/><circle cx="55.954" cy="57.2675" r="0.903125" fill="#f0a08a" opacity=".7"/><circle cx="64.04599999999999" cy="57.2675" r="0.903125" fill="#f0a08a" opacity=".7"/></g>
</svg>
