<svg xmlns="http://www.w3.org/2000/svg" width="96" height="96" viewBox="0 0 96 96">
<defs><linearGradient id="bg217" x1="0" y1="0" x2="0" y2="1"><stop offset="0" stop-color="#fff2d8"/><stop offset="1" stop-color="#ffdda6"/></linearGradient></defs>
<rect width="96" height="96" rx="18" fill="url(#bg217)"/><path d="M8 64h80v14a16 16 0 0 1-16 16h-48a16 16 0 0 1-16-16z" fill="#a57847"/><path d="M8 64h80v3h-80z" fill="#8a5f36"/><g transform="rotate(-6 36 50)"><rect x="23.65" y="41.925" width="24.7" height="16.15" rx="2" fill="#fdfaf2"/><path d="M27.450000000000003 46.675h17.099999999999998M27.450000000000003 50.475h17.099999999999998M27.450000000000003 54.275h11.399999999999999" stroke="#b9c3d6" stroke-width="1.5" stroke-linecap="round"/></g><g><path d="M55.9 19.7h16.2a3.6 3.6 0 0 1 3.6 3.6v4.5a3.6 3.6 0 0 1-3.6 3.6h-9l-4.5 4.5v-4.5h-2.7a3.6 3.6 0 0 1-3.6-3.6v-4.5a3.6 3.6 0 0 1 3.6-3.6z" fill="#fff" stroke="#3b82f6" stroke-width="1.62"/><circle cx="59.95" cy="26" r="1.35" fill="#3b82f6"/><circle cx="64" cy="26" r="1.35" fill="#3b82f6"/><circle cx="68.05" cy="26" r="1.35" fill="#3b82f6"/></g><g><path d="M76.15 35.45h11.700000000000001a2.6 2.6 0 0 1 2.6 2.6v3.25a2.6 2.6 0 0 1-2.6 2.6h-6.5l-3.25 3.25v-3.25h-1.9500000000000002a2.6 2.6 0 0 1-2.6-2.6v-3.25a2.6 2.6 0 0 1 2.6-2.6z" fill="#fff" stroke="#3b82f6" stroke-width="1.1700000000000002"/><circle cx="79.075" cy="40" r="0.9750000000000001" fill="#3b82f6"/><circle cx="82" cy="40" r="0.9750000000000001" fill="#3b82f6"/><circle cx="84.925" cy="40" r="0.9750000000000001" fill="#3b82f6"/></g>
</svg>
