<svg xmlns="http://www.w3.org/2000/svg" width="96" height="96" viewBox="0 0 96 96">
<defs><linearGradient id="bg218" x1="0" y1="0" x2="0" y2="1"><stop offset="0" stop-color="#c8d8ef"/><stop offset="1" stop-color="#9fb6d9"/></linearGradient></defs>
<rect width="96" height="96" rx="18" fill="url(#bg218)"/><g fill="#fff"><circle cx="18" cy="16" r="2"/><circle cx="42" cy="10" r="1.6"/><circle cx="66" cy="18" r="2"/><circle cx="84" cy="10" r="1.5"/><circle cx="30" cy="30" r="1.6"/><circle cx="56" cy="26" r="1.4"/><circle cx="78" cy="32" r="1.7"/><circle cx="12" cy="42" r="1.5"/><circle cx="88" cy="48" r="1.4"/></g><path d="M4 72h88v10a14 14 0 0 1-14 12h-60a14 14 0 0 1-14-12z" fill="#eef4fb"/><ellipse cx="30" cy="74" rx="16" ry="3" fill="#dce8f5"/><ellipse cx="70" cy="76" rx="12" ry="2.6" fill="#dce8f5"/><g><path d="M31.35 61.2l-3.4 8M44.65 61.2l3.4 8" stroke="#f2c9a4" stroke-width="3.04" stroke-linecap="round"/><path d="M31.825 58.35h12.35v14.25h-12.35z" fill="#e8edf5"/><path d="M34.58 72.6v9.5M41.42 72.6v9.5" stroke="#2b3a55" stroke-width="3.9899999999999998" stroke-linecap="round"/><circle cx="38" cy="51.7" r="7.6" fill="#f2c9a4"/><path d="M31.055500000000002 48.888c1.3-7 16-7 17.2 0l-2.2-1.2.5 2.1c-4.8-2.6-9.6-2.6-13-.5z" fill="#3d2b1f"/><path d="M34.2855 52.346000000000004c1-1.4 2.6-1.4 3.6 0M38.8075 52.346000000000004c1-1.4 2.6-1.4 3.6 0" stroke="#2b1d12" stroke-width="1.04975" fill="none" stroke-linecap="round"/><path d="M36.2235 55.0915a2.4225 2.4225 0 0 0 3.5530000000000004 0" stroke="#b06e4a" stroke-width="0.8882500000000001" fill="none" stroke-linecap="round"/><circle cx="33.478" cy="54.1225" r="1.009375" fill="#f0a08a" opacity=".7"/><circle cx="42.522" cy="54.1225" r="1.009375" fill="#f0a08a" opacity=".7"/></g><g><circle cx="72" cy="72" r="5.95" fill="#fff"/><circle cx="72" cy="63.5" r="4.25" fill="#fff"/><circle cx="70.64" cy="62.65" r=".9" fill="#2b3a55"/><circle cx="73.36" cy="62.65" r=".9" fill="#2b3a55"/><path d="M68.6 59.59h6.8" stroke="#e05555" stroke-width="1.87" stroke-linecap="round"/></g>
</svg>
