<svg xmlns="http://www.w3.org/2000/svg" width="96" height="96" viewBox="0 0 96 96">
<defs><linearGradient id="bg219" x1="0" y1="0" x2="0" y2="1"><stop offset="0" stop-color="#fff2d8"/><stop offset="1" stop-color="#ffdda6"/></linearGradient></defs>
<rect width="96" height="96" rx="18" fill="url(#bg219)"/><path d="M8 64h80v14a16 16 0 0 1-16 16h-48a16 16 0 0 1-16-16z" fill="#a57847"/><path d="M8 64h80v3h-80z" fill="#8a5f36"/><g><g transform="rotate(35 38 43.2)"><rect x="36.13" y="25.599999999999998" width="3.74" height="16.5" rx="1.87" fill="#8a5f36"/><path d="M35.14 42.1h5.720000000000001l-1.32 7.700000000000001q-1.54 2.4200000000000004 -3.08 0z" fill="#2b2118"/></g><path d="M29.2 60.8q8.8 -4.4 17.6 1.1" stroke="#2b2118" stroke-width="3.3000000000000003" fill="none" stroke-linecap="round"/></g><g><path d="M63.2 42.7h13.6v5.1a6.8 6.8 0 0 1-13.6 0z" fill="#ffd75e"/><path d="M63.2 44.4c-3.4 0-5.1 4.25-0.85 5.95M76.8 44.4c3.4 0 5.1 4.25 0.85 5.95" stroke="#ffd75e" stroke-width="1.7" fill="none"/><rect x="68.3" y="52.9" width="3.4" height="3.4" fill="#e8b23d"/><path d="M64.9 58h10.2l1.19 3.06h-12.58z" fill="#a5772a"/><path d="M67.79 46.44l1.105 2.21 2.465 .4-1.785 1.7 .5 2.465-2.21-1.19-2.21 1.19 .5-2.465-1.785-1.7 2.465-.4z" fill="#fff" opacity=".85"/></g><path d="M86 28l1.4400000000000002 2.9600000000000004 3.2 .6-2.32 2.2399999999999998 .7 3.2-2.8800000000000003-1.52-2.8800000000000003 1.52 .7-3.2-2.32-2.2399999999999998 3.2-.6z" fill="#ffd75e"/>
</svg>
