<svg xmlns="http://www.w3.org/2000/svg" width="96" height="96" viewBox="0 0 96 96">
<defs><linearGradient id="bg219" x1="0" y1="0" x2="0" y2="1"><stop offset="0" stop-color="#bfe0ff"/><stop offset="1" stop-color="#8ec3f5"/></linearGradient></defs>
<rect width="96" height="96" rx="18" fill="url(#bg219)"/><g fill="#fff" opacity=".9"><ellipse cx="24" cy="20" rx="11" ry="5"/><ellipse cx="33" cy="17" rx="8" ry="4.4"/><ellipse cx="72" cy="30" rx="9" ry="4"/></g><path d="M8 68h80v10a16 16 0 0 1-16 16h-48a16 16 0 0 1-16-16z" fill="#c99a63"/><path d="M8 68h80v3h-80z" fill="#a87e4e"/><path d="M20 78h20M56 82h22" stroke="#b3854f" stroke-width="1.6"/><g transform="rotate(10 32 72)"><rect x="30.045" y="38" width="3.9099999999999997" height="34" rx="1.9549999999999998" fill="#8a5a36"/><rect x="27.75" y="34.6" width="8.5" height="6.8" rx="2.04" fill="#2b2118"/><path d="M32.425 65.2c-8.5-1-14.45 4.25-14.45 11.9 0 8.5 6.8 14.45 14.45 14.45 6.8 0 11.049999999999999-4.25 11.049999999999999-10.2 0-3.4-2-5.5249999999999995-3.4-7.6499999999999995-1.8-2.2-3.5-4-4-7-.3-2-2-2.8-5-3z" fill="#e05555"/><circle cx="32" cy="80.5" r="4.25" fill="#1c1030"/><path d="M31.15 38v39.1M33.19 38v39.1" stroke="#e8d9b5" stroke-width=".7"/></g><path d="M62 24l1.8 3.7 4 .6-2.9 2.8 .7 4-3.6-1.9-3.6 1.9 .7-4-2.9-2.8 4-.6z" fill="#ffd75e"/><path d="M82 47.25c-5.25-3.4499999999999997-7.199999999999999-7.050000000000001-5.1-9.600000000000001c1.5-1.7999999999999998 4.050000000000001-1.2000000000000002 5.1 .8 1.0499999999999998-1.7999999999999998 3.5999999999999996-2.4000000000000004 5.1-.8 2.0999999999999996 2.55 .2 6.1499999999999995-5.1 9.600000000000001z" fill="#ef6f6f"/>
</svg>
