<svg xmlns="http://www.w3.org/2000/svg" width="96" height="96" viewBox="0 0 96 96">
<defs><linearGradient id="bg221" x1="0" y1="0" x2="0" y2="1"><stop offset="0" stop-color="#bfe0ff"/><stop offset="1" stop-color="#8ec3f5"/></linearGradient></defs>
<rect width="96" height="96" rx="18" fill="url(#bg221)"/><g fill="#fff" opacity=".9"><ellipse cx="24" cy="20" rx="11" ry="5"/><ellipse cx="33" cy="17" rx="8" ry="4.4"/><ellipse cx="72" cy="30" rx="9" ry="4"/></g><path d="M4 74h88v8a14 14 0 0 1-14 12h-60a14 14 0 0 1-14-12z" fill="#5a6478"/><path d="M12 80h10M32 80h10M52 80h10M72 80h10" stroke="#aab4c8" stroke-width="2.4" stroke-linecap="round"/><g><rect x="17.3" y="51.6" width="37.4" height="20.4" rx="2.04" fill="#e8ddc8"/><rect x="30.9" y="46.5" width="10.2" height="6.8" rx="1.6" fill="#d8c9ac"/><circle cx="36" cy="49.900000000000006" r="2.21" fill="#fff" stroke="#0047ab" stroke-width="1.2"/><g fill="#9dc1f5"><rect x="20.700000000000003" y="55.85" width="5.1" height="5.1" rx="1"/><rect x="33.45" y="55.85" width="5.1" height="5.1" rx="1"/><rect x="46.2" y="55.85" width="5.1" height="5.1" rx="1"/></g><rect x="32.6" y="64.35" width="6.8" height="7.6499999999999995" rx="1.4" fill="#7a532f"/></g><g><g fill="#f4f7fc"><ellipse cx="66" cy="80" rx="2.64" ry="4.2" transform="rotate(-18 66 80)"/><ellipse cx="73.2" cy="74.6" rx="2.64" ry="4.2" transform="rotate(12 73.2 74.6)"/></g><g fill="#ff9d9d"><ellipse cx="81" cy="69.8" rx="2.64" ry="4.2" transform="rotate(-12 81 69.8)"/><ellipse cx="88.8" cy="65" rx="2.64" ry="4.2" transform="rotate(14 88.8 65)"/></g></g>
</svg>
