<svg xmlns="http://www.w3.org/2000/svg" width="96" height="96" viewBox="0 0 96 96">
<defs><linearGradient id="bg222" x1="0" y1="0" x2="0" y2="1"><stop offset="0" stop-color="#1f3060"/><stop offset="1" stop-color="#141f42"/></linearGradient></defs>
<rect width="96" height="96" rx="18" fill="url(#bg222)"/><circle cx="16" cy="16" r="1.4" fill="#fff"/><circle cx="38" cy="10" r="1.1" fill="#fff"/><circle cx="80" cy="14" r="1.2" fill="#fff"/><circle cx="64" cy="22" r=".9" fill="#fff" opacity=".8"/><path d="M4 74h88v8a14 14 0 0 1-14 12h-60a14 14 0 0 1-14-12z" fill="#232c4e"/><path d="M12 80h10M32 80h10M52 80h10M72 80h10" stroke="#4a5680" stroke-width="2.4" stroke-linecap="round"/><g><rect x="36.75" y="48.4" width="42.5" height="17" rx="3.8249999999999997" fill="#ffcf5e"/><rect x="41" y="51.8" width="7.6499999999999995" height="5.95" rx="1.6" fill="#fff3c9"/><rect x="52.05" y="51.8" width="7.6499999999999995" height="5.95" rx="1.6" fill="#fff3c9"/><rect x="63.1" y="51.8" width="7.6499999999999995" height="5.95" rx="1.6" fill="#fff3c9"/><path d="M36.75 60.3h42.5" stroke="#0047ab" stroke-width="2.21"/><circle cx="46.95" cy="65.4" r="3.06" fill="#1c2038"/><circle cx="69.05" cy="65.4" r="3.06" fill="#1c2038"/></g><g><circle cx="20" cy="61.900000000000006" r="5.5249999999999995" fill="#f2c9a4"/><path d="M14.883 59.758c1.3-7 16-7 17.2 0l-2.2-1.2.5 2.1c-4.8-2.6-9.6-2.6-13-.5z" fill="#3d2b1f"/><circle cx="18.096" cy="62.257000000000005" r="0.5652499999999999" fill="#2b1d12"/><circle cx="21.904" cy="62.257000000000005" r="0.5652499999999999" fill="#2b1d12"/><ellipse cx="20" cy="64.518" rx="1.0114999999999998" ry="1.309" fill="#b06e4a"/><circle cx="16.668" cy="63.685" r="0.7437499999999999" fill="#f0a08a" opacity=".7"/><circle cx="23.332" cy="63.685" r="0.7437499999999999" fill="#f0a08a" opacity=".7"/><path d="M15.75 67.85c0.85-3 2.55-4.5 4.675-4.5 2.04 0 3.74 1.53 4.25 4.25l0.34 5.1-2.72 0.85-1.87-4.25-1.87 5.1-3.06 2.72z" fill="#e05555"/><path d="M16.09 78.9l-5 6.8 3.23 0.85 4.08-5.44M20 80.6l0.85 7.31 3.23-.5.5-7.31" fill="none" stroke="#f2c9a4" stroke-width="3.06" stroke-linecap="round"/><path d="M8.1 67h4.25M6.4 72.1h5.1M8.950000000000001 77.2h3.9099999999999997" stroke="#9db8e8" stroke-width="1.7" stroke-linecap="round"/></g><path d="M86 10a7 7 0 1 0 5.109999999999999 11.479999999999999 7.699999999999999 7.699999999999999 0 0 1-5.109999999999999-11.479999999999999z" fill="#ffe9a8"/>
</svg>
