<svg xmlns="http://www.w3.org/2000/svg" width="96" height="96" viewBox="0 0 96 96">
<defs><linearGradient id="bg223" x1="0" y1="0" x2="0" y2="1"><stop offset="0" stop-color="#c8d8ef"/><stop offset="1" stop-color="#9fb6d9"/></linearGradient></defs>
<rect width="96" height="96" rx="18" fill="url(#bg223)"/><g fill="#fff"><circle cx="18" cy="16" r="2"/><circle cx="42" cy="10" r="1.6"/><circle cx="66" cy="18" r="2"/><circle cx="84" cy="10" r="1.5"/><circle cx="30" cy="30" r="1.6"/><circle cx="56" cy="26" r="1.4"/><circle cx="78" cy="32" r="1.7"/><circle cx="12" cy="42" r="1.5"/><circle cx="88" cy="48" r="1.4"/></g><path d="M4 72h88v10a14 14 0 0 1-14 12h-60a14 14 0 0 1-14-12z" fill="#eef4fb"/><ellipse cx="30" cy="74" rx="16" ry="3" fill="#dce8f5"/><ellipse cx="70" cy="76" rx="12" ry="2.6" fill="#dce8f5"/><g transform="rotate(-14 38 48)"><path d="M28 44l14-6v20l-14-6z" fill="#e05555"/><rect x="24" y="44" width="5" height="8" rx="1.6" fill="#b23a3a"/><path d="M46 40l5-3M47 48h6M46 56l5 3" stroke="#ffd75e" stroke-width="2.2" stroke-linecap="round"/></g><g><rect x="68.4" y="16" width="3.2" height="12" rx="1.6" fill="#ef6f6f"/><circle cx="70" cy="32" r="1.9" fill="#ef6f6f"/></g>
</svg>
