<svg xmlns="http://www.w3.org/2000/svg" width="96" height="96" viewBox="0 0 96 96">
<defs><linearGradient id="bg224" x1="0" y1="0" x2="0" y2="1"><stop offset="0" stop-color="#1f3060"/><stop offset="1" stop-color="#141f42"/></linearGradient></defs>
<rect width="96" height="96" rx="18" fill="url(#bg224)"/><circle cx="16" cy="16" r="1.4" fill="#fff"/><circle cx="38" cy="10" r="1.1" fill="#fff"/><circle cx="80" cy="14" r="1.2" fill="#fff"/><circle cx="64" cy="22" r=".9" fill="#fff" opacity=".8"/><path d="M8 66h80v12a17 17 0 0 1-17 16h-46a17 17 0 0 1-17-16z" fill="#7a5533"/><path d="M8 66h80v3h-80z" fill="#956a41"/><g transform="rotate(10 36 74)"><rect x="33.815" y="36" width="4.369999999999999" height="38" rx="2.1849999999999996" fill="#8a5a36"/><rect x="31.25" y="32.2" width="9.5" height="7.6" rx="2.28" fill="#2b2118"/><path d="M36.475 66.4c-9.5-1-16.15 4.75-16.15 13.299999999999999 0 9.5 7.6 16.15 16.15 16.15 7.6 0 12.35-4.75 12.35-11.399999999999999 0-3.8-2-6.175-3.8-8.549999999999999-1.8-2.2-3.5-4-4-7-.3-2-2-2.8-5-3z" fill="#e05555"/><circle cx="36" cy="83.5" r="4.75" fill="#1c1030"/><path d="M35.05 36v43.699999999999996M37.33 36v43.699999999999996" stroke="#e8d9b5" stroke-width=".7"/></g><g stroke-linecap="round"><path d="M64 26c3 2 3 6 0 8s-3 6 0 8" stroke="#9db8ff" stroke-width="2.2" fill="none"/><path d="M75 21c2.4 1.6 2.4 4.8 0 6.4s-2.4 4.8 0 6.4" stroke="#9db8ff" stroke-width="1.9" fill="none" opacity=".85"/></g><path d="M84 42l1.26 2.59 2.8 .6-2.03 1.9599999999999997 .7 2.8-2.52-1.3299999999999998-2.52 1.3299999999999998 .7-2.8-2.03-1.9599999999999997 2.8-.6z" fill="#ffd75e"/>
</svg>
