<svg xmlns="http://www.w3.org/2000/svg" width="96" height="96" viewBox="0 0 96 96">
<defs><linearGradient id="bg2" x1="0" y1="0" x2="0" y2="1"><stop offset="0" stop-color="#fff2d8"/><stop offset="1" stop-color="#ffdda6"/></linearGradient></defs>
<rect width="96" height="96" rx="18" fill="url(#bg2)"/><path d="M8 64h80v14a16 16 0 0 1-16 16h-48a16 16 0 0 1-16-16z" fill="#a57847"/><path d="M8 64h80v3h-80z" fill="#8a5f36"/><g><rect x="48.9" y="22.1" width="5.75" height="32.199999999999996" rx="2.875" fill="#c98d4e" transform="rotate(24 51.2 38.2)"/><circle cx="37.4" cy="52" r="8.625" fill="#fff" stroke="#d8d2c2"/><path d="M32.11 47.86c2 1.6 2 5.6 0 7.2M42.69 47.86c-2 1.6-2 5.6 0 7.2" stroke="#e05555" stroke-width="1.6099999999999999" fill="none"/></g><path d="M72 24l1.8 3.7 4 .6-2.9 2.8 .7 4-3.6-1.9-3.6 1.9 .7-4-2.9-2.8 4-.6z" fill="#ffd75e"/><g><rect x="78.56" y="39" width="2.8800000000000003" height="10.8" rx="1.4400000000000002" fill="#ef6f6f"/><circle cx="80" cy="53.4" r="1.71" fill="#ef6f6f"/></g>
</svg>
