<svg xmlns="http://www.w3.org/2000/svg" width="96" height="96" viewBox="0 0 96 96">
<defs><linearGradient id="bg3" x1="0" y1="0" x2="0" y2="1"><stop offset="0" stop-color="#3a2f68"/><stop offset="1" stop-color="#1c1740"/></linearGradient></defs>
<rect width="96" height="96" rx="18" fill="url(#bg3)"/><circle cx="18" cy="16" r="1.4" fill="#fff"/><circle cx="60" cy="12" r="1.1" fill="#fff"/><circle cx="84" cy="24" r="1.2" fill="#fff"/><path d="M8 64h80v14a16 16 0 0 1-16 16h-48a16 16 0 0 1-16-16z" fill="#a57847"/><path d="M8 64h80v3h-80z" fill="#8a5f36"/><g><circle cx="42" cy="50" r="9.5" fill="#f2c9a4"/><path d="M33.4 46.4c1.3-7 16-7 17.2 0l-2.2-1.2.5 2.1c-4.8-2.6-9.6-2.6-13-.5z" fill="#3d2b1f"/><circle cx="38.8" cy="50.6" r="0.95" fill="#2b1d12"/><circle cx="45.2" cy="50.6" r="0.95" fill="#2b1d12"/><path d="M40 54.6h4" stroke="#b06e4a" stroke-width="1.1" stroke-linecap="round"/><circle cx="36.4" cy="53" r="1.25" fill="#f0a08a" opacity=".7"/><circle cx="47.6" cy="53" r="1.25" fill="#f0a08a" opacity=".7"/><path d="M30 67c1-6.5 5.5-9.5 12-9.5s11 3 12 9.5z" fill="#2b6bd8"/></g><g transform="rotate(-5 72 60)"><rect x="63" y="55.125" width="18" height="9.75" rx="1.2000000000000002" fill="#fdfaf2"/><path d="M72 55.125v9.75" stroke="#d8d2c2" stroke-width="0.8999999999999999"/><path d="M65.25 58.125h4.5M65.25 60.375h4.5M74.25 58.125h4.5M74.25 60.375h4.5" stroke="#b9c3d6" stroke-width="0.9750000000000001" stroke-linecap="round"/></g><g><circle cx="18" cy="24" r="8.25" fill="#fff" stroke="#0047ab" stroke-width="2.25"/><path d="M18 19.125v4.875l3.4499999999999997-1.5" stroke="#0047ab" stroke-width="1.9500000000000002" fill="none" stroke-linecap="round"/><circle cx="18" cy="24" r="1.2000000000000002" fill="#0047ab"/></g>
</svg>
