<svg xmlns="http://www.w3.org/2000/svg" width="96" height="96" viewBox="0 0 96 96">
<defs><linearGradient id="bg4" x1="0" y1="0" x2="0" y2="1"><stop offset="0" stop-color="#1f3060"/><stop offset="1" stop-color="#141f42"/></linearGradient></defs>
<rect width="96" height="96" rx="18" fill="url(#bg4)"/><circle cx="16" cy="16" r="1.4" fill="#fff"/><circle cx="38" cy="10" r="1.1" fill="#fff"/><circle cx="80" cy="14" r="1.2" fill="#fff"/><circle cx="64" cy="22" r=".9" fill="#fff" opacity=".8"/><path d="M4 74h88v8a14 14 0 0 1-14 12h-60a14 14 0 0 1-14-12z" fill="#232c4e"/><path d="M12 80h10M32 80h10M52 80h10M72 80h10" stroke="#4a5680" stroke-width="2.4" stroke-linecap="round"/><g><rect x="23.3" y="42.900000000000006" width="49.4" height="19" rx="4.75" fill="#e8edf5"/><rect x="23.3" y="42.900000000000006" width="49.4" height="5.699999999999999" rx="2.8499999999999996" fill="#0a58c8"/><rect x="29" y="50.5" width="8.549999999999999" height="6.6499999999999995" rx="1.6" fill="#9dc1f5"/><rect x="42.3" y="50.5" width="8.549999999999999" height="6.6499999999999995" rx="1.6" fill="#9dc1f5"/><rect x="55.6" y="50.5" width="8.549999999999999" height="6.6499999999999995" rx="1.6" fill="#9dc1f5"/><circle cx="34.7" cy="63.8" r="3.23" fill="#2b3a55"/><circle cx="59.4" cy="63.8" r="3.23" fill="#2b3a55"/><path d="M76.5 46.7h4.75M75.55 52.4h6.6499999999999995" stroke="#c3cddf" stroke-width="1.9" stroke-linecap="round"/></g><g><circle cx="18" cy="22" r="8.25" fill="#fff" stroke="#0047ab" stroke-width="2.25"/><path d="M18 17.125v4.875l3.4499999999999997 2.25" stroke="#e34d4d" stroke-width="1.9500000000000002" fill="none" stroke-linecap="round"/><circle cx="18" cy="22" r="1.2000000000000002" fill="#0047ab"/></g><path d="M82 10a7.5 7.5 0 1 0 5.475 12.299999999999999 8.25 8.25 0 0 1-5.475-12.299999999999999z" fill="#ffe9a8"/>
</svg>
