<svg xmlns="http://www.w3.org/2000/svg" width="96" height="96" viewBox="0 0 96 96">
<defs><linearGradient id="bg5" x1="0" y1="0" x2="0" y2="1"><stop offset="0" stop-color="#bfe0ff"/><stop offset="1" stop-color="#8ec3f5"/></linearGradient></defs>
<rect width="96" height="96" rx="18" fill="url(#bg5)"/><g fill="#fff" opacity=".9"><ellipse cx="24" cy="20" rx="11" ry="5"/><ellipse cx="33" cy="17" rx="8" ry="4.4"/><ellipse cx="72" cy="30" rx="9" ry="4"/></g><path d="M8 68h80v10a16 16 0 0 1-16 16h-48a16 16 0 0 1-16-16z" fill="#c99a63"/><path d="M8 68h80v3h-80z" fill="#a87e4e"/><path d="M20 78h20M56 82h22" stroke="#b3854f" stroke-width="1.6"/><g><path d="M18 58q15 5 30 0t30 0" stroke="#c98d4e" stroke-width="4" fill="none" stroke-linecap="round"/><path d="M18 58q15 5 30 0t30 0" stroke="#a5713a" stroke-width="1.3" fill="none" stroke-dasharray="3 4"/><rect x="46" y="55" width="4" height="9" rx="2" fill="#e05555"/></g><g fill="#20264a"><path d="M8 88c1-4.2 2.4-6.6 4.8-6.6s4.2 2.4 4.8 6.6z"/><path d="M18.2 88c1-4.2 2.4-6.6 4.8-6.6s4.2 2.4 4.8 6.6z"/><path d="M28.4 88c1-4.2 2.4-6.6 4.8-6.6s4.2 2.4 4.8 6.6z"/><path d="M38.599999999999994 88c1-4.2 2.4-6.6 4.8-6.6s4.2 2.4 4.8 6.6z"/><path d="M48.8 88c1-4.2 2.4-6.6 4.8-6.6s4.2 2.4 4.8 6.6z"/></g><path d="M11.6 80.2l0.6-2.4M21.799999999999997 80.2l0.6-2.4M32 80.2l0.6-2.4M42.199999999999996 80.2l0.6-2.4M52.4 80.2l0.6-2.4" stroke="#20264a" stroke-width="1.7999999999999998" stroke-linecap="round"/><g><rect x="74.24" y="15" width="3.5200000000000005" height="13.200000000000001" rx="1.7600000000000002" fill="#ef6f6f"/><circle cx="76" cy="32.6" r="2.09" fill="#ef6f6f"/></g>
</svg>
