<svg xmlns="http://www.w3.org/2000/svg" width="96" height="96" viewBox="0 0 96 96">
<defs><linearGradient id="bg5" x1="0" y1="0" x2="0" y2="1"><stop offset="0" stop-color="#ffb36b"/><stop offset=".55" stop-color="#e77e6a"/><stop offset="1" stop-color="#5a4f9e"/></linearGradient><radialGradient id="bg5u" cx=".5" cy=".5" r=".5"><stop offset="0" stop-color="#fff0b3"/><stop offset="1" stop-color="#fff0b3" stop-opacity="0"/></radialGradient></defs>
<rect width="96" height="96" rx="18" fill="url(#bg5)"/><circle cx="76" cy="28" r="16" fill="url(#bg5u)"/><circle cx="76" cy="28" r="6.5" fill="#ffdd88"/><path d="M8 68h80v10a16 16 0 0 1-16 16h-48a16 16 0 0 1-16-16z" fill="#c99a63"/><path d="M8 68h80v3h-80z" fill="#a87e4e"/><path d="M20 78h20M56 82h22" stroke="#b3854f" stroke-width="1.6"/><g><rect x="14.64" y="30.799999999999997" width="2.72" height="51.2" rx="1.36" fill="#3a3f55"/><path d="M17.36 34 C 25.6 30.799999999999997, 35.2 37.199999999999996, 43.2 34 S 52.800000000000004 32.4, 52.800000000000004 32.4 L 52.800000000000004 50 C 44.8 53.2, 35.2 46.8, 27.200000000000003 50 S 17.36 51.599999999999994, 17.36 51.599999999999994 Z" fill="#0a58c8"/><path d="M24 37.199999999999996l1.4400000000000002 2.9600000000000004 3.2 .6-2.32 2.2399999999999998 .7 3.2-2.8800000000000003-1.52-2.8800000000000003 1.52 .7-3.2-2.32-2.2399999999999998 3.2-.6z" fill="#fff"/></g><g stroke-linecap="round"><path d="M64 38c3 2 3 6 0 8s-3 6 0 8" stroke="#9db8ff" stroke-width="2.2" fill="none"/><path d="M75 33c2.4 1.6 2.4 4.8 0 6.4s-2.4 4.8 0 6.4" stroke="#9db8ff" stroke-width="1.9" fill="none" opacity=".85"/></g><g fill="#20264a"><path d="M14 88c1-4.8999999999999995 2.8-7.699999999999999 5.6-7.699999999999999s4.8999999999999995 2.8 5.6 7.699999999999999z"/><path d="M25.9 88c1-4.8999999999999995 2.8-7.699999999999999 5.6-7.699999999999999s4.8999999999999995 2.8 5.6 7.699999999999999z"/><path d="M37.8 88c1-4.8999999999999995 2.8-7.699999999999999 5.6-7.699999999999999s4.8999999999999995 2.8 5.6 7.699999999999999z"/><path d="M49.699999999999996 88c1-4.8999999999999995 2.8-7.699999999999999 5.6-7.699999999999999s4.8999999999999995 2.8 5.6 7.699999999999999z"/><path d="M61.599999999999994 88c1-4.8999999999999995 2.8-7.699999999999999 5.6-7.699999999999999s4.8999999999999995 2.8 5.6 7.699999999999999z"/></g><path d="M18.2 78.9l0.7-2.8M30.099999999999998 78.9l0.7-2.8M42 78.9l0.7-2.8M53.89999999999999 78.9l0.7-2.8M65.8 78.9l0.7-2.8" stroke="#20264a" stroke-width="2.0999999999999996" stroke-linecap="round"/>
</svg>
