<svg xmlns="http://www.w3.org/2000/svg" width="96" height="96" viewBox="0 0 96 96">
<defs><linearGradient id="bg6" x1="0" y1="0" x2="0" y2="1"><stop offset="0" stop-color="#1a2f5e"/><stop offset="1" stop-color="#0d1b3d"/></linearGradient><linearGradient id="bg6s" x1="0" y1="0" x2="0" y2="1"><stop offset="0" stop-color="#fff8dc" stop-opacity=".75"/><stop offset="1" stop-color="#fff8dc" stop-opacity=".05"/></linearGradient></defs>
<rect width="96" height="96" rx="18" fill="url(#bg6)"/><path d="M38 0h20l12 64h-44z" fill="url(#bg6s)"/><path d="M8 66h80v12a17 17 0 0 1-17 16h-46a17 17 0 0 1-17-16z" fill="#7a5533"/><path d="M8 66h80v3h-80z" fill="#956a41"/><g><path d="M29.35 61.2l-4 -7M42.65 61.2l4 -7" stroke="#f2c9a4" stroke-width="3.04" stroke-linecap="round"/><path d="M29.825 58.35h12.35v14.25h-12.35z" fill="#2b6bd8"/><path d="M32.58 72.6v9.5M39.42 72.6v9.5" stroke="#2b3a55" stroke-width="3.9899999999999998" stroke-linecap="round"/><circle cx="36" cy="51.7" r="7.6" fill="#f2c9a4"/><path d="M29.055500000000002 49.3725l1.6-3.4 2 2 1.8-3.4 2 2.4 1.8-3 1.8 3 2-2.4 1.8 3.4 2-2 1.6 3.4c-5.6-2.6-13-2.6-18.4 0z" fill="#2b2118"/><path d="M32.2855 52.346000000000004c1-1.4 2.6-1.4 3.6 0M36.8075 52.346000000000004c1-1.4 2.6-1.4 3.6 0" stroke="#2b1d12" stroke-width="1.04975" fill="none" stroke-linecap="round"/><path d="M34.2235 55.0915a2.4225 2.4225 0 0 0 3.5530000000000004 0" stroke="#b06e4a" stroke-width="0.8882500000000001" fill="none" stroke-linecap="round"/><circle cx="31.478" cy="54.1225" r="1.009375" fill="#f0a08a" opacity=".7"/><circle cx="40.522" cy="54.1225" r="1.009375" fill="#f0a08a" opacity=".7"/></g><g><rect x="58" y="12" width="3" height="6" rx="1.5" fill="#ff8f6b" transform="rotate(25 58 12)"/><rect x="82.7" y="19.6" width="3" height="6" rx="1.5" fill="#6bd0ff" transform="rotate(-30 82.7 19.6)"/><rect x="67.5" y="36.7" width="3" height="6" rx="1.5" fill="#8affc1" transform="rotate(40 67.5 36.7)"/><circle cx="86.5" cy="34.8" r="1.6" fill="#ffd75e"/></g><path d="M80 36l1.62 3.33 3.6 .6-2.61 2.52 .7 3.6-3.24-1.71-3.24 1.71 .7-3.6-2.61-2.52 3.6-.6z" fill="#ffd75e"/>
</svg>
