<svg xmlns="http://www.w3.org/2000/svg" width="96" height="96" viewBox="0 0 96 96">
<defs><linearGradient id="bg7" x1="0" y1="0" x2="0" y2="1"><stop offset="0" stop-color="#bfe0ff"/><stop offset="1" stop-color="#8ec3f5"/></linearGradient></defs>
<rect width="96" height="96" rx="18" fill="url(#bg7)"/><g fill="#fff" opacity=".9"><ellipse cx="24" cy="20" rx="11" ry="5"/><ellipse cx="33" cy="17" rx="8" ry="4.4"/><ellipse cx="72" cy="30" rx="9" ry="4"/></g><path d="M4 74h88v8a14 14 0 0 1-14 12h-60a14 14 0 0 1-14-12z" fill="#5a6478"/><path d="M12 80h10M32 80h10M52 80h10M72 80h10" stroke="#aab4c8" stroke-width="2.4" stroke-linecap="round"/><g><path d="M23.7 62.4l-3.4 8M36.3 62.4l3.4 8" stroke="#f2c9a4" stroke-width="2.8800000000000003" stroke-linecap="round"/><path d="M24.15 59.7h11.700000000000001v13.5h-11.700000000000001z" fill="#2b6bd8"/><path d="M26.759999999999998 73.2v9M33.24 73.2v9" stroke="#2b3a55" stroke-width="3.7800000000000002" stroke-linecap="round"/><circle cx="30" cy="53.4" r="7.2" fill="#f2c9a4"/><path d="M23.421 50.736000000000004c1.3-7 16-7 17.2 0l-2.2-1.2.5 2.1c-4.8-2.6-9.6-2.6-13-.5z" fill="#3d2b1f"/><circle cx="27.552" cy="53.859" r="0.72675" fill="#2b1d12"/><circle cx="32.448" cy="53.859" r="0.72675" fill="#2b1d12"/><ellipse cx="30" cy="56.766" rx="1.3005" ry="1.6830000000000003" fill="#b06e4a"/><circle cx="25.716" cy="55.695" r="0.95625" fill="#f0a08a" opacity=".7"/><circle cx="34.284" cy="55.695" r="0.95625" fill="#f0a08a" opacity=".7"/></g><g><path d="M64.05 63.6l-3.4 8M75.95 63.6l3.4 8" stroke="#f2c9a4" stroke-width="2.72" stroke-linecap="round"/><path d="M64.475 61.05h11.049999999999999l2.975 12.75h-17z" fill="#f26d6d"/><path d="M66.6 73.8v7.6499999999999995M73.4 73.8v7.6499999999999995" stroke="#f2c9a4" stroke-width="2.55" stroke-linecap="round"/><circle cx="70" cy="55.1" r="6.8" fill="#f2c9a4"/><path d="M63.931 53.739999999999995c0-7.4 15.4-8.2 16.8-.8 0 3-1 4.2-1 4.2l-1-3.6c-3.2 1.7-8.8 1.7-11.2-1.2l-1.8 4s-1.8-.4-1.8-2.6z" fill="#5a4632"/><circle cx="75.78" cy="50.1275" r="2.0229999999999997" fill="#5a4632"/><path d="M66.6765 55.678000000000004c1-1.4 2.6-1.4 3.6 0M70.7225 55.678000000000004c1-1.4 2.6-1.4 3.6 0" stroke="#2b1d12" stroke-width="0.9392499999999999" fill="none" stroke-linecap="round"/><path d="M68.4105 58.1345a2.1674999999999995 2.1674999999999995 0 0 0 3.179 0" stroke="#b06e4a" stroke-width="0.79475" fill="none" stroke-linecap="round"/><circle cx="65.95400000000001" cy="57.2675" r="0.903125" fill="#f0a08a" opacity=".7"/><circle cx="74.04599999999999" cy="57.2675" r="0.903125" fill="#f0a08a" opacity=".7"/></g><g><path d="M20.8 24.4h14.4a3.2 3.2 0 0 1 3.2 3.2v4a3.2 3.2 0 0 1-3.2 3.2h-8l-4 4v-4h-2.4000000000000004a3.2 3.2 0 0 1-3.2-3.2v-4a3.2 3.2 0 0 1 3.2-3.2z" fill="#fff" stroke="#3b82f6" stroke-width="1.4400000000000002"/><path d="M28 32.4c-2.72-1.7600000000000002-3.6799999999999997-3.6799999999999997-2.5600000000000005-4.960000000000001c0.8-0.96 2.08-.8 2.5600000000000005 .4 .6-0.96 1.7600000000000002-1.2800000000000002 2.5600000000000005-.4 1.1199999999999999 1.2800000000000002 .2 3.2-2.5600000000000005 4.960000000000001z" fill="#ef6f6f"/></g>
</svg>
