<svg xmlns="http://www.w3.org/2000/svg" width="96" height="96" viewBox="0 0 96 96">
<defs><linearGradient id="bg8" x1="0" y1="0" x2="0" y2="1"><stop offset="0" stop-color="#3a2f68"/><stop offset="1" stop-color="#1c1740"/></linearGradient></defs>
<rect width="96" height="96" rx="18" fill="url(#bg8)"/><circle cx="18" cy="16" r="1.4" fill="#fff"/><circle cx="60" cy="12" r="1.1" fill="#fff"/><circle cx="84" cy="24" r="1.2" fill="#fff"/><g><path d="M30.8 72v-17.099999999999998l15.2-11.399999999999999 15.2 11.399999999999999v17.099999999999998z" fill="#e8ddc8"/><path d="M27.95 54.900000000000006l18.05-13.299999999999999 18.05 13.299999999999999" stroke="#8a5f36" stroke-width="3.23" fill="none" stroke-linecap="round" stroke-linejoin="round"/><rect x="36.5" y="58.7" width="6.6499999999999995" height="5.699999999999999" rx="1.2" fill="#ffca5e"/><rect x="47.9" y="61.55" width="7.6" height="10.45" rx="1.4" fill="#7a532f"/></g><g><path d="M24 84q12 4 24 0t24 0v8h-48z" fill="#6ea3e0" opacity=".85"/><path d="M34 87.4q5 1.6 10 0M52 89.4q5 1.6 10 0" stroke="#cfe8ff" stroke-width="1.4" fill="none" stroke-linecap="round"/></g><path d="M78 12a7.5 7.5 0 1 0 5.475 12.299999999999999 8.25 8.25 0 0 1-5.475-12.299999999999999z" fill="#ffe9a8"/>
</svg>
