<svg xmlns="http://www.w3.org/2000/svg" width="96" height="96" viewBox="0 0 96 96">
<defs><linearGradient id="bg9" x1="0" y1="0" x2="0" y2="1"><stop offset="0" stop-color="#ffb36b"/><stop offset=".55" stop-color="#e77e6a"/><stop offset="1" stop-color="#5a4f9e"/></linearGradient><radialGradient id="bg9u" cx=".5" cy=".5" r=".5"><stop offset="0" stop-color="#fff0b3"/><stop offset="1" stop-color="#fff0b3" stop-opacity="0"/></radialGradient></defs>
<rect width="96" height="96" rx="18" fill="url(#bg9)"/><circle cx="76" cy="28" r="16" fill="url(#bg9u)"/><circle cx="76" cy="28" r="6.5" fill="#ffdd88"/><path d="M4 72h88v10a14 14 0 0 1-14 12h-60a14 14 0 0 1-14-12z" fill="#6ea25f"/><path d="M14 72l2-5M26 72l2-5M44 72l2-5M64 72l2-5M80 72l2-5" stroke="#547f47" stroke-width="2" stroke-linecap="round"/><g><path d="M32 64l16 16h-32z" fill="#e07a4a"/><path d="M32 64l5 16h-10z" fill="#b85a30"/><path d="M32 64v-4" stroke="#5a4632" stroke-width="1.8" stroke-linecap="round"/></g><g><path d="M64 70l12 12h-24z" fill="#e07a4a"/><path d="M64 70l3.75 12h-7.5z" fill="#b85a30"/><path d="M64 70v-3" stroke="#5a4632" stroke-width="1.35" stroke-linecap="round"/></g><g fill="#ffd75e"><circle cx="80" cy="36" r="1.36"/><circle cx="91.2" cy="44" r="1.04"/><circle cx="73.6" cy="47.2" r="0.96"/></g>
</svg>
