<svg xmlns="http://www.w3.org/2000/svg" width="96" height="96" viewBox="0 0 96 96">
<defs><linearGradient id="bg11" x1="0" y1="0" x2="0" y2="1"><stop offset="0" stop-color="#1a2f5e"/><stop offset="1" stop-color="#0d1b3d"/></linearGradient><linearGradient id="bg11s" x1="0" y1="0" x2="0" y2="1"><stop offset="0" stop-color="#fff8dc" stop-opacity=".75"/><stop offset="1" stop-color="#fff8dc" stop-opacity=".05"/></linearGradient></defs>
<rect width="96" height="96" rx="18" fill="url(#bg11)"/><path d="M38 0h20l12 64h-44z" fill="url(#bg11s)"/><path d="M8 66h80v12a17 17 0 0 1-17 16h-46a17 17 0 0 1-17-16z" fill="#7a5533"/><path d="M8 66h80v3h-80z" fill="#956a41"/><g><rect x="44.6" y="54" width="2.8" height="26" rx="1.4" fill="#cfd6e4"/><path d="M38 80c0-2.5 3.5-4 8-4s8 1.5 8 4z" fill="#9aa4b8"/><circle cx="46" cy="48" r="8.5" fill="#39445c"/><path d="M39 45.5h14M38 48.5h16M39 51.5h14" stroke="#5a6880" stroke-width="1.1"/></g><g stroke-linecap="round"><path d="M66 32c3 2 3 6 0 8s-3 6 0 8" stroke="#9db8ff" stroke-width="2.2" fill="none"/><path d="M77 27c2.4 1.6 2.4 4.8 0 6.4s-2.4 4.8 0 6.4" stroke="#9db8ff" stroke-width="1.9" fill="none" opacity=".85"/></g><g><circle cx="18" cy="24" r="8.8" fill="#fff" stroke="#0047ab" stroke-width="2.4000000000000004"/><path d="M18 18.8v5.2l3.6799999999999997 2.4000000000000004" stroke="#e34d4d" stroke-width="2.08" fill="none" stroke-linecap="round"/><circle cx="18" cy="24" r="1.2800000000000002" fill="#0047ab"/></g>
</svg>
