<svg xmlns="http://www.w3.org/2000/svg" width="96" height="96" viewBox="0 0 96 96">
<defs><linearGradient id="bg11" x1="0" y1="0" x2="0" y2="1"><stop offset="0" stop-color="#fff2d8"/><stop offset="1" stop-color="#ffdda6"/></linearGradient></defs>
<rect width="96" height="96" rx="18" fill="url(#bg11)"/><path d="M8 68h80v10a16 16 0 0 1-16 16h-48a16 16 0 0 1-16-16z" fill="#c99a63"/><path d="M8 68h80v3h-80z" fill="#a87e4e"/><path d="M20 78h20M56 82h22" stroke="#b3854f" stroke-width="1.6"/><g><path d="M27.7 62.4l-3.4 8M40.3 62.4l3.4 8" stroke="#f2c9a4" stroke-width="2.8800000000000003" stroke-linecap="round"/><path d="M28.15 59.7h11.700000000000001v13.5h-11.700000000000001z" fill="#fff"/><path d="M30.759999999999998 73.2v9M37.24 73.2v9" stroke="#2b3a55" stroke-width="3.7800000000000002" stroke-linecap="round"/><circle cx="34" cy="53.4" r="7.2" fill="#f2c9a4"/><path d="M27.421 50.736000000000004c1.3-7 16-7 17.2 0l-2.2-1.2.5 2.1c-4.8-2.6-9.6-2.6-13-.5z" fill="#3d2b1f"/><circle cx="31.552" cy="53.859" r="0.72675" fill="#2b1d12"/><circle cx="36.448" cy="53.859" r="0.72675" fill="#2b1d12"/><path d="M32.317 56.613a2.295 2.295 0 0 0 3.3660000000000005 0" stroke="#b06e4a" stroke-width="0.8415000000000001" fill="none" stroke-linecap="round"/><circle cx="29.716" cy="55.695" r="0.95625" fill="#f0a08a" opacity=".7"/><circle cx="38.284" cy="55.695" r="0.95625" fill="#f0a08a" opacity=".7"/></g><g><path d="M55.7 62.4l-3.4 8M68.3 62.4l3.4 8" stroke="#f2c9a4" stroke-width="2.8800000000000003" stroke-linecap="round"/><path d="M56.15 59.7h11.700000000000001v13.5h-11.700000000000001z" fill="#fff"/><path d="M58.76 73.2v9M65.24 73.2v9" stroke="#2b3a55" stroke-width="3.7800000000000002" stroke-linecap="round"/><circle cx="62" cy="53.4" r="7.2" fill="#f2c9a4"/><path d="M55.421 51.195l1.6-3.4 2 2 1.8-3.4 2 2.4 1.8-3 1.8 3 2-2.4 1.8 3.4 2-2 1.6 3.4c-5.6-2.6-13-2.6-18.4 0z" fill="#2b2118"/><circle cx="59.552" cy="53.859" r="0.72675" fill="#2b1d12"/><circle cx="64.44800000000001" cy="53.859" r="0.72675" fill="#2b1d12"/><path d="M60.317 56.613a2.295 2.295 0 0 0 3.3660000000000005 0" stroke="#b06e4a" stroke-width="0.8415000000000001" fill="none" stroke-linecap="round"/><circle cx="57.716" cy="55.695" r="0.95625" fill="#f0a08a" opacity=".7"/><circle cx="66.284" cy="55.695" r="0.95625" fill="#f0a08a" opacity=".7"/></g><path d="M84 26l1.4400000000000002 2.9600000000000004 3.2 .6-2.32 2.2399999999999998 .7 3.2-2.8800000000000003-1.52-2.8800000000000003 1.52 .7-3.2-2.32-2.2399999999999998 3.2-.6z" fill="#ffd75e"/>
</svg>
