<svg xmlns="http://www.w3.org/2000/svg" width="96" height="96" viewBox="0 0 96 96">
<defs><linearGradient id="bg12" x1="0" y1="0" x2="0" y2="1"><stop offset="0" stop-color="#fff2d8"/><stop offset="1" stop-color="#ffdda6"/></linearGradient></defs>
<rect width="96" height="96" rx="18" fill="url(#bg12)"/><path d="M8 68h80v10a16 16 0 0 1-16 16h-48a16 16 0 0 1-16-16z" fill="#c99a63"/><path d="M8 68h80v3h-80z" fill="#a87e4e"/><path d="M20 78h20M56 82h22" stroke="#b3854f" stroke-width="1.6"/><g><rect x="16.64" y="30.799999999999997" width="2.72" height="51.2" rx="1.36" fill="#3a3f55"/><path d="M19.36 34 C 27.6 30.799999999999997, 37.2 37.199999999999996, 45.2 34 S 54.800000000000004 32.4, 54.800000000000004 32.4 L 54.800000000000004 50 C 46.8 53.2, 37.2 46.8, 29.200000000000003 50 S 19.36 51.599999999999994, 19.36 51.599999999999994 Z" fill="#0a58c8"/><path d="M26 37.199999999999996l1.4400000000000002 2.9600000000000004 3.2 .6-2.32 2.2399999999999998 .7 3.2-2.8800000000000003-1.52-2.8800000000000003 1.52 .7-3.2-2.32-2.2399999999999998 3.2-.6z" fill="#fff"/></g><g transform="rotate(-14 64 48)"><path d="M54.5 44.2l13.299999999999999-5.699999999999999v19l-13.299999999999999-5.699999999999999z" fill="#e05555"/><rect x="50.7" y="44.2" width="4.75" height="7.6" rx="1.52" fill="#b23a3a"/><path d="M71.6 40.4l4.75-2.8499999999999996M72.55 48h5.699999999999999M71.6 55.6l4.75 2.8499999999999996" stroke="#ffd75e" stroke-width="2.09" stroke-linecap="round"/></g><g stroke-linecap="round"><path d="M80 26c3 2 3 6 0 8s-3 6 0 8" stroke="#9db8ff" stroke-width="1.6500000000000001" fill="none"/><path d="M88.25 22.25c2.4 1.6 2.4 4.8 0 6.4s-2.4 4.8 0 6.4" stroke="#9db8ff" stroke-width="1.4249999999999998" fill="none" opacity=".85"/></g>
</svg>
