<svg xmlns="http://www.w3.org/2000/svg" width="96" height="96" viewBox="0 0 96 96">
<defs><linearGradient id="bg13" x1="0" y1="0" x2="0" y2="1"><stop offset="0" stop-color="#1f3060"/><stop offset="1" stop-color="#141f42"/></linearGradient></defs>
<rect width="96" height="96" rx="18" fill="url(#bg13)"/><circle cx="16" cy="16" r="1.4" fill="#fff"/><circle cx="38" cy="10" r="1.1" fill="#fff"/><circle cx="80" cy="14" r="1.2" fill="#fff"/><circle cx="64" cy="22" r=".9" fill="#fff" opacity=".8"/><path d="M8 68h80v10a16 16 0 0 1-16 16h-48a16 16 0 0 1-16-16z" fill="#c99a63"/><path d="M8 68h80v3h-80z" fill="#a87e4e"/><path d="M20 78h20M56 82h22" stroke="#b3854f" stroke-width="1.6"/><g><rect x="51.5" y="19.5" width="6.25" height="35" rx="3.125" fill="#c98d4e" transform="rotate(24 54 37)"/><circle cx="39" cy="52" r="9.375" fill="#fff" stroke="#d8d2c2"/><path d="M33.25 47.5c2 1.6 2 5.6 0 7.2M44.75 47.5c-2 1.6-2 5.6 0 7.2" stroke="#e05555" stroke-width="1.75" fill="none"/></g><g><rect x="70.24" y="17" width="3.5200000000000005" height="13.200000000000001" rx="1.7600000000000002" fill="#ffd75e"/><circle cx="72" cy="34.6" r="2.09" fill="#ffd75e"/></g><g fill="#ffd75e"><circle cx="18" cy="32" r="1.36"/><circle cx="29.200000000000003" cy="40" r="1.04"/><circle cx="11.6" cy="43.2" r="0.96"/></g>
</svg>
