<svg xmlns="http://www.w3.org/2000/svg" width="96" height="96" viewBox="0 0 96 96">
<defs><linearGradient id="bg14" x1="0" y1="0" x2="0" y2="1"><stop offset="0" stop-color="#5a6b8f"/><stop offset="1" stop-color="#39466a"/></linearGradient></defs>
<rect width="96" height="96" rx="18" fill="url(#bg14)"/><g fill="#c3cddf"><path d="M28 24a9 9 0 0 1 1.6-17.8A12 12 0 0 1 51 3.4 8 8 0 0 1 55.5 19z"/><path d="M68 28a6.5 6.5 0 0 1 1.3-12.8 8.5 8.5 0 0 1 15.7-2A5.6 5.6 0 0 1 88 23.7z" opacity=".85"/></g><g stroke="#9db8e8" stroke-width="2.4" stroke-linecap="round"><path d="M26 30l-2.6 6M36 32l-2.6 6M46 28l-2.6 6M58 31l-2.6 6M70 34l-2.6 6M80 32l-2.6 6"/></g><path d="M4 72h88v10a14 14 0 0 1-14 12h-60a14 14 0 0 1-14-12z" fill="#6ea25f"/><path d="M14 72l2-5M26 72l2-5M44 72l2-5M64 72l2-5M80 72l2-5" stroke="#547f47" stroke-width="2" stroke-linecap="round"/><g><path d="M33.6 78v-16.2l14.4-10.8 14.4 10.8v16.2z" fill="#e8ddc8"/><path d="M30.9 61.8l17.1-12.6 17.1 12.6" stroke="#8a5f36" stroke-width="3.06" fill="none" stroke-linecap="round" stroke-linejoin="round"/><rect x="39" y="65.4" width="6.3" height="5.4" rx="1.2" fill="#ffca5e"/><rect x="49.8" y="68.1" width="7.2" height="9.9" rx="1.4" fill="#7a532f"/></g><g><path d="M6.799999999999999 58a11.200000000000001 11.200000000000001 0 0 1 22.400000000000002 0c-2.4-2-4.8-2-7 0-2.2-2-4.8-2-7 0-2.2-2-4.6-2-7 0-2.2-2-4.6-2-7 0z" fill="#3b82f6"/><path d="M18 47.6v19.200000000000003a2.4000000000000004 2.4000000000000004 0 0 1-4.800000000000001 0" stroke="#2b3a55" stroke-width="1.4400000000000002" fill="none" stroke-linecap="round"/></g>
</svg>
