<svg xmlns="http://www.w3.org/2000/svg" width="96" height="96" viewBox="0 0 96 96">
<defs><linearGradient id="bg15" x1="0" y1="0" x2="0" y2="1"><stop offset="0" stop-color="#5a6b8f"/><stop offset="1" stop-color="#39466a"/></linearGradient></defs>
<rect width="96" height="96" rx="18" fill="url(#bg15)"/><g fill="#c3cddf"><path d="M28 24a9 9 0 0 1 1.6-17.8A12 12 0 0 1 51 3.4 8 8 0 0 1 55.5 19z"/><path d="M68 28a6.5 6.5 0 0 1 1.3-12.8 8.5 8.5 0 0 1 15.7-2A5.6 5.6 0 0 1 88 23.7z" opacity=".85"/></g><g stroke="#9db8e8" stroke-width="2.4" stroke-linecap="round"><path d="M26 30l-2.6 6M36 32l-2.6 6M46 28l-2.6 6M58 31l-2.6 6M70 34l-2.6 6M80 32l-2.6 6"/></g><path d="M4 74h88v8a14 14 0 0 1-14 12h-60a14 14 0 0 1-14-12z" fill="#232c4e"/><path d="M12 80h10M32 80h10M52 80h10M72 80h10" stroke="#4a5680" stroke-width="2.4" stroke-linecap="round"/><g><path d="M44.05 63.6l-3.4 8M55.95 63.6l3.4 8" stroke="#f2c9a4" stroke-width="2.72" stroke-linecap="round"/><path d="M44.475 61.05h11.049999999999999v12.75h-11.049999999999999z" fill="#2b6bd8"/><path d="M46.94 73.8v8.5M53.06 73.8v8.5" stroke="#2b3a55" stroke-width="3.57" stroke-linecap="round"/><circle cx="50" cy="55.1" r="6.8" fill="#f2c9a4"/><path d="M43.786500000000004 52.583999999999996c1.3-7 16-7 17.2 0l-2.2-1.2.5 2.1c-4.8-2.6-9.6-2.6-13-.5z" fill="#3d2b1f"/><circle cx="47.688" cy="55.533500000000004" r="0.6863749999999998" fill="#2b1d12"/><circle cx="52.312" cy="55.533500000000004" r="0.6863749999999998" fill="#2b1d12"/><path d="M48.555 58.423500000000004h2.8899999999999997" stroke="#b06e4a" stroke-width="0.79475" stroke-linecap="round"/><circle cx="45.954" cy="57.2675" r="0.903125" fill="#f0a08a" opacity=".7"/><circle cx="54.046" cy="57.2675" r="0.903125" fill="#f0a08a" opacity=".7"/></g><g><path d="M31.900000000000002 46a16.099999999999998 16.099999999999998 0 0 1 32.199999999999996 0c-2.4-2-4.8-2-7 0-2.2-2-4.8-2-7 0-2.2-2-4.6-2-7 0-2.2-2-4.6-2-7 0z" fill="#ef6f6f"/><path d="M48 31.05v27.599999999999998a3.4499999999999997 3.4499999999999997 0 0 1-6.8999999999999995 0" stroke="#2b3a55" stroke-width="2.07" fill="none" stroke-linecap="round"/></g>
</svg>
