<svg xmlns="http://www.w3.org/2000/svg" width="96" height="96" viewBox="0 0 96 96">
<defs><linearGradient id="bg16" x1="0" y1="0" x2="0" y2="1"><stop offset="0" stop-color="#3a2f68"/><stop offset="1" stop-color="#1c1740"/></linearGradient></defs>
<rect width="96" height="96" rx="18" fill="url(#bg16)"/><circle cx="18" cy="16" r="1.4" fill="#fff"/><circle cx="60" cy="12" r="1.1" fill="#fff"/><circle cx="84" cy="24" r="1.2" fill="#fff"/><path d="M8 64h80v14a16 16 0 0 1-16 16h-48a16 16 0 0 1-16-16z" fill="#a57847"/><path d="M8 64h80v3h-80z" fill="#8a5f36"/><g><circle cx="34" cy="50" r="9.5" fill="#f2c9a4"/><path d="M25.4 46.4c1.3-7 16-7 17.2 0l-2.2-1.2.5 2.1c-4.8-2.6-9.6-2.6-13-.5z" fill="#3d2b1f"/><circle cx="30.8" cy="50.6" r="0.95" fill="#2b1d12"/><circle cx="37.2" cy="50.6" r="0.95" fill="#2b1d12"/><path d="M31.8 55a3 3 0 0 1 4.4 0" stroke="#b06e4a" stroke-width="1.1" fill="none" stroke-linecap="round"/><circle cx="28.4" cy="53" r="1.25" fill="#f0a08a" opacity=".7"/><circle cx="39.6" cy="53" r="1.25" fill="#f0a08a" opacity=".7"/><path d="M22 67c1-6.5 5.5-9.5 12-9.5s11 3 12 9.5z" fill="#2b6bd8"/></g><g><rect x="60.6" y="38.1" width="10.8" height="19.8" rx="2.3400000000000003" fill="#2b3a55"/><rect x="61.86" y="39.9" width="8.28" height="13.5" rx="1.26" fill="#3e4f78"/><circle cx="66" cy="55.56" r="1.08" fill="#8a93ad"/></g><g><path d="M82 31.25c-5.25-3.4499999999999997-7.199999999999999-7.050000000000001-5.1-9.600000000000001c1.5-1.7999999999999998 4.050000000000001-1.2000000000000002 5.1 .8 1.0499999999999998-1.7999999999999998 3.5999999999999996-2.4000000000000004 5.1-.8 2.0999999999999996 2.55 .2 6.1499999999999995-5.1 9.600000000000001z" fill="#ef6f6f"/><path d="M82 21.95l-1.2000000000000002 2.55 2.25 1.7999999999999998-1.7999999999999998 3" stroke="#e9f1fc" stroke-width="1.2000000000000002" fill="none" stroke-linecap="round" stroke-linejoin="round"/></g>
</svg>
