<svg xmlns="http://www.w3.org/2000/svg" width="96" height="96" viewBox="0 0 96 96">
<defs><linearGradient id="bg17" x1="0" y1="0" x2="0" y2="1"><stop offset="0" stop-color="#bfe0ff"/><stop offset="1" stop-color="#8ec3f5"/></linearGradient></defs>
<rect width="96" height="96" rx="18" fill="url(#bg17)"/><g fill="#fff" opacity=".9"><ellipse cx="24" cy="20" rx="11" ry="5"/><ellipse cx="33" cy="17" rx="8" ry="4.4"/><ellipse cx="72" cy="30" rx="9" ry="4"/></g><path d="M8 68h80v10a16 16 0 0 1-16 16h-48a16 16 0 0 1-16-16z" fill="#c99a63"/><path d="M8 68h80v3h-80z" fill="#a87e4e"/><path d="M20 78h20M56 82h22" stroke="#b3854f" stroke-width="1.6"/><g fill="#20264a"><path d="M12 88c1-5.25 3-8.25 6-8.25s5.25 3 6 8.25z"/><path d="M24.75 88c1-5.25 3-8.25 6-8.25s5.25 3 6 8.25z"/><path d="M37.5 88c1-5.25 3-8.25 6-8.25s5.25 3 6 8.25z"/><path d="M50.25 88c1-5.25 3-8.25 6-8.25s5.25 3 6 8.25z"/><path d="M63 88c1-5.25 3-8.25 6-8.25s5.25 3 6 8.25z"/></g><path d="M16.5 78.25l0.75-3M29.25 78.25l0.75-3M42 78.25l0.75-3M54.75 78.25l0.75-3M67.5 78.25l0.75-3" stroke="#20264a" stroke-width="2.25" stroke-linecap="round"/><g><rect x="14.725" y="34" width="2.55" height="48" rx="1.275" fill="#3a3f55"/><path d="M17.275 37 C 25 34, 34 40, 41.5 37 S 50.5 35.5, 50.5 35.5 L 50.5 52 C 43 55, 34 49, 26.5 52 S 17.275 53.5, 17.275 53.5 Z" fill="#0a58c8"/><path d="M23.5 40l1.35 2.7750000000000004 3 .6-2.175 2.0999999999999996 .7 3-2.7-1.4249999999999998-2.7 1.4249999999999998 .7-3-2.175-2.0999999999999996 3-.6z" fill="#fff"/></g><g stroke-linecap="round"><path d="M72 34c3 2 3 6 0 8s-3 6 0 8" stroke="#9db8ff" stroke-width="1.87" fill="none"/><path d="M81.35 29.75c2.4 1.6 2.4 4.8 0 6.4s-2.4 4.8 0 6.4" stroke="#9db8ff" stroke-width="1.615" fill="none" opacity=".85"/></g>
</svg>
