<svg xmlns="http://www.w3.org/2000/svg" width="96" height="96" viewBox="0 0 96 96">
<defs><linearGradient id="bg18" x1="0" y1="0" x2="0" y2="1"><stop offset="0" stop-color="#fff2d8"/><stop offset="1" stop-color="#ffdda6"/></linearGradient></defs>
<rect width="96" height="96" rx="18" fill="url(#bg18)"/><path d="M8 64h80v14a16 16 0 0 1-16 16h-48a16 16 0 0 1-16-16z" fill="#a57847"/><path d="M8 64h80v3h-80z" fill="#8a5f36"/><g><rect x="29.2" y="33.4" width="33.6" height="23.1" rx="3.1500000000000004" fill="#2b3a55"/><rect x="31.93" y="36.129999999999995" width="28.14" height="17.64" rx="1.8900000000000001" fill="#9dc1f5"/><circle cx="41.8" cy="42.85" r="3.1500000000000004" fill="#f2c9a4"/><path d="M37.6 50.2c1-3 3-4.4 5.5-4.4 2 0 3.6 1 4.5 3" fill="#e05555"/><path d="M50.2 39.7l5.25-2.1" stroke="#c98d4e" stroke-width="2.1" stroke-linecap="round"/><path d="M41.8 58.6l-3.1500000000000004 4.2M50.2 58.6l3.1500000000000004 4.2" stroke="#2b3a55" stroke-width="2.1" stroke-linecap="round"/></g><path d="M80 22l1.53 3.145 3.4 .6-2.465 2.38 .7 3.4-3.06-1.615-3.06 1.615 .7-3.4-2.465-2.38 3.4-.6z" fill="#ffd75e"/>
</svg>
