<svg xmlns="http://www.w3.org/2000/svg" width="96" height="96" viewBox="0 0 96 96">
<defs><linearGradient id="bg19" x1="0" y1="0" x2="0" y2="1"><stop offset="0" stop-color="#3a2f68"/><stop offset="1" stop-color="#1c1740"/></linearGradient></defs>
<rect width="96" height="96" rx="18" fill="url(#bg19)"/><circle cx="18" cy="16" r="1.4" fill="#fff"/><circle cx="60" cy="12" r="1.1" fill="#fff"/><circle cx="84" cy="24" r="1.2" fill="#fff"/><path d="M8 64h80v14a16 16 0 0 1-16 16h-48a16 16 0 0 1-16-16z" fill="#a57847"/><path d="M8 64h80v3h-80z" fill="#8a5f36"/><g><path d="M37.2 38.2h17.6v6.6000000000000005a8.8 8.8 0 0 1-17.6 0z" fill="#ffd75e"/><path d="M37.2 40.4c-4.4 0-6.6000000000000005 5.5-1.1 7.700000000000001M54.8 40.4c4.4 0 6.6000000000000005 5.5 1.1 7.700000000000001" stroke="#ffd75e" stroke-width="2.2" fill="none"/><rect x="43.8" y="51.4" width="4.4" height="4.4" fill="#e8b23d"/><path d="M39.4 58h13.200000000000001l1.54 3.9600000000000004h-16.28z" fill="#a5772a"/><path d="M43.14 43.04l1.4300000000000002 2.8600000000000003 3.19 .4-2.3100000000000005 2.2 .5 3.19-2.8600000000000003-1.54-2.8600000000000003 1.54 .5-3.19-2.3100000000000005-2.2 3.19-.4z" fill="#fff" opacity=".85"/></g><g fill="#ffd75e"><circle cx="70" cy="28" r="1.7"/><circle cx="84" cy="38" r="1.3"/><circle cx="62" cy="42" r="1.2"/></g>
</svg>
