<svg xmlns="http://www.w3.org/2000/svg" width="96" height="96" viewBox="0 0 96 96">
<defs><linearGradient id="bg20" x1="0" y1="0" x2="0" y2="1"><stop offset="0" stop-color="#1a2f5e"/><stop offset="1" stop-color="#0d1b3d"/></linearGradient><linearGradient id="bg20s" x1="0" y1="0" x2="0" y2="1"><stop offset="0" stop-color="#fff8dc" stop-opacity=".75"/><stop offset="1" stop-color="#fff8dc" stop-opacity=".05"/></linearGradient></defs>
<rect width="96" height="96" rx="18" fill="url(#bg20)"/><path d="M38 0h20l12 64h-44z" fill="url(#bg20s)"/><path d="M8 66h80v12a17 17 0 0 1-17 16h-46a17 17 0 0 1-17-16z" fill="#7a5533"/><path d="M8 66h80v3h-80z" fill="#956a41"/><g><path d="M55.7 62.4l-4 -7M68.3 62.4l4 -7" stroke="#f2c9a4" stroke-width="2.8800000000000003" stroke-linecap="round"/><path d="M56.15 59.7h11.700000000000001v13.5h-11.700000000000001z" fill="#e05555"/><path d="M58.76 73.2v9M65.24 73.2v9" stroke="#2b3a55" stroke-width="3.7800000000000002" stroke-linecap="round"/><circle cx="62" cy="53.4" r="7.2" fill="#f2c9a4"/><path d="M55.421 50.736000000000004c1.3-7 16-7 17.2 0l-2.2-1.2.5 2.1c-4.8-2.6-9.6-2.6-13-.5z" fill="#3d2b1f"/><path d="M58.481 54.012c1-1.4 2.6-1.4 3.6 0M62.765 54.012c1-1.4 2.6-1.4 3.6 0" stroke="#2b1d12" stroke-width="0.9945" fill="none" stroke-linecap="round"/><path d="M60.317 56.613a2.295 2.295 0 0 0 3.3660000000000005 0" stroke="#b06e4a" stroke-width="0.8415000000000001" fill="none" stroke-linecap="round"/><circle cx="57.716" cy="55.695" r="0.95625" fill="#f0a08a" opacity=".7"/><circle cx="66.284" cy="55.695" r="0.95625" fill="#f0a08a" opacity=".7"/></g><g><rect x="15.2" y="40.4" width="25.6" height="19.200000000000003" rx="1.6" fill="#fdfaf2" stroke="#b98a5a" stroke-width="1.92"/><path d="M19.2 45.2h17.6M19.2 50h17.6M19.2 54.8h11.200000000000001" stroke="#b9c3d6" stroke-width="1.4400000000000002" stroke-linecap="round"/><circle cx="36" cy="43.28" r="1.2800000000000002" fill="#e05555"/></g><g><rect x="70" y="12" width="3" height="6" rx="1.5" fill="#ff8f6b" transform="rotate(25 70 12)"/><rect x="90.8" y="18.4" width="3" height="6" rx="1.5" fill="#6bd0ff" transform="rotate(-30 90.8 18.4)"/><rect x="78" y="32.8" width="3" height="6" rx="1.5" fill="#8affc1" transform="rotate(40 78 32.8)"/><circle cx="94" cy="31.200000000000003" r="1.6" fill="#ffd75e"/></g>
</svg>
