<svg xmlns="http://www.w3.org/2000/svg" width="96" height="96" viewBox="0 0 96 96">
<defs><linearGradient id="bg21" x1="0" y1="0" x2="0" y2="1"><stop offset="0" stop-color="#fff2d8"/><stop offset="1" stop-color="#ffdda6"/></linearGradient></defs>
<rect width="96" height="96" rx="18" fill="url(#bg21)"/><path d="M8 64h80v14a16 16 0 0 1-16 16h-48a16 16 0 0 1-16-16z" fill="#a57847"/><path d="M8 64h80v3h-80z" fill="#8a5f36"/><g><path d="M27.65 40.8l4.6-3.4499999999999997h11.5l4.6 3.4499999999999997-2.9899999999999998 4.6-2.07-1.6099999999999999v12.649999999999999h-10.579999999999998v-12.649999999999999l-2.07 1.6099999999999999z" fill="#fff" stroke="#c3cddf" stroke-width="1"/></g><g><path d="M53.45 46.4l3.8-2.8499999999999996h9.5l3.8 2.8499999999999996-2.4699999999999998 3.8-1.71-1.3299999999999998v10.45h-8.739999999999998v-10.45l-1.71 1.3299999999999998z" fill="#9dc1f5" stroke="#c3cddf" stroke-width="1"/></g><g><circle cx="18" cy="24" r="8.25" fill="#fff" stroke="#0047ab" stroke-width="2.25"/><path d="M18 19.125v4.875l3.4499999999999997 2.25" stroke="#e34d4d" stroke-width="1.9500000000000002" fill="none" stroke-linecap="round"/><circle cx="18" cy="24" r="1.2000000000000002" fill="#0047ab"/></g>
</svg>
