<svg xmlns="http://www.w3.org/2000/svg" width="96" height="96" viewBox="0 0 96 96">
<defs><linearGradient id="bg22" x1="0" y1="0" x2="0" y2="1"><stop offset="0" stop-color="#1a2f5e"/><stop offset="1" stop-color="#0d1b3d"/></linearGradient><linearGradient id="bg22s" x1="0" y1="0" x2="0" y2="1"><stop offset="0" stop-color="#fff8dc" stop-opacity=".75"/><stop offset="1" stop-color="#fff8dc" stop-opacity=".05"/></linearGradient></defs>
<rect width="96" height="96" rx="18" fill="url(#bg22)"/><path d="M38 0h20l12 64h-44z" fill="url(#bg22s)"/><path d="M8 68h80v10a16 16 0 0 1-16 16h-48a16 16 0 0 1-16-16z" fill="#c99a63"/><path d="M8 68h80v3h-80z" fill="#a87e4e"/><path d="M20 78h20M56 82h22" stroke="#b3854f" stroke-width="1.6"/><g><path d="M23.7 62.4l-3.4 8M36.3 62.4l3.4 8" stroke="#f2c9a4" stroke-width="2.8800000000000003" stroke-linecap="round"/><path d="M24.15 59.7h11.700000000000001v13.5h-11.700000000000001z" fill="#2b6bd8"/><path d="M26.759999999999998 73.2v9M33.24 73.2v9" stroke="#2b3a55" stroke-width="3.7800000000000002" stroke-linecap="round"/><circle cx="30" cy="53.4" r="7.2" fill="#f2c9a4"/><path d="M23.421 50.736000000000004c1.3-7 16-7 17.2 0l-2.2-1.2.5 2.1c-4.8-2.6-9.6-2.6-13-.5z" fill="#3d2b1f"/><circle cx="27.552" cy="53.859" r="0.72675" fill="#2b1d12"/><circle cx="32.448" cy="53.859" r="0.72675" fill="#2b1d12"/><ellipse cx="30" cy="56.766" rx="1.3005" ry="1.6830000000000003" fill="#b06e4a"/><circle cx="25.716" cy="55.695" r="0.95625" fill="#f0a08a" opacity=".7"/><circle cx="34.284" cy="55.695" r="0.95625" fill="#f0a08a" opacity=".7"/></g><g transform="rotate(-14 64 44)"><path d="M54 40l14-6v20l-14-6z" fill="#e05555"/><rect x="50" y="40" width="5" height="8" rx="1.6" fill="#b23a3a"/><path d="M72 36l5-3M73 44h6M72 52l5 3" stroke="#ffd75e" stroke-width="2.2" stroke-linecap="round"/></g><g stroke-linecap="round"><path d="M80 26c3 2 3 6 0 8s-3 6 0 8" stroke="#9db8ff" stroke-width="1.6500000000000001" fill="none"/><path d="M88.25 22.25c2.4 1.6 2.4 4.8 0 6.4s-2.4 4.8 0 6.4" stroke="#9db8ff" stroke-width="1.4249999999999998" fill="none" opacity=".85"/></g>
</svg>
