<svg xmlns="http://www.w3.org/2000/svg" width="96" height="96" viewBox="0 0 96 96">
<defs><linearGradient id="bg23" x1="0" y1="0" x2="0" y2="1"><stop offset="0" stop-color="#3a2f68"/><stop offset="1" stop-color="#1c1740"/></linearGradient></defs>
<rect width="96" height="96" rx="18" fill="url(#bg23)"/><circle cx="18" cy="16" r="1.4" fill="#fff"/><circle cx="60" cy="12" r="1.1" fill="#fff"/><circle cx="84" cy="24" r="1.2" fill="#fff"/><path d="M4 74h88v8a14 14 0 0 1-14 12h-60a14 14 0 0 1-14-12z" fill="#5a6478"/><path d="M12 80h10M32 80h10M52 80h10M72 80h10" stroke="#aab4c8" stroke-width="2.4" stroke-linecap="round"/><g><path d="M39.35 61.2l-3.4 8M52.65 61.2l3.4 8" stroke="#f2c9a4" stroke-width="3.04" stroke-linecap="round"/><path d="M39.825 58.35h12.35v14.25h-12.35z" fill="#42506e"/><path d="M42.58 72.6v9.5M49.42 72.6v9.5" stroke="#2b3a55" stroke-width="3.9899999999999998" stroke-linecap="round"/><circle cx="46" cy="51.7" r="7.6" fill="#f2c9a4"/><path d="M39.0555 48.888c1.3-7 16-7 17.2 0l-2.2-1.2.5 2.1c-4.8-2.6-9.6-2.6-13-.5z" fill="#3d2b1f"/><circle cx="43.416" cy="52.1845" r="0.767125" fill="#2b1d12"/><circle cx="48.584" cy="52.1845" r="0.767125" fill="#2b1d12"/><path d="M44.2235 55.737500000000004a2.4225 2.4225 0 0 1 3.5530000000000004 0" stroke="#b06e4a" stroke-width="0.8882500000000001" fill="none" stroke-linecap="round"/><circle cx="41.478" cy="54.1225" r="1.009375" fill="#f0a08a" opacity=".7"/><circle cx="50.522" cy="54.1225" r="1.009375" fill="#f0a08a" opacity=".7"/></g><g stroke="#ffd75e" stroke-width="2.28" stroke-linecap="round"><path d="M74 28l4.75 1.9M72.1 37.5h5.699999999999999M75.9 47l4.75-1.9"/></g><g><path d="M20 36.9c-4.8999999999999995-3.2199999999999998-6.72-6.58-4.76-8.959999999999999c1.4-1.68 3.78-1.1199999999999999 4.76 .8 0.9799999999999999-1.68 3.36-2.2399999999999998 4.76-.8 1.9599999999999997 2.38 .2 5.739999999999999-4.76 8.959999999999999z" fill="#ef6f6f"/><path d="M20 28.22l-1.1199999999999999 2.38 2.0999999999999996 1.68-1.68 2.8" stroke="#e9f1fc" stroke-width="1.1199999999999999" fill="none" stroke-linecap="round" stroke-linejoin="round"/></g>
</svg>
