<svg xmlns="http://www.w3.org/2000/svg" width="96" height="96" viewBox="0 0 96 96">
<defs><linearGradient id="bg24" x1="0" y1="0" x2="0" y2="1"><stop offset="0" stop-color="#bfe0ff"/><stop offset="1" stop-color="#8ec3f5"/></linearGradient></defs>
<rect width="96" height="96" rx="18" fill="url(#bg24)"/><g fill="#fff" opacity=".9"><ellipse cx="24" cy="20" rx="11" ry="5"/><ellipse cx="33" cy="17" rx="8" ry="4.4"/><ellipse cx="72" cy="30" rx="9" ry="4"/></g><path d="M4 74h88v8a14 14 0 0 1-14 12h-60a14 14 0 0 1-14-12z" fill="#5a6478"/><path d="M12 80h10M32 80h10M52 80h10M72 80h10" stroke="#aab4c8" stroke-width="2.4" stroke-linecap="round"/><g><path d="M33.35 61.2l-3.4 8M46.65 61.2l3.4 8" stroke="#f2c9a4" stroke-width="3.04" stroke-linecap="round"/><path d="M33.825 58.35h12.35v14.25h-12.35z" fill="#e05555"/><path d="M36.58 72.6v9.5M43.42 72.6v9.5" stroke="#2b3a55" stroke-width="3.9899999999999998" stroke-linecap="round"/><circle cx="40" cy="51.7" r="7.6" fill="#f2c9a4"/><path d="M33.0555 48.888c1.3-7 16-7 17.2 0l-2.2-1.2.5 2.1c-4.8-2.6-9.6-2.6-13-.5z" fill="#3d2b1f"/><circle cx="37.416" cy="52.1845" r="0.767125" fill="#2b1d12"/><circle cx="42.584" cy="52.1845" r="0.767125" fill="#2b1d12"/><path d="M38.2235 55.737500000000004a2.4225 2.4225 0 0 1 3.5530000000000004 0" stroke="#b06e4a" stroke-width="0.8882500000000001" fill="none" stroke-linecap="round"/><circle cx="35.478" cy="54.1225" r="1.009375" fill="#f0a08a" opacity=".7"/><circle cx="44.522" cy="54.1225" r="1.009375" fill="#f0a08a" opacity=".7"/></g><g stroke="#ffd75e" stroke-width="2.28" stroke-linecap="round"><path d="M70 32l4.75 1.9M68.1 41.5h5.699999999999999M71.9 51l4.75-1.9"/></g><g><circle cx="16" cy="20" r="7.699999999999999" fill="#fff" stroke="#0047ab" stroke-width="2.0999999999999996"/><path d="M16 15.45v4.55l3.2199999999999998 2.0999999999999996" stroke="#e34d4d" stroke-width="1.8199999999999998" fill="none" stroke-linecap="round"/><circle cx="16" cy="20" r="1.1199999999999999" fill="#0047ab"/></g>
</svg>
