<svg xmlns="http://www.w3.org/2000/svg" width="96" height="96" viewBox="0 0 96 96">
<defs><linearGradient id="bg26" x1="0" y1="0" x2="0" y2="1"><stop offset="0" stop-color="#ffb36b"/><stop offset=".55" stop-color="#e77e6a"/><stop offset="1" stop-color="#5a4f9e"/></linearGradient><radialGradient id="bg26u" cx=".5" cy=".5" r=".5"><stop offset="0" stop-color="#fff0b3"/><stop offset="1" stop-color="#fff0b3" stop-opacity="0"/></radialGradient></defs>
<rect width="96" height="96" rx="18" fill="url(#bg26)"/><circle cx="76" cy="28" r="16" fill="url(#bg26u)"/><circle cx="76" cy="28" r="6.5" fill="#ffdd88"/><path d="M8 68h80v10a16 16 0 0 1-16 16h-48a16 16 0 0 1-16-16z" fill="#c99a63"/><path d="M8 68h80v3h-80z" fill="#a87e4e"/><path d="M20 78h20M56 82h22" stroke="#b3854f" stroke-width="1.6"/><g transform="rotate(-14 42 46)"><path d="M29.5 41l17.5-7.5v25l-17.5-7.5z" fill="#e05555"/><rect x="24.5" y="41" width="6.25" height="10" rx="2" fill="#b23a3a"/><path d="M52 36l6.25-3.75M53.25 46h7.5M52 56l6.25 3.75" stroke="#ffd75e" stroke-width="2.75" stroke-linecap="round"/></g><g stroke-linecap="round"><path d="M70 26c3 2 3 6 0 8s-3 6 0 8" stroke="#9db8ff" stroke-width="2.09" fill="none"/><path d="M80.45 21.25c2.4 1.6 2.4 4.8 0 6.4s-2.4 4.8 0 6.4" stroke="#9db8ff" stroke-width="1.805" fill="none" opacity=".85"/></g><g fill="#20264a"><path d="M14 88c1-4.55 2.6-7.15 5.2-7.15s4.55 2.6 5.2 7.15z"/><path d="M25.05 88c1-4.55 2.6-7.15 5.2-7.15s4.55 2.6 5.2 7.15z"/><path d="M36.1 88c1-4.55 2.6-7.15 5.2-7.15s4.55 2.6 5.2 7.15z"/><path d="M47.15 88c1-4.55 2.6-7.15 5.2-7.15s4.55 2.6 5.2 7.15z"/><path d="M58.2 88c1-4.55 2.6-7.15 5.2-7.15s4.55 2.6 5.2 7.15z"/></g><path d="M17.9 79.55l0.65-2.6M28.95 79.55l0.65-2.6M40 79.55l0.65-2.6M51.05 79.55l0.65-2.6M62.1 79.55l0.65-2.6" stroke="#20264a" stroke-width="1.9500000000000002" stroke-linecap="round"/>
</svg>
