<svg xmlns="http://www.w3.org/2000/svg" width="96" height="96" viewBox="0 0 96 96">
<defs><linearGradient id="bg27" x1="0" y1="0" x2="0" y2="1"><stop offset="0" stop-color="#2a3f76"/><stop offset=".7" stop-color="#1b2a55"/><stop offset="1" stop-color="#15224a"/></linearGradient><radialGradient id="bg27l" cx=".5" cy=".5" r=".5"><stop offset="0" stop-color="#ffe9a8" stop-opacity=".95"/><stop offset="1" stop-color="#ffe9a8" stop-opacity="0"/></radialGradient></defs>
<rect width="96" height="96" rx="18" fill="url(#bg27)"/><path d="M4 20q22 12 44 0t44 0" stroke="#0e1a3c" stroke-width="1.6" fill="none"/><circle cx="16" cy="24" r="4.6" fill="url(#bg27l)"/><circle cx="16" cy="24" r="1.6" fill="#ffd75e"/><circle cx="34" cy="28" r="4.6" fill="url(#bg27l)"/><circle cx="34" cy="28" r="1.6" fill="#ffd75e"/><circle cx="52" cy="29" r="4.6" fill="url(#bg27l)"/><circle cx="52" cy="29" r="1.6" fill="#ffd75e"/><circle cx="70" cy="27" r="4.6" fill="url(#bg27l)"/><circle cx="70" cy="27" r="1.6" fill="#ffd75e"/><circle cx="86" cy="22" r="4.6" fill="url(#bg27l)"/><circle cx="86" cy="22" r="1.6" fill="#ffd75e"/><path d="M8 68h80v10a16 16 0 0 1-16 16h-48a16 16 0 0 1-16-16z" fill="#c99a63"/><path d="M8 68h80v3h-80z" fill="#a87e4e"/><path d="M20 78h20M56 82h22" stroke="#b3854f" stroke-width="1.6"/><g><rect x="14.555" y="27.6" width="2.8899999999999997" height="54.4" rx="1.4449999999999998" fill="#3a3f55"/><path d="M17.445 31 C 26.2 27.6, 36.4 34.4, 44.9 31 S 55.1 29.300000000000004, 55.1 29.300000000000004 L 55.1 48 C 46.599999999999994 51.400000000000006, 36.4 44.6, 27.9 48 S 17.445 49.7, 17.445 49.7 Z" fill="#0a58c8"/><path d="M24.5 34.4l1.53 3.145 3.4 .6-2.465 2.38 .7 3.4-3.06-1.615-3.06 1.615 .7-3.4-2.465-2.38 3.4-.6z" fill="#fff"/></g><g stroke-linecap="round"><path d="M60 40c3 2 3 6 0 8s-3 6 0 8" stroke="#9db8ff" stroke-width="2.09" fill="none"/><path d="M70.45 35.25c2.4 1.6 2.4 4.8 0 6.4s-2.4 4.8 0 6.4" stroke="#9db8ff" stroke-width="1.805" fill="none" opacity=".85"/></g><path d="M80 37.25c-5.25-3.4499999999999997-7.199999999999999-7.050000000000001-5.1-9.600000000000001c1.5-1.7999999999999998 4.050000000000001-1.2000000000000002 5.1 .8 1.0499999999999998-1.7999999999999998 3.5999999999999996-2.4000000000000004 5.1-.8 2.0999999999999996 2.55 .2 6.1499999999999995-5.1 9.600000000000001z" fill="#ff9d9d"/>
</svg>
