<svg xmlns="http://www.w3.org/2000/svg" width="96" height="96" viewBox="0 0 96 96">
<defs><linearGradient id="bg28" x1="0" y1="0" x2="0" y2="1"><stop offset="0" stop-color="#1a2f5e"/><stop offset="1" stop-color="#0d1b3d"/></linearGradient><linearGradient id="bg28s" x1="0" y1="0" x2="0" y2="1"><stop offset="0" stop-color="#fff8dc" stop-opacity=".75"/><stop offset="1" stop-color="#fff8dc" stop-opacity=".05"/></linearGradient></defs>
<rect width="96" height="96" rx="18" fill="url(#bg28)"/><path d="M38 0h20l12 64h-44z" fill="url(#bg28s)"/><path d="M8 66h80v12a17 17 0 0 1-17 16h-46a17 17 0 0 1-17-16z" fill="#7a5533"/><path d="M8 66h80v3h-80z" fill="#956a41"/><g><circle cx="42" cy="52" r="9.5" fill="#f2c9a4"/><path d="M33.4 49l1.6-3.4 2 2 1.8-3.4 2 2.4 1.8-3 1.8 3 2-2.4 1.8 3.4 2-2 1.6 3.4c-5.6-2.6-13-2.6-18.4 0z" fill="#2b2118"/><circle cx="38.8" cy="52.6" r="0.95" fill="#2b1d12"/><circle cx="45.2" cy="52.6" r="0.95" fill="#2b1d12"/><ellipse cx="42" cy="56.4" rx="1.7" ry="2.2" fill="#b06e4a"/><circle cx="36.4" cy="55" r="1.25" fill="#f0a08a" opacity=".7"/><circle cx="47.6" cy="55" r="1.25" fill="#f0a08a" opacity=".7"/><path d="M30 69c1-6.5 5.5-9.5 12-9.5s11 3 12 9.5z" fill="#2b6bd8"/></g><g><rect x="68.24" y="17" width="3.5200000000000005" height="13.200000000000001" rx="1.7600000000000002" fill="#ffd75e"/><circle cx="70" cy="34.6" r="2.09" fill="#ffd75e"/></g><g stroke-linecap="round"><path d="M18 34c3 2 3 6 0 8s-3 6 0 8" stroke="#9db8ff" stroke-width="1.87" fill="none"/><path d="M27.35 29.75c2.4 1.6 2.4 4.8 0 6.4s-2.4 4.8 0 6.4" stroke="#9db8ff" stroke-width="1.615" fill="none" opacity=".85"/></g>
</svg>
