<svg xmlns="http://www.w3.org/2000/svg" width="96" height="96" viewBox="0 0 96 96">
<defs><linearGradient id="bg28" x1="0" y1="0" x2="0" y2="1"><stop offset="0" stop-color="#fff2d8"/><stop offset="1" stop-color="#ffdda6"/></linearGradient></defs>
<rect width="96" height="96" rx="18" fill="url(#bg28)"/><path d="M8 64h80v14a16 16 0 0 1-16 16h-48a16 16 0 0 1-16-16z" fill="#a57847"/><path d="M8 64h80v3h-80z" fill="#8a5f36"/><g><path d="M38.48 34.2h7.040000000000001v8.8l7.700000000000001 13.200000000000001q1.7600000000000002 3.3000000000000003 -2.2 3.3000000000000003h-18.480000000000004q-3.9600000000000004 0 -2.2 -3.3000000000000003l7.700000000000001 -13.200000000000001z" fill="#dcecfb" stroke="#8fb0d8" stroke-width="1.54"/><path d="M33.64 55.54l3.3000000000000003 -5.5h10.12l3.3000000000000003 5.5q1.1 2.64 -1.7600000000000002 2.64h-13.200000000000001q-2.8600000000000003 0 -1.7600000000000002 -2.64z" fill="#7fd8a8"/><circle cx="39.8" cy="45.2" r="1.4300000000000002" fill="#7fd8a8"/><circle cx="44.64" cy="40.8" r="1.1" fill="#7fd8a8"/></g><g><rect x="66.24" y="15" width="3.5200000000000005" height="13.200000000000001" rx="1.7600000000000002" fill="#ef6f6f"/><circle cx="68" cy="32.6" r="2.09" fill="#ef6f6f"/></g><g fill="#ffd75e"><circle cx="82" cy="46" r="1.36"/><circle cx="93.2" cy="54" r="1.04"/><circle cx="75.6" cy="57.2" r="0.96"/></g>
</svg>
