<svg xmlns="http://www.w3.org/2000/svg" width="96" height="96" viewBox="0 0 96 96">
<defs><linearGradient id="bg29" x1="0" y1="0" x2="0" y2="1"><stop offset="0" stop-color="#ffb36b"/><stop offset=".55" stop-color="#e77e6a"/><stop offset="1" stop-color="#5a4f9e"/></linearGradient><radialGradient id="bg29u" cx=".5" cy=".5" r=".5"><stop offset="0" stop-color="#fff0b3"/><stop offset="1" stop-color="#fff0b3" stop-opacity="0"/></radialGradient></defs>
<rect width="96" height="96" rx="18" fill="url(#bg29)"/><circle cx="76" cy="28" r="16" fill="url(#bg29u)"/><circle cx="76" cy="28" r="6.5" fill="#ffdd88"/><path d="M4 72h88v10a14 14 0 0 1-14 12h-60a14 14 0 0 1-14-12z" fill="#6ea25f"/><path d="M14 72l2-5M26 72l2-5M44 72l2-5M64 72l2-5M80 72l2-5" stroke="#547f47" stroke-width="2" stroke-linecap="round"/><g><path d="M31.200000000000003 38.4l4.8-3.5999999999999996h12l4.8 3.5999999999999996-3.12 4.8-2.16-1.68v13.2h-11.04v-13.2l-2.16 1.68z" fill="#fff" stroke="#c3cddf" stroke-width="1"/></g><g fill="#8a6134"><ellipse cx="42" cy="58" rx="5" ry="2"/><ellipse cx="51" cy="61" rx="3.4" ry="1.5"/><circle cx="36" cy="61" r="1.4"/></g><path d="M74 26l1.71 3.515 3.8 .6-2.755 2.6599999999999997 .7 3.8-3.42-1.805-3.42 1.805 .7-3.8-2.755-2.6599999999999997 3.8-.6z" fill="#ffd75e"/>
</svg>
