<svg xmlns="http://www.w3.org/2000/svg" width="96" height="96" viewBox="0 0 96 96">
<defs><linearGradient id="bg30" x1="0" y1="0" x2="0" y2="1"><stop offset="0" stop-color="#5a6b8f"/><stop offset="1" stop-color="#39466a"/></linearGradient></defs>
<rect width="96" height="96" rx="18" fill="url(#bg30)"/><g fill="#c3cddf"><path d="M28 24a9 9 0 0 1 1.6-17.8A12 12 0 0 1 51 3.4 8 8 0 0 1 55.5 19z"/><path d="M68 28a6.5 6.5 0 0 1 1.3-12.8 8.5 8.5 0 0 1 15.7-2A5.6 5.6 0 0 1 88 23.7z" opacity=".85"/></g><g stroke="#9db8e8" stroke-width="2.4" stroke-linecap="round"><path d="M26 30l-2.6 6M36 32l-2.6 6M46 28l-2.6 6M58 31l-2.6 6M70 34l-2.6 6M80 32l-2.6 6"/></g><path d="M4 74h88v8a14 14 0 0 1-14 12h-60a14 14 0 0 1-14-12z" fill="#232c4e"/><path d="M12 80h10M32 80h10M52 80h10M72 80h10" stroke="#4a5680" stroke-width="2.4" stroke-linecap="round"/><g><path d="M37.35 61.2l-3.4 8M50.65 61.2l3.4 8" stroke="#f2c9a4" stroke-width="3.04" stroke-linecap="round"/><path d="M37.825 58.35h12.35v14.25h-12.35z" fill="#2b6bd8"/><path d="M40.58 72.6v9.5M47.42 72.6v9.5" stroke="#2b3a55" stroke-width="3.9899999999999998" stroke-linecap="round"/><circle cx="44" cy="51.7" r="7.6" fill="#f2c9a4"/><path d="M37.0555 48.888c1.3-7 16-7 17.2 0l-2.2-1.2.5 2.1c-4.8-2.6-9.6-2.6-13-.5z" fill="#3d2b1f"/><circle cx="41.416" cy="52.1845" r="0.767125" fill="#2b1d12"/><circle cx="46.584" cy="52.1845" r="0.767125" fill="#2b1d12"/><path d="M42.2235 55.737500000000004a2.4225 2.4225 0 0 1 3.5530000000000004 0" stroke="#b06e4a" stroke-width="0.8882500000000001" fill="none" stroke-linecap="round"/><circle cx="39.478" cy="54.1225" r="1.009375" fill="#f0a08a" opacity=".7"/><circle cx="48.522" cy="54.1225" r="1.009375" fill="#f0a08a" opacity=".7"/></g><g><path d="M63.5 52a10.5 10.5 0 0 1 21 0c-2.4-2-4.8-2-7 0-2.2-2-4.8-2-7 0-2.2-2-4.6-2-7 0-2.2-2-4.6-2-7 0z" fill="#3b82f6"/><path d="M74 42.25v18a2.25 2.25 0 0 1-4.5 0" stroke="#2b3a55" stroke-width="1.35" fill="none" stroke-linecap="round"/></g>
</svg>
