<svg xmlns="http://www.w3.org/2000/svg" width="96" height="96" viewBox="0 0 96 96">
<defs><linearGradient id="bg31" x1="0" y1="0" x2="0" y2="1"><stop offset="0" stop-color="#1a2f5e"/><stop offset="1" stop-color="#0d1b3d"/></linearGradient><linearGradient id="bg31s" x1="0" y1="0" x2="0" y2="1"><stop offset="0" stop-color="#fff8dc" stop-opacity=".75"/><stop offset="1" stop-color="#fff8dc" stop-opacity=".05"/></linearGradient></defs>
<rect width="96" height="96" rx="18" fill="url(#bg31)"/><path d="M38 0h20l12 64h-44z" fill="url(#bg31s)"/><path d="M8 68h80v10a16 16 0 0 1-16 16h-48a16 16 0 0 1-16-16z" fill="#c99a63"/><path d="M8 68h80v3h-80z" fill="#a87e4e"/><path d="M20 78h20M56 82h22" stroke="#b3854f" stroke-width="1.6"/><g><path d="M39 58l-4 -7M53 58l4 -7" stroke="#f2c9a4" stroke-width="3.2" stroke-linecap="round"/><path d="M39.5 55h13v15h-13z" fill="#e05555"/><path d="M42.4 70v10M49.6 70v10" stroke="#2b3a55" stroke-width="4.2" stroke-linecap="round"/><circle cx="46" cy="48" r="8" fill="#f2c9a4"/><path d="M38.69 45.55l1.6-3.4 2 2 1.8-3.4 2 2.4 1.8-3 1.8 3 2-2.4 1.8 3.4 2-2 1.6 3.4c-5.6-2.6-13-2.6-18.4 0z" fill="#2b2118"/><path d="M42.09 48.68c1-1.4 2.6-1.4 3.6 0M46.85 48.68c1-1.4 2.6-1.4 3.6 0" stroke="#2b1d12" stroke-width="1.105" fill="none" stroke-linecap="round"/><path d="M44.13 51.57a2.55 2.55 0 0 0 3.74 0" stroke="#b06e4a" stroke-width="0.935" fill="none" stroke-linecap="round"/><circle cx="41.24" cy="50.55" r="1.0625" fill="#f0a08a" opacity=".7"/><circle cx="50.76" cy="50.55" r="1.0625" fill="#f0a08a" opacity=".7"/></g><path d="M18 22l1.8 3.7 4 .6-2.9 2.8 .7 4-3.6-1.9-3.6 1.9 .7-4-2.9-2.8 4-.6z" fill="#ffd75e"/><path d="M74 18l1.4400000000000002 2.9600000000000004 3.2 .6-2.32 2.2399999999999998 .7 3.2-2.8800000000000003-1.52-2.8800000000000003 1.52 .7-3.2-2.32-2.2399999999999998 3.2-.6z" fill="#ffd75e"/><g fill="#20264a"><path d="M14 90c1-3.8500000000000005 2.2-6.050000000000001 4.4-6.050000000000001s3.8500000000000005 2.2 4.4 6.050000000000001z"/><path d="M23.35 90c1-3.8500000000000005 2.2-6.050000000000001 4.4-6.050000000000001s3.8500000000000005 2.2 4.4 6.050000000000001z"/><path d="M32.7 90c1-3.8500000000000005 2.2-6.050000000000001 4.4-6.050000000000001s3.8500000000000005 2.2 4.4 6.050000000000001z"/><path d="M42.05 90c1-3.8500000000000005 2.2-6.050000000000001 4.4-6.050000000000001s3.8500000000000005 2.2 4.4 6.050000000000001z"/><path d="M51.400000000000006 90c1-3.8500000000000005 2.2-6.050000000000001 4.4-6.050000000000001s3.8500000000000005 2.2 4.4 6.050000000000001z"/></g><path d="M17.3 82.85l0.55-2.2M26.650000000000002 82.85l0.55-2.2M36 82.85l0.55-2.2M45.35 82.85l0.55-2.2M54.7 82.85l0.55-2.2" stroke="#20264a" stroke-width="1.6500000000000001" stroke-linecap="round"/>
</svg>
