<svg xmlns="http://www.w3.org/2000/svg" width="96" height="96" viewBox="0 0 96 96">
<defs><linearGradient id="bg32" x1="0" y1="0" x2="0" y2="1"><stop offset="0" stop-color="#3a2f68"/><stop offset="1" stop-color="#1c1740"/></linearGradient></defs>
<rect width="96" height="96" rx="18" fill="url(#bg32)"/><circle cx="18" cy="16" r="1.4" fill="#fff"/><circle cx="60" cy="12" r="1.1" fill="#fff"/><circle cx="84" cy="24" r="1.2" fill="#fff"/><path d="M8 64h80v14a16 16 0 0 1-16 16h-48a16 16 0 0 1-16-16z" fill="#a57847"/><path d="M8 64h80v3h-80z" fill="#8a5f36"/><g><circle cx="38" cy="50" r="9.5" fill="#f2c9a4"/><path d="M29.4 46.4c1.3-7 16-7 17.2 0l-2.2-1.2.5 2.1c-4.8-2.6-9.6-2.6-13-.5z" fill="#3d2b1f"/><circle cx="34.8" cy="50.6" r="0.95" fill="#2b1d12"/><circle cx="41.2" cy="50.6" r="0.95" fill="#2b1d12"/><path d="M36 54.6h4" stroke="#b06e4a" stroke-width="1.1" stroke-linecap="round"/><circle cx="32.4" cy="53" r="1.25" fill="#f0a08a" opacity=".7"/><circle cx="43.6" cy="53" r="1.25" fill="#f0a08a" opacity=".7"/><path d="M26 67c1-6.5 5.5-9.5 12-9.5s11 3 12 9.5z" fill="#2b6bd8"/></g><g><ellipse cx="70" cy="48" rx="8.549999999999999" ry="11.399999999999999" fill="#cfe8ff" stroke="#8a5f36" stroke-width="2.4699999999999998"/><path d="M67.15 42.3l-1.9 4.75" stroke="#fff" stroke-width="1.71" stroke-linecap="round"/><path d="M70 59.4v4.75M66.2 64.15h7.6" stroke="#8a5f36" stroke-width="2.09" stroke-linecap="round"/></g><path d="M84 28.55c-4.55-2.9899999999999998-6.24-6.11-4.42-8.32c1.3-1.56 3.5100000000000002-1.04 4.42 .8 0.9099999999999999-1.56 3.12-2.08 4.42-.8 1.8199999999999998 2.21 .2 5.33-4.42 8.32z" fill="#ef6f6f"/>
</svg>
