<svg xmlns="http://www.w3.org/2000/svg" width="96" height="96" viewBox="0 0 96 96">
<defs><linearGradient id="bg33" x1="0" y1="0" x2="0" y2="1"><stop offset="0" stop-color="#1f3060"/><stop offset="1" stop-color="#141f42"/></linearGradient></defs>
<rect width="96" height="96" rx="18" fill="url(#bg33)"/><circle cx="16" cy="16" r="1.4" fill="#fff"/><circle cx="38" cy="10" r="1.1" fill="#fff"/><circle cx="80" cy="14" r="1.2" fill="#fff"/><circle cx="64" cy="22" r=".9" fill="#fff" opacity=".8"/><path d="M4 74h88v8a14 14 0 0 1-14 12h-60a14 14 0 0 1-14-12z" fill="#232c4e"/><path d="M12 80h10M32 80h10M52 80h10M72 80h10" stroke="#4a5680" stroke-width="2.4" stroke-linecap="round"/><g><path d="M31.7 62.4l-4 -7M44.3 62.4l4 -7" stroke="#f2c9a4" stroke-width="2.8800000000000003" stroke-linecap="round"/><path d="M32.15 59.7h11.700000000000001v13.5h-11.700000000000001z" fill="#2b6bd8"/><path d="M34.76 73.2v9M41.24 73.2v9" stroke="#2b3a55" stroke-width="3.7800000000000002" stroke-linecap="round"/><circle cx="38" cy="53.4" r="7.2" fill="#f2c9a4"/><path d="M31.421 50.736000000000004c1.3-7 16-7 17.2 0l-2.2-1.2.5 2.1c-4.8-2.6-9.6-2.6-13-.5z" fill="#3d2b1f"/><path d="M34.481 54.012c1-1.4 2.6-1.4 3.6 0M38.765 54.012c1-1.4 2.6-1.4 3.6 0" stroke="#2b1d12" stroke-width="0.9945" fill="none" stroke-linecap="round"/><path d="M36.317 56.613a2.295 2.295 0 0 0 3.3660000000000005 0" stroke="#b06e4a" stroke-width="0.8415000000000001" fill="none" stroke-linecap="round"/><circle cx="33.716" cy="55.695" r="0.95625" fill="#f0a08a" opacity=".7"/><circle cx="42.284" cy="55.695" r="0.95625" fill="#f0a08a" opacity=".7"/></g><path d="M76 12a8.5 8.5 0 1 0 6.205 13.939999999999998 9.35 9.35 0 0 1-6.205-13.939999999999998z" fill="#ffe9a8"/><g stroke-linecap="round"><path d="M64 38c3 2 3 6 0 8s-3 6 0 8" stroke="#9db8ff" stroke-width="2.09" fill="none"/><path d="M74.45 33.25c2.4 1.6 2.4 4.8 0 6.4s-2.4 4.8 0 6.4" stroke="#9db8ff" stroke-width="1.805" fill="none" opacity=".85"/></g>
</svg>
