<svg xmlns="http://www.w3.org/2000/svg" width="96" height="96" viewBox="0 0 96 96">
<defs><linearGradient id="bg33" x1="0" y1="0" x2="0" y2="1"><stop offset="0" stop-color="#1f3060"/><stop offset="1" stop-color="#141f42"/></linearGradient></defs>
<rect width="96" height="96" rx="18" fill="url(#bg33)"/><circle cx="16" cy="16" r="1.4" fill="#fff"/><circle cx="38" cy="10" r="1.1" fill="#fff"/><circle cx="80" cy="14" r="1.2" fill="#fff"/><circle cx="64" cy="22" r=".9" fill="#fff" opacity=".8"/><path d="M4 74h88v8a14 14 0 0 1-14 12h-60a14 14 0 0 1-14-12z" fill="#232c4e"/><path d="M12 80h10M32 80h10M52 80h10M72 80h10" stroke="#4a5680" stroke-width="2.4" stroke-linecap="round"/><g><circle cx="40" cy="59.3" r="6.175" fill="#f2c9a4"/><path d="M34.281 56.906c1.3-7 16-7 17.2 0l-2.2-1.2.5 2.1c-4.8-2.6-9.6-2.6-13-.5z" fill="#3d2b1f"/><circle cx="37.872" cy="59.699" r="0.6317499999999999" fill="#2b1d12"/><circle cx="42.128" cy="59.699" r="0.6317499999999999" fill="#2b1d12"/><ellipse cx="40" cy="62.226" rx="1.1304999999999998" ry="1.4629999999999999" fill="#b06e4a"/><circle cx="36.276" cy="61.294999999999995" r="0.8312499999999999" fill="#f0a08a" opacity=".7"/><circle cx="43.724" cy="61.294999999999995" r="0.8312499999999999" fill="#f0a08a" opacity=".7"/><path d="M35.25 65.95c0.95-3 2.8499999999999996-4.5 5.225-4.5 2.28 0 4.18 1.71 4.75 4.75l0.38 5.699999999999999-3.04 0.95-2.09-4.75-2.09 5.699999999999999-3.42 3.04z" fill="#e05555"/><path d="M35.63 78.3l-5 7.6 3.61 0.95 4.56-6.08M40 80.2l0.95 8.17 3.61-.5.5-8.17" fill="none" stroke="#f2c9a4" stroke-width="3.42" stroke-linecap="round"/><path d="M26.700000000000003 65h4.75M24.8 70.7h5.699999999999999M27.65 76.4h4.369999999999999" stroke="#9db8e8" stroke-width="1.9" stroke-linecap="round"/></g><path d="M78 12a8.5 8.5 0 1 0 6.205 13.939999999999998 9.35 9.35 0 0 1-6.205-13.939999999999998z" fill="#ffe9a8"/><g><rect x="18.56" y="21" width="2.8800000000000003" height="10.8" rx="1.4400000000000002" fill="#9db8e8"/><circle cx="20" cy="35.4" r="1.71" fill="#9db8e8"/></g>
</svg>
