<svg xmlns="http://www.w3.org/2000/svg" width="96" height="96" viewBox="0 0 96 96">
<defs><linearGradient id="bg34" x1="0" y1="0" x2="0" y2="1"><stop offset="0" stop-color="#1f3060"/><stop offset="1" stop-color="#141f42"/></linearGradient></defs>
<rect width="96" height="96" rx="18" fill="url(#bg34)"/><circle cx="16" cy="16" r="1.4" fill="#fff"/><circle cx="38" cy="10" r="1.1" fill="#fff"/><circle cx="80" cy="14" r="1.2" fill="#fff"/><circle cx="64" cy="22" r=".9" fill="#fff" opacity=".8"/><path d="M4 72h88v10a14 14 0 0 1-14 12h-60a14 14 0 0 1-14-12z" fill="#6ea25f"/><path d="M14 72l2-5M26 72l2-5M44 72l2-5M64 72l2-5M80 72l2-5" stroke="#547f47" stroke-width="2" stroke-linecap="round"/><g><path d="M30.8 78v-17.099999999999998l15.2-11.399999999999999 15.2 11.399999999999999v17.099999999999998z" fill="#e8ddc8"/><path d="M27.95 60.900000000000006l18.05-13.299999999999999 18.05 13.299999999999999" stroke="#8a5f36" stroke-width="3.23" fill="none" stroke-linecap="round" stroke-linejoin="round"/><rect x="36.5" y="64.7" width="6.6499999999999995" height="5.699999999999999" rx="1.2" fill="#ffca5e"/><rect x="47.9" y="67.55" width="7.6" height="10.45" rx="1.4" fill="#7a532f"/></g><path d="M18 14a7.5 7.5 0 1 0 5.475 12.299999999999999 8.25 8.25 0 0 1-5.475-12.299999999999999z" fill="#ffe9a8"/><g stroke-linecap="round"><path d="M78 40c3 2 3 6 0 8s-3 6 0 8" stroke="#9db8ff" stroke-width="1.54" fill="none"/><path d="M85.7 36.5c2.4 1.6 2.4 4.8 0 6.4s-2.4 4.8 0 6.4" stroke="#9db8ff" stroke-width="1.3299999999999998" fill="none" opacity=".85"/></g>
</svg>
