<svg xmlns="http://www.w3.org/2000/svg" width="96" height="96" viewBox="0 0 96 96">
<defs><linearGradient id="bg35" x1="0" y1="0" x2="0" y2="1"><stop offset="0" stop-color="#fff2d8"/><stop offset="1" stop-color="#ffdda6"/></linearGradient></defs>
<rect width="96" height="96" rx="18" fill="url(#bg35)"/><path d="M8 68h80v10a16 16 0 0 1-16 16h-48a16 16 0 0 1-16-16z" fill="#c99a63"/><path d="M8 68h80v3h-80z" fill="#a87e4e"/><path d="M20 78h20M56 82h22" stroke="#b3854f" stroke-width="1.6"/><g transform="rotate(-14 38 48)"><path d="M27 43.6l15.400000000000002-6.6000000000000005v22l-15.400000000000002-6.6000000000000005z" fill="#e05555"/><rect x="22.599999999999998" y="43.6" width="5.5" height="8.8" rx="1.7600000000000002" fill="#b23a3a"/><path d="M46.8 39.2l5.5-3.3000000000000003M47.9 48h6.6000000000000005M46.8 56.8l5.5 3.3000000000000003" stroke="#ffd75e" stroke-width="2.4200000000000004" stroke-linecap="round"/></g><g stroke-linecap="round"><path d="M66 28c3 2 3 6 0 8s-3 6 0 8" stroke="#9db8ff" stroke-width="1.9800000000000002" fill="none"/><path d="M75.9 23.5c2.4 1.6 2.4 4.8 0 6.4s-2.4 4.8 0 6.4" stroke="#9db8ff" stroke-width="1.71" fill="none" opacity=".85"/></g><g fill="#8a6134"><path d="M14 88c1-4.2 2.4-6.6 4.8-6.6s4.2 2.4 4.8 6.6z"/><path d="M24.2 88c1-4.2 2.4-6.6 4.8-6.6s4.2 2.4 4.8 6.6z"/><path d="M34.4 88c1-4.2 2.4-6.6 4.8-6.6s4.2 2.4 4.8 6.6z"/><path d="M44.599999999999994 88c1-4.2 2.4-6.6 4.8-6.6s4.2 2.4 4.8 6.6z"/><path d="M54.8 88c1-4.2 2.4-6.6 4.8-6.6s4.2 2.4 4.8 6.6z"/></g><path d="M17.6 80.2l0.6-2.4M27.8 80.2l0.6-2.4M38 80.2l0.6-2.4M48.2 80.2l0.6-2.4M58.4 80.2l0.6-2.4" stroke="#8a6134" stroke-width="1.7999999999999998" stroke-linecap="round"/>
</svg>
