<svg xmlns="http://www.w3.org/2000/svg" width="96" height="96" viewBox="0 0 96 96">
<defs><linearGradient id="bg35" x1="0" y1="0" x2="0" y2="1"><stop offset="0" stop-color="#fff2d8"/><stop offset="1" stop-color="#ffdda6"/></linearGradient></defs>
<rect width="96" height="96" rx="18" fill="url(#bg35)"/><path d="M8 68h80v10a16 16 0 0 1-16 16h-48a16 16 0 0 1-16-16z" fill="#c99a63"/><path d="M8 68h80v3h-80z" fill="#a87e4e"/><path d="M20 78h20M56 82h22" stroke="#b3854f" stroke-width="1.6"/><g><path d="M27.65 38.8l4.6-3.4499999999999997h11.5l4.6 3.4499999999999997-2.9899999999999998 4.6-2.07-1.6099999999999999v12.649999999999999h-10.579999999999998v-12.649999999999999l-2.07 1.6099999999999999z" fill="#fff" stroke="#c3cddf" stroke-width="1"/></g><g stroke="#9db8e8" stroke-width="2" stroke-linecap="round" stroke-linejoin="round" fill="none"><path d="M64 26h6l-6 6h6"/><path d="M75 18h4.4l-4.4 4.4h4.4" opacity=".8"/></g><g><rect x="80.72" y="40" width="2.5600000000000005" height="9.600000000000001" rx="1.2800000000000002" fill="#ef6f6f"/><circle cx="82" cy="52.8" r="1.52" fill="#ef6f6f"/></g>
</svg>
