<svg xmlns="http://www.w3.org/2000/svg" width="96" height="96" viewBox="0 0 96 96">
<defs><linearGradient id="bg36" x1="0" y1="0" x2="0" y2="1"><stop offset="0" stop-color="#3a2f68"/><stop offset="1" stop-color="#1c1740"/></linearGradient></defs>
<rect width="96" height="96" rx="18" fill="url(#bg36)"/><circle cx="18" cy="16" r="1.4" fill="#fff"/><circle cx="60" cy="12" r="1.1" fill="#fff"/><circle cx="84" cy="24" r="1.2" fill="#fff"/><path d="M8 64h80v14a16 16 0 0 1-16 16h-48a16 16 0 0 1-16-16z" fill="#a57847"/><path d="M8 64h80v3h-80z" fill="#8a5f36"/><g><rect x="35.7" y="36.45" width="12.600000000000001" height="23.1" rx="2.7300000000000004" fill="#2b3a55"/><rect x="37.17" y="38.55" width="9.66" height="15.75" rx="1.47" fill="#9dc1f5"/><circle cx="42" cy="56.82" r="1.26" fill="#8a93ad"/></g><g><path d="M70 34.3c-6.3-4.14-8.64-8.46-6.12-11.520000000000001c1.8-2.16 4.86-1.4400000000000002 6.12 .8 1.26-2.16 4.32-2.8800000000000003 6.12-.8 2.52 3.06 .2 7.38-6.12 11.520000000000001z" fill="#ef6f6f"/><path d="M70 23.14l-1.4400000000000002 3.06 2.7 2.16-2.16 3.6" stroke="#e9f1fc" stroke-width="1.4400000000000002" fill="none" stroke-linecap="round" stroke-linejoin="round"/></g><g><circle cx="18" cy="22" r="7.699999999999999" fill="#fff" stroke="#0047ab" stroke-width="2.0999999999999996"/><path d="M18 17.45v4.55l3.2199999999999998 2.0999999999999996" stroke="#e34d4d" stroke-width="1.8199999999999998" fill="none" stroke-linecap="round"/><circle cx="18" cy="22" r="1.1199999999999999" fill="#0047ab"/></g>
</svg>
