<svg xmlns="http://www.w3.org/2000/svg" width="96" height="96" viewBox="0 0 96 96">
<defs><linearGradient id="bg37" x1="0" y1="0" x2="0" y2="1"><stop offset="0" stop-color="#bfe0ff"/><stop offset="1" stop-color="#8ec3f5"/></linearGradient></defs>
<rect width="96" height="96" rx="18" fill="url(#bg37)"/><g fill="#fff" opacity=".9"><ellipse cx="24" cy="20" rx="11" ry="5"/><ellipse cx="33" cy="17" rx="8" ry="4.4"/><ellipse cx="72" cy="30" rx="9" ry="4"/></g><path d="M4 72h88v10a14 14 0 0 1-14 12h-60a14 14 0 0 1-14-12z" fill="#6ea25f"/><path d="M14 72l2-5M26 72l2-5M44 72l2-5M64 72l2-5M80 72l2-5" stroke="#547f47" stroke-width="2" stroke-linecap="round"/><g><rect x="35.36" y="62.4" width="5.28" height="17.6" rx="2.2" fill="#8a5f36"/><circle cx="38" cy="55.8" r="12.100000000000001" fill="#f7b2c4"/><circle cx="29.2" cy="62.4" r="7.700000000000001" fill="#f4a3b8"/><circle cx="46.8" cy="62.4" r="7.700000000000001" fill="#f4a3b8"/></g><g fill="#f7b2c4"><circle cx="66" cy="22" r="2.4"/><circle cx="78" cy="31.6" r="1.92"/><circle cx="56.4" cy="36.4" r="1.7999999999999998"/><circle cx="70.8" cy="46" r="1.68"/></g>
</svg>
