<svg xmlns="http://www.w3.org/2000/svg" width="96" height="96" viewBox="0 0 96 96">
<defs><linearGradient id="bg38" x1="0" y1="0" x2="0" y2="1"><stop offset="0" stop-color="#1a2f5e"/><stop offset="1" stop-color="#0d1b3d"/></linearGradient><linearGradient id="bg38s" x1="0" y1="0" x2="0" y2="1"><stop offset="0" stop-color="#fff8dc" stop-opacity=".75"/><stop offset="1" stop-color="#fff8dc" stop-opacity=".05"/></linearGradient></defs>
<rect width="96" height="96" rx="18" fill="url(#bg38)"/><path d="M38 0h20l12 64h-44z" fill="url(#bg38s)"/><path d="M8 68h80v10a16 16 0 0 1-16 16h-48a16 16 0 0 1-16-16z" fill="#c99a63"/><path d="M8 68h80v3h-80z" fill="#a87e4e"/><path d="M20 78h20M56 82h22" stroke="#b3854f" stroke-width="1.6"/><g><path d="M22.05 63.6l-3.4 8M33.95 63.6l3.4 8" stroke="#f2c9a4" stroke-width="2.72" stroke-linecap="round"/><path d="M22.475 61.05h11.049999999999999v12.75h-11.049999999999999z" fill="#2b6bd8"/><path d="M24.94 73.8v8.5M31.06 73.8v8.5" stroke="#2b3a55" stroke-width="3.57" stroke-linecap="round"/><circle cx="28" cy="55.1" r="6.8" fill="#f2c9a4"/><path d="M21.7865 52.583999999999996c1.3-7 16-7 17.2 0l-2.2-1.2.5 2.1c-4.8-2.6-9.6-2.6-13-.5z" fill="#3d2b1f"/><circle cx="25.688" cy="55.533500000000004" r="0.6863749999999998" fill="#2b1d12"/><circle cx="30.312" cy="55.533500000000004" r="0.6863749999999998" fill="#2b1d12"/><path d="M26.4105 58.7125a2.1674999999999995 2.1674999999999995 0 0 1 3.179 0" stroke="#b06e4a" stroke-width="0.79475" fill="none" stroke-linecap="round"/><circle cx="23.954" cy="57.2675" r="0.903125" fill="#f0a08a" opacity=".7"/><circle cx="32.046" cy="57.2675" r="0.903125" fill="#f0a08a" opacity=".7"/></g><g transform="rotate(-14 62 46)"><path d="M51.5 41.8l14.700000000000001-6.300000000000001v21l-14.700000000000001-6.300000000000001z" fill="#e05555"/><rect x="47.3" y="41.8" width="5.25" height="8.4" rx="1.6800000000000002" fill="#b23a3a"/><path d="M70.4 37.6l5.25-3.1500000000000004M71.45 46h6.300000000000001M70.4 54.4l5.25 3.1500000000000004" stroke="#ffd75e" stroke-width="2.3100000000000005" stroke-linecap="round"/></g><g><rect x="82.24" y="15" width="3.5200000000000005" height="13.200000000000001" rx="1.7600000000000002" fill="#ef6f6f"/><circle cx="84" cy="32.6" r="2.09" fill="#ef6f6f"/></g>
</svg>
