<svg xmlns="http://www.w3.org/2000/svg" width="96" height="96" viewBox="0 0 96 96">
<defs><linearGradient id="bg39" x1="0" y1="0" x2="0" y2="1"><stop offset="0" stop-color="#3a2f68"/><stop offset="1" stop-color="#1c1740"/></linearGradient></defs>
<rect width="96" height="96" rx="18" fill="url(#bg39)"/><circle cx="18" cy="16" r="1.4" fill="#fff"/><circle cx="60" cy="12" r="1.1" fill="#fff"/><circle cx="84" cy="24" r="1.2" fill="#fff"/><path d="M8 64h80v14a16 16 0 0 1-16 16h-48a16 16 0 0 1-16-16z" fill="#a57847"/><path d="M8 64h80v3h-80z" fill="#8a5f36"/><g><circle cx="38" cy="50" r="9.5" fill="#f2c9a4"/><path d="M29.4 46.4c1.3-7 16-7 17.2 0l-2.2-1.2.5 2.1c-4.8-2.6-9.6-2.6-13-.5z" fill="#3d2b1f"/><path d="M33.6 50.6c1 1.1 2.4 1.1 3.4 0M39 50.6c1 1.1 2.4 1.1 3.4 0" stroke="#2b1d12" stroke-width="1.1" fill="none" stroke-linecap="round"/><path d="M35.8 54.2a3 3 0 0 0 4.4 0" stroke="#b06e4a" stroke-width="1.1" fill="none" stroke-linecap="round"/><circle cx="32.4" cy="53" r="1.25" fill="#f0a08a" opacity=".7"/><circle cx="43.6" cy="53" r="1.25" fill="#f0a08a" opacity=".7"/><path d="M26 67c1-6.5 5.5-9.5 12-9.5s11 3 12 9.5z" fill="#2b6bd8"/></g><g transform="rotate(-5 70 62)"><rect x="60.4" y="56.8" width="19.200000000000003" height="10.4" rx="1.2800000000000002" fill="#fdfaf2"/><path d="M70 56.8v10.4" stroke="#d8d2c2" stroke-width="0.96"/><path d="M62.8 60h4.800000000000001M62.8 62.4h4.800000000000001M72.4 60h4.800000000000001M72.4 62.4h4.800000000000001" stroke="#b9c3d6" stroke-width="1.04" stroke-linecap="round"/></g><g stroke-linecap="round"><path d="M82 28c3 2 3 6 0 8s-3 6 0 8" stroke="#9db8ff" stroke-width="1.4300000000000002" fill="none"/><path d="M89.15 24.75c2.4 1.6 2.4 4.8 0 6.4s-2.4 4.8 0 6.4" stroke="#9db8ff" stroke-width="1.2349999999999999" fill="none" opacity=".85"/></g>
</svg>
