<svg xmlns="http://www.w3.org/2000/svg" width="96" height="96" viewBox="0 0 96 96">
<defs><linearGradient id="bg41" x1="0" y1="0" x2="0" y2="1"><stop offset="0" stop-color="#bfe0ff"/><stop offset="1" stop-color="#8ec3f5"/></linearGradient></defs>
<rect width="96" height="96" rx="18" fill="url(#bg41)"/><g fill="#fff" opacity=".9"><ellipse cx="24" cy="20" rx="11" ry="5"/><ellipse cx="33" cy="17" rx="8" ry="4.4"/><ellipse cx="72" cy="30" rx="9" ry="4"/></g><path d="M4 74h88v8a14 14 0 0 1-14 12h-60a14 14 0 0 1-14-12z" fill="#5a6478"/><path d="M12 80h10M32 80h10M52 80h10M72 80h10" stroke="#aab4c8" stroke-width="2.4" stroke-linecap="round"/><g stroke="#2b3a55" stroke-width="2.28" fill="none"><circle cx="32.6" cy="66" r="7.6"/><circle cx="55.4" cy="66" r="7.6"/><path d="M32.6 66l6.6499999999999995-11.399999999999999h8.549999999999999l7.6 11.399999999999999M39.25 54.6l-3.8-2.8499999999999996h5.699999999999999M47.8 54.6l-3.8 11.399999999999999"/><path d="M45.9 50.325h5.699999999999999" stroke-linecap="round"/></g><g><rect x="74.16" y="16.5" width="3.6799999999999997" height="13.799999999999999" rx="1.8399999999999999" fill="#ef6f6f"/><circle cx="76" cy="34.9" r="2.1849999999999996" fill="#ef6f6f"/></g>
</svg>
