<svg xmlns="http://www.w3.org/2000/svg" width="96" height="96" viewBox="0 0 96 96">
<defs><linearGradient id="bg42" x1="0" y1="0" x2="0" y2="1"><stop offset="0" stop-color="#bfe0ff"/><stop offset="1" stop-color="#8ec3f5"/></linearGradient></defs>
<rect width="96" height="96" rx="18" fill="url(#bg42)"/><g fill="#fff" opacity=".9"><ellipse cx="24" cy="20" rx="11" ry="5"/><ellipse cx="33" cy="17" rx="8" ry="4.4"/><ellipse cx="72" cy="30" rx="9" ry="4"/></g><g><circle cx="30" cy="58" r="9.025" fill="#f2c9a4"/><path d="M21.83 54.58c1.3-7 16-7 17.2 0l-2.2-1.2.5 2.1c-4.8-2.6-9.6-2.6-13-.5z" fill="#3d2b1f"/><circle cx="26.96" cy="58.57" r="0.9025" fill="#2b1d12"/><circle cx="33.04" cy="58.57" r="0.9025" fill="#2b1d12"/><ellipse cx="30" cy="62.18" rx="1.615" ry="2.09" fill="#b06e4a"/><circle cx="24.68" cy="60.85" r="1.1875" fill="#f0a08a" opacity=".7"/><circle cx="35.32" cy="60.85" r="1.1875" fill="#f0a08a" opacity=".7"/><path d="M18.6 74.15c1-6.5 5.5-9.5 12-9.5s11 3 12 9.5z" fill="#2b6bd8"/></g><g><circle cx="68" cy="58" r="8.55" fill="#f2c9a4"/><path d="M60.44 56.2c0-7.4 15.4-8.2 16.8-.8 0 3-1 4.2-1 4.2l-1-3.6c-3.2 1.7-8.8 1.7-11.2-1.2l-1.8 4s-1.8-.4-1.8-2.6z" fill="#5a4632"/><circle cx="75.2" cy="51.7" r="2.52" fill="#5a4632"/><circle cx="65.12" cy="58.54" r="0.855" fill="#2b1d12"/><circle cx="70.88" cy="58.54" r="0.855" fill="#2b1d12"/><path d="M66.2 62.14h3.6" stroke="#b06e4a" stroke-width="0.9900000000000001" stroke-linecap="round"/><circle cx="62.96" cy="60.7" r="1.125" fill="#f0a08a" opacity=".7"/><circle cx="73.04" cy="60.7" r="1.125" fill="#f0a08a" opacity=".7"/><path d="M57.2 73.3c1-6.5 5.5-9.5 12-9.5s11 3 12 9.5z" fill="#2b6bd8"/></g><g><path d="M39.9 17.7h16.2a3.6 3.6 0 0 1 3.6 3.6v4.5a3.6 3.6 0 0 1-3.6 3.6h-9l-4.5 4.5v-4.5h-2.7a3.6 3.6 0 0 1-3.6-3.6v-4.5a3.6 3.6 0 0 1 3.6-3.6z" fill="#fff" stroke="#3b82f6" stroke-width="1.62"/><path d="M45.84 22.56a2.3400000000000003 2.3400000000000003 0 1 1 3.24 2.16c-0.9 .4-1.08 0.81-1.08 1.62" stroke="#3b82f6" stroke-width="1.35" fill="none" stroke-linecap="round"/><circle cx="48" cy="27.96" r="0.81" fill="#3b82f6"/></g>
</svg>
