<svg xmlns="http://www.w3.org/2000/svg" width="96" height="96" viewBox="0 0 96 96">
<defs><linearGradient id="bg43" x1="0" y1="0" x2="0" y2="1"><stop offset="0" stop-color="#ffb36b"/><stop offset=".55" stop-color="#e77e6a"/><stop offset="1" stop-color="#5a4f9e"/></linearGradient><radialGradient id="bg43u" cx=".5" cy=".5" r=".5"><stop offset="0" stop-color="#fff0b3"/><stop offset="1" stop-color="#fff0b3" stop-opacity="0"/></radialGradient></defs>
<rect width="96" height="96" rx="18" fill="url(#bg43)"/><circle cx="76" cy="28" r="16" fill="url(#bg43u)"/><circle cx="76" cy="28" r="6.5" fill="#ffdd88"/><path d="M4 74h88v8a14 14 0 0 1-14 12h-60a14 14 0 0 1-14-12z" fill="#5a6478"/><path d="M12 80h10M32 80h10M52 80h10M72 80h10" stroke="#aab4c8" stroke-width="2.4" stroke-linecap="round"/><g><path d="M25.7 62.4l-3.4 8M38.3 62.4l3.4 8" stroke="#f2c9a4" stroke-width="2.8800000000000003" stroke-linecap="round"/><path d="M26.15 59.7h11.700000000000001v13.5h-11.700000000000001z" fill="#2b6bd8"/><path d="M28.759999999999998 73.2v9M35.24 73.2v9" stroke="#2b3a55" stroke-width="3.7800000000000002" stroke-linecap="round"/><circle cx="32" cy="53.4" r="7.2" fill="#f2c9a4"/><path d="M25.421 50.736000000000004c1.3-7 16-7 17.2 0l-2.2-1.2.5 2.1c-4.8-2.6-9.6-2.6-13-.5z" fill="#3d2b1f"/><circle cx="29.552" cy="53.859" r="0.72675" fill="#2b1d12"/><circle cx="34.448" cy="53.859" r="0.72675" fill="#2b1d12"/><path d="M30.47 56.919h3.06" stroke="#b06e4a" stroke-width="0.8415000000000001" stroke-linecap="round"/><circle cx="27.716" cy="55.695" r="0.95625" fill="#f0a08a" opacity=".7"/><circle cx="36.284" cy="55.695" r="0.95625" fill="#f0a08a" opacity=".7"/></g><path d="M58 39.6c-5.6000000000000005-3.6799999999999997-7.68-7.5200000000000005-5.44-10.240000000000002c1.6-1.92 4.32-1.2800000000000002 5.44 .8 1.1199999999999999-1.92 3.84-2.5600000000000005 5.44-.8 2.2399999999999998 2.72 .2 6.56-5.44 10.240000000000002z" fill="#ef6f6f"/><g><path d="M72.75 66l-3.4 8M83.25 66l3.4 8" stroke="#f2c9a4" stroke-width="2.4000000000000004" stroke-linecap="round"/><path d="M73.125 63.75h9.75l2.625 11.25h-15z" fill="#f26d6d"/><path d="M75 75v6.75M81 75v6.75" stroke="#f2c9a4" stroke-width="2.25" stroke-linecap="round"/><circle cx="78" cy="58.5" r="6" fill="#f2c9a4"/><path d="M72.645 57.3c0-7.4 15.4-8.2 16.8-.8 0 3-1 4.2-1 4.2l-1-3.6c-3.2 1.7-8.8 1.7-11.2-1.2l-1.8 4s-1.8-.4-1.8-2.6z" fill="#5a4632"/><circle cx="83.1" cy="54.1125" r="1.7849999999999997" fill="#5a4632"/><circle cx="75.96" cy="58.8825" r="0.605625" fill="#2b1d12"/><circle cx="80.04" cy="58.8825" r="0.605625" fill="#2b1d12"/><path d="M76.5975 61.1775a1.9124999999999999 1.9124999999999999 0 0 0 2.805 0" stroke="#b06e4a" stroke-width="0.70125" fill="none" stroke-linecap="round"/><circle cx="74.43" cy="60.4125" r="0.796875" fill="#f0a08a" opacity=".7"/><circle cx="81.57" cy="60.4125" r="0.796875" fill="#f0a08a" opacity=".7"/></g>
</svg>
