<svg xmlns="http://www.w3.org/2000/svg" width="96" height="96" viewBox="0 0 96 96">
<defs><linearGradient id="bg44" x1="0" y1="0" x2="0" y2="1"><stop offset="0" stop-color="#bfe0ff"/><stop offset="1" stop-color="#8ec3f5"/></linearGradient></defs>
<rect width="96" height="96" rx="18" fill="url(#bg44)"/><g fill="#fff" opacity=".9"><ellipse cx="24" cy="20" rx="11" ry="5"/><ellipse cx="33" cy="17" rx="8" ry="4.4"/><ellipse cx="72" cy="30" rx="9" ry="4"/></g><path d="M4 74h88v8a14 14 0 0 1-14 12h-60a14 14 0 0 1-14-12z" fill="#5a6478"/><path d="M12 80h10M32 80h10M52 80h10M72 80h10" stroke="#aab4c8" stroke-width="2.4" stroke-linecap="round"/><g><path d="M25.299999999999997 50a14.700000000000001 14.700000000000001 0 0 1 29.400000000000002 0c-2.4-2-4.8-2-7 0-2.2-2-4.8-2-7 0-2.2-2-4.6-2-7 0-2.2-2-4.6-2-7 0z" fill="#3b82f6"/><path d="M40 36.35v25.200000000000003a3.1500000000000004 3.1500000000000004 0 0 1-6.300000000000001 0" stroke="#2b3a55" stroke-width="1.8900000000000001" fill="none" stroke-linecap="round"/></g><g><circle cx="76" cy="20" r="6.8" fill="#ffd75e"/><path d="M76 8.950000000000001v3.74M76 27.31v3.74M64.95 20h3.74M83.31 20h3.74M67.925 11.925l2.55 2.55M81.525 25.525l2.55 2.55M84.075 11.925l-2.55 2.55M70.475 25.525l-2.55 2.55" stroke="#ffd75e" stroke-width="2.04" stroke-linecap="round"/></g>
</svg>
