<svg xmlns="http://www.w3.org/2000/svg" width="96" height="96" viewBox="0 0 96 96">
<defs><linearGradient id="bg46" x1="0" y1="0" x2="0" y2="1"><stop offset="0" stop-color="#fff2d8"/><stop offset="1" stop-color="#ffdda6"/></linearGradient></defs>
<rect width="96" height="96" rx="18" fill="url(#bg46)"/><g><path d="M28 38h16v6a8 8 0 0 1-16 0z" fill="#ffd75e"/><path d="M28 40c-4 0-6 5-1 7M44 40c4 0 6 5 1 7" stroke="#ffd75e" stroke-width="2" fill="none"/><rect x="34" y="50" width="4" height="4" fill="#e8b23d"/><path d="M30 56h12l1.4 3.6h-14.8z" fill="#a5772a"/><path d="M33.4 42.4l1.3 2.6 2.9 .4-2.1 2 .5 2.9-2.6-1.4-2.6 1.4 .5-2.9-2.1-2 2.9-.4z" fill="#fff" opacity=".85"/></g><path d="M64 26l1.8 3.7 4 .6-2.9 2.8 .7 4-3.6-1.9-3.6 1.9 .7-4-2.9-2.8 4-.6z" fill="#ffd75e"/><path d="M80 53.6c-5.6000000000000005-3.6799999999999997-7.68-7.5200000000000005-5.44-10.240000000000002c1.6-1.92 4.32-1.2800000000000002 5.44 .8 1.1199999999999999-1.92 3.84-2.5600000000000005 5.44-.8 2.2399999999999998 2.72 .2 6.56-5.44 10.240000000000002z" fill="#ef6f6f"/>
</svg>
