<svg xmlns="http://www.w3.org/2000/svg" width="96" height="96" viewBox="0 0 96 96">
<defs><linearGradient id="bg47" x1="0" y1="0" x2="0" y2="1"><stop offset="0" stop-color="#fff2d8"/><stop offset="1" stop-color="#ffdda6"/></linearGradient></defs>
<rect width="96" height="96" rx="18" fill="url(#bg47)"/><path d="M8 68h80v10a16 16 0 0 1-16 16h-48a16 16 0 0 1-16-16z" fill="#c99a63"/><path d="M8 68h80v3h-80z" fill="#a87e4e"/><path d="M20 78h20M56 82h22" stroke="#b3854f" stroke-width="1.6"/><g><rect x="40" y="29.4" width="3.3000000000000003" height="22" rx="1.6500000000000001" fill="#8a5f36" transform="rotate(14 40 40.4)"/><path d="M35.6 50.3l11 2.64-2.2 9.9c-4.4 1.1-8.8-1.1-11-4.4z" fill="#e8b23d"/><path d="M36.7 60.2l1.54-5.5M40.66 61.74l1.54-5.5" stroke="#c99223" stroke-width="1.32"/></g><g fill="#ffd75e"><circle cx="64" cy="32" r="1.7"/><circle cx="78" cy="42" r="1.3"/><circle cx="56" cy="46" r="1.2"/></g><g fill="#ffd75e"><circle cx="80" cy="52" r="1.19"/><circle cx="89.8" cy="59" r="0.9099999999999999"/><circle cx="74.4" cy="61.8" r="0.84"/></g>
</svg>
