<svg xmlns="http://www.w3.org/2000/svg" width="96" height="96" viewBox="0 0 96 96">
<defs><linearGradient id="bg48" x1="0" y1="0" x2="0" y2="1"><stop offset="0" stop-color="#3a2f68"/><stop offset="1" stop-color="#1c1740"/></linearGradient></defs>
<rect width="96" height="96" rx="18" fill="url(#bg48)"/><circle cx="18" cy="16" r="1.4" fill="#fff"/><circle cx="60" cy="12" r="1.1" fill="#fff"/><circle cx="84" cy="24" r="1.2" fill="#fff"/><path d="M8 64h80v14a16 16 0 0 1-16 16h-48a16 16 0 0 1-16-16z" fill="#a57847"/><path d="M8 64h80v3h-80z" fill="#8a5f36"/><g><circle cx="44" cy="52" r="9.5" fill="#f2c9a4"/><path d="M35.4 48.4c1.3-7 16-7 17.2 0l-2.2-1.2.5 2.1c-4.8-2.6-9.6-2.6-13-.5z" fill="#3d2b1f"/><circle cx="40.8" cy="52.6" r="0.95" fill="#2b1d12"/><circle cx="47.2" cy="52.6" r="0.95" fill="#2b1d12"/><path d="M41.8 57a3 3 0 0 1 4.4 0" stroke="#b06e4a" stroke-width="1.1" fill="none" stroke-linecap="round"/><circle cx="38.4" cy="55" r="1.25" fill="#f0a08a" opacity=".7"/><circle cx="49.6" cy="55" r="1.25" fill="#f0a08a" opacity=".7"/><path d="M32 69c1-6.5 5.5-9.5 12-9.5s11 3 12 9.5z" fill="#2b6bd8"/></g><g transform="rotate(-5 74 62)"><rect x="65.6" y="57.45" width="16.799999999999997" height="9.1" rx="1.1199999999999999" fill="#fdfaf2"/><path d="M74 57.45v9.1" stroke="#d8d2c2" stroke-width="0.84"/><path d="M67.7 60.25h4.199999999999999M67.7 62.35h4.199999999999999M76.1 60.25h4.199999999999999M76.1 62.35h4.199999999999999" stroke="#b9c3d6" stroke-width="0.9099999999999999" stroke-linecap="round"/></g><g><path d="M15.25 24.2a5.225 5.225 0 1 1 7.125 4.75c-2 .9-3 2-3 4" stroke="#0047ab" stroke-width="2.4699999999999998" fill="none" stroke-linecap="round"/><circle cx="19.525" cy="36.55" r="1.52" fill="#0047ab"/></g>
</svg>
